<svg xmlns="http://www.w3.org/2000/svg" xmlns:xlink="http://www.w3.org/1999/xlink" width="968.307" height="2037.451" viewBox="0 0 968.307 2037.451">
  <defs>
    <clipPath id="clip-path">
      <path id="Path_21" data-name="Path 21" d="M1371.4,9492.834a5.635,5.635,0,0,0,0,8.166,5.628,5.628,0,0,0,7.784,0,5.634,5.634,0,0,0,0-8.166,5.618,5.618,0,0,0-7.784,0m0-25.582a5.639,5.639,0,0,0,0,8.17,5.639,5.639,0,0,0,7.784,0,5.639,5.639,0,0,0,0-8.17,5.639,5.639,0,0,0-7.784,0m0-25.576a5.642,5.642,0,0,0,0,8.172,5.644,5.644,0,0,0,7.784,0,5.641,5.641,0,0,0,0-8.172,5.639,5.639,0,0,0-7.784,0" transform="translate(-1369.645 -9440.117)" fill="none"/>
    </clipPath>
    <linearGradient id="linear-gradient" x1="1530.228" y1="-80.383" x2="1530.765" y2="-80.383" gradientUnits="objectBoundingBox">
      <stop offset="0" stop-color="#d7e8ec"/>
      <stop offset="0.306" stop-color="#c2ded7"/>
      <stop offset="0.328" stop-color="#b9dad3"/>
      <stop offset="0.509" stop-color="#78beb5"/>
      <stop offset="0.672" stop-color="#44a89e"/>
      <stop offset="0.814" stop-color="#1f988d"/>
      <stop offset="0.928" stop-color="#088e83"/>
      <stop offset="1" stop-color="#008b80"/>
    </linearGradient>
    <clipPath id="clip-path-2">
      <path id="Path_22" data-name="Path 22" d="M1371.4,9417.078a5.642,5.642,0,0,0,0,8.172,5.649,5.649,0,0,0,7.784,0,5.641,5.641,0,0,0,0-8.172,5.628,5.628,0,0,0-7.784,0m0-25.58a5.639,5.639,0,0,0,0,8.17,5.639,5.639,0,0,0,7.784,0,5.639,5.639,0,0,0,0-8.17,5.634,5.634,0,0,0-7.784,0m0-25.578a5.644,5.644,0,0,0,0,8.174,5.649,5.649,0,0,0,7.784,0,5.643,5.643,0,0,0,0-8.174,5.644,5.644,0,0,0-7.784,0" transform="translate(-1369.645 -9364.363)" fill="none"/>
    </clipPath>
    <linearGradient id="linear-gradient-2" x1="1529.274" y1="-77.387" x2="1529.811" y2="-77.387" xlink:href="#linear-gradient"/>
  </defs>
  <g id="Group_32" data-name="Group 32" transform="translate(-705 -388.335)">
    <g id="Group_14" data-name="Group 14" transform="translate(462.215 -8578.315)">
      <g id="Group_13" data-name="Group 13">
        <path id="Path_54" data-name="Path 54" d="M275.424,9026.37a43.856,43.856,0,0,0,14.86,8.647,24.154,24.154,0,0,0-3.911,4.739,45.585,45.585,0,0,1-15.089-10.719v11.18h-5.659v-10.951a44.887,44.887,0,0,1-14.814,10.4,29.979,29.979,0,0,0-3.772-4.6,41.628,41.628,0,0,0,14.491-8.694h-9.293V9008.8h13.388v-2.622h-17.3v-5.107h17.3v-3.772h5.659v3.772H289v5.107H271.284v2.622h14.031v17.574Zm-17.9-10.767h8.1v-2.714h-8.1Zm0,6.672h8.1v-2.807h-8.1Zm13.756-9.386v2.714h8.464v-2.714Zm8.464,6.579h-8.464v2.807h8.464Z" fill="#009481"/>
        <path id="Path_55" data-name="Path 55" d="M306.1,9029.774c1.794,3.082,5.015,4.369,9.707,4.555,5.521.229,16.378.092,22.727-.414a24.9,24.9,0,0,0-1.7,5.336c-5.7.276-15.458.368-21.071.138-5.475-.229-9.155-1.563-11.915-5.106-1.841,1.795-3.727,3.543-6.073,5.521l-2.576-5.429a55.279,55.279,0,0,0,5.7-4.233v-10.028h-5.152V9015.1H306.1Zm-3.266-20.61a35.861,35.861,0,0,0-6.9-7.637l4.186-3.129a39.96,39.96,0,0,1,7.223,7.314Zm8.1,4.141c-.828.874-1.656,1.655-2.484,2.392a38.786,38.786,0,0,0-4-4.324,33.364,33.364,0,0,0,10.167-13.985l5.429,1.563a52.867,52.867,0,0,1-2.347,4.877h5.245a57.078,57.078,0,0,0,1.932-6.072l6.027,1.149c-.828,1.655-1.656,3.358-2.484,4.923h8.142v4.6H327.45v2.9h7.867v4.416H327.45v3.037h7.683v4.416H327.45v3.128h9.891v4.6H310.934Zm11.272-4.877h-5.981v2.9h5.981Zm0,7.314h-5.981v3.037h5.981Zm0,7.453h-5.981v3.128h5.981Z" fill="#009481"/>
        <path id="Path_56" data-name="Path 56" d="M355.324,9000.837a38.215,38.215,0,0,0-1.1,4.049,120.5,120.5,0,0,0-2.162,17.619,21.079,21.079,0,0,0,.184,2.944c.6-1.609,1.334-3.128,2.024-4.646l2.806,2.254a108.71,108.71,0,0,0-3.266,10.858,8.982,8.982,0,0,0-.23,2.116c0,.46,0,1.242.046,1.886l-5.153.368a54.966,54.966,0,0,1-1.794-14.538,135.04,135.04,0,0,1,1.886-19,34.012,34.012,0,0,0,.414-4.462ZM383.3,9035.2a46.3,46.3,0,0,0-5.52-4.555c-.276,4.323-2.761,7.451-8.925,7.451-6.257,0-10.213-2.668-10.213-7.451,0-4.646,3.91-7.821,10.121-7.821a20.368,20.368,0,0,1,2.99.185c-.138-2.807-.276-6.12-.322-9.34-1.1.047-2.208.047-3.266.047-2.669,0-5.245-.093-7.959-.276v-5.43a75.18,75.18,0,0,0,7.959.415c1.058,0,2.162,0,3.22-.046-.046-2.255-.046-4.095-.092-5.061a25.769,25.769,0,0,0-.276-2.99h6.533a29.052,29.052,0,0,0-.276,2.944c-.046,1.012-.138,2.714-.138,4.737,2.484-.275,4.876-.6,7.038-1.058v5.659c-2.208.321-4.6.6-7.084.782.092,4.415.322,8.051.506,11.133a28.951,28.951,0,0,1,8.787,5.889Zm-11.317-7.407a14.148,14.148,0,0,0-3.68-.506c-2.577,0-4.325,1.057-4.325,2.76,0,1.84,1.84,2.669,4.233,2.669,2.806,0,3.772-1.473,3.772-4.141Z" fill="#009481"/>
        <path id="Path_57" data-name="Path 57" d="M506.158,9034.375a6.012,6.012,0,0,0,.6-2.99v-24.936a28.431,28.431,0,0,0-.506-5.2h7.223a32.473,32.473,0,0,0-.461,5.2v23.877c7.5-2.116,17.758-8,23.647-15.183l3.266,5.2c-6.3,7.545-15.871,13.02-26.682,16.563a12.937,12.937,0,0,0-2.761,1.242Z" fill="#009481"/>
        <path id="Path_58" data-name="Path 58" d="M550.915,9019.653c2.116-2.116,5.705-6.625,8.833-10.4,2.76-3.267,5.245-3.589,9.017-.414a119.57,119.57,0,0,1,9.385,9.338c3.083,3.359,8.005,8.6,11.317,12.422l-4.922,5.337c-2.945-3.772-7.131-8.88-9.845-12.053a100.432,100.432,0,0,0-8.465-9.109c-1.61-1.38-2.392-1.38-3.727.276-1.794,2.3-5.106,6.854-6.992,9.384-1.059,1.427-2.163,3.082-2.945,4.279l-5.428-5.566C548.523,9022,549.535,9021.033,550.915,9019.653Zm31.514-7.959-4.141,1.794a43.379,43.379,0,0,0-4.186-7.5l4-1.656A73.368,73.368,0,0,1,582.429,9011.694Zm6.3-2.716-4,1.934a48.032,48.032,0,0,0-4.417-7.315l3.957-1.794A67,67,0,0,1,588.731,9008.979Z" fill="#009481"/>
        <path id="Path_59" data-name="Path 59" d="M595.627,9034.513a21.7,21.7,0,0,0,7.821-11c1.288-3.957,1.334-12.65,1.334-18.217a16.788,16.788,0,0,0-.414-4.187h6.763a29.336,29.336,0,0,0-.322,4.14c0,5.428-.138,15.135-1.381,19.782a26.64,26.64,0,0,1-8.189,13.2Zm21.3.69a17.515,17.515,0,0,0,.368-3.405v-26.821a20.435,20.435,0,0,0-.368-3.957h6.855a23.416,23.416,0,0,0-.322,4v24.061a29.139,29.139,0,0,0,11.363-9.707l3.543,5.06c-3.819,4.97-10.443,9.938-15.6,12.561a11.723,11.723,0,0,0-2.024,1.38Z" fill="#009481"/>
      </g>
    </g>
    <g id="Group_16" data-name="Group 16" transform="translate(462.215 -8578.315)">
      <g id="Group_15" data-name="Group 15">
        <path id="Path_60" data-name="Path 60" d="M271.606,9095.17v24.089H267.8v-1.47h-14.25v1.5h-3.63V9095.17h7.68a33.942,33.942,0,0,0,.81-3.93l4.32.479c-.45,1.2-.93,2.37-1.41,3.45Zm-18.06,3.42v3.09H267.8v-3.09Zm0,6.389v3.091H267.8v-3.091Zm14.25,9.511v-3.12h-14.25v3.12Z" fill="#009481"/>
        <path id="Path_61" data-name="Path 61" d="M296.911,9091.63a34.536,34.536,0,0,0,8.909,10.679,17.129,17.129,0,0,0-3.029,3.21c-.63-.569-1.26-1.229-1.92-1.92v.21c-.33,9.061-.69,12.6-1.74,13.86a3.622,3.622,0,0,1-2.73,1.41,30.416,30.416,0,0,1-4.53.09,8.616,8.616,0,0,0-1.17-3.6c1.65.12,3.21.149,3.96.149a1.39,1.39,0,0,0,1.2-.42c.6-.63.93-3.3,1.2-9.57h-5.91c-.75,5.761-2.7,10.891-10.469,13.8a11.957,11.957,0,0,0-2.37-3.3c6.779-2.189,8.339-6.119,8.939-10.5h-5.07v-2.1a22.529,22.529,0,0,1-2.4,2.159,21.407,21.407,0,0,0-3.059-2.88,24.873,24.873,0,0,0,8.849-11.219l3.84,1.109a35.982,35.982,0,0,1-5.94,9.45h16.2a50.991,50.991,0,0,1-6.27-9.21Z" fill="#009481"/>
        <path id="Path_62" data-name="Path 62" d="M316.1,9093.82a24.943,24.943,0,0,0-.72,2.64,73.45,73.45,0,0,0-1.44,10.889,14.328,14.328,0,0,0,.12,1.92c.42-1.049.9-2.04,1.32-3l1.86,1.44a71.655,71.655,0,0,0-2.13,7.29,8.728,8.728,0,0,0-.18,1.38c.03.33.03.81.06,1.23l-3.42.238a37.9,37.9,0,0,1-1.17-9.719,82.349,82.349,0,0,1,1.23-11.759,22.217,22.217,0,0,0,.3-2.91Zm6.96,14.669a9.773,9.773,0,0,0-.36,2.489c0,1.32,1.14,2.1,4.14,2.1a34.222,34.222,0,0,0,7.439-.78l.09,4.021a41.335,41.335,0,0,1-7.679.6c-5.13,0-7.56-1.861-7.56-4.89a18.306,18.306,0,0,1,.51-3.87Zm10.38-12.721v3.841a82.206,82.206,0,0,1-12.75,0l-.03-3.841A60.4,60.4,0,0,0,333.442,9095.769Z" fill="#009481"/>
        <path id="Path_63" data-name="Path 63" d="M358.831,9094.33a24.645,24.645,0,0,0,6.389,12.3l-2.759,2.939a35.546,35.546,0,0,1-2.7-3.99c.3,6.84-2.97,13.35-10.71,13.35-4.95,0-8.34-3.18-8.34-8.279a18.941,18.941,0,0,1,4.68-11.671c-1.14.151-2.79.421-3.84.631-.57.119-1.05.21-1.74.391l-.54-3.87c.54,0,1.141-.031,1.71-.09a53.7,53.7,0,0,0,10.05-1.74l1.11,3.33a7.791,7.791,0,0,0-1.47.66c-2.04,1.59-6.15,6.84-6.15,11.819a4.4,4.4,0,0,0,4.71,4.8c5.76,0,9.03-6.87,6.63-17.729-.21-.57-.42-1.14-.63-1.74Zm8.009.688a3.48,3.48,0,1,1-3.479-3.448A3.483,3.483,0,0,1,366.84,9095.019Zm-1.83,0a1.638,1.638,0,0,0-1.649-1.618,1.635,1.635,0,0,0,0,3.27A1.645,1.645,0,0,0,365.01,9095.019Z" fill="#009481"/>
        <path id="Path_64" data-name="Path 64" d="M374.029,9103.18c2.01-.6,7.05-2.31,10.65-2.31,4.68,0,7.829,2.789,7.829,7.289,0,5.37-4.709,9.06-14.159,9.63l-1.56-3.691c6.75-.179,11.79-1.948,11.79-6,0-2.219-1.68-3.779-4.26-3.779-3.45,0-9.36,2.46-11.91,3.54l-1.529-3.9A25.878,25.878,0,0,0,374.029,9103.18Z" fill="#009481"/>
        <path id="Path_65" data-name="Path 65" d="M413.275,9099.55c-1.77.39-3.78.719-5.76.96-.27,1.29-.57,2.609-.9,3.81a95.73,95.73,0,0,1-4.71,13.738l-4.17-1.379c1.77-2.97,4.02-9.209,5.13-13.379.21-.781.42-1.62.63-2.46-.69.03-1.35.06-1.95.06-1.44,0-2.55-.06-3.6-.12l-.09-3.721a28.972,28.972,0,0,0,3.75.241c.87,0,1.74-.031,2.64-.09.12-.66.21-1.231.27-1.71a15.427,15.427,0,0,0,.12-3l4.53.36c-.21.81-.48,2.13-.63,2.789l-.24,1.141c1.68-.271,3.36-.6,4.98-.99Zm-.6,9.749a10.278,10.278,0,0,0-.42,2.49c0,1.29.75,2.25,3.93,2.25a34.463,34.463,0,0,0,6.179-.6l-.15,3.81a47.531,47.531,0,0,1-6.059.42c-5.01,0-7.56-1.74-7.56-4.74a20.372,20.372,0,0,1,.51-3.959Zm-1.74-7.47c1.65-.149,3.78-.3,5.7-.3a51.37,51.37,0,0,1,5.219.271l-.09,3.569a42.968,42.968,0,0,0-5.1-.359,43.44,43.44,0,0,0-5.73.33Z" fill="#009481"/>
        <path id="Path_66" data-name="Path 66" d="M434.239,9092.71a48.5,48.5,0,0,0-1.2,6.149c1.41-2.279,3.99-4.8,7.35-4.8,4.14,0,7.349,4.051,7.349,10.591,0,8.4-5.159,12.42-13.019,13.859l-2.25-3.451c6.6-1.019,11.22-3.179,11.22-10.378,0-4.59-1.53-7.14-3.99-7.14-3.51,0-6.57,5.279-6.72,9.18a17.836,17.836,0,0,0,.15,3.149l-3.69.24a38.438,38.438,0,0,1-.36-4.95,72.053,72.053,0,0,1,.84-9.51c.15-1.079.21-2.279.24-3.119Z" fill="#009481"/>
        <path id="Path_67" data-name="Path 67" d="M466.5,9114.429c1.14-.149,1.98-.3,2.76-.479,3.81-.9,6.749-3.63,6.749-7.95,0-4.11-2.219-7.169-6.209-7.86a64.509,64.509,0,0,1-1.77,8.07c-1.77,6-4.35,9.66-7.59,9.66-3.27,0-6.06-3.63-6.06-8.641,0-6.84,5.97-12.719,13.68-12.719,7.35,0,12,5.129,12,11.609,0,6.24-3.839,10.68-11.339,11.819Zm-2.31-9a47.69,47.69,0,0,0,1.59-7.2,9.317,9.317,0,0,0-7.53,8.611c0,3,1.2,4.469,2.31,4.469C461.791,9111.309,462.991,9109.449,464.191,9105.43Z" fill="#009481"/>
        <path id="Path_68" data-name="Path 68" d="M486.913,9115.509a3.918,3.918,0,0,0,.39-1.95V9097.3a18.535,18.535,0,0,0-.33-3.39h4.71a21.243,21.243,0,0,0-.3,3.39v15.569c4.89-1.38,11.58-5.22,15.42-9.9l2.13,3.39c-4.11,4.92-10.35,8.488-17.4,10.8a8.321,8.321,0,0,0-1.8.81Z" fill="#009481"/>
        <path id="Path_69" data-name="Path 69" d="M515.368,9105.909c1.38-1.38,3.72-4.319,5.76-6.779,1.8-2.13,3.42-2.34,5.88-.271a78.105,78.105,0,0,1,6.12,6.09c2.01,2.189,5.219,5.609,7.379,8.1l-3.209,3.48c-1.92-2.46-4.65-5.79-6.42-7.86a65.661,65.661,0,0,0-5.52-5.94c-1.05-.9-1.56-.9-2.43.181-1.17,1.5-3.33,4.47-4.56,6.12-.69.93-1.41,2.01-1.92,2.79l-3.54-3.63C513.809,9107.439,514.468,9106.809,515.368,9105.909Zm20.55-5.189-2.7,1.169a28.26,28.26,0,0,0-2.73-4.889l2.61-1.08A48.056,48.056,0,0,1,535.918,9100.72Zm4.109-1.77-2.61,1.26a31.363,31.363,0,0,0-2.879-4.771l2.58-1.171A43.8,43.8,0,0,1,540.027,9098.95Z" fill="#009481"/>
        <path id="Path_70" data-name="Path 70" d="M543.794,9115.6a14.144,14.144,0,0,0,5.1-7.168c.84-2.581.87-8.25.87-11.88a10.938,10.938,0,0,0-.27-2.729h4.41a19.1,19.1,0,0,0-.21,2.7c0,3.54-.09,9.87-.9,12.9a17.386,17.386,0,0,1-5.339,8.61Zm13.889.451a11.429,11.429,0,0,0,.24-2.22V9096.34a13.29,13.29,0,0,0-.24-2.58h4.47a15.2,15.2,0,0,0-.21,2.61v15.688a19,19,0,0,0,7.41-6.33l2.31,3.3a33.04,33.04,0,0,1-10.17,8.189,7.663,7.663,0,0,0-1.32.9Z" fill="#009481"/>
        <path id="Path_71" data-name="Path 71" d="M586.045,9093.1c-.18.781-.39,1.71-.54,2.46-.15.9-.39,1.981-.6,3.062.99-.062,1.89-.12,2.49-.12,3.15,0,5.37,1.409,5.37,5.67,0,3.51-.42,8.249-1.68,10.829-.99,2.07-2.64,2.729-4.89,2.729a16.507,16.507,0,0,1-3.54-.42l-.66-3.929a17.09,17.09,0,0,0,3.63.63,2.16,2.16,0,0,0,2.22-1.29c.84-1.649,1.23-5.189,1.23-8.129,0-2.37-1.02-2.7-2.91-2.7-.48,0-1.2.061-2.04.121-1.14,4.5-3.3,11.489-6.03,15.869l-3.9-1.56c2.91-3.9,4.92-9.841,6-13.89-1.05.12-1.98.24-2.55.33-.84.089-2.37.3-3.3.45l-.33-4.021a27.557,27.557,0,0,0,3.15,0c.93-.029,2.34-.12,3.84-.239a32.9,32.9,0,0,0,.63-6.3Zm10.259,2.79a53.568,53.568,0,0,1,5.19,11.041l-3.75,1.77c-.779-3.3-2.909-8.67-5.039-11.311Z" fill="#009481"/>
        <path id="Path_72" data-name="Path 72" d="M611.254,9105.55a14.561,14.561,0,0,1,8.73-2.821c5.22,0,8.25,3.211,8.25,6.811,0,5.43-4.29,9.6-16.65,8.519l-1.14-3.9c8.91,1.26,13.62-.931,13.62-4.71,0-1.92-1.83-3.33-4.44-3.33a10.415,10.415,0,0,0-8.19,3.479,6.449,6.449,0,0,0-1.11,1.74l-3.45-.869a108.25,108.25,0,0,0,1.47-12.39l4.02.54C611.974,9100.269,611.464,9103.84,611.254,9105.55Zm.93-12.9a94.342,94.342,0,0,0,11.88,2.31l-.9,3.66c-3-.392-9.63-1.771-11.94-2.37Z" fill="#009481"/>
        <path id="Path_73" data-name="Path 73" d="M251.146,9150.25a20.57,20.57,0,0,1-1.77,1.559,33.143,33.143,0,0,0-2.91-2.339,18.45,18.45,0,0,0,6.21-7.17l3.48,1.021a16.255,16.255,0,0,1-1.17,2.1h18v3.149h-2.82v3.84h3.9v3.181h-3.9v3.81h3.479v3.18H247.577v-3.18h3.569v-3.81h-4.019v-3.181h4.019Zm-4.319,18.719a14.788,14.788,0,0,0,3.359-5.76l3.45.84a16.4,16.4,0,0,1-3.42,6.3Zm7.469-16.56h2.16v-3.84H254.3Zm0,6.99h2.16v-3.81H254.3Zm4.59,4.47a38.858,38.858,0,0,1,.72,5.608l-3.48.512a38.083,38.083,0,0,0-.57-5.73Zm2.76-11.46v-3.84h-2.22v3.84Zm-2.22,3.181v3.81h2.22v-3.81Zm5.43,8.159a33.429,33.429,0,0,1,1.74,5.58l-3.57.688a31.988,31.988,0,0,0-1.53-5.7Zm2.04-15.18h-2.28v3.84h2.28Zm0,7.021h-2.28v3.81h2.28Zm3.96,7.5a40.8,40.8,0,0,1,3.779,6l-3.66,1.23a38.47,38.47,0,0,0-3.539-6.15Z" fill="#009481"/>
        <path id="Path_74" data-name="Path 74" d="M288.622,9164.319c-3.3,1.17-6.9,2.31-9.78,3.238l-.809-3.629c1.049-.27,2.279-.6,3.66-.989v-7.051h-3.03v-3.27h3.03v-5.279h-3.3v-3.33h9.9v3.33h-3.21v5.279h2.7v3.27h-2.7v6c.99-.3,1.98-.6,2.94-.93Zm17.819,1.83v3.238H287.152v-3.238h8.28V9163.3h-6.21v-3.21h6.21v-2.579h-6v-13.951h15.659v13.951h-6.029v2.579h6.36v3.21h-6.36v2.851Zm-13.8-17.069h3.09v-2.49h-3.09Zm0,5.4h3.09V9151.9h-3.09Zm9.06-7.889h-2.97v2.49h2.97Zm0,5.31h-2.97v2.579h2.97Z" fill="#009481"/>
        <path id="Path_75" data-name="Path 75" d="M325.456,9150.22a43.38,43.38,0,0,1-5.16,1.02,54.833,54.833,0,0,1-6.36,12.72l-3.63-1.83a45.307,45.307,0,0,0,6.06-10.5c-.51.029-1.02.029-1.53.029-1.23,0-2.43-.029-3.72-.09l-.27-3.479a37.657,37.657,0,0,0,3.96.21c.87,0,1.77-.031,2.67-.09a25.311,25.311,0,0,0,.81-4.981l4.11.422c-.24.96-.6,2.46-1.02,4.05a31.183,31.183,0,0,0,3.99-.932Zm3.9,2.669c-.09,1.261-.03,2.491,0,3.811.03.84.09,2.279.18,3.75a19.792,19.792,0,0,1,6.149,3.81l-1.98,3.181a26.391,26.391,0,0,0-4.019-3.15v.27c0,2.761-1.5,4.919-5.73,4.919-3.69,0-6.6-1.648-6.6-4.919,0-2.909,2.43-5.159,6.57-5.159.69,0,1.38.06,2.01.119-.09-2.219-.24-4.829-.33-6.63Zm-3.27,9.84a10.532,10.532,0,0,0-2.4-.3c-1.71,0-2.82.721-2.82,1.771,0,1.109.93,1.858,2.55,1.858,2.01,0,2.67-1.17,2.67-2.759Zm8.369-8.25a39.534,39.534,0,0,0-7.139-4.229l1.92-2.941a53.61,53.61,0,0,1,7.319,4.021Z" fill="#009481"/>
        <path id="Path_76" data-name="Path 76" d="M358.306,9146.17c-.93.689-1.92,1.469-2.61,2.01-1.92,1.56-5.85,4.589-7.83,6.3-1.59,1.351-1.56,1.681.06,3.061,2.22,1.891,7.95,6.42,10.89,9.269l-3.45,3.182c-.84-.932-1.77-1.86-2.61-2.761-1.62-1.71-6.15-5.579-8.88-7.89-2.94-2.49-2.7-4.14.27-6.6,2.31-1.891,6.39-5.189,8.4-7.169a20.674,20.674,0,0,0,2.28-2.49Z" fill="#009481"/>
        <path id="Path_77" data-name="Path 77" d="M389.059,9147.37a14.237,14.237,0,0,0-1.051,1.858,44.048,44.048,0,0,1-4.709,8.25,84.617,84.617,0,0,1,8.369,8.579l-3.42,2.972a68.348,68.348,0,0,0-7.559-8.49,39.531,39.531,0,0,1-11.28,8.43l-3.09-3.24a33.983,33.983,0,0,0,12.3-8.609,23.237,23.237,0,0,0,4.47-7.351h-10.17c-1.26,0-2.91.182-3.54.21v-4.259a33.486,33.486,0,0,0,3.54.21h10.56a10.84,10.84,0,0,0,3.12-.39Z" fill="#009481"/>
        <path id="Path_78" data-name="Path 78" d="M420.279,9148.569a14.126,14.126,0,0,0-.99,2.13,34.511,34.511,0,0,1-4.139,8.22c1.109.69,2.129,1.38,2.879,1.92l-2.73,3.509a35.045,35.045,0,0,0-2.789-2.129,28.624,28.624,0,0,1-11.07,7.47l-3.48-3.029a25.372,25.372,0,0,0,11.19-6.72c-2.04-1.32-4.08-2.551-5.61-3.421l2.55-2.849c1.59.809,3.63,1.949,5.64,3.149a21.863,21.863,0,0,0,3.12-6.39h-8.61a35.307,35.307,0,0,1-7.92,7.739l-3.24-2.489a27.46,27.46,0,0,0,9.57-9.96,13.266,13.266,0,0,0,1.35-3.149l4.35,1.35c-.72,1.05-1.5,2.429-1.86,3.059l-.03.031h6.15a9.562,9.562,0,0,0,2.609-.33Z" fill="#009481"/>
        <path id="Path_79" data-name="Path 79" d="M425.362,9153.819c1.08.09,3.27.181,4.83.181H446.3c1.38,0,2.73-.12,3.51-.181v4.71c-.72-.03-2.25-.15-3.51-.15H430.192c-1.71,0-3.72.061-4.83.15Z" fill="#009481"/>
        <path id="Path_80" data-name="Path 80" d="M474.568,9160.809a86.679,86.679,0,0,0-10.83-4.469v8.489c0,.87.15,2.97.27,4.17h-4.68a32.1,32.1,0,0,0,.3-4.17v-17.22a20.956,20.956,0,0,0-.3-3.631h4.68a32.662,32.662,0,0,0-.27,3.631v4.409a98.1,98.1,0,0,1,12.539,4.65Z" fill="#009481"/>
        <path id="Path_81" data-name="Path 81" d="M482.6,9147.04c2.489-.21,7.409-.66,12.839-1.141,3.06-.239,6.3-.421,8.4-.511l.03,3.84a30.651,30.651,0,0,0-5.73.392,9.018,9.018,0,0,0-6.27,8.31c0,4.89,4.56,6.659,9.6,6.9l-1.38,4.109c-6.24-.39-12.12-3.749-12.12-10.2a11.779,11.779,0,0,1,4.38-9.149c-2.58.27-8.82.929-12.27,1.679l-.389-4.079C480.89,9147.16,482.029,9147.1,482.6,9147.04Zm19.5,9.149-2.28,1.02a23.077,23.077,0,0,0-2.34-4.169l2.22-.931A39.307,39.307,0,0,1,502.1,9156.189Zm3.48-1.47-2.25,1.08a26.35,26.35,0,0,0-2.46-4.05l2.19-1.021A45.021,45.021,0,0,1,505.579,9154.72Z" fill="#009481"/>
        <path id="Path_82" data-name="Path 82" d="M533.145,9154.029a34.546,34.546,0,0,1-4.589,1.2c.75,1.591,1.59,3.33,2.46,4.951l-1.77,2.249c-1.65-.3-4.5-.749-6.48-.989l.33-2.851c1.17.15,2.34.24,3.15.33l-1.35-3.09a74.634,74.634,0,0,1-13.05.181l-.15-3.42a60.274,60.274,0,0,0,11.85.06l-.51-1.171-.72-1.679a58.848,58.848,0,0,1-10.23-.12l-.18-3.39a56.188,56.188,0,0,0,9,.33v-.03a26.523,26.523,0,0,0-1.44-2.55l4.23-.812a25.4,25.4,0,0,0,.93,2.972,36.045,36.045,0,0,0,5.7-1.38l.63,3.329a43.043,43.043,0,0,1-5.1,1.2l.57,1.29.69,1.5a31.717,31.717,0,0,0,5.309-1.469Zm-16.649,5.58a8.792,8.792,0,0,0-.72,2.88c0,1.858,1.32,3.12,5.19,3.12a43.229,43.229,0,0,0,7.86-.66l-.12,3.81a52.534,52.534,0,0,1-7.65.57c-5.55,0-8.97-1.89-8.97-6a15.414,15.414,0,0,1,.72-4.05Z" fill="#009481"/>
        <path id="Path_83" data-name="Path 83" d="M558.654,9147.13q-1.08.675-2.069,1.349c-1.59,1.111-4.71,3.75-6.57,5.25a10.042,10.042,0,0,1,2.79-.329c5.04,0,8.879,3.15,8.879,7.47,0,4.68-3.569,8.4-10.739,8.4-4.14,0-7.26-1.889-7.26-4.858,0-2.4,2.19-4.62,5.34-4.62a5.981,5.981,0,0,1,6.33,5.07,4.332,4.332,0,0,0,2.43-4.051c0-2.67-2.7-4.469-6.15-4.469-4.56,0-7.53,2.429-10.71,6.029l-2.7-2.79c2.1-1.71,5.67-4.739,7.44-6.18,1.65-1.381,4.74-3.87,6.21-5.159-1.53.028-5.61.21-7.17.329a19.64,19.64,0,0,0-2.43.239l-.12-3.869a26.9,26.9,0,0,0,2.7.15c1.56,0,7.92-.15,9.6-.3a14.336,14.336,0,0,0,2.28-.3Zm-6.719,18.689c-.18-1.92-1.29-3.181-2.91-3.181-1.11,0-1.83.66-1.83,1.41,0,1.11,1.26,1.86,3,1.86A15.768,15.768,0,0,0,551.935,9165.819Z" fill="#009481"/>
        <path id="Path_84" data-name="Path 84" d="M571.933,9165.039a3.124,3.124,0,0,1,6.24,0,3.126,3.126,0,0,1-6.24,0Zm.51-15.3-.12-4.471h5.49l-.15,4.471-1.05,10.26h-3.09Z" fill="#009481"/>
      </g>
    </g>
    <path id="Path_85" data-name="Path 85" d="M409.338,8988.581h-.216l-10.873,5.976-1.8-4.607,13.753-7.632h5.185v55.3h-6.049Z" transform="translate(462.215 -8578.315)" fill="#009481"/>
    <path id="Path_86" data-name="Path 86" d="M458.572,8982.029c10.225,0,16.057,6.84,16.057,14.977,0,11.3-8.425,18.65-21.242,30.243l-5.184,4.464v.145h27.938v5.112h-37.3v-3.889l6.193-5.4c15.193-13.608,23.186-20.593,23.186-29.954,0-5.9-4.105-10.44-10.657-10.44-5.185,0-9.505,2.593-13.393,6.841l-3.025-4.248c4.321-4.9,9.289-7.849,17.426-7.849" transform="translate(462.215 -8578.315)" fill="#009481"/>
    <path id="Path_87" data-name="Path 87" d="M242.785,9066.573h427.45l37.794-37.794" transform="translate(462.215 -8578.315)" fill="none" stroke="#009481" stroke-miterlimit="10" stroke-width="4"/>
    <rect id="Rectangle_3" data-name="Rectangle 3" width="8.932" height="43.701" transform="translate(1657.525 484.507)" fill="#9f6923"/>
    <path id="Path_88" data-name="Path 88" d="M1204.243,8966.65v96.172H1062.231V8966.65" transform="translate(462.215 -8578.315)" fill="#d44b4a"/>
    <g id="Group_18" data-name="Group 18" transform="translate(462.215 -8578.315)">
      <g id="Group_17" data-name="Group 17">
        <path id="Path_89" data-name="Path 89" d="M1107.948,8999.081a39.183,39.183,0,0,0,16.693,13.416,22.635,22.635,0,0,0-3,4.174,46.934,46.934,0,0,1-5.967-3.705v2.69h-19.423v-2.729a54.562,54.562,0,0,1-6.045,3.822,18.875,18.875,0,0,0-2.926-3.783c6.709-3.238,12.949-9.127,15.874-13.885Zm-14.274,20.436H1118.4v15.992h-4.759v-1.443h-15.4v1.443h-4.563Zm20.085-7.956a42.688,42.688,0,0,1-7.995-7.917,39.82,39.82,0,0,1-7.761,7.917Zm-15.522,12.053v6.356h15.4v-6.356Z" fill="#fff"/>
        <path id="Path_90" data-name="Path 90" d="M1173.547,9004.346a28.9,28.9,0,0,1-5.929,10.375,25.868,25.868,0,0,0,8.815,4.329,18.094,18.094,0,0,0-2.808,3.861l-.7-.273v12.714h-4.486V9034.1h-8.151v1.366h-4.329v-12.48a21.093,21.093,0,0,1-1.989.817,18.75,18.75,0,0,0-1.989-3.081l-.351.508a42.7,42.7,0,0,0-2.145-3.783v17.979h-4.369v-14.781a31.145,31.145,0,0,1-3.9,7.994,23.824,23.824,0,0,0-2.145-4.212c2.379-3.081,4.6-8.462,5.694-13.1h-4.758v-4.29h5.109v-8h4.369v8h4.368v2.105a28.685,28.685,0,0,0,6.591-10.14l4.407,1.209q-.585,1.46-1.287,2.925h6.279l.819-.155ZM1152.8,9019.6a29.926,29.926,0,0,0,8.619-4.915,36.864,36.864,0,0,1-2.925-3.821,26.573,26.573,0,0,1-2.886,3,33.224,33.224,0,0,0-2.808-2.535h-3.315v.936c1.053,1.131,3.978,4.6,4.641,5.5Zm16.419,1.326a29.112,29.112,0,0,1-4.68-3.2,30.254,30.254,0,0,1-4.485,3.2Zm-.78,9.2v-5.3h-8.151v5.3Zm-7.137-23.05-.273.39a24.2,24.2,0,0,0,3.354,4.368,23.654,23.654,0,0,0,3.315-4.758Z" fill="#fff"/>
      </g>
    </g>
    <g id="Group_29" data-name="Group 29" transform="translate(462.215 -8578.315)">
      <g id="Group_19" data-name="Group 19">
        <rect id="Rectangle_4" data-name="Rectangle 4" width="79.667" height="28" transform="translate(248.243 9414.523)" fill="#68bcb1"/>
        <rect id="Rectangle_5" data-name="Rectangle 5" width="79.667" height="28" transform="translate(327.909 9414.523)" fill="#68bcb1"/>
        <rect id="Rectangle_6" data-name="Rectangle 6" width="79.667" height="28" transform="translate(407.576 9414.523)" fill="#68bcb1"/>
        <rect id="Rectangle_7" data-name="Rectangle 7" width="79.667" height="28" transform="translate(487.243 9414.523)" fill="#68bcb1"/>
        <rect id="Rectangle_8" data-name="Rectangle 8" width="79.667" height="28" transform="translate(566.909 9414.523)" fill="#25a491"/>
        <rect id="Rectangle_9" data-name="Rectangle 9" width="79.667" height="28" transform="translate(646.576 9414.523)" fill="#25a491"/>
        <rect id="Rectangle_10" data-name="Rectangle 10" width="79.667" height="28" transform="translate(726.243 9414.523)" fill="#25a491"/>
        <rect id="Rectangle_11" data-name="Rectangle 11" width="79.667" height="28" transform="translate(805.909 9414.523)" fill="#25a491"/>
        <rect id="Rectangle_12" data-name="Rectangle 12" width="79.667" height="28" transform="translate(885.576 9414.523)" fill="#08857b"/>
        <rect id="Rectangle_13" data-name="Rectangle 13" width="79.667" height="28" transform="translate(965.243 9414.523)" fill="#08857b"/>
        <rect id="Rectangle_14" data-name="Rectangle 14" width="79.667" height="28" transform="translate(1044.909 9414.523)" fill="#08857b"/>
        <rect id="Rectangle_15" data-name="Rectangle 15" width="79.667" height="28" transform="translate(1124.576 9414.523)" fill="#08857b"/>
        <rect id="Rectangle_16" data-name="Rectangle 16" width="79.667" height="28" transform="translate(327.909 9386.523)" fill="#68bcb1"/>
        <rect id="Rectangle_17" data-name="Rectangle 17" width="79.667" height="28" transform="translate(407.576 9386.523)" fill="#68bcb1"/>
        <rect id="Rectangle_18" data-name="Rectangle 18" width="79.667" height="28" transform="translate(487.243 9386.523)" fill="#68bcb1"/>
        <rect id="Rectangle_19" data-name="Rectangle 19" width="79.667" height="28" transform="translate(566.909 9386.523)" fill="#25a491"/>
        <rect id="Rectangle_20" data-name="Rectangle 20" width="79.667" height="28" transform="translate(646.576 9386.523)" fill="#25a491"/>
        <rect id="Rectangle_21" data-name="Rectangle 21" width="79.667" height="28" transform="translate(726.243 9386.523)" fill="#25a491"/>
        <rect id="Rectangle_22" data-name="Rectangle 22" width="79.667" height="28" transform="translate(805.909 9386.523)" fill="#25a491"/>
        <rect id="Rectangle_23" data-name="Rectangle 23" width="79.667" height="28" transform="translate(885.576 9386.523)" fill="#08857b"/>
        <rect id="Rectangle_24" data-name="Rectangle 24" width="79.667" height="28" transform="translate(965.243 9386.523)" fill="#08857b"/>
        <rect id="Rectangle_25" data-name="Rectangle 25" width="79.667" height="28" transform="translate(1044.909 9386.523)" fill="#08857b"/>
        <rect id="Rectangle_26" data-name="Rectangle 26" width="79.667" height="28" transform="translate(1124.576 9386.523)" fill="#08857b"/>
        <rect id="Rectangle_27" data-name="Rectangle 27" width="79.667" height="28" transform="translate(407.576 9358.523)" fill="#68bcb1"/>
        <rect id="Rectangle_28" data-name="Rectangle 28" width="79.667" height="28" transform="translate(487.243 9358.523)" fill="#68bcb1"/>
        <rect id="Rectangle_29" data-name="Rectangle 29" width="79.667" height="28" transform="translate(566.909 9358.523)" fill="#25a491"/>
        <rect id="Rectangle_30" data-name="Rectangle 30" width="79.667" height="28" transform="translate(646.576 9358.523)" fill="#25a491"/>
        <rect id="Rectangle_31" data-name="Rectangle 31" width="79.667" height="28" transform="translate(726.243 9358.523)" fill="#25a491"/>
        <rect id="Rectangle_32" data-name="Rectangle 32" width="79.667" height="28" transform="translate(805.909 9358.523)" fill="#25a491"/>
        <rect id="Rectangle_33" data-name="Rectangle 33" width="79.667" height="28" transform="translate(885.576 9358.523)" fill="#08857b"/>
        <rect id="Rectangle_34" data-name="Rectangle 34" width="79.667" height="28" transform="translate(965.243 9358.523)" fill="#08857b"/>
        <rect id="Rectangle_35" data-name="Rectangle 35" width="79.667" height="28" transform="translate(1044.909 9358.523)" fill="#08857b"/>
        <rect id="Rectangle_36" data-name="Rectangle 36" width="79.667" height="28" transform="translate(1124.576 9358.523)" fill="#08857b"/>
        <rect id="Rectangle_37" data-name="Rectangle 37" width="79.667" height="28" transform="translate(487.243 9330.523)" fill="#68bcb1"/>
        <rect id="Rectangle_38" data-name="Rectangle 38" width="79.667" height="28" transform="translate(566.909 9330.523)" fill="#25a491"/>
        <rect id="Rectangle_39" data-name="Rectangle 39" width="79.667" height="28" transform="translate(646.576 9330.523)" fill="#25a491"/>
        <rect id="Rectangle_40" data-name="Rectangle 40" width="79.667" height="28" transform="translate(726.243 9330.523)" fill="#25a491"/>
        <rect id="Rectangle_41" data-name="Rectangle 41" width="79.667" height="28" transform="translate(805.909 9330.523)" fill="#25a491"/>
        <rect id="Rectangle_42" data-name="Rectangle 42" width="79.667" height="28" transform="translate(885.576 9330.523)" fill="#08857b"/>
        <rect id="Rectangle_43" data-name="Rectangle 43" width="79.667" height="28" transform="translate(965.243 9330.523)" fill="#08857b"/>
        <rect id="Rectangle_44" data-name="Rectangle 44" width="79.667" height="28" transform="translate(1044.909 9330.523)" fill="#08857b"/>
        <rect id="Rectangle_45" data-name="Rectangle 45" width="79.667" height="28" transform="translate(1124.576 9330.523)" fill="#08857b"/>
        <rect id="Rectangle_46" data-name="Rectangle 46" width="79.667" height="28" transform="translate(566.909 9302.523)" fill="#25a491"/>
        <rect id="Rectangle_47" data-name="Rectangle 47" width="79.667" height="28" transform="translate(646.576 9302.523)" fill="#25a491"/>
        <rect id="Rectangle_48" data-name="Rectangle 48" width="79.667" height="28" transform="translate(726.243 9302.523)" fill="#25a491"/>
        <rect id="Rectangle_49" data-name="Rectangle 49" width="79.667" height="28" transform="translate(805.909 9302.523)" fill="#25a491"/>
        <rect id="Rectangle_50" data-name="Rectangle 50" width="79.667" height="28" transform="translate(885.576 9302.523)" fill="#08857b"/>
        <rect id="Rectangle_51" data-name="Rectangle 51" width="79.667" height="28" transform="translate(965.243 9302.523)" fill="#08857b"/>
        <rect id="Rectangle_52" data-name="Rectangle 52" width="79.667" height="28" transform="translate(1044.909 9302.523)" fill="#08857b"/>
        <rect id="Rectangle_53" data-name="Rectangle 53" width="79.667" height="28" transform="translate(1124.576 9302.523)" fill="#08857b"/>
        <rect id="Rectangle_54" data-name="Rectangle 54" width="79.667" height="28" transform="translate(646.576 9274.523)" fill="#25a491"/>
        <rect id="Rectangle_55" data-name="Rectangle 55" width="79.667" height="28" transform="translate(726.243 9274.523)" fill="#25a491"/>
        <rect id="Rectangle_56" data-name="Rectangle 56" width="79.667" height="28" transform="translate(805.909 9274.523)" fill="#25a491"/>
        <rect id="Rectangle_57" data-name="Rectangle 57" width="79.667" height="28" transform="translate(885.576 9274.523)" fill="#08857b"/>
        <rect id="Rectangle_58" data-name="Rectangle 58" width="79.667" height="28" transform="translate(965.243 9274.523)" fill="#08857b"/>
        <rect id="Rectangle_59" data-name="Rectangle 59" width="79.667" height="28" transform="translate(1044.909 9274.523)" fill="#08857b"/>
        <rect id="Rectangle_60" data-name="Rectangle 60" width="79.667" height="28" transform="translate(1124.576 9274.523)" fill="#08857b"/>
        <rect id="Rectangle_61" data-name="Rectangle 61" width="79.667" height="28" transform="translate(726.243 9246.523)" fill="#25a491"/>
        <rect id="Rectangle_62" data-name="Rectangle 62" width="79.667" height="28" transform="translate(805.909 9246.523)" fill="#25a491"/>
        <rect id="Rectangle_63" data-name="Rectangle 63" width="79.667" height="28" transform="translate(885.576 9246.523)" fill="#08857b"/>
        <rect id="Rectangle_64" data-name="Rectangle 64" width="79.667" height="28" transform="translate(965.243 9246.523)" fill="#08857b"/>
        <rect id="Rectangle_65" data-name="Rectangle 65" width="79.667" height="28" transform="translate(1044.909 9246.523)" fill="#08857b"/>
        <rect id="Rectangle_66" data-name="Rectangle 66" width="79.667" height="28" transform="translate(1124.576 9246.523)" fill="#08857b"/>
        <rect id="Rectangle_67" data-name="Rectangle 67" width="79.667" height="28" transform="translate(805.909 9218.523)" fill="#25a491"/>
        <rect id="Rectangle_68" data-name="Rectangle 68" width="79.667" height="28" transform="translate(885.576 9218.523)" fill="#08857b"/>
        <rect id="Rectangle_69" data-name="Rectangle 69" width="79.667" height="28" transform="translate(965.243 9218.523)" fill="#08857b"/>
        <rect id="Rectangle_70" data-name="Rectangle 70" width="79.667" height="28" transform="translate(1044.909 9218.523)" fill="#08857b"/>
        <rect id="Rectangle_71" data-name="Rectangle 71" width="79.667" height="28" transform="translate(1124.576 9218.523)" fill="#08857b"/>
        <rect id="Rectangle_72" data-name="Rectangle 72" width="79.667" height="28" transform="translate(885.576 9190.523)" fill="#08857b"/>
        <rect id="Rectangle_73" data-name="Rectangle 73" width="79.667" height="28" transform="translate(965.243 9190.523)" fill="#08857b"/>
        <rect id="Rectangle_74" data-name="Rectangle 74" width="79.667" height="28" transform="translate(1044.909 9190.523)" fill="#08857b"/>
        <rect id="Rectangle_75" data-name="Rectangle 75" width="79.667" height="28" transform="translate(1124.576 9190.523)" fill="#08857b"/>
        <rect id="Rectangle_76" data-name="Rectangle 76" width="79.667" height="28" transform="translate(965.243 9162.523)" fill="#08857b"/>
        <rect id="Rectangle_77" data-name="Rectangle 77" width="79.667" height="28" transform="translate(1044.909 9162.523)" fill="#08857b"/>
        <rect id="Rectangle_78" data-name="Rectangle 78" width="79.667" height="28" transform="translate(1124.576 9162.523)" fill="#08857b"/>
        <rect id="Rectangle_79" data-name="Rectangle 79" width="79.667" height="28" transform="translate(1044.909 9134.523)" fill="#08857b"/>
        <rect id="Rectangle_80" data-name="Rectangle 80" width="79.667" height="28" transform="translate(1124.576 9134.523)" fill="#08857b"/>
        <rect id="Rectangle_81" data-name="Rectangle 81" width="79.667" height="28" transform="translate(1124.576 9106.523)" fill="#08857b"/>
      </g>
      <g id="Group_22" data-name="Group 22">
        <g id="Union_2" data-name="Union 2" fill="#fff" stroke-miterlimit="10">
          <path d="M 1191.073364257812 9537.3154296875 L 872.8131713867188 9537.3134765625 L 872.8131713867188 9472.07421875 L 1191.073364257812 9472.07421875 L 1209.389404296875 9504.6943359375 L 1191.073364257812 9537.3154296875 Z" stroke="none"/>
          <path d="M 873.813232421875 9473.07421875 L 873.813232421875 9536.3134765625 L 1189.65869140625 9536.3154296875 L 1189.65869140625 9473.07421875 L 873.813232421875 9473.07421875 M 1193.65869140625 9478.720703125 L 1193.65869140625 9530.66796875 L 1208.242553710938 9504.6943359375 L 1193.65869140625 9478.720703125 M 871.813232421875 9471.07421875 L 1191.65869140625 9471.07421875 L 1191.65869140625 9538.3134765625 L 871.813232421875 9538.3134765625 L 871.813232421875 9471.07421875 Z M 1191.65869140625 9471.07421875 L 1210.536254882812 9504.6943359375 L 1191.65869140625 9538.3154296875 L 1191.65869140625 9471.07421875 Z" stroke="none" fill="#088d7b"/>
        </g>
        <g id="Group_21" data-name="Group 21">
          <g id="Group_20" data-name="Group 20">
            <path id="Path_92" data-name="Path 92" d="M951.518,9520.088H939.5v1.836h-3.024v-19.33c-.288.467-.576.9-.864,1.295-.36-.323-1.044-.971-1.691-1.475v2.808h-5.688v1.872h5.724v2.483h-5.724v.395c0,.541-.036,1.081-.072,1.657h6.659v2.664h-7.127l-.072.179c1.908,1.117,5.652,3.564,6.732,4.32l-1.944,2.735c-1.3-1.151-3.888-3.239-5.867-4.644a13.4,13.4,0,0,1-6.372,5.111,10.7,10.7,0,0,0-2.015-2.3c3.527-1.368,5.327-3.385,6.191-5.4h-5.9v-2.664h6.588a13.787,13.787,0,0,0,.108-1.692v-.359h-5.4v-2.483h5.4v-1.872h-5.508v-7.739h14.291v3.168a39.485,39.485,0,0,0,4.859-11.807l3.095.72a58.505,58.505,0,0,1-1.979,6.012h3.419a49.013,49.013,0,0,0,2.124-6.371l3.24.756c-.684,1.907-1.512,3.923-2.268,5.615h4.715v2.986h-4.751v4.177h4.5v2.844h-4.5v4.283h4.5v2.844h-4.5v4.355h5.147ZM921.894,9494.6h-3.2v-2.662h3.2v-3.1h2.952v3.1H928.8v-3.1h2.952v3.1h3.131v2.662h-3.131v2.2H928.8v-2.2h-3.959v2.2h-2.952Zm.288,8.353h3.06v-3.168h-3.06Zm8.963-3.168h-3.132v3.168h3.132Zm12.2-1.225H939.5v4.177h3.851Zm0,7.021H939.5v4.283h3.851Zm-3.851,11.482h3.851v-4.355H939.5Z" fill="#009481"/>
            <path id="Path_93" data-name="Path 93" d="M961.242,9502.054v19.834H957.93v-31.6h13.355v11.771Zm0-9.358v2.34h6.911v-2.34Zm6.911,7.019v-2.483h-6.911v2.483Zm19.546,18.395c0,1.691-.288,2.627-1.368,3.167-.972.54-2.556.575-4.788.575a15.861,15.861,0,0,0-.755-2.734,10.239,10.239,0,0,0-.685,1.08,12.614,12.614,0,0,1-7.343-5c-1.151,1.872-3.419,3.672-7.7,5.039a11.326,11.326,0,0,0-1.98-2.231c4.607-1.224,6.551-3.06,7.343-4.823h-6.875v-2.448h7.379v-2.411h-6.8v-2.447h3.384a13.489,13.489,0,0,0-1.4-2.664l2.556-.792a12.438,12.438,0,0,1,1.836,3.456h4.283a28.493,28.493,0,0,0,1.512-3.492l3.024.9c-.54.9-1.152,1.8-1.692,2.592h3.743v2.447h-7.451v2.411h7.955v2.448h-7.379a11.158,11.158,0,0,0,7.451,4.571,7.887,7.887,0,0,0-.864.972c1.188.036,2.34.036,2.736.036.432,0,.576-.18.576-.647v-15.982H974.056v-11.843H987.7ZM977.26,9492.7v2.34h7.127v-2.34Zm7.127,7.055v-2.52H977.26v2.52Z" fill="#009481"/>
            <path id="Path_94" data-name="Path 94" d="M1013.188,9502.27c2.448,7.487,6.983,13.571,13.787,16.413a13.263,13.263,0,0,0-2.484,3.133c-6.731-3.133-11.087-8.964-13.894-16.594a24.9,24.9,0,0,1-13.895,16.594,11.681,11.681,0,0,0-2.555-2.808c8.567-3.744,12.058-10.223,13.5-16.738H994.866v-3.455h13.391a90.253,90.253,0,0,0,.432-9.935h3.635a90.777,90.777,0,0,1-.5,9.935h14.507v3.455Z" fill="#009481"/>
            <path id="Path_95" data-name="Path 95" d="M1051.6,9512.78c2.52,3.42,6.875,5.472,12.922,6.264a12.023,12.023,0,0,0-2.016,2.916c-7.019-1.188-11.59-4-14.362-8.963-1.943,3.455-5.9,6.587-13.822,8.854a13.321,13.321,0,0,0-2.052-2.664c6.623-1.69,10.187-3.959,12.095-6.406h-11.591v-2.915h13.139a13.526,13.526,0,0,0,.54-2.88h-9.611v-2.771h9.646v-2.736h-10.222v-2.088h-3.06v-7.2h13.354v-3.312h3.456v3.312h13.39v7.2h-2.771v2.088h-10.763v2.736h10.187v2.771h-10.223a19.186,19.186,0,0,1-.432,2.88h14.686v2.915Zm-5.112-14.074v-2.556h3.384v2.556h10.115v-3.564h-23.505v3.564Z" fill="#009481"/>
            <path id="Path_96" data-name="Path 96" d="M1083.965,9516.776c-4.824,1.26-9.971,2.556-13.787,3.49l-.683-3.131,1.691-.359v-12.2h2.736v11.591l1.98-.432v-14.11h-4.644v-11.3h11.375v11.3h-3.78v4.716h4.5v2.915h-4.5v5.76l4.788-1.116Zm-9.827-18.034h5.507v-5.579h-5.507Zm27,11.3a23.963,23.963,0,0,1-5.183,5.471c.936,1.98,2.016,3.1,3.2,3.1.828,0,1.188-1.116,1.4-4.607a8.216,8.216,0,0,0,2.519,1.763c-.576,4.751-1.548,6.12-4.211,6.12-2.376,0-4.212-1.656-5.652-4.428a40.955,40.955,0,0,1-8.89,4.139,12.945,12.945,0,0,0-2.052-2.734,37.955,37.955,0,0,0,9.754-4.319,42.218,42.218,0,0,1-1.439-5.76l-6.407.684-.324-2.879,6.263-.648c-.108-.936-.252-1.907-.36-2.881l-4.715.5-.324-2.808,4.787-.5c-.072-.864-.108-1.764-.18-2.663l-5.219.54-.324-2.916,5.4-.5q-.108-2.861-.108-5.831h3.384c-.037,1.871,0,3.707.036,5.507l6.191-.611a27.967,27.967,0,0,0-4.716-3.024l1.836-2.016a28.7,28.7,0,0,1,5.04,2.987l-1.692,2.017,1.944-.181.287,2.844-8.746.863c.035.9.072,1.8.144,2.664l7.63-.792.324,2.772-7.667.828c.108.972.217,1.942.361,2.844l8.926-.937.324,2.809-8.783.972a34.157,34.157,0,0,0,.936,4.068,18.779,18.779,0,0,0,3.492-3.708Z" fill="#009481"/>
            <path id="Path_97" data-name="Path 97" d="M1121.765,9498.887a48.778,48.778,0,0,1-2.988,10.834,44.054,44.054,0,0,1,3.852,6.012l-2.7,2.268a36.445,36.445,0,0,0-2.808-4.86,24.321,24.321,0,0,1-7.775,8.459,18.711,18.711,0,0,0-2.267-2.591,20.946,20.946,0,0,0,7.99-8.784,93.368,93.368,0,0,0-6.155-7.485l2.34-1.908c1.728,1.8,3.528,3.888,5.255,5.975a48.153,48.153,0,0,0,1.98-8.351Zm18.609,1.476h-4.067v17.17c0,2.052-.468,3.022-1.62,3.636-1.224.54-3.168.683-6.191.683a15.474,15.474,0,0,0-1.08-3.562c2.16.072,4.1.072,4.715.036.612,0,.864-.182.864-.792v-17.17h-9.431v-2.7h-15.621v-3.1h6.551v-5.687h3.239v5.688h6.947v2.556h8.315v-8.279h3.312v8.279h4.067Zm-12.958,12.525a29.968,29.968,0,0,0-3.78-7.882l2.736-1.3a27.065,27.065,0,0,1,3.924,7.739Z" fill="#009481"/>
            <path id="Path_98" data-name="Path 98" d="M1163.776,9510.477c2.916,2.952,8.423,5.976,14.722,7.2a16.889,16.889,0,0,0-2.123,2.952,31.24,31.24,0,0,1-12.6-6.623v7.846h-3.563V9513.9a31.354,31.354,0,0,1-12.743,6.91,14.163,14.163,0,0,0-2.088-2.807c5.9-1.3,11.7-4.247,14.831-7.955V9507.2h-7.991v6.623h-3.528v-9.467h11.519v-2.34h-13.931V9499.1h13.931v-1.727c-.432-.252-.864-.54-1.152-.72a20.982,20.982,0,0,0,2.051-1.98h-5.543a17.443,17.443,0,0,1,1.476,2.988l-2.987,1.079a21.481,21.481,0,0,0-1.836-4.067h-1.26a28.363,28.363,0,0,1-3.2,3.923,17.142,17.142,0,0,0-2.772-1.872,21.67,21.67,0,0,0,5.544-8.025l3.2.827c-.324.792-.685,1.548-1.081,2.3h8.568v2.664a18.347,18.347,0,0,0,3.347-5.795l3.24.756a15.19,15.19,0,0,1-1.008,2.375h10.834v2.844h-6.7a19.227,19.227,0,0,1,1.512,2.952l-2.987.971a22.361,22.361,0,0,0-1.98-3.923h-2.34a22.454,22.454,0,0,1-1.728,2.3h.36v2.124h13.355v2.916h-13.355v2.34h11.411v6.336c0,1.512-.324,2.194-1.368,2.627a13.669,13.669,0,0,1-4.607.468,13.544,13.544,0,0,0-1.152-2.663c1.332.072,2.771.072,3.131.036.432,0,.576-.108.576-.468V9507.2h-7.991Z" fill="#009481"/>
          </g>
        </g>
      </g>
      <g id="Union_5" data-name="Union 5" fill="#fff" stroke-miterlimit="10">
        <path d="M 884.9898681640625 9537.3154296875 L 553.9371948242188 9537.3134765625 L 553.9371948242188 9472.07421875 L 884.9898681640625 9472.07421875 L 903.3058471679688 9504.6943359375 L 884.9898681640625 9537.3154296875 Z" stroke="none"/>
        <path d="M 554.9371948242188 9473.07421875 L 554.9371948242188 9536.3134765625 L 883.5751953125 9536.3154296875 L 883.5751953125 9473.07421875 L 554.9371948242188 9473.07421875 M 887.5751953125 9478.720703125 L 887.5751953125 9530.66796875 L 902.1589965820312 9504.6943359375 L 887.5751953125 9478.720703125 M 552.9371948242188 9471.07421875 L 885.5751953125 9471.07421875 L 885.5751953125 9538.3134765625 L 552.9371948242188 9538.3134765625 L 552.9371948242188 9471.07421875 Z M 885.5751953125 9471.07421875 L 904.4526977539062 9504.6943359375 L 885.5751953125 9538.3154296875 L 885.5751953125 9471.07421875 Z" stroke="none" fill="#25ac99"/>
      </g>
      <g id="Union_7" data-name="Union 7" fill="#fff" stroke-miterlimit="10">
        <path d="M 566.3245239257812 9537.3154296875 L 249.2420806884766 9537.3134765625 L 249.2420806884766 9472.07421875 L 566.3245239257812 9472.07421875 L 584.6405029296875 9504.6943359375 L 566.3245239257812 9537.3154296875 Z" stroke="none"/>
        <path d="M 250.2420654296875 9473.07421875 L 250.2420654296875 9536.3134765625 L 564.9098510742188 9536.3154296875 L 564.9098510742188 9473.07421875 L 250.2420654296875 9473.07421875 M 568.9098510742188 9478.720703125 L 568.9098510742188 9530.66796875 L 583.49365234375 9504.6943359375 L 568.9098510742188 9478.720703125 M 248.2420654296875 9471.07421875 L 566.9098510742188 9471.07421875 L 566.9098510742188 9538.3134765625 L 248.2420654296875 9538.3134765625 L 248.2420654296875 9471.07421875 Z M 566.9098510742188 9471.07421875 L 585.787353515625 9504.6943359375 L 566.9098510742188 9538.3154296875 L 566.9098510742188 9471.07421875 Z" stroke="none" fill="#68bcb1"/>
      </g>
      <g id="Group_25" data-name="Group 25">
        <g id="Group_24" data-name="Group 24">
          <g id="Group_23" data-name="Group 23">
            <path id="Path_101" data-name="Path 101" d="M392.9,9508.641a20.586,20.586,0,0,0,7.632,4.9,13.774,13.774,0,0,0-2.2,2.592,22.862,22.862,0,0,1-9.071-7.487H378.54a22.858,22.858,0,0,1-3.167,3.636h6.587v-2.7h3.383v2.7h7.128v2.664h-7.128v3.2h12.1v2.773h-27.1v-2.773H381.96v-3.2h-6.875v-2.376a25.174,25.174,0,0,1-5.939,3.96,11.311,11.311,0,0,0-2.16-2.556,21.461,21.461,0,0,0,7.775-5.328h-7.415v-2.771h6.983v-11.123H369.11v-2.735h5.219v-3.132h3.347v3.132h12.239v-3.1h3.42v3.1h5.147v2.735h-5.147v11.123H400.1v2.771Zm-15.226-13.894v2.016h12.239v-2.016Zm0,6.516h12.239v-2.053H377.676Zm0,4.607h12.239v-2.16H377.676Z" fill="#68bcb1"/>
            <path id="Path_102" data-name="Path 102" d="M420.265,9517.244v2.808h-2.772v-9.9a18.162,18.162,0,0,1-1.188,1.979,21.493,21.493,0,0,0-1.835-3.06c2.411-3.672,3.671-9.323,4.427-15.263h-3.672v-3.023h12.311v3.023h-5.507a73.324,73.324,0,0,1-1.44,7.812H426.6v15.622Zm3.455-12.706h-3.455v9.79h3.455Zm15.3,13.822a16.1,16.1,0,0,0,2.34.144c.936,0,5.688,0,6.947-.036a10.95,10.95,0,0,0-.935,2.843h-6.192c-4.5,0-7.631-.935-9.682-4.858a11.519,11.519,0,0,1-4.32,5.436,8.664,8.664,0,0,0-1.944-2.231c3.6-2.3,4.464-6.443,4.788-10.691h2.987c-.108,1.3-.252,2.591-.468,3.815a7.665,7.665,0,0,0,3.348,4.644v-9.863h-8.423v-2.734h17.71l.5-.146,2.159.685a56.64,56.64,0,0,1-2.123,5.328l-2.556-.937a23.411,23.411,0,0,0,.864-2.2h-5v3.707h6.48V9514h-6.48Zm-7.846-19.474a20.266,20.266,0,0,1-3.276,4.355,10.648,10.648,0,0,0-1.476-2.269,17.763,17.763,0,0,0,4.1-5.759h-2.952v-2.592h3.6v-3.779h2.771v3.779h2.952v2.592h-2.952v.612c.648.5,2.808,2.23,3.348,2.734l-1.584,1.944c-.36-.5-1.08-1.331-1.764-2.123v5.47h-2.771Zm9.718-.216a17.616,17.616,0,0,1-3.6,4.463,8.248,8.248,0,0,0-1.4-2.16,15.144,15.144,0,0,0,4.355-5.759h-2.7v-2.592h3.347v-3.779h2.772v3.779H447.8v2.592H444.31a14.234,14.234,0,0,0,4.067,5.831,10.249,10.249,0,0,0-1.8,1.944,14.236,14.236,0,0,1-2.916-4.212v5.074H440.89Z" fill="#68bcb1"/>
          </g>
        </g>
      </g>
      <g id="Group_28" data-name="Group 28">
        <g id="Group_27" data-name="Group 27">
          <g id="Group_26" data-name="Group 26">
            <path id="Path_103" data-name="Path 103" d="M706.63,9502.378c0,5.615-.54,13.967-3.672,19.473a16.966,16.966,0,0,0-2.843-1.906c2.915-5.112,3.167-12.419,3.167-17.566v-9.143h12.959v-4.392h3.491v4.392h13.355v3.238H706.63Zm-.288,14.9c1.692-2.771,2.556-7.02,2.916-10.871l3.059.685c-.432,3.922-1.26,8.674-2.988,11.519Zm16.594.9c1.3,0,1.476-.9,1.656-5.975a10.523,10.523,0,0,0,2.951,1.367c-.324,5.976-1.188,7.632-4.355,7.632h-4.68c-3.383,0-4.247-1.08-4.247-4.5v-13.21h3.276v13.21c0,1.26.251,1.476,1.475,1.476Zm.036-13.282a44.455,44.455,0,0,0-8.315-5.544l2.268-2.194a44.768,44.768,0,0,1,8.459,5.255Zm5.8.648c2.3,3.671,4.5,8.459,5.075,11.7l-3.275,1.368a39.7,39.7,0,0,0-4.751-11.879Z" fill="#25a491"/>
            <path id="Path_104" data-name="Path 104" d="M768.727,9517.676c0,1.944-.468,2.952-1.764,3.456-1.332.54-3.419.611-6.731.576a13.819,13.819,0,0,0-1.116-3.24c2.3.108,4.68.072,5.363.072.648,0,.9-.216.9-.9V9511.2h-8.711v10.294h-3.347V9511.2h-8.279c-.576,3.959-1.872,7.989-4.5,10.905a11.091,11.091,0,0,0-2.627-2.194c3.923-4.355,4.283-10.729,4.283-15.8v-12.814h26.529Zm-15.406-9.646V9502.7H745.51v1.438c0,1.225-.036,2.557-.144,3.889ZM745.51,9494.5v5.075h7.811V9494.5Zm19.869,0h-8.711v5.075h8.711Zm0,13.534V9502.7h-8.711v5.327Z" fill="#25a491"/>
          </g>
        </g>
      </g>
    </g>
    <g id="Group_31" data-name="Group 31" transform="translate(-1032.102 654.169)">
      <path id="Path_1" data-name="Path 1" d="M1474.556,8976.345c188.858,0,341.957,153.1,341.957,341.958" transform="translate(749.146 -8578.315)" fill="#ffe800"/>
      <path id="Path_2" data-name="Path 2" d="M2020.436,9318.3c0,188.856-153.1,341.956-341.957,341.956s-341.95-153.1-341.95-341.956,153.1-341.958,341.95-341.958" transform="translate(545.223 -8578.315)" fill="#ffe800"/>
      <path id="Path_3" data-name="Path 3" d="M1280.344,9341.44a46.842,46.842,0,0,1,46.709-46.709h868.878a46.842,46.842,0,0,1,46.707,46.709v490.834a46.844,46.844,0,0,1-46.707,46.711H1327.053a46.845,46.845,0,0,1-46.709-46.711" transform="translate(462.215 -8107.924)" fill="none" stroke="#009481" stroke-miterlimit="10" stroke-width="1.111"/>
      <g id="Group_1" data-name="Group 1" transform="translate(1804.006 1272.864)">
        <path id="Path_4" data-name="Path 4" d="M1305.147,9386.1a8.757,8.757,0,0,0,.79-3.885v-45.344a61.16,61.16,0,0,0-.634-7.215h7.769a51.355,51.355,0,0,0-.555,7.215v44.945c15.142-3.8,33.532-14.27,43.362-27.031l3.567,5.551c-10.306,12.762-26.635,22.512-46.375,28.3a11.058,11.058,0,0,0-3.33,1.426Z" transform="translate(-1305.147 -9329.186)" fill="#009481"/>
        <path id="Path_5" data-name="Path 5" d="M1338.568,9361.85c3.805-3.883,10.7-12.682,15.694-18.549,4.2-5,7.452-5.551,13.16-.793,4.836,3.963,11.334,10.939,16.408,16.408,5.311,5.707,13.4,14.348,19.185,21.166l-5.153,5.629c-5.549-7.135-12.764-15.3-17.837-21.088-5.468-6.1-12.048-13.236-15.457-16.092-3.33-2.773-4.439-2.7-7.135.637-3.805,4.6-10.465,13.314-14.03,17.674-1.667,2.063-3.409,4.52-4.6,6.105l-5.787-5.863C1335,9365.336,1336.507,9363.91,1338.568,9361.85Zm52.4-15.141-4.6,2.143a82.963,82.963,0,0,0-7.37-12.686l4.516-1.982A121.464,121.464,0,0,1,1390.966,9346.709Zm10.465-4.2-4.6,2.221a82.452,82.452,0,0,0-7.611-12.529l4.439-2.059A119.01,119.01,0,0,1,1401.43,9342.508Z" transform="translate(-1263.968 -9328.479)" fill="#009481"/>
        <path id="Path_6" data-name="Path 6" d="M1367.291,9386.859a37.614,37.614,0,0,0,13.794-19.5c2.3-7.293,2.378-23.068,2.378-31.867a29.022,29.022,0,0,0-.557-5.787h7.293c-.079.953-.4,3.33-.4,5.707,0,8.8-.317,25.764-2.458,33.693a43.727,43.727,0,0,1-14.109,21.719Zm36.307.4a18.931,18.931,0,0,0,.555-4.439v-47.486a38.737,38.737,0,0,0-.476-5.863h7.293a50.221,50.221,0,0,0-.318,5.863v45.74a60.16,60.16,0,0,0,23.068-19.5l3.805,5.385c-6.818,9.279-17.837,17.367-27.031,21.963a15.649,15.649,0,0,0-2.7,1.822Z" transform="translate(-1213.335 -9329.469)" fill="#009481"/>
        <path id="Path_7" data-name="Path 7" d="M1401.595,9382.094h12.92v-43.361h-10.3v-4.6a36.852,36.852,0,0,0,12.048-4.123h5.549v52.082h11.654v6.025h-31.867Z" transform="translate(-1162.653 -9328.664)" fill="#009481"/>
        <path id="Path_8" data-name="Path 8" d="M1420.954,9382.094h12.922v-43.361h-10.3v-4.6a36.893,36.893,0,0,0,12.048-4.123h5.55v52.082h11.654v6.025h-31.869Z" transform="translate(-1134.052 -9328.664)" fill="#009481"/>
      </g>
      <g id="Group_2" data-name="Group 2" transform="translate(1831.986 1457.126)">
        <path id="Path_9" data-name="Path 9" d="M1316.441,9460.481a8.772,8.772,0,0,0,.792-3.887v-45.344a61.164,61.164,0,0,0-.634-7.215h7.769a51.328,51.328,0,0,0-.555,7.215V9456.2c15.139-3.809,33.532-14.27,43.36-27.035l3.568,5.555c-10.3,12.762-26.635,22.51-46.373,28.3a11.146,11.146,0,0,0-3.33,1.43Z" transform="translate(-1316.441 -9403.562)" fill="#009481"/>
        <path id="Path_10" data-name="Path 10" d="M1349.862,9436.227c3.805-3.883,10.7-12.682,15.7-18.549,4.2-4.992,7.449-5.551,13.157-.795,4.836,3.967,11.337,10.941,16.41,16.412,5.312,5.705,13.4,14.346,19.183,21.164l-5.153,5.631c-5.55-7.137-12.761-15.3-17.835-21.09-5.47-6.105-12.05-13.238-15.459-16.092-3.33-2.771-4.439-2.7-7.133.637-3.8,4.6-10.464,13.316-14.032,17.676-1.665,2.061-3.409,4.52-4.6,6.1l-5.787-5.865C1346.295,9439.713,1347.8,9438.289,1349.862,9436.227Zm52.4-15.139-4.6,2.139a82.754,82.754,0,0,0-7.373-12.684l4.519-1.982A121.337,121.337,0,0,1,1402.262,9421.088Zm10.462-4.205-4.6,2.223a82.326,82.326,0,0,0-7.608-12.527l4.437-2.062A119.552,119.552,0,0,1,1412.724,9416.883Z" transform="translate(-1275.263 -9402.854)" fill="#009481"/>
        <path id="Path_11" data-name="Path 11" d="M1378.585,9461.238a37.633,37.633,0,0,0,13.794-19.5c2.3-7.291,2.378-23.066,2.378-31.865a29.225,29.225,0,0,0-.555-5.787h7.291c-.079.951-.394,3.33-.394,5.707,0,8.8-.317,25.762-2.457,33.693a43.724,43.724,0,0,1-14.112,21.717Zm36.306.395a18.852,18.852,0,0,0,.555-4.439v-47.484a38.7,38.7,0,0,0-.476-5.863h7.293a50.35,50.35,0,0,0-.317,5.863v45.742a60.158,60.158,0,0,0,23.067-19.5l3.805,5.391c-6.818,9.273-17.835,17.361-27.031,21.959a15.486,15.486,0,0,0-2.7,1.824Z" transform="translate(-1224.629 -9403.846)" fill="#009481"/>
        <path id="Path_12" data-name="Path 12" d="M1442.939,9414.4a12.284,12.284,0,0,0-9.352-4.439c-7.928,0-14.666,6.1-14.984,24.18,3.568-4.359,8.641-7.055,13.24-7.055,9.828,0,16.091,6.1,16.091,18.229,0,11.256-7.61,18.869-16.646,18.869-11.178,0-19.423-9.594-19.423-28.779,0-22.748,10.227-31.467,21.484-31.467a17.847,17.847,0,0,1,13.554,5.947Zm-1.821,30.914c0-7.848-3.409-12.84-10.465-12.84-3.646,0-8.086,2.063-11.891,7.453.872,12.049,5.232,18.627,12.526,18.627C1436.835,9458.559,1441.118,9453.246,1441.118,9445.318Z" transform="translate(-1175.46 -9403.704)" fill="#009481"/>
      </g>
      <path id="Path_13" data-name="Path 13" d="M1514.312,9356.355a57.234,57.234,0,0,0,20.843,12.541,23.7,23.7,0,0,0-4.058,4.85,61.9,61.9,0,0,1-21.207-14.785v15.512h-5.876V9359.2a61.259,61.259,0,0,1-20.843,14.48,26.413,26.413,0,0,0-3.877-4.725,57.633,57.633,0,0,0,20.357-12.6H1486.02v-22.418h17.993v-4.422H1480.87v-5.209h23.144v-5.4h5.876v5.4h23.689v5.209H1509.89v4.422h18.9v22.418Zm-22.78-13.266h12.481v-4.848h-12.481Zm0,8.967h12.481v-4.91h-12.481Zm18.357-13.814v4.848H1523.1v-4.848Zm13.209,8.9H1509.89v4.91H1523.1Zm36.386,11.754a54.649,54.649,0,0,1-11.814,13.451,29.414,29.414,0,0,0-4.6-3.332,39.7,39.7,0,0,0,10.722-11.937Zm37.565-28.174h-52.59v-5.393H1567.6v-6.48h6v6.48h23.446Zm-23.446,23.33v14.236c0,3.029-.666,4.6-2.97,5.391s-5.817.85-10.906.789a23.021,23.021,0,0,0-1.819-5.332c3.637.121,7.455.121,8.423.063,1.09,0,1.392-.244,1.392-1.031v-14.115H1551.61v-18.422h38.776v18.422Zm-16.361-4.85h27.2v-8.6h-27.2Zm29.447,7.875c3.818,3.881,8.785,9.334,11.148,12.906l-5.515,2.848c-2.118-3.512-6.9-9.209-10.844-13.27Zm52.2-15.572c4.12,12.6,11.753,22.844,23.206,27.631a22.227,22.227,0,0,0-4.182,5.271c-11.329-5.271-18.66-15.086-23.387-27.93-3.09,10.965-9.632,21.445-23.387,27.93a19.637,19.637,0,0,0-4.3-4.729c14.419-6.3,20.295-17.2,22.72-28.174h-21.509V9335.7h22.537a152,152,0,0,0,.728-16.721h6.119a153.487,153.487,0,0,1-.847,16.721h24.415v5.814Zm54-23.748,4.606,2.18c-6.6,6.908-11.149,15.635-11.149,26.781s4.544,19.871,11.149,26.779l-4.606,2.18a40.956,40.956,0,0,1,0-57.92Zm30.812,44.412c-6.6,2.3-13.631,4.664-19.084,6.422l-1.333-5.756c2.18-.607,4.846-1.332,7.754-2.242v-15.389H1704.5V9340h6.543v-12.059h-7.15v-5.211h19.267v5.211h-6.724V9340h5.755v5.209h-5.755V9358.9c2.059-.666,4.241-1.332,6.3-2.059Zm35.809,5.27v5.148H1720.8v-5.148h17.57v-7.211h-13.148v-5.088h13.148v-6.24h-12.6v-27.264h31.019V9348.9h-12.662v6.24h13.45v5.088h-13.45v7.211Zm-28.6-34.473h7.936v-6.545h-7.936Zm0,11.148h7.936v-6.605h-7.936Zm20.479-17.693h-7.757v6.545h7.757Zm0,11.088h-7.757v6.605h7.757Zm69.65,27.266v5.693h-52.105v-5.693Zm-3.211-40.111v5.758h-45.441v-5.758Zm-4.727,19.451v5.754h-36.777v-5.754Zm20.453,31.563-4.605-2.18c6.6-6.908,11.148-15.633,11.148-26.779s-4.544-19.873-11.148-26.781l4.605-2.18a40.955,40.955,0,0,1,0,57.92Z" transform="translate(756.146 -8073.899)" fill="#0e0000"/>
      <path id="Path_14" data-name="Path 14" d="M1482.576,9387.5V9353.63a35.923,35.923,0,0,0-.545-6.119h7.511a39.7,39.7,0,0,0-.482,6.059v33.143c10.844-2.908,24.6-10.785,32.231-20.357l3.453,5.332c-8.056,9.875-20.6,17.205-35.323,21.75a12.393,12.393,0,0,0-3.027,1.271l-4.484-3.818A6.69,6.69,0,0,0,1482.576,9387.5Zm54.743-15.266c2.849-2.85,7.879-9.271,11.815-14,3.394-4,6.6-4.664,10.967-.482,3.815,3.574,8.785,8.783,12.36,12.6,4.12,4.361,10.239,10.967,14.9,15.994l-5.272,5.574c-4.241-5.088-9.451-11.326-13.207-15.691-3.515-4.061-9.028-10-11.45-12.359-2.183-2.121-3.394-1.939-5.272.426-2.666,3.27-7.392,9.631-10.058,12.965-1.271,1.754-2.666,3.693-3.635,5.088l-5.755-5.875A59.8,59.8,0,0,0,1537.319,9372.231Zm40.717-11.09-4.363,1.941a66.047,66.047,0,0,0-5.574-9.758l4.241-1.814C1573.916,9353.874,1576.641,9358.354,1578.036,9361.142Zm8.118-3.33-4.3,2.061a55.02,55.02,0,0,0-5.814-9.574l4.241-1.939A83.826,83.826,0,0,1,1586.154,9357.812Zm18.816,18.6c1.756-5.391,1.756-17.207,1.756-24.174a18.887,18.887,0,0,0-.486-4.91h7.029a45.878,45.878,0,0,0-.3,4.85c0,6.906-.242,19.811-1.878,25.869a34.044,34.044,0,0,1-10.787,16.965l-5.814-3.877A28.071,28.071,0,0,0,1604.971,9376.411Zm17.872,11.451v-35.869a44.188,44.188,0,0,0-.364-4.844h7.028a36.655,36.655,0,0,0-.3,4.844V9385.5a42.627,42.627,0,0,0,16.48-13.936l3.7,5.213c-5.151,6.844-13.693,13.205-20.662,16.723a18.5,18.5,0,0,0-2.3,1.512l-4-3.332A17.407,17.407,0,0,0,1622.842,9387.862Z" transform="translate(760.011 -8030.483)" fill="#0e0000"/>
      <path id="Path_15" data-name="Path 15" d="M1530.49,9468.046c0,3.211-.729,4.908-2.728,5.818s-5.148,1.09-10.239,1.025a21.341,21.341,0,0,0-1.937-5.51c3.453.18,6.966.119,8,.119,1.031-.059,1.392-.422,1.392-1.453v-40.531H1485.9v47.439h-5.453v-52.77h50.047Zm-9.875-30.291h-30.293v-4.789h30.293Zm-22.116,25.082v4.242h-5.21v-23.752h24.3v19.51Zm0-14.785v10.059h13.876v-10.059Zm42.327,21.389c4.12-3.271,6.543-8.664,7.695-14.238l4.968,1.514c-1.274,6-3.454,12.121-8,15.816Zm25.2-36.777H1542.4v-5.33h23.627v-8.121h5.636v8.121H1595.9v5.33h-24.234v9.088h20.6v5.332h-45.986v-5.332h19.75Zm9.694,36.293c2.606,0,3.092-.91,3.332-7.029a17.3,17.3,0,0,0,5.091,2.061c-.666,8-2.3,10-7.937,10H1565.3c-6.848,0-8.664-1.637-8.664-7.09v-12.42h5.574v12.359c0,1.756.545,2.121,3.635,2.121Zm-11.087-21.811c4.12,2.059,8.966,5.455,11.27,8.178l-4.12,3.818c-2.061-2.787-6.848-6.363-10.968-8.664Zm21.509,6.6c4.423,4.482,8.966,10.664,10.722,15.145l-5.21,2.785c-1.455-4.418-5.817-10.842-10.239-15.445Zm41.113,4.119c-1.392-1.756-4.12-4.668-6.6-7.148v24.113h-5.574v-22.357a53.493,53.493,0,0,1-8.48,6.787,26.656,26.656,0,0,0-2.787-5.209,49.985,49.985,0,0,0,17.994-18.543h-15.873v-5.15h9.147v-11.148h5.574v11.148h4.182l.969-.182,3.151,2.121a56.06,56.06,0,0,1-7.514,13.027c2.849,2.3,7.878,6.664,9.271,7.938Zm33.809,9.693v5.574h-33.931v-5.574H1641.8v-23.748h-12.241v-5.453H1641.8V9419.7h5.755v18.662h12.238v5.453h-12.238v23.748Zm39.78-25.748c4.12,12.6,11.753,22.838,23.2,27.627a22.274,22.274,0,0,0-4.179,5.271c-11.329-5.271-18.66-15.084-23.387-27.932-3.089,10.965-9.634,21.447-23.387,27.932a19.75,19.75,0,0,0-4.3-4.725c14.419-6.3,20.295-17.209,22.72-28.174h-21.509V9436h22.537a152.053,152.053,0,0,0,.728-16.723h6.119a153.544,153.544,0,0,1-.847,16.723h24.415v5.816Zm38.507,22.721v-33.869a35.82,35.82,0,0,0-.545-6.117h7.512a39.585,39.585,0,0,0-.483,6.055v33.145c10.844-2.91,24.6-10.787,32.231-20.361l3.454,5.336c-8.057,9.875-20.6,17.205-35.323,21.748a12.493,12.493,0,0,0-3.028,1.273l-4.484-3.816A6.706,6.706,0,0,0,1739.353,9464.534Zm54.743-15.268c2.849-2.85,7.876-9.273,11.815-14,3.394-4,6.6-4.668,10.967-.486,3.815,3.576,8.785,8.785,12.36,12.6,4.12,4.361,10.239,10.967,14.9,16l-5.272,5.574c-4.241-5.088-9.451-11.33-13.207-15.691-3.515-4.061-9.027-10-11.451-12.361-2.183-2.119-3.394-1.939-5.272.424-2.666,3.273-7.393,9.633-10.059,12.965-1.271,1.76-2.666,3.7-3.634,5.092l-5.755-5.877A59.765,59.765,0,0,0,1794.1,9449.267Zm40.717-11.09-4.363,1.941a66.231,66.231,0,0,0-5.574-9.758l4.241-1.816C1830.692,9430.905,1833.417,9435.39,1834.813,9438.177Zm8.118-3.332-4.3,2.059a55.2,55.2,0,0,0-5.814-9.57l4.238-1.939A83.91,83.91,0,0,1,1842.931,9434.845Zm18.816,18.6c1.756-5.393,1.756-17.205,1.756-24.174a18.86,18.86,0,0,0-.485-4.906h7.028a45.7,45.7,0,0,0-.3,4.848c0,6.906-.243,19.811-1.878,25.869a34.035,34.035,0,0,1-10.787,16.965l-5.814-3.879A28.048,28.048,0,0,0,1861.747,9453.444Zm17.872,11.451v-35.869a44.5,44.5,0,0,0-.364-4.846h7.028a36.855,36.855,0,0,0-.3,4.846v33.506a42.6,42.6,0,0,0,16.48-13.932l3.7,5.209c-5.151,6.846-13.693,13.207-20.662,16.721a18.407,18.407,0,0,0-2.3,1.516l-4-3.332A17.426,17.426,0,0,0,1879.619,9464.9Z" transform="translate(757.844 -7924.018)" fill="#0e0000"/>
      <g id="Group_3" data-name="Group 3" transform="translate(1831.986 1641.355)">
        <path id="Path_16" data-name="Path 16" d="M1316.441,9534.842a8.723,8.723,0,0,0,.792-3.885v-45.344a61.166,61.166,0,0,0-.634-7.213h7.769a51.253,51.253,0,0,0-.555,7.213v44.949c15.139-3.807,33.532-14.27,43.36-27.033l3.568,5.553c-10.3,12.756-26.635,22.51-46.373,28.3a11.289,11.289,0,0,0-3.33,1.428Z" transform="translate(-1316.441 -9477.926)" fill="#009481"/>
        <path id="Path_17" data-name="Path 17" d="M1349.862,9510.588c3.805-3.883,10.7-12.686,15.7-18.549,4.2-4.994,7.449-5.553,13.157-.793,4.836,3.961,11.337,10.941,16.41,16.41,5.312,5.707,13.4,14.348,19.183,21.164l-5.153,5.627c-5.55-7.135-12.761-15.3-17.835-21.084-5.47-6.1-12.05-13.238-15.459-16.094-3.33-2.777-4.439-2.7-7.133.633-3.8,4.6-10.464,13.316-14.032,17.68-1.665,2.061-3.409,4.516-4.6,6.1l-5.787-5.863C1346.295,9514.076,1347.8,9512.648,1349.862,9510.588Zm52.4-15.143-4.6,2.143a82.982,82.982,0,0,0-7.373-12.687l4.519-1.979A121.47,121.47,0,0,1,1402.262,9495.445Zm10.462-4.2-4.6,2.217a82.362,82.362,0,0,0-7.608-12.521l4.437-2.061A118.891,118.891,0,0,1,1412.724,9491.246Z" transform="translate(-1275.263 -9477.216)" fill="#009481"/>
        <path id="Path_18" data-name="Path 18" d="M1378.585,9535.6a37.626,37.626,0,0,0,13.794-19.5c2.3-7.3,2.378-23.07,2.378-31.871a29.152,29.152,0,0,0-.555-5.783h7.291c-.079.949-.394,3.328-.394,5.705,0,8.8-.317,25.764-2.457,33.693a43.7,43.7,0,0,1-14.112,21.715Zm36.306.4a18.839,18.839,0,0,0,.555-4.439v-47.482a38.8,38.8,0,0,0-.476-5.865h7.293a50.465,50.465,0,0,0-.317,5.865v45.74a60.158,60.158,0,0,0,23.067-19.5l3.805,5.391c-6.818,9.277-17.835,17.359-27.031,21.959a15.6,15.6,0,0,0-2.7,1.824Z" transform="translate(-1224.629 -9478.208)" fill="#009481"/>
        <path id="Path_19" data-name="Path 19" d="M1411.641,9508.268c0-20.213,7.056-29.963,18.154-29.963,11.017,0,18.073,9.828,18.073,29.963,0,20.215-7.055,30.283-18.073,30.283C1418.7,9538.551,1411.641,9528.482,1411.641,9508.268Zm29.172,0c0-16.961-4.437-24.1-11.017-24.1-6.659,0-11.1,7.137-11.1,24.1,0,17.121,4.439,24.5,11.1,24.5C1436.375,9532.764,1440.813,9525.389,1440.813,9508.268Z" transform="translate(-1175.791 -9478.067)" fill="#009481"/>
      </g>
      <path id="Path_20" data-name="Path 20" d="M1532.243,9484.2v4.906h-52.288V9484.2h22.963v-5.453h5.755v5.453Zm-2.061,43.865c0,2.846-.6,4.426-2.666,5.332-2.121.848-5.272.908-10,.908a20.37,20.37,0,0,0-1.756-5.209h-16.177V9532h-4.908V9516.01h22.9V9529.1a50.024,50.024,0,0,0,5.7-.061c.971,0,1.274-.244,1.274-1.031v-15.328h-36.534v21.75H1482.5v-26.477h47.683Zm-7.754-36.051v12.662h-32.6v-12.662Zm-5.7,3.877h-21.447v4.91h21.447Zm-4.179,24.117h-12.967v5.15h12.967Zm48.322-4.121c-.909-2-2.787-5.453-4.543-8.422v26.9h-5.272v-25.809c-1.937,5.875-4.3,11.326-6.845,14.9a23.645,23.645,0,0,0-2.728-5.031c3.7-5.027,7.271-13.992,9.09-21.748h-7.816v-5.213h8.3v-12.66h5.272v12.66h6.966v5.213h-6.966v3.875c1.7,2.182,6.6,9.455,7.7,11.148Zm29.87-10.117a48.792,48.792,0,0,1-7.028,14.359,36.5,36.5,0,0,0,14.421,9.449,22.607,22.607,0,0,0-3.939,4.969,39.826,39.826,0,0,1-14.116-10.057,42.86,42.86,0,0,1-15.813,10.119,26.9,26.9,0,0,0-2.909-4.482,37.792,37.792,0,0,0,15.328-9.877,55.636,55.636,0,0,1-7.15-13.875l4.849-1.395a42.3,42.3,0,0,0,5.755,10.846,37.2,37.2,0,0,0,4.908-11.207Zm-14.238-9.758a46.654,46.654,0,0,1-10.36,13.635,23.873,23.873,0,0,0-3.818-3.574,37.318,37.318,0,0,0,9.087-12.18Zm20.478-3.391H1563.9v-5.209h13.572v-8.6h5.634v8.6h13.876Zm-8.725,1.092c3.756,3.816,7.938,9.086,9.756,12.723l-4.727,2.727c-1.635-3.576-5.7-9.029-9.392-13.029Zm48.869-11.391c0,10.967,1.392,33.443,24.477,47.078a28.291,28.291,0,0,0-4.543,4.785c-13.754-8.3-20.236-20.662-23.206-31.811-4.482,14.6-12.056,25.205-23.266,31.93a43.331,43.331,0,0,0-5.21-4.545c13.026-6.723,20.357-18.66,23.873-35.08l3.089.547a67.234,67.234,0,0,1-.788-7.209h-14.42v-5.7Zm57.29,21.629H1677.88v30.416h-5.574v-52.955h22.114Zm-16.539-17.812v4.3h11.268v-4.3Zm11.268,13.205v-4.723H1677.88v4.723Zm33.081,27.814c0,3.512-.788,5.209-3.089,6.178-2.364.908-6.06,1.031-11.693,1.031a20.174,20.174,0,0,0-2-5.82c4,.186,8.24.125,9.451.125,1.211-.061,1.576-.426,1.576-1.514v-23.146h-17.087v-22.6h22.842Zm-17.448-41.02v4.3h11.694v-4.3Zm11.694,13.328v-4.846h-11.694v4.846Z" transform="translate(757.121 -7836.06)" fill="#0e0000"/>
      <g id="Group_5" data-name="Group 5" transform="translate(1963.794 1546.986)">
        <g id="Group_4" data-name="Group 4" clip-path="url(#clip-path)">
          <rect id="Rectangle_1" data-name="Rectangle 1" width="11.288" height="62.446" fill="url(#linear-gradient)"/>
        </g>
      </g>
      <g id="Group_7" data-name="Group 7" transform="translate(1963.794 1359.309)">
        <g id="Group_6" data-name="Group 6" clip-path="url(#clip-path-2)">
          <rect id="Rectangle_2" data-name="Rectangle 2" width="11.288" height="62.439" fill="url(#linear-gradient-2)"/>
        </g>
      </g>
      <g id="Group_8" data-name="Group 8" transform="translate(1980.049 539.116)">
        <path id="Path_23" data-name="Path 23" d="M1408.707,9073.95c4.42,6.658,12.39,10.707,23.223,12.264a17.74,17.74,0,0,0-2.8,3.981c-12.139-2.113-20.607-7.342-25.339-16.245h-.562c-3.236,6.162-10.024,11.891-24.217,16.124a18.225,18.225,0,0,0-2.8-3.734c12.142-3.365,18.494-7.721,21.729-12.39H1376.83v-4.11h23.223a19.621,19.621,0,0,0,1.181-5.854H1383.99v-3.857h17.372v-5.545h-18.367v-3.922h18.367V9045.5h4.606v5.165h19.24V9043.5h-42.961v7.778h-4.482v-11.951h23.721v-6.038h4.605v6.038h23.786v11.951h-4.67v3.3h-19.24v5.545h18.368v3.857h-18.492a27.431,27.431,0,0,1-1,5.854h26.4v4.11Z" transform="translate(-1376.206 -9033.294)" fill="#0e0000"/>
        <path id="Path_24" data-name="Path 24" d="M1454.1,9046.766s-.062,1.745-.124,2.426c-1.37,25.529-2.678,34.809-5.416,37.919-1.434,1.745-2.928,2.241-5.294,2.492a80.785,80.785,0,0,1-9.962-.188,10.114,10.114,0,0,0-1.556-4.729c4.234.373,8.218.434,9.776.434a3.567,3.567,0,0,0,2.864-.935c2.24-2.115,3.61-10.894,4.793-32.809h-21.231c-.872,12.885-4.98,27.95-23.035,38.973a16.637,16.637,0,0,0-3.55-3.672c16.874-10.026,20.857-23.661,21.792-35.3h-19.924v-4.609H1423.4v-13.446h4.8v13.446Z" transform="translate(-1339.039 -9033.257)" fill="#0e0000"/>
        <path id="Path_25" data-name="Path 25" d="M1452.118,9077.838a37.625,37.625,0,0,0,5.292-.75c7.906-1.74,15.627-7.592,15.627-18.238,0-9.34-5.916-17-16.375-17.869a130.42,130.42,0,0,1-3.672,17.746c-3.8,12.639-8.718,19.172-14.446,19.172-5.478,0-11.02-6.348-11.02-16.5,0-13.383,11.953-25.09,27.021-25.09,14.443,0,23.659,10.211,23.659,22.664,0,12.949-8.53,21.6-23.223,23.535Zm-4.048-20.172a99.424,99.424,0,0,0,3.424-16.623c-11.829,1.494-19.051,11.643-19.051,19.924,0,7.781,3.612,11.205,6.287,11.205C1441.47,9072.172,1444.9,9068.064,1448.07,9057.666Z" transform="translate(-1300.386 -9028.84)" fill="#0e0000"/>
        <path id="Path_26" data-name="Path 26" d="M1461.325,9043.69v13.636c0,9.589-.748,23.594-6.1,33a15.861,15.861,0,0,0-3.8-2.615c5.106-8.841,5.542-21.419,5.542-30.383v-17.811h22.849v-6.222h4.732v6.222h23.783v4.175Zm31.067,21.229c1.558,11.834,5.106,19.366,9.962,19.366,1.558,0,2.118-2.555,2.366-8.778a10.118,10.118,0,0,0,3.736,2.053c-.684,8.715-2.242,11.083-6.35,11.083-7.908,0-12.2-9.591-14.133-23.724h-14.88V9076c4.668-.563,9.835-1.186,14.88-1.808l.062,4.11c-8.842,1.121-18.117,2.18-24.593,3.052l-.56-4.233c1.744-.187,3.674-.372,5.852-.622v-27.521l3.362,1c9.776-1,20.734-2.737,26.96-4.605l3.612,3.359a101.958,101.958,0,0,1-11.208,2.43c.064,3.421.188,6.6.5,9.588h16.063v4.169ZM1463.5,9084.97h27.583v4.106H1463.5Zm24.033-24.22c-.248-2.8-.436-5.789-.56-8.843-4.608.688-9.4,1.244-13.884,1.681v7.162Z" transform="translate(-1265.076 -9033.294)" fill="#0e0000"/>
        <path id="Path_27" data-name="Path 27" d="M1532.533,9081.984v4.607h-55.474v-4.607h23.223v-48.312h4.856v19.051H1528.3v4.605h-23.161v24.656Z" transform="translate(-1227.205 -9032.738)" fill="#0e0000"/>
        <path id="Path_28" data-name="Path 28" d="M1512.066,9038.662c-.312,1.125-.81,2.807-1.058,3.99-1.994,8.9-3.986,21.791-1.744,31.877.872-2.555,2.116-6.291,3.238-9.34l2.737,1.68a137.032,137.032,0,0,0-3.984,13.637,10.931,10.931,0,0,0-.312,2.736c.064.563.126,1.434.188,2.057l-4.3.561a71.28,71.28,0,0,1-3.238-19.549c0-10.025,1.618-18.988,2.366-24.158a24.542,24.542,0,0,0,.31-4.045Zm30.445-.932a22.768,22.768,0,0,0-.25,3.613c-.062,1.369.062,5.416.127,9.15a72.351,72.351,0,0,0,10.769-1.555v5.168c-2.988.5-6.724.867-10.708,1.119v1.744c0,14.2-.062,24.281-13.076,32l-4.608-3.611a22.1,22.1,0,0,0,6.04-3.861c6.6-5.727,6.912-12.7,6.912-24.529v-1.494c-2.366.064-4.732.121-7.036.121-2.926,0-7.283-.184-9.961-.371v-4.98a78.619,78.619,0,0,0,9.9.686c2.242,0,4.606-.064,7.036-.123-.126-3.8-.25-7.846-.374-9.465a25.957,25.957,0,0,0-.622-3.613Zm5.666,7.783a85.625,85.625,0,0,0-3.489-8.777l2.99-.934a81.338,81.338,0,0,1,3.61,8.59Zm5.728-11.643c1.181,2.3,2.74,6.1,3.736,8.592l-3.114,1.057a64.809,64.809,0,0,0-3.61-8.652Z" transform="translate(-1187.995 -9032.438)" fill="#0e0000"/>
        <path id="Path_29" data-name="Path 29" d="M1550.152,9035.145c-.247,1.121-.5,2.43-.748,3.615-.31,1.8-.869,5.418-1.556,8.717,2.864-.187,5.416-.379,6.912-.379,5.478,0,10.024,2.117,10.024,10.463,0,7.348-1.058,17.059-3.612,22.229-1.93,4.107-4.98,5.168-9.028,5.168a37.026,37.026,0,0,1-7.222-.936l-.81-5.234a30.162,30.162,0,0,0,7.534,1.373c2.3,0,4.11-.5,5.418-3.174,1.93-4.17,2.864-12.145,2.864-18.867,0-5.6-2.554-6.6-6.476-6.6-1.494,0-3.922.184-6.6.434-2.242,8.842-6.414,22.662-12.949,33.121l-5.106-2.055c6.288-8.4,10.9-22.35,12.95-30.57-3.174.311-6.164.623-7.781.811-1.432.188-3.922.5-5.542.744l-.5-5.412a53.422,53.422,0,0,0,5.48,0c2.054-.062,5.666-.371,9.4-.686a72.7,72.7,0,0,0,1.556-13.385Zm21.232,6.541c3.86,4.98,9.151,16.313,11.27,22.037l-4.858,2.309c-1.8-6.354-6.662-17.189-11.02-22.354Z" transform="translate(-1152.054 -9031.474)" fill="#0e0000"/>
        <path id="Path_30" data-name="Path 30" d="M1559.688,9063.066a29.18,29.18,0,0,1,19.923-7.41c9.464,0,15.751,5.666,15.751,12.889,0,11.084-9.776,18.555-32.687,16.621l-1.494-5.1c19.426,2.367,28.951-3.236,28.951-11.645,0-4.92-4.546-8.342-10.834-8.342-8.218,0-14.693,2.988-19.052,8.154a12.962,12.962,0,0,0-1.868,3.113l-4.67-1.119a217.9,217.9,0,0,0,3.114-25.025l5.292.682C1561.306,9050.119,1560.248,9059.08,1559.688,9063.066Zm3.8-28.391a164.956,164.956,0,0,0,23.845,4.73l-1.184,4.859c-5.852-.812-19.237-3.549-23.969-4.859Z" transform="translate(-1113.959 -9031.252)" fill="#0e0000"/>
      </g>
      <g id="Group_9" data-name="Group 9" transform="translate(2001.662 638.622)">
        <path id="Path_31" data-name="Path 31" d="M1405.406,9077.028l7.2,1.456c-.565,1.862-1.132,4.209-1.536,5.908-1.053,5.021-3.887,17-7.286,25.332a120.006,120.006,0,0,1-11.978,22.258l-6.877-2.913a103.227,103.227,0,0,0,12.464-22.015A125.611,125.611,0,0,0,1405.406,9077.028Zm20.151,1.291,6.558-2.182c3.156,5.907,8.334,17.077,11.815,25.656,3.238,7.931,7.529,20.394,9.714,27.68l-7.2,2.348a254.088,254.088,0,0,0-9.144-27.843C1434.057,9095.643,1429.038,9084.393,1425.557,9078.319Z" transform="translate(-1384.93 -9069.501)" fill="#009481"/>
        <path id="Path_32" data-name="Path 32" d="M1479.722,9078.314a127.044,127.044,0,0,1-21.692,17.565v34.639a61.29,61.29,0,0,0,.486,8.659h-7.931a74.983,74.983,0,0,0,.486-8.659v-30.6a161.8,161.8,0,0,1-30.433,12.629l-3.724-6.312a127.776,127.776,0,0,0,36.178-14.894c8.257-5.1,16.755-12.14,21.289-17.886Z" transform="translate(-1337.677 -9073.459)" fill="#009481"/>
        <path id="Path_33" data-name="Path 33" d="M1452.2,9132.291a8.925,8.925,0,0,0,.808-3.965v-46.3a62.411,62.411,0,0,0-.647-7.361h7.932a52.217,52.217,0,0,0-.567,7.361v45.895c15.459-3.889,34.235-14.568,44.271-27.6l3.642,5.662c-10.521,13.035-27.195,22.988-47.346,28.893a11.7,11.7,0,0,0-3.4,1.459Z" transform="translate(-1285.546 -9071.674)" fill="#009481"/>
        <path id="Path_34" data-name="Path 34" d="M1484.459,9107.527c3.885-3.961,10.925-12.947,16.024-18.937,4.291-5.1,7.608-5.662,13.438-.807,4.935,4.049,11.572,11.17,16.752,16.75,5.423,5.832,13.678,14.652,19.587,21.611l-5.26,5.746c-5.666-7.281-13.031-15.619-18.211-21.525-5.584-6.234-12.3-13.52-15.783-16.43-3.4-2.836-4.531-2.756-7.284.645-3.885,4.7-10.683,13.6-14.324,18.049-1.7,2.1-3.481,4.611-4.695,6.23l-5.909-5.984C1480.817,9111.094,1482.356,9109.637,1484.459,9107.527Zm53.5-15.457-4.695,2.188a84.769,84.769,0,0,0-7.526-12.951l4.613-2.021A123.757,123.757,0,0,1,1537.956,9092.07Zm10.682-4.287-4.692,2.266a83.785,83.785,0,0,0-7.772-12.787l4.534-2.1A120.956,120.956,0,0,1,1548.639,9087.783Z" transform="translate(-1246.256 -9070.949)" fill="#009481"/>
        <path id="Path_35" data-name="Path 35" d="M1512.085,9133.068a38.413,38.413,0,0,0,14.082-19.91c2.348-7.446,2.428-23.553,2.428-32.535a29.889,29.889,0,0,0-.565-5.907h7.445c-.079.971-.4,3.4-.4,5.826,0,8.982-.324,26.3-2.51,34.4a44.654,44.654,0,0,1-14.406,22.179Zm37.067.4a19.224,19.224,0,0,0,.567-4.531v-48.482a39.692,39.692,0,0,0-.486-5.986h7.445a51.966,51.966,0,0,0-.322,5.986v46.7a61.4,61.4,0,0,0,23.551-19.908l3.887,5.5c-6.962,9.47-18.212,17.727-27.6,22.417a16.5,16.5,0,0,0-2.75,1.861Z" transform="translate(-1197.07 -9071.963)" fill="#009481"/>
      </g>
      <g id="Group_10" data-name="Group 10" transform="translate(2414.082 652.083)">
        <path id="Path_36" data-name="Path 36" d="M1580.851,9091.281a73.261,73.261,0,0,1-11.143,2.246,110.808,110.808,0,0,1-13.448,26.086l-4.858-2.492c5.168-5.975,10.4-15.809,13.2-23.035q-2.709.188-5.416.188c-2.3,0-4.856-.062-7.159-.187l-.375-4.672a57.852,57.852,0,0,0,7.6.438c2.18,0,4.484-.125,6.848-.309a50.623,50.623,0,0,0,1.93-10.65l5.542.5c-.622,2.244-1.432,5.977-2.428,9.525a62.537,62.537,0,0,0,9.588-2.242Zm7.224,7.164a59.085,59.085,0,0,0-.062,6.658c.062,2.246.309,6.293.436,10.025a41.561,41.561,0,0,1,12.761,7.721l-2.676,4.236a42.787,42.787,0,0,0-9.9-7.035c.062.932.062,1.8.062,2.488,0,4.92-3.238,8.969-10.834,8.969-6.786,0-12.327-2.8-12.327-8.9,0-5.666,5.353-9.342,12.327-9.342a29.371,29.371,0,0,1,5.854.561c-.188-5.043-.5-11.082-.625-15.377Zm-4.172,19.736a22.453,22.453,0,0,0-6.226-.873c-4.546,0-7.534,2.055-7.534,4.859,0,2.859,2.3,4.793,7.1,4.793,5.044,0,6.724-2.8,6.724-5.857C1583.965,9120.3,1583.965,9119.3,1583.9,9118.182Zm16.438-18.055c-3.3-2.8-9.962-6.6-14.072-8.467l2.428-3.861a93.707,93.707,0,0,1,14.446,8.217Z" transform="translate(-1551.402 -9078.893)" fill="#0e0000"/>
      </g>
      <g id="Group_11" data-name="Group 11" transform="translate(1920.742 760.179)">
        <path id="Path_37" data-name="Path 37" d="M1384.394,9145.087c4.358,13.7,12.452,24.97,24.467,29.89a23.862,23.862,0,0,0-3.485,4.355c-11.953-5.666-19.862-16.688-24.779-30.817-2.988,11.952-9.714,23.909-24.841,30.817a13.351,13.351,0,0,0-3.489-3.8c15.442-6.724,21.667-18.68,24.219-30.447h-22.973v-4.73h23.721a132.493,132.493,0,0,0,.934-17.68h4.98a144.411,144.411,0,0,1-1,17.68h25.713v4.73Z" transform="translate(-1352.267 -9122.303)" fill="#0e0000"/>
        <path id="Path_38" data-name="Path 38" d="M1432.453,9162h-25.092v12.141c0,2.739-.746,4.108-2.987,4.795s-5.79.748-11.456.748a20.031,20.031,0,0,0-1.93-4.426c4.732.129,8.966.129,10.147.066,1.308-.066,1.618-.376,1.618-1.309V9162h-24.9v-4.3h24.9v-4.48h2.369a52.479,52.479,0,0,0,8.777-5.478h-25.713v-4.11h30.383l.934-.25,2.988,2.241a55.583,55.583,0,0,1-15.13,10.524v1.553h25.092Zm-49-15.131h-4.42v-13.758h9.523a51.446,51.446,0,0,0-5.23-7.784l3.863-1.741a41.667,41.667,0,0,1,5.975,8.468l-2.116,1.058h12.7a36.493,36.493,0,0,0-4.546-9.091l3.984-1.493a38.4,38.4,0,0,1,5.044,9.526l-2.677,1.058h11.022a67.608,67.608,0,0,0,6.662-9.9l4.794,1.62c-1.93,2.8-4.234,5.789-6.353,8.279h9.652v13.758h-4.484v-9.647h-43.394Z" transform="translate(-1314.469 -9122.525)" fill="#0e0000"/>
        <path id="Path_39" data-name="Path 39" d="M1449.427,9153.493a38.767,38.767,0,0,1-14.257,15.625,79.4,79.4,0,0,0,23.035,6.044,17.573,17.573,0,0,0-2.8,4.292,72.66,72.66,0,0,1-24.841-7.718,83.666,83.666,0,0,1-25.091,7.718,17.57,17.57,0,0,0-2.74-4.106c8.468-1.184,16.562-3.114,23.412-6.229a43.988,43.988,0,0,1-12.578-12.823l.622-.249h-2.675v-4.294h33.93l.934-.189Zm-41.031-.248h-4.357v-12.639h9.9a43.835,43.835,0,0,0-4.11-8.219l3.984-1.121a36.6,36.6,0,0,1,4.422,8.156l-3.674,1.184h27.083a77.291,77.291,0,0,0,5.792-10.586l4.667,1.432c-1.679,3.053-3.86,6.415-5.728,9.154h10.648v12.639h-4.546v-8.528H1408.4Zm45.139-26.962c-12.451,2.618-31.691,4.174-47.814,4.8a14.06,14.06,0,0,0-1.06-3.925c15.94-.685,34.991-2.3,45.639-4.605Zm-35.051,29.763a36.561,36.561,0,0,0,12.2,10.709,33.938,33.938,0,0,0,11.83-10.709Zm10.894-15.812a36.108,36.108,0,0,0-3.112-9.152l4.172-.934a37.254,37.254,0,0,1,3.3,9.026Z" transform="translate(-1277.711 -9122.488)" fill="#0e0000"/>
        <path id="Path_40" data-name="Path 40" d="M1427.36,9174.514c2.18-3.053,2.926-8.531,3.114-13.762l2.926.563c-.312,5.48-1,11.4-3.426,14.693Zm26.211-21.293s0,1.184-.062,1.807c-.622,15.316-1.37,20.793-2.8,22.662a4.44,4.44,0,0,1-3.3,1.615,39.208,39.208,0,0,1-5.542,0,9.235,9.235,0,0,0-1.058-3.67c2.118.123,4.048.123,4.856.123a1.863,1.863,0,0,0,1.682-.621c.622-.809,1.123-2.926,1.494-7.658l-2.116.869a36.176,36.176,0,0,0-3.362-8.092l2.178-.809a37.338,37.338,0,0,1,3.362,7.533c.25-2.555.436-5.854.624-10.023h-18.553V9125.2h22.039v3.922h-8.218v5.357h6.91v3.732h-6.91v5.545h6.91v3.734h-6.91v5.729Zm-16.311,8.281a62.667,62.667,0,0,1,1,11.332l-2.554.369a61.927,61.927,0,0,0-.87-11.391Zm-2.3-32.379v5.357H1441v-5.357Zm6.04,9.09h-6.04v5.545H1441Zm-6.04,15.008H1441v-5.729h-6.04Zm6.786,18.057a48.4,48.4,0,0,0-2.428-10.025l2.3-.5a44.685,44.685,0,0,1,2.552,9.9Zm28.827-48.625c3.736,6.1,9.776,12.016,15.377,15a28.246,28.246,0,0,0-2.428,3.92,50.735,50.735,0,0,1-14.817-14.754,46.884,46.884,0,0,1-14.694,15.314,17.085,17.085,0,0,0-2.3-3.613c6.1-3.609,12.018-10.082,14.693-15.871Zm1.93,39.473a23.4,23.4,0,0,0,12.952,13.572,16.918,16.918,0,0,0-2.928,3.672c-6.1-2.865-10.583-8.221-13.2-15-1.93,5.666-6.038,10.957-14.632,15.068a15.817,15.817,0,0,0-2.926-3.24c8.406-3.859,12.142-8.84,13.822-14.068h-10.271v-15.316h11.455v-4.92h-7.41v-3.8h19.24v3.8h-7.72v4.92h11.83v15.316Zm-6.1-3.549a40.485,40.485,0,0,0,.374-6.1v-2.055h-7.534v8.156Zm4.484-8.156v2.117a48.88,48.88,0,0,1-.312,6.039h8.094v-8.156Z" transform="translate(-1241.324 -9122.341)" fill="#0e0000"/>
        <path id="Path_41" data-name="Path 41" d="M1494.944,9172.281a45.772,45.772,0,0,0-14.882-9.275c.062,1.557.126,2.926.126,3.859,0,4.232-2.864,8.652-10.9,8.652-8.843,0-13.76-3.174-13.76-9.152,0-5.6,5.416-9.4,14.32-9.4a34.461,34.461,0,0,1,5.168.373c-.127-2.742-.25-5.666-.313-8.219h-3.424c-4.234,0-11.084-.373-15.5-.869v-4.732a109.833,109.833,0,0,0,15.5,1.18h3.3v-8.838h-3.052c-4.3,0-10.833-.5-14.505-.934v-4.609a98.447,98.447,0,0,0,14.443,1.184h3.176v-4.051a34.04,34.04,0,0,0-.188-3.67h5.294a31.409,31.409,0,0,0-.312,4.111c-.062.744-.062,1.926-.062,3.422a136.121,136.121,0,0,0,15.813-1.5l.062,4.547c-4.856.5-10.147,1-15.937,1.307v8.844a166.866,166.866,0,0,0,17.121-1.619l.062,4.67c-5.79.742-11.27,1.182-17.122,1.432.124,3.174.31,6.412.436,9.338a50.629,50.629,0,0,1,17.929,9.586Zm-19.738-10.648a31.59,31.59,0,0,0-5.978-.557c-5.852,0-9.028,2.24-9.028,5.041,0,2.865,2.427,4.98,8.53,4.98,3.55,0,6.538-1.057,6.538-5.289C1475.268,9164.748,1475.206,9163.316,1475.206,9161.633Z" transform="translate(-1199.7 -9120.667)" fill="#0e0000"/>
        <path id="Path_42" data-name="Path 42" d="M1482.724,9129.115c4.048-.375,15.692-1.5,27.021-2.488,6.726-.564,12.516-.877,16.626-1.061v4.98c-3.55,0-8.9.063-12.08.994-8.78,2.8-14.072,12.205-14.072,19.49,0,12.016,11.208,15.811,21.231,16.188l-1.806,5.23c-11.394-.5-24.405-6.6-24.405-20.361a24.922,24.922,0,0,1,11.456-20.793c-5.416.619-22.227,2.238-28.889,3.611l-.56-5.48C1479.612,9129.361,1481.542,9129.24,1482.724,9129.115Zm40.035,17.619-3.176,1.5a57.8,57.8,0,0,0-5.106-8.781l3.176-1.369A74.176,74.176,0,0,1,1522.758,9146.734Zm7.1-2.676-3.238,1.494a55.573,55.573,0,0,0-5.292-8.658l3.112-1.432A93.563,93.563,0,0,1,1529.857,9144.059Z" transform="translate(-1167.621 -9118.032)" fill="#0e0000"/>
        <path id="Path_43" data-name="Path 43" d="M1539.853,9142.459c7.719,2.057,12.327,7.783,12.327,14.568,0,8.844-5.854,16.564-20.174,18.8l-2.676-4.17c11.082-1.182,17.929-6.912,17.929-14.883,0-4.668-3.05-8.9-8.842-10.457a50.024,50.024,0,0,1-13.633,19.922c.5,1.746,1,3.424,1.494,4.98l-4.546,1.371c-.31-1.062-.684-2.18-1-3.428a20.657,20.657,0,0,1-10.334,3.365c-4.172,0-7.347-2.49-7.347-7.783,0-7.906,6.912-16.062,15.379-19.922.124-3.115.434-6.229.684-9.092-1.308.063-2.555.063-3.736.063-2.678,0-7.472-.248-9.961-.373l-.124-4.67a100.159,100.159,0,0,0,10.147.748c1.37,0,2.74,0,4.11-.062.186-1.807.374-3.424.5-4.73a26.451,26.451,0,0,0,.186-2.928l5.23.125a22.434,22.434,0,0,0-.746,2.74q-.375,1.96-.748,4.668a128.647,128.647,0,0,0,21.605-2.617l.062,4.672a210.48,210.48,0,0,1-22.227,2.24c-.25,2.367-.436,4.98-.622,7.6a36.706,36.706,0,0,1,10.333-1.619c.749,0,1.5,0,2.242.063l.186-.562a22.043,22.043,0,0,0,.624-3.547l4.98,1.246c-.372.809-.869,2.488-1.244,3.422Zm-21.606,7.035c-5.976,3.426-10.521,9.527-10.521,14.506,0,2.492,1.181,3.738,3.485,3.738,2.366,0,5.354-1.062,8.468-3.238a74.055,74.055,0,0,1-1.432-13.945Zm14.817-3.861a30.656,30.656,0,0,0-10.459,1.934v2.426a64.636,64.636,0,0,0,1.058,11.207,42.015,42.015,0,0,0,10.4-15.566Z" transform="translate(-1129.489 -9120.667)" fill="#0e0000"/>
        <path id="Path_44" data-name="Path 44" d="M1534.165,9152.424a29.176,29.176,0,0,1,19.923-7.406c9.464,0,15.751,5.666,15.751,12.885,0,11.084-9.773,18.555-32.687,16.625l-1.494-5.109c19.425,2.367,28.951-3.232,28.951-11.641,0-4.918-4.543-8.342-10.834-8.342-8.218,0-14.693,2.988-19.051,8.154a12.808,12.808,0,0,0-1.868,3.117l-4.67-1.121a218.207,218.207,0,0,0,3.114-25.027l5.292.682C1535.783,9139.473,1534.725,9148.438,1534.165,9152.424Zm3.8-28.391a164.778,164.778,0,0,0,23.845,4.73l-1.182,4.859c-5.854-.812-19.239-3.549-23.972-4.859Z" transform="translate(-1092.36 -9120.297)" fill="#0e0000"/>
        <path id="Path_45" data-name="Path 45" d="M1579.624,9123.807a80.925,80.925,0,0,1,1.246,8.282c11.456,0,18.306,7.285,18.306,16.5,0,10.088-6.229,17.935-18.927,17.935-.686,0-1.37-.062-2.056-.125a24.347,24.347,0,0,1-8.842,10.21l-4.605-2.742a20.526,20.526,0,0,0,8.592-8.653,18.887,18.887,0,0,1-10.147-9.523l2.925-3.49c2.116,4.36,4.98,7.41,9.028,8.778a46.764,46.764,0,0,0,1.93-14.628c0-3.361-.186-6.661-.374-9.586-10.646,1.927-17.558,11.2-19.364,19.047a12.535,12.535,0,0,0-.436,3.8,41.811,41.811,0,0,0,.81,5.791l-4.358.686a63.132,63.132,0,0,1-1.992-15.941c0-6.907,1.244-15.5,1.618-18.863a23.206,23.206,0,0,0,.062-2.862l5.356.437c-.25.873-.562,1.864-.811,2.925-.81,3.985-2.056,13.075-1.682,17.931a27.437,27.437,0,0,1,20.359-17.183c-.248-1.992-.56-3.673-.81-4.8a23.7,23.7,0,0,0-1-3.8Zm.625,37.979c8.592,0,14.131-4.918,14.131-13.014,0-6.6-4.169-12.14-13.073-12.39.248,3.178.436,6.6.436,9.964a57.7,57.7,0,0,1-1.806,15.439Z" transform="translate(-1058.125 -9120.632)" fill="#0e0000"/>
        <path id="Path_46" data-name="Path 46" d="M1615.27,9128.373c-1.12.748-2.49,1.681-3.424,2.367-3.049,2.3-11.332,9.586-16.061,13.571a26.212,26.212,0,0,1,8.342-1.307c10.273,0,17.681,6.224,17.681,14.569,0,9.96-8.28,16.434-21.294,16.434-8.4,0-13.571-3.732-13.571-8.841,0-4.231,3.8-8.092,9.525-8.092,7.72,0,11.892,5.167,12.7,10.9,4.856-1.867,7.658-5.416,7.658-10.459,0-6.04-6.1-10.459-13.884-10.459-10.15,0-15.754,4.294-23.6,12.265l-3.612-3.677c5.106-4.231,13.014-10.834,16.624-13.817,3.426-2.866,11.084-9.34,14.134-12.078-3.238.121-15.377.683-18.554.87a29.734,29.734,0,0,0-4.172.374l-.124-5.171a34.86,34.86,0,0,0,4.358.188c3.176,0,17.808-.434,21.043-.745a21.993,21.993,0,0,0,3.362-.5Zm-10.645,40.776c-.56-4.852-3.486-8.214-8.156-8.214-2.8,0-4.918,1.681-4.918,3.8,0,3.05,3.548,4.793,8.156,4.793A29.923,29.923,0,0,0,1604.625,9169.149Z" transform="translate(-1022.111 -9119.219)" fill="#0e0000"/>
      </g>
      <g id="Group_12" data-name="Group 12" transform="translate(2031.413 871.128)">
        <path id="Path_47" data-name="Path 47" d="M1396.939,9213.975a6.858,6.858,0,0,0,.625-3.051v-35.615a48.121,48.121,0,0,0-.5-5.66h6.1a40.06,40.06,0,0,0-.436,5.66v35.3c11.892-2.986,26.335-11.2,34.054-21.229l2.8,4.359c-8.094,10.023-20.919,17.682-36.42,22.229a8.768,8.768,0,0,0-2.616,1.119Z" transform="translate(-1396.939 -9163.854)" fill="#0e0000"/>
        <path id="Path_48" data-name="Path 48" d="M1421.755,9194.928c2.988-3.053,8.4-9.965,12.327-14.568,3.3-3.922,5.852-4.361,10.336-.623,3.8,3.113,8.9,8.592,12.887,12.889,4.17,4.482,10.522,11.268,15.065,16.623l-4.046,4.416c-4.358-5.6-10.024-12.012-14.01-16.557-4.3-4.793-9.463-10.4-12.139-12.639-2.616-2.182-3.488-2.117-5.6.494-2.988,3.609-8.218,10.463-11.02,13.889-1.308,1.619-2.678,3.549-3.612,4.791l-4.543-4.605C1418.953,9197.666,1420.134,9196.545,1421.755,9194.928Zm41.152-11.891-3.609,1.68a65.448,65.448,0,0,0-5.79-9.965l3.548-1.557A96.283,96.283,0,0,1,1462.907,9183.037Zm8.22-3.3-3.612,1.744a64.36,64.36,0,0,0-5.976-9.836l3.486-1.619A92.867,92.867,0,0,1,1471.127,9179.736Z" transform="translate(-1366.714 -9163.297)" fill="#0e0000"/>
        <path id="Path_49" data-name="Path 49" d="M1443.006,9214.573a29.563,29.563,0,0,0,10.832-15.316c1.806-5.728,1.868-18.116,1.868-25.029a22.888,22.888,0,0,0-.436-4.545H1461c-.062.747-.309,2.615-.309,4.483,0,6.912-.25,20.235-1.93,26.458a34.338,34.338,0,0,1-11.084,17.063Zm28.515.313a14.927,14.927,0,0,0,.436-3.49V9174.1a30.456,30.456,0,0,0-.374-4.608h5.728a39.565,39.565,0,0,0-.25,4.608v35.924a47.247,47.247,0,0,0,18.117-15.315l2.99,4.233c-5.354,7.283-14.01,13.634-21.231,17.247a12.2,12.2,0,0,0-2.116,1.431Z" transform="translate(-1328.879 -9164.077)" fill="#0e0000"/>
        <path id="Path_50" data-name="Path 50" d="M1478.2,9169.756c-.375,1.061-.934,3.05-1.182,4.17-1.184,5.668-2.99,16.688-2.99,23.6a64.714,64.714,0,0,0,.5,8.468c1.06-2.8,2.428-6.415,3.424-8.842l2.678,1.992a133.9,133.9,0,0,0-4.357,13.822,15.421,15.421,0,0,0-.312,2.738l.188,2.18-4.484.313a77.342,77.342,0,0,1-2.24-19.8c0-9.089,1.992-19.671,2.737-24.715a36.493,36.493,0,0,0,.436-4.358Zm14.072,29.885a22.938,22.938,0,0,0-.811,5.666c0,2.8,1.868,5.543,10.336,5.543a66.89,66.89,0,0,0,15.253-1.622l.062,5.231a81.924,81.924,0,0,1-15.377,1.246c-10.336,0-14.944-3.424-14.944-9.215a35.71,35.71,0,0,1,1-7.283Zm-2.428-25.152c6.724,1.121,19.175.872,25.339,0v5.105a155.592,155.592,0,0,1-25.277,0Z" transform="translate(-1289.856 -9164.338)" fill="#0e0000"/>
        <path id="Path_51" data-name="Path 51" d="M1516.652,9183.932a88.24,88.24,0,0,1-5.292,19.368,75.144,75.144,0,0,1,6.909,10.645l-3.733,3.177a73.5,73.5,0,0,0-5.418-9.089,42.532,42.532,0,0,1-14.069,15.626,21.325,21.325,0,0,0-3.238-3.549,37.02,37.02,0,0,0,14.443-16.125,157.735,157.735,0,0,0-11.02-13.263l3.238-2.613c3.238,3.358,6.662,7.283,9.773,11.144a80.5,80.5,0,0,0,3.922-15.942Zm5.416-2.051H1493.3v-4.3h11.83v-10.147h4.42v10.147h12.513Zm27.021,4.8h-7.408v31.192c0,3.108-.748,4.482-2.616,5.354-1.868.745-4.98.87-10.333.87a19.176,19.176,0,0,0-1.5-4.793c3.924.124,7.348.124,8.406.061s1.494-.373,1.494-1.492v-31.192h-17v-4.42h17V9167.31h4.546v14.947h7.408Zm-21.479,22.163a54.47,54.47,0,0,0-6.724-13.946l3.8-1.743c2.988,4.233,5.914,9.962,6.847,13.7Z" transform="translate(-1256.773 -9167.31)" fill="#0e0000"/>
        <path id="Path_52" data-name="Path 52" d="M1527.03,9179.726v11.645c0,9.461-.872,23.408-6.164,32.811a17.234,17.234,0,0,0-3.925-2.618c5.044-8.9,5.542-21.354,5.542-30.192V9175.3h22.849v-7.969h4.732v7.969h23.721v4.421Zm.062,36.608c3.112-4.732,4.732-12.329,5.478-18.863l4.234.935c-.872,6.785-2.428,14.878-5.6,19.8Zm29.573,2.365c2.552,0,2.926-1.554,3.115-10.646a14.728,14.728,0,0,0,4.169,1.868c-.5,10.274-1.679,13.014-6.971,13.014h-9.09c-5.418,0-6.85-1.556-6.85-6.724v-24.034h4.546v24.034c0,2.116.5,2.488,2.864,2.488Zm-.374-24.342a74,74,0,0,0-14.319-9.588l3.176-2.991a76.054,76.054,0,0,1,14.444,9.153Zm9.526,1.741c4.11,6.351,8.032,14.7,9.092,20.235l-4.422,1.929c-1.058-5.48-4.732-14.006-8.778-20.483Z" transform="translate(-1219.644 -9167.271)" fill="#0e0000"/>
        <path id="Path_53" data-name="Path 53" d="M1543.179,9211.511a4.981,4.981,0,1,1,4.982,4.92A4.777,4.777,0,0,1,1543.179,9211.511Zm1.432-34.618-.186-7.345h7.472l-.126,7.345-1.556,24.155h-4.108Z" transform="translate(-1180.882 -9164.003)" fill="#0e0000"/>
      </g>
      <g id="Group_30" data-name="Group 30" transform="translate(2235.753 1427.956)">
        <path id="Path_105" data-name="Path 105" d="M1511.515,9414.667c4.127,12.619,11.772,22.873,23.238,27.666a22.36,22.36,0,0,0-4.184,5.277c-11.346-5.277-18.69-15.105-23.421-27.969-3.094,10.98-9.647,21.479-23.419,27.969a19.633,19.633,0,0,0-4.308-4.732c14.441-6.309,20.325-17.232,22.753-28.211h-21.539v-5.826H1503.2a151.763,151.763,0,0,0,.728-16.744h6.129a153.35,153.35,0,0,1-.849,16.744h24.449v5.826Z" transform="translate(-1479.42 -9392.034)"/>
        <path id="Path_106" data-name="Path 106" d="M1523.936,9395.148c-1.7,5.1-3.823,11.41-5.765,16.141,4.125,4.793,5.037,8.982,5.037,12.621,0,3.455-.729,6.006-2.488,7.219a8.12,8.12,0,0,1-3.278,1.213,29.107,29.107,0,0,1-4,.063,11.045,11.045,0,0,0-1.335-4.855,18.567,18.567,0,0,0,3.094.063,3.241,3.241,0,0,0,1.881-.551c.85-.6,1.093-2.059,1.093-3.822,0-3.029-.971-6.973-4.913-11.344,1.516-4.061,3.094-9.461,4.246-13.588h-6.493v48.051h-4.975v-53.148h13.349l.849-.184Zm32.945,15.533c-1.578,9.832-4.673,17.412-8.981,23.238a34.221,34.221,0,0,0,11.894,7.645,21.364,21.364,0,0,0-3.642,4.734,37.029,37.029,0,0,1-11.83-8.131,39.3,39.3,0,0,1-12.137,8.189,21.841,21.841,0,0,0-3.275-4.609,32.522,32.522,0,0,0,11.833-7.828,55.949,55.949,0,0,1-8.193-16.742c-.424,9.582-2.244,21.174-8.371,29.059a19.334,19.334,0,0,0-4.248-3.4c6.857-9.041,7.4-21.9,7.4-31.367v-17.412h30.64v5.154h-25.3v10.68h19.72l1.03-.184Zm-19.9,4.309a48.778,48.778,0,0,0,7.222,14.684,43.228,43.228,0,0,0,6.369-14.684Z" transform="translate(-1440.096 -9390.66)"/>
        <path id="Path_107" data-name="Path 107" d="M1553.038,9394.471c-4.006,9.643-10.316,18.867-16.626,24.754a31.178,31.178,0,0,0-5.4-4.187c6.431-5.158,12.256-13.652,15.652-22.33Zm16.745,29.121c5.4,6.43,11.347,14.8,14.32,20.387l-5.765,3.092q-1.092-2.18-2.73-4.914c-14.865.91-30.579,1.7-41.318,2.246l-.728-5.947c2.487-.061,5.279-.184,8.312-.3a158.74,158.74,0,0,0,10.982-25.18l6.675,1.639a243.03,243.03,0,0,1-11.164,23.3c7.4-.3,15.715-.672,23.9-1.094-2.487-3.7-5.277-7.523-7.888-10.74Zm-.545-30.885a86.769,86.769,0,0,0,16.562,21.6,28.255,28.255,0,0,0-4.791,4.918,129.164,129.164,0,0,1-17.354-24.148Z" transform="translate(-1403.194 -9391.13)"/>
        <path id="Path_108" data-name="Path 108" d="M1610.979,9439.64v5.643H1556.8v-5.643h30.277a177.538,177.538,0,0,0,7.645-28.334l6.432,1.215a246.633,246.633,0,0,1-8.131,27.119Zm-1.821-30.762H1558.74v-5.584H1580.7v-11.223h5.886v11.223h22.569Zm-37.07,28.271a93.053,93.053,0,0,0-5.4-24.086l5.338-1.453a93.674,93.674,0,0,1,5.825,24.025Z" transform="translate(-1365.101 -9392.071)"/>
        <path id="Path_109" data-name="Path 109" d="M1614.361,9414.667c4.125,12.619,11.77,22.873,23.238,27.666a22.308,22.308,0,0,0-4.187,5.277c-11.346-5.277-18.687-15.105-23.421-27.969-3.094,10.98-9.647,21.479-23.419,27.969a19.633,19.633,0,0,0-4.308-4.732c14.441-6.309,20.327-17.232,22.753-28.211h-21.539v-5.826h22.572a152.264,152.264,0,0,0,.726-16.744h6.129a152.74,152.74,0,0,1-.849,16.744h24.452v5.826Z" transform="translate(-1327.477 -9392.034)"/>
      </g>
    </g>
  </g>
</svg>
