<svg xmlns="http://www.w3.org/2000/svg" xmlns:xlink="http://www.w3.org/1999/xlink" viewBox="0 0 1426.54 571.67"><defs><style>.cls-1,.cls-10,.cls-3{fill:none;}.cls-2{fill:#ffe800;}.cls-10,.cls-3{stroke:#009481;stroke-miterlimit:10;}.cls-3{stroke-width:1.11px;}.cls-4{fill:#009481;}.cls-5{fill:#0e0000;}.cls-6{clip-path:url(#clip-path);}.cls-7{fill:url(#名称未設定グラデーション_4);}.cls-8{clip-path:url(#clip-path-2);}.cls-9{fill:url(#名称未設定グラデーション_4-2);}.cls-10{stroke-width:4px;}.cls-11{fill:#9f6923;}.cls-12{fill:#d44b4a;}.cls-13{fill:#fff;}.cls-14{fill:#68bcb1;}.cls-15{fill:#25a491;}.cls-16{fill:#08857b;}.cls-17{fill:#088d7b;}.cls-18{fill:#25ac99;}</style><clipPath id="clip-path"><path class="cls-1" d="M1127.57,494.75a2.26,2.26,0,0,0,0,3.29,2.27,2.27,0,0,0,3.14,0,2.26,2.26,0,0,0,0-3.29,2.25,2.25,0,0,0-3.14,0m0-10.33a2.27,2.27,0,0,0,0,3.3,2.27,2.27,0,0,0,3.14,0,2.27,2.27,0,0,0,0-3.3,2.27,2.27,0,0,0-3.14,0m0-10.32a2.26,2.26,0,0,0,0,3.29,2.27,2.27,0,0,0,3.14,0,2.26,2.26,0,0,0,0-3.29,2.27,2.27,0,0,0-3.14,0"/></clipPath><linearGradient id="名称未設定グラデーション_4" x1="8099" y1="-1552.67" x2="8101.45" y2="-1552.67" gradientTransform="matrix(0, 10.3, 10.3, 0, 17122.46, -82950.27)" gradientUnits="userSpaceOnUse"><stop offset="0" stop-color="#d7e8ec"/><stop offset="0.31" stop-color="#c2ded7"/><stop offset="0.33" stop-color="#b9dad3"/><stop offset="0.51" stop-color="#78beb6"/><stop offset="0.67" stop-color="#44a89f"/><stop offset="0.81" stop-color="#1f988e"/><stop offset="0.93" stop-color="#088f84"/><stop offset="1" stop-color="#008b80"/></linearGradient><clipPath id="clip-path-2"><path class="cls-1" d="M1127.57,419a2.27,2.27,0,0,0,0,3.3,2.27,2.27,0,0,0,3.14,0,2.27,2.27,0,0,0,0-3.3,2.27,2.27,0,0,0-3.14,0m0-10.33a2.27,2.27,0,0,0,0,3.3,2.27,2.27,0,0,0,3.14,0,2.27,2.27,0,0,0,0-3.3,2.3,2.3,0,0,0-3.14,0m0-10.32a2.27,2.27,0,0,0,0,3.3,2.27,2.27,0,0,0,3.14,0,2.27,2.27,0,0,0,0-3.3,2.27,2.27,0,0,0-3.14,0"/></clipPath><linearGradient id="名称未設定グラデーション_4-2" x1="8094.65" y1="-1552.67" x2="8097.1" y2="-1552.67" gradientTransform="matrix(0, 10.3, 10.3, 0, 17122.46, -82981.23)" xlink:href="#名称未設定グラデーション_4"/></defs><g id="Layer_2" data-name="Layer 2"><g id="design"><path class="cls-2" d="M1369.8,147.72a138,138,0,1,1-138-138,138,138,0,0,1,138,138"/><path class="cls-3" d="M1037.56,346.94a18.91,18.91,0,0,1,18.85-18.86h350.72A18.92,18.92,0,0,1,1426,346.94V545.06a18.91,18.91,0,0,1-18.86,18.85H1056.41a18.9,18.9,0,0,1-18.85-18.85"/><path class="cls-4" d="M1062.36,385.79a3.45,3.45,0,0,0,.32-1.57v-18.3a26.15,26.15,0,0,0-.25-2.91h3.13a20.37,20.37,0,0,0-.22,2.91v18.14c6.11-1.53,13.53-5.76,17.5-10.91l1.44,2.24c-4.16,5.16-10.75,9.09-18.72,11.43a4.38,4.38,0,0,0-1.34.57Z"/><path class="cls-4" d="M1092.47,376.29c1.54-1.57,4.32-5.12,6.34-7.49,1.69-2,3-2.24,5.31-.32a79.6,79.6,0,0,1,6.62,6.63c2.15,2.3,5.41,5.79,7.75,8.54l-2.08,2.27c-2.24-2.88-5.15-6.17-7.2-8.51-2.21-2.46-4.87-5.34-6.24-6.5s-1.79-1.08-2.88.26c-1.54,1.86-4.23,5.38-5.66,7.13-.68.84-1.38,1.83-1.86,2.47l-2.34-2.37C1091,377.7,1091.64,377.12,1092.47,376.29Zm21.15-6.11-1.85.86a33.44,33.44,0,0,0-3-5.12l1.83-.8A47.3,47.3,0,0,1,1113.62,370.18Zm4.23-1.7-1.86.9a32.76,32.76,0,0,0-3.07-5.06l1.79-.83A48.84,48.84,0,0,1,1117.85,368.48Z"/><path class="cls-4" d="M1124.51,386a15.19,15.19,0,0,0,5.56-7.87c.93-2.94,1-9.31,1-12.86a11.77,11.77,0,0,0-.22-2.34h2.94c0,.39-.16,1.35-.16,2.31,0,3.55-.12,10.4-1,13.6a17.66,17.66,0,0,1-5.69,8.76Zm14.65.16a7.49,7.49,0,0,0,.22-1.79V365.19a15.94,15.94,0,0,0-.19-2.37h3a18.32,18.32,0,0,0-.13,2.37v18.46a24.39,24.39,0,0,0,9.31-7.87l1.54,2.17a32.21,32.21,0,0,1-10.92,8.87,6.3,6.3,0,0,0-1.08.73Z"/><path class="cls-4" d="M1158.81,384.38H1164v-17.5h-4.16V365a14.88,14.88,0,0,0,4.86-1.67H1167v21h4.7v2.44h-12.86Z"/><path class="cls-4" d="M1178.17,384.38h5.22v-17.5h-4.16V365a14.88,14.88,0,0,0,4.86-1.67h2.24v21h4.7v2.44h-12.86Z"/><path class="cls-4" d="M1073.66,460.17a3.58,3.58,0,0,0,.32-1.57V440.3a23.64,23.64,0,0,0-.26-2.91h3.14a20.32,20.32,0,0,0-.23,2.91v18.14c6.11-1.53,13.54-5.76,17.5-10.91l1.44,2.24c-4.16,5.15-10.75,9.09-18.71,11.42a4.63,4.63,0,0,0-1.35.58Z"/><path class="cls-4" d="M1103.77,450.67c1.53-1.57,4.32-5.12,6.33-7.49,1.7-2,3-2.24,5.31-.32a79.44,79.44,0,0,1,6.63,6.62c2.14,2.31,5.41,5.79,7.74,8.55l-2.08,2.27c-2.24-2.88-5.15-6.18-7.2-8.51a84.48,84.48,0,0,0-6.24-6.5c-1.34-1.12-1.79-1.09-2.88.26-1.53,1.85-4.22,5.37-5.66,7.13-.67.83-1.38,1.83-1.86,2.47l-2.33-2.37C1102.33,452.07,1102.94,451.5,1103.77,450.67Zm21.15-6.12-1.86.87a33.74,33.74,0,0,0-3-5.12l1.82-.8A49.91,49.91,0,0,1,1124.92,444.55Zm4.22-1.69-1.85.9a33.6,33.6,0,0,0-3.08-5.06l1.8-.83A48.83,48.83,0,0,1,1129.14,442.86Z"/><path class="cls-4" d="M1135.8,460.36a15.19,15.19,0,0,0,5.57-7.87c.93-2.94,1-9.31,1-12.86a11.62,11.62,0,0,0-.23-2.34h3c0,.38-.16,1.34-.16,2.3,0,3.56-.13,10.4-1,13.6a17.64,17.64,0,0,1-5.7,8.77Zm14.65.16a7.47,7.47,0,0,0,.23-1.79V439.56a15.9,15.9,0,0,0-.19-2.36h2.94a20.45,20.45,0,0,0-.13,2.36V458a24.26,24.26,0,0,0,9.31-7.88l1.54,2.18a32.14,32.14,0,0,1-10.91,8.86,6.42,6.42,0,0,0-1.09.74Z"/><path class="cls-4" d="M1181.62,441.51a4.93,4.93,0,0,0-3.77-1.79c-3.2,0-5.92,2.47-6,9.76a7.3,7.3,0,0,1,5.34-2.85c4,0,6.5,2.47,6.5,7.36,0,4.55-3.07,7.62-6.72,7.62-4.51,0-7.84-3.87-7.84-11.62,0-9.18,4.13-12.7,8.67-12.7a7.23,7.23,0,0,1,5.47,2.4Zm-.73,12.48c0-3.16-1.38-5.18-4.23-5.18-1.47,0-3.26.83-4.8,3,.36,4.86,2.12,7.52,5.06,7.52C1179.16,459.34,1180.89,457.19,1180.89,454Z"/><path class="cls-5" d="M1250.64,366.69a23.13,23.13,0,0,0,8.42,5.06,9.49,9.49,0,0,0-1.64,2,24.93,24.93,0,0,1-8.56-6V374h-2.37v-6.16a24.88,24.88,0,0,1-8.42,5.85,10.25,10.25,0,0,0-1.56-1.91,23.33,23.33,0,0,0,8.22-5.09h-5.51v-9.05h7.27v-1.78h-9.35v-2.11h9.35v-2.17h2.37v2.17h9.56v2.11h-9.56v1.78h7.63v9.05Zm-9.19-5.35h5v-2h-5Zm0,3.61h5v-2h-5Zm7.41-5.57v2h5.33v-2Zm5.33,3.59h-5.33v2h5.33Zm14.69,4.75a22.18,22.18,0,0,1-4.77,5.43,11.7,11.7,0,0,0-1.86-1.35,16,16,0,0,0,4.33-4.82ZM1284,356.35h-21.23v-2.18h9.35v-2.62h2.42v2.62H1284Zm-9.46,9.41v5.75c0,1.22-.27,1.86-1.2,2.18a15.07,15.07,0,0,1-4.4.31,9.3,9.3,0,0,0-.74-2.15c1.47,0,3,0,3.4,0s.56-.1.56-.42v-5.7h-6.5v-7.43h15.65v7.43Zm-6.61-1.95h11v-3.48h-11Zm11.89,3.17a44.58,44.58,0,0,1,4.5,5.21l-2.23,1.15a36.56,36.56,0,0,0-4.37-5.35Zm21.07-6.28c1.66,5.09,4.74,9.22,9.37,11.15a8.82,8.82,0,0,0-1.69,2.13c-4.57-2.13-7.53-6.09-9.44-11.28a16.94,16.94,0,0,1-9.44,11.28,8,8,0,0,0-1.74-1.91,15.18,15.18,0,0,0,9.17-11.37h-8.68v-2.35h9.1a60.94,60.94,0,0,0,.29-6.75h2.47a61.4,61.4,0,0,1-.34,6.75h9.86v2.35Zm21.8-9.59,1.86.88a15.23,15.23,0,0,0,0,21.62l-1.86.88a16.54,16.54,0,0,1,0-23.38ZM1335.17,369c-2.67.93-5.51,1.88-7.71,2.59l-.54-2.32c.88-.25,2-.54,3.13-.91v-6.21h-2.64v-2.1h2.64v-4.87h-2.88v-2.1H1335v2.1h-2.72v4.87h2.32v2.1h-2.32v5.53c.83-.27,1.71-.54,2.54-.83Zm14.45,2.13v2.08H1334v-2.08h7.09v-2.91h-5.3V366.2h5.3v-2.52H1336v-11h12.52v11h-5.11v2.52h5.43v2.06h-5.43v2.91Zm-11.54-13.92h3.2v-2.64h-3.2Zm0,4.5h3.2v-2.66h-3.2Zm8.26-7.14h-3.13v2.64h3.13Zm0,4.48h-3.13v2.66h3.13Zm28.12,11v2.3h-21v-2.3Zm-1.3-16.19v2.32h-18.34V353.9Zm-1.91,7.85v2.32h-14.84v-2.32Zm8.26,12.74-1.86-.88a15.23,15.23,0,0,0,0-21.62l1.86-.88a16.54,16.54,0,0,1,0,23.38Z"/><path class="cls-5" d="M1239.39,396.79V383.12a13.64,13.64,0,0,0-.22-2.47h3a14.88,14.88,0,0,0-.2,2.44v13.38c4.38-1.18,9.93-4.35,13-8.22l1.39,2.15c-3.25,4-8.31,7-14.25,8.78a5,5,0,0,0-1.23.52l-1.81-1.54A2.65,2.65,0,0,0,1239.39,396.79Zm22.1-6.17c1.15-1.15,3.18-3.74,4.77-5.65,1.37-1.61,2.67-1.88,4.43-.19,1.54,1.44,3.54,3.54,5,5.09,1.66,1.76,4.13,4.42,6,6.45l-2.13,2.25c-1.71-2.05-3.81-4.57-5.33-6.33s-3.64-4-4.62-5-1.37-.78-2.13.17c-1.07,1.32-3,3.89-4.06,5.23l-1.46,2.06-2.33-2.37A22.55,22.55,0,0,0,1261.49,390.62Zm16.44-4.47-1.77.78a26.39,26.39,0,0,0-2.25-3.94l1.72-.73C1276.26,383.21,1277.36,385,1277.93,386.15Zm3.27-1.35-1.73.83a22.93,22.93,0,0,0-2.35-3.86l1.71-.78A33.39,33.39,0,0,1,1281.2,384.8Zm7.6,7.51c.71-2.18.71-6.94.71-9.76a7.45,7.45,0,0,0-.2-2h2.84a17.15,17.15,0,0,0-.12,2c0,2.79-.1,8-.76,10.44a13.79,13.79,0,0,1-4.36,6.85l-2.34-1.57A11.33,11.33,0,0,0,1288.8,392.31Zm7.21,4.62V382.46a18.77,18.77,0,0,0-.14-2h2.83a15.84,15.84,0,0,0-.12,2V396a17.1,17.1,0,0,0,6.65-5.63l1.49,2.11a25.73,25.73,0,0,1-8.34,6.75,7.12,7.12,0,0,0-.93.61l-1.61-1.35A6.83,6.83,0,0,0,1296,396.93Z"/><path class="cls-5" d="M1257.86,472.27c0,1.3-.29,2-1.1,2.35a10.77,10.77,0,0,1-4.13.42,8.75,8.75,0,0,0-.79-2.23c1.4.08,2.81.05,3.23.05s.56-.17.56-.59V455.91h-15.77v19.15h-2.2v-21.3h20.2Zm-4-12.22h-12.23v-1.94h12.23ZM1245,470.17v1.71h-2.11V462.3h9.81v7.87Zm0-6v4.06h5.6V464.2Zm17.08,8.64a9.84,9.84,0,0,0,3.11-5.75l2,.61c-.51,2.42-1.39,4.89-3.23,6.38ZM1272.2,458h-9.53v-2.15h9.53v-3.28h2.28v3.28h9.78V458h-9.78v3.67h8.31v2.15h-18.56v-2.15h8Zm3.92,14.65c1.05,0,1.24-.37,1.34-2.84a6.86,6.86,0,0,0,2.06.84c-.27,3.22-.93,4-3.21,4h-4.4c-2.76,0-3.5-.66-3.5-2.86v-5h2.25v5c0,.71.22.86,1.47.86Zm-4.48-8.8a16.34,16.34,0,0,1,4.55,3.3l-1.66,1.54a15.87,15.87,0,0,0-4.43-3.5Zm8.68,2.66a21.33,21.33,0,0,1,4.33,6.12l-2.1,1.12a19.76,19.76,0,0,0-4.13-6.24Zm16.6,1.67a38.23,38.23,0,0,0-2.67-2.89V475H1292v-9a22.2,22.2,0,0,1-3.42,2.74,10.33,10.33,0,0,0-1.13-2.11,20.18,20.18,0,0,0,7.27-7.48h-6.41v-2.08H1292v-4.5h2.25v4.5h1.69l.39-.07,1.27.85a22.46,22.46,0,0,1-3,5.26c1.15.93,3.18,2.69,3.74,3.21Zm13.65,3.91v2.25h-13.7v-2.25h5.92v-9.59h-4.94v-2.2h4.94v-7.53h2.32v7.53h4.94v2.2h-4.94v9.59Zm16-10.4c1.67,5.09,4.75,9.22,9.37,11.16a9.23,9.23,0,0,0-1.69,2.12c-4.57-2.12-7.53-6.09-9.44-11.27a16.9,16.9,0,0,1-9.44,11.27,8.11,8.11,0,0,0-1.73-1.9,15.23,15.23,0,0,0,9.17-11.38h-8.69v-2.34h9.1a61.33,61.33,0,0,0,.3-6.75H1326a61.58,61.58,0,0,1-.35,6.75h9.86v2.34Zm15.55,9.18V457.18a14.81,14.81,0,0,0-.22-2.47h3a16.31,16.31,0,0,0-.2,2.45v13.38c4.38-1.18,9.93-4.36,13-8.22l1.4,2.15c-3.26,4-8.32,6.95-14.26,8.78a4.93,4.93,0,0,0-1.22.52l-1.81-1.55A2.7,2.7,0,0,0,1342.17,470.86Zm22.09-6.17c1.15-1.15,3.18-3.74,4.77-5.65,1.37-1.61,2.67-1.88,4.43-.19,1.54,1.44,3.54,3.54,5,5.08,1.66,1.77,4.13,4.43,6,6.46l-2.12,2.25c-1.72-2.05-3.82-4.57-5.34-6.33s-3.64-4-4.62-5-1.37-.78-2.13.17c-1.07,1.32-3,3.89-4.06,5.23-.51.71-1.07,1.49-1.46,2.06l-2.33-2.38A20.77,20.77,0,0,0,1364.26,464.69Zm16.44-4.47-1.76.78a27.3,27.3,0,0,0-2.25-3.94l1.71-.73C1379,457.28,1380.13,459.09,1380.7,460.22Zm3.27-1.35-1.73.83a22.54,22.54,0,0,0-2.35-3.86l1.71-.78A33.39,33.39,0,0,1,1384,458.87Zm7.6,7.51c.71-2.18.71-6.95.71-9.76a7.45,7.45,0,0,0-.2-2h2.84c0,.2-.12,1.1-.12,2,0,2.79-.1,8-.76,10.44a13.77,13.77,0,0,1-4.35,6.85l-2.35-1.57A11.28,11.28,0,0,0,1391.57,466.38Zm7.21,4.62V456.52a18.46,18.46,0,0,0-.14-1.95h2.83a15.6,15.6,0,0,0-.12,1.95v13.53a17.18,17.18,0,0,0,6.65-5.63l1.5,2.11a25.84,25.84,0,0,1-8.34,6.75,6.48,6.48,0,0,0-.93.61l-1.62-1.35A6.9,6.9,0,0,0,1398.78,471Z"/><path class="cls-4" d="M1073.66,534.53A3.58,3.58,0,0,0,1074,533v-18.3a23.83,23.83,0,0,0-.26-2.91h3.14a20.32,20.32,0,0,0-.23,2.91V532.8c6.11-1.53,13.54-5.75,17.5-10.91l1.44,2.24c-4.16,5.16-10.75,9.09-18.71,11.43a4.32,4.32,0,0,0-1.35.57Z"/><path class="cls-4" d="M1103.77,525c1.53-1.57,4.32-5.12,6.33-7.49,1.7-2,3-2.24,5.31-.32a79.64,79.64,0,0,1,6.63,6.63c2.14,2.3,5.41,5.79,7.74,8.54l-2.08,2.27c-2.24-2.88-5.15-6.17-7.2-8.51a88.38,88.38,0,0,0-6.24-6.5c-1.34-1.12-1.79-1.08-2.88.26-1.53,1.86-4.22,5.38-5.66,7.14-.67.83-1.38,1.82-1.86,2.46l-2.33-2.37C1102.33,526.44,1102.94,525.86,1103.77,525Zm21.15-6.11-1.86.86a34.24,34.24,0,0,0-3-5.12l1.82-.8A49,49,0,0,1,1124.92,518.92Zm4.22-1.7-1.85.9a33.6,33.6,0,0,0-3.08-5.06l1.8-.83A48.83,48.83,0,0,1,1129.14,517.22Z"/><path class="cls-4" d="M1135.8,534.72a15.15,15.15,0,0,0,5.57-7.87c.93-2.94,1-9.31,1-12.86a11.7,11.7,0,0,0-.23-2.34h3c0,.39-.16,1.35-.16,2.31,0,3.55-.13,10.4-1,13.6a17.61,17.61,0,0,1-5.7,8.76Zm14.65.16a7.47,7.47,0,0,0,.23-1.79V513.93a15.94,15.94,0,0,0-.19-2.37h2.94a20.51,20.51,0,0,0-.13,2.37v18.46a24.23,24.23,0,0,0,9.31-7.87l1.54,2.17a32.18,32.18,0,0,1-10.91,8.87,6.42,6.42,0,0,0-1.09.73Z"/><path class="cls-4" d="M1168.86,523.75c0-8.16,2.84-12.1,7.32-12.1s7.3,4,7.3,12.1-2.85,12.22-7.3,12.22S1168.86,531.91,1168.86,523.75Zm11.77,0c0-6.85-1.79-9.73-4.45-9.73s-4.48,2.88-4.48,9.73,1.8,9.89,4.48,9.89S1180.63,530.66,1180.63,523.75Z"/><path class="cls-5" d="M1258.27,514.3v2h-21.1v-2h9.27v-2.2h2.32v2.2Zm-.83,17.7c0,1.15-.24,1.79-1.07,2.16a12.34,12.34,0,0,1-4,.36,8.14,8.14,0,0,0-.71-2.1h-6.53v1.17h-2v-6.45h9.25v5.28a20.4,20.4,0,0,0,2.29,0c.4,0,.52-.09.52-.41v-6.19h-14.75v8.78h-2.22V523.88h19.24Zm-3.13-14.55v5.11h-13.15v-5.11ZM1252,519h-8.65v2H1252Zm-1.68,9.73h-5.24v2.08h5.24Zm19.5-1.66c-.37-.81-1.12-2.2-1.83-3.4v10.86h-2.13V524.13a24,24,0,0,1-2.76,6,10.16,10.16,0,0,0-1.1-2,26.79,26.79,0,0,0,3.66-8.77h-3.15v-2.11h3.35v-5.11H1268v5.11h2.81v2.11H1268v1.56c.68.88,2.66,3.82,3.1,4.5Zm12.06-4.09a19.58,19.58,0,0,1-2.84,5.8,14.65,14.65,0,0,0,5.82,3.81,9.46,9.46,0,0,0-1.59,2,16.11,16.11,0,0,1-5.7-4.06,17.11,17.11,0,0,1-6.38,4.08,11.64,11.64,0,0,0-1.17-1.81,15.07,15.07,0,0,0,6.18-4,22.61,22.61,0,0,1-2.88-5.6l2-.56a17,17,0,0,0,2.32,4.37,15.24,15.24,0,0,0,2-4.52Zm-5.75-3.93a19,19,0,0,1-4.18,5.5,9.59,9.59,0,0,0-1.54-1.44,15.25,15.25,0,0,0,3.67-4.92Zm8.27-1.37h-13.36v-2.11h5.48v-3.47h2.28v3.47h5.6Zm-3.52.44a24.41,24.41,0,0,1,3.93,5.13l-1.9,1.1a24.35,24.35,0,0,0-3.79-5.25Zm19.72-4.6c0,4.43.56,13.5,9.88,19a11.59,11.59,0,0,0-1.83,1.93,20.77,20.77,0,0,1-9.37-12.84c-1.81,5.9-4.87,10.18-9.39,12.89a17.33,17.33,0,0,0-2.1-1.83c5.25-2.72,8.21-7.53,9.63-14.16l1.25.22a27.74,27.74,0,0,1-.32-2.91h-5.82v-2.3Zm23.13,8.73h-6.68v12.28h-2.25V513.17h8.93Zm-6.68-7.19v1.74h4.55v-1.74Zm4.55,5.33V518.5h-4.55v1.91ZM1335,531.64c0,1.42-.32,2.1-1.25,2.49a14.84,14.84,0,0,1-4.72.42,8,8,0,0,0-.8-2.35c1.61.07,3.32,0,3.81,0s.64-.17.64-.61v-9.35h-6.9v-9.12H1335Zm-7-16.56v1.74h4.72v-1.74Zm4.72,5.38v-2h-4.72v2Z"/><g class="cls-6"><rect class="cls-7" x="1126.86" y="473.47" width="4.56" height="25.21"/></g><g class="cls-8"><rect class="cls-9" x="1126.86" y="397.71" width="4.56" height="25.2"/></g><path class="cls-5" d="M1146.54,83.05c1.78,2.69,5,4.33,9.37,5a7.13,7.13,0,0,0-1.13,1.6c-4.9-.85-8.32-3-10.23-6.56h-.22c-1.31,2.49-4,4.8-9.78,6.51a7.37,7.37,0,0,0-1.13-1.5c4.9-1.36,7.47-3.12,8.77-5h-8.52V81.4h9.38a8,8,0,0,0,.47-2.37h-7V77.48h7V75.24h-7.41V73.66h7.41V71.57h1.86v2.09h7.77V70.77h-17.34v3.14h-1.81V69.08h9.57V66.64h1.86v2.44h9.6v4.83h-1.88v1.33h-7.77v2.24h7.42V79h-7.47a10.88,10.88,0,0,1-.4,2.37h10.66v1.65Z"/><path class="cls-5" d="M1179.86,72.1s0,.7,0,1c-.55,10.3-1.08,14-2.18,15.3a2.75,2.75,0,0,1-2.14,1,33.84,33.84,0,0,1-4-.08,4.15,4.15,0,0,0-.63-1.91c1.71.15,3.32.18,4,.18a1.43,1.43,0,0,0,1.15-.38c.91-.85,1.46-4.4,1.94-13.24h-8.57c-.35,5.2-2,11.28-9.3,15.73a6.7,6.7,0,0,0-1.43-1.48A16.92,16.92,0,0,0,1167.37,74h-8V72.1h8.14V66.67h1.94V72.1Z"/><path class="cls-5" d="M1194.67,86.42a14.75,14.75,0,0,0,2.13-.3c3.19-.7,6.31-3.07,6.31-7.36a6.91,6.91,0,0,0-6.61-7.22,52.8,52.8,0,0,1-1.48,7.17c-1.53,5.1-3.52,7.74-5.83,7.74s-4.45-2.57-4.45-6.66c0-5.41,4.82-10.13,10.91-10.13,5.83,0,9.55,4.12,9.55,9.15,0,5.22-3.45,8.72-9.38,9.5ZM1193,78.28a40.26,40.26,0,0,0,1.39-6.71,8.68,8.68,0,0,0-7.7,8c0,3.14,1.46,4.52,2.54,4.52S1191.75,82.48,1193,78.28Z"/><path class="cls-5" d="M1212.64,70.84v5.5c0,3.87-.31,9.53-2.47,13.32a6.21,6.21,0,0,0-1.53-1c2.06-3.57,2.24-8.65,2.24-12.27V69.16h9.22V66.64H1222v2.52h9.6v1.68Zm12.54,8.57c.62,4.78,2.06,7.82,4,7.82.63,0,.85-1,1-3.55a4,4,0,0,0,1.51.83c-.28,3.52-.9,4.48-2.56,4.48-3.2,0-4.93-3.87-5.71-9.58h-6v4.47l6-.72,0,1.65c-3.57.46-7.32.88-9.93,1.24l-.23-1.71,2.37-.25V73l1.35.4a68.63,68.63,0,0,0,10.88-1.86l1.46,1.36a43.32,43.32,0,0,1-4.52,1c0,1.38.07,2.66.2,3.87h6.48v1.68Zm-11.66,8.09h11.13v1.66h-11.13Zm9.7-9.77c-.1-1.13-.18-2.34-.23-3.57-1.86.27-3.8.5-5.6.68v2.89Z"/><path class="cls-5" d="M1256.67,86.52v1.86h-22.4V86.52h9.38V67h2v7.69H1255v1.86h-9.35v10Z"/><path class="cls-5" d="M1264.23,69.16c-.13.45-.33,1.13-.43,1.61-.8,3.59-1.61,8.79-.7,12.86.35-1,.85-2.54,1.31-3.77l1.1.68c-.6,1.74-1.35,4.27-1.61,5.51a4.35,4.35,0,0,0-.12,1.1c0,.23,0,.58.07.83l-1.73.23a28.77,28.77,0,0,1-1.31-7.89,64.06,64.06,0,0,1,1-9.76,9.78,9.78,0,0,0,.12-1.63Zm12.29-.38a8.73,8.73,0,0,0-.1,1.46c0,.55,0,2.18,0,3.69a28.72,28.72,0,0,0,4.35-.63v2.09c-1.21.2-2.72.35-4.33.45v.71c0,5.73,0,9.8-5.27,12.91L1269.36,88a8.92,8.92,0,0,0,2.43-1.56c2.67-2.32,2.79-5.13,2.79-9.9v-.61c-.95,0-1.91,0-2.84,0-1.18,0-2.94-.07-4-.15v-2a32,32,0,0,0,4,.28c.9,0,1.86,0,2.84,0,0-1.54-.1-3.17-.15-3.82a10.24,10.24,0,0,0-.25-1.46Zm2.29,3.14a35.27,35.27,0,0,0-1.41-3.54l1.21-.38a33.33,33.33,0,0,1,1.45,3.47Zm2.31-4.7c.48.93,1.1,2.46,1.51,3.47l-1.26.43a25.88,25.88,0,0,0-1.46-3.5Z"/><path class="cls-5" d="M1294.11,68.13c-.1.45-.2,1-.3,1.45-.13.73-.35,2.19-.63,3.52,1.16-.07,2.19-.15,2.79-.15,2.21,0,4,.86,4,4.22,0,3-.43,6.89-1.46,9a3.51,3.51,0,0,1-3.64,2.08,14.63,14.63,0,0,1-2.92-.38l-.33-2.11a12.21,12.21,0,0,0,3,.56A2.11,2.11,0,0,0,1296.9,85a21.34,21.34,0,0,0,1.16-7.61c0-2.26-1-2.66-2.62-2.66-.6,0-1.58.07-2.66.17-.9,3.57-2.59,9.15-5.23,13.37l-2.06-.83c2.54-3.39,4.4-9,5.23-12.34-1.28.13-2.49.25-3.14.33s-1.59.2-2.24.3l-.2-2.19a20.37,20.37,0,0,0,2.21,0c.83,0,2.29-.15,3.8-.27a29.43,29.43,0,0,0,.62-5.4Zm8.57,2.64a43.39,43.39,0,0,1,4.55,8.89l-2,.93a30,30,0,0,0-4.45-9Z"/><path class="cls-5" d="M1313.34,79.49a11.73,11.73,0,0,1,8-3c3.82,0,6.36,2.28,6.36,5.2,0,4.47-4,7.49-13.2,6.71l-.6-2.06c7.84,1,11.69-1.31,11.69-4.7,0-2-1.84-3.37-4.38-3.37a9.69,9.69,0,0,0-7.69,3.29,5.49,5.49,0,0,0-.75,1.26l-1.89-.45a86.42,86.42,0,0,0,1.26-10.11l2.14.28C1314,74.26,1313.56,77.88,1313.34,79.49ZM1314.87,68a68.92,68.92,0,0,0,9.63,1.91l-.48,2c-2.36-.33-7.77-1.44-9.68-2Z"/><path class="cls-4" d="M1150.41,109.85l2.91.58c-.23.76-.46,1.7-.62,2.39a70.07,70.07,0,0,1-2.94,10.23,48.86,48.86,0,0,1-4.84,9l-2.78-1.18a41.59,41.59,0,0,0,5-8.88A51.23,51.23,0,0,0,1150.41,109.85Zm8.13.52,2.65-.88c1.27,2.38,3.37,6.89,4.77,10.35,1.31,3.21,3,8.24,3.92,11.18L1167,132a100.66,100.66,0,0,0-3.69-11.23A91.17,91.17,0,0,0,1158.54,110.37Z"/><path class="cls-4" d="M1199.48,108.77a51.38,51.38,0,0,1-8.75,7.09v14a25,25,0,0,0,.19,3.5h-3.2a30,30,0,0,0,.2-3.5V117.49a65.75,65.75,0,0,1-12.29,5.1l-1.5-2.55a51.57,51.57,0,0,0,14.6-6,36.12,36.12,0,0,0,8.59-7.22Z"/><path class="cls-4" d="M1209.41,131.28a3.58,3.58,0,0,0,.33-1.6V111a24.7,24.7,0,0,0-.26-3h3.2a21.07,21.07,0,0,0-.23,3v18.52c6.24-1.56,13.82-5.88,17.87-11.14l1.47,2.29c-4.25,5.26-11,9.28-19.11,11.66a4.9,4.9,0,0,0-1.37.59Z"/><path class="cls-4" d="M1238.29,121.58c1.57-1.61,4.41-5.23,6.47-7.65,1.73-2.06,3.07-2.29,5.43-.33a83,83,0,0,1,6.76,6.77c2.19,2.35,5.52,5.91,7.9,8.72l-2.12,2.32c-2.29-2.94-5.26-6.31-7.35-8.69a86,86,0,0,0-6.37-6.63c-1.37-1.15-1.83-1.11-2.94.26-1.57,1.89-4.31,5.49-5.78,7.28-.69.85-1.41,1.87-1.9,2.52l-2.38-2.42C1236.82,123,1237.45,122.42,1238.29,121.58Zm21.6-6.24-1.9.88a34.34,34.34,0,0,0-3-5.23l1.86-.82A51.18,51.18,0,0,1,1259.89,115.34Zm4.31-1.74-1.89.92a34.1,34.1,0,0,0-3.14-5.16l1.83-.85A48,48,0,0,1,1264.2,113.6Z"/><path class="cls-4" d="M1269.3,131.47a15.5,15.5,0,0,0,5.68-8c1-3,1-9.51,1-13.14a12.13,12.13,0,0,0-.22-2.38h3c0,.39-.16,1.37-.16,2.35,0,3.63-.13,10.62-1,13.89a18.09,18.09,0,0,1-5.81,9Zm15,.17a7.89,7.89,0,0,0,.23-1.83V110.24a14.85,14.85,0,0,0-.2-2.42h3a21.57,21.57,0,0,0-.13,2.42v18.85a24.82,24.82,0,0,0,9.51-8l1.56,2.22a32.71,32.71,0,0,1-11.14,9,7.33,7.33,0,0,0-1.11.75Z"/><path class="cls-5" d="M1320.5,117.24a28.9,28.9,0,0,1-4.49.91,45.24,45.24,0,0,1-5.43,10.53l-2-1a36.13,36.13,0,0,0,5.33-9.29c-.73.05-1.46.07-2.19.07-.93,0-2,0-2.89-.07l-.15-1.89a22.6,22.6,0,0,0,3.06.18c.88,0,1.81,0,2.77-.13a20.1,20.1,0,0,0,.78-4.3l2.23.2c-.25.91-.57,2.42-1,3.85a24.19,24.19,0,0,0,3.87-.91Zm2.92,2.89a24.42,24.42,0,0,0,0,2.69c0,.91.13,2.54.18,4.05a16.66,16.66,0,0,1,5.15,3.12l-1.08,1.71a16.92,16.92,0,0,0-4-2.84c0,.37,0,.72,0,1,0,2-1.31,3.62-4.37,3.62-2.74,0-5-1.13-5-3.59,0-2.29,2.16-3.77,5-3.77a11.83,11.83,0,0,1,2.36.22c-.08-2-.2-4.47-.25-6.21Zm-1.68,8a9.35,9.35,0,0,0-2.52-.35c-1.83,0-3,.83-3,2s.93,1.93,2.87,1.93,2.71-1.13,2.71-2.36C1321.76,129,1321.76,128.55,1321.74,128.1Zm6.63-7.29a29.61,29.61,0,0,0-5.68-3.41l1-1.56a37.6,37.6,0,0,1,5.83,3.31Z"/><path class="cls-5" d="M1122.45,165.07c1.76,5.53,5,10.08,9.88,12.07a9,9,0,0,0-1.41,1.76c-4.83-2.29-8-6.74-10-12.44a17.61,17.61,0,0,1-10,12.44,5.39,5.39,0,0,0-1.41-1.54c6.23-2.71,8.75-7.54,9.78-12.29H1110v-1.91h9.58a53.84,53.84,0,0,0,.38-7.13h2a57.76,57.76,0,0,1-.41,7.13h10.38v1.91Z"/><path class="cls-5" d="M1157.11,171.81H1147v4.9c0,1.1-.3,1.66-1.21,1.93a18.37,18.37,0,0,1-4.62.31,8.6,8.6,0,0,0-.78-1.79c1.91.05,3.62.05,4.09,0s.66-.15.66-.53v-4.85h-10v-1.74h10v-1.81h1a20.58,20.58,0,0,0,3.55-2.21h-10.38v-1.66h12.26l.38-.1,1.2.91a22.38,22.38,0,0,1-6.1,4.25v.62h10.13Zm-19.78-6.11h-1.79v-5.55h3.85a21.31,21.31,0,0,0-2.11-3.14l1.56-.71a16.85,16.85,0,0,1,2.41,3.42l-.86.43h5.13a14.61,14.61,0,0,0-1.83-3.67l1.6-.6a15.5,15.5,0,0,1,2,3.84l-1.08.43h4.45a28,28,0,0,0,2.69-4l1.93.66c-.78,1.13-1.71,2.33-2.56,3.34h3.89v5.55h-1.81v-3.89h-17.51Z"/><path class="cls-5" d="M1178.79,168.39a15.63,15.63,0,0,1-5.75,6.31,32,32,0,0,0,9.3,2.44,7,7,0,0,0-1.13,1.73,29.31,29.31,0,0,1-10-3.12,33.84,33.84,0,0,1-10.13,3.12,7.36,7.36,0,0,0-1.1-1.66,34.85,34.85,0,0,0,9.45-2.51,17.64,17.64,0,0,1-5.08-5.18l.25-.1h-1.08v-1.73h13.7l.37-.08Zm-16.56-.1h-1.76v-5.1h4a17.7,17.7,0,0,0-1.66-3.32l1.61-.45a14.74,14.74,0,0,1,1.78,3.29l-1.48.48h10.93a31,31,0,0,0,2.34-4.27l1.89.57c-.68,1.24-1.56,2.59-2.32,3.7h4.3v5.1H1180v-3.44h-17.8Zm18.22-10.88a132.59,132.59,0,0,1-19.3,1.93,5.77,5.77,0,0,0-.42-1.58,132,132,0,0,0,18.42-1.86Zm-14.15,12a14.63,14.63,0,0,0,4.93,4.32,13.55,13.55,0,0,0,4.77-4.32Zm4.4-6.38a15,15,0,0,0-1.25-3.7l1.68-.37a14.93,14.93,0,0,1,1.33,3.64Z"/><path class="cls-5" d="M1184.57,176.94c.88-1.24,1.19-3.45,1.26-5.56l1.18.23c-.12,2.21-.4,4.6-1.38,5.93Zm10.59-8.6s0,.48,0,.73c-.25,6.18-.55,8.39-1.13,9.15a1.83,1.83,0,0,1-1.33.65,16.53,16.53,0,0,1-2.24,0,3.73,3.73,0,0,0-.43-1.48c.86.05,1.64.05,2,.05a.77.77,0,0,0,.68-.25c.25-.33.45-1.18.6-3.09l-.85.35a14.7,14.7,0,0,0-1.36-3.27l.88-.33a15.34,15.34,0,0,1,1.36,3c.1-1,.18-2.36.25-4H1186V157h8.9v1.58h-3.32v2.17h2.79v1.5h-2.79v2.24h2.79V166h-2.79v2.31Zm-6.59,3.34a24.62,24.62,0,0,1,.4,4.58l-1,.15a25.13,25.13,0,0,0-.35-4.6Zm-.93-13.07v2.17h2.44v-2.17Zm2.44,3.67h-2.44v2.24h2.44Zm-2.44,6.06h2.44V166h-2.44Zm2.74,7.29a19.75,19.75,0,0,0-1-4l.93-.2a17.89,17.89,0,0,1,1,4ZM1202,156a17.83,17.83,0,0,0,6.2,6.06,12,12,0,0,0-1,1.58,20.59,20.59,0,0,1-6-6,18.9,18.9,0,0,1-5.93,6.19,6.57,6.57,0,0,0-.93-1.46,16.07,16.07,0,0,0,5.93-6.41Zm.77,15.93a9.42,9.42,0,0,0,5.23,5.48,6.92,6.92,0,0,0-1.18,1.49,10.75,10.75,0,0,1-5.33-6.06c-.78,2.29-2.43,4.42-5.9,6.08a6.57,6.57,0,0,0-1.18-1.31c3.39-1.55,4.9-3.56,5.58-5.68h-4.15v-6.18h4.62v-2h-3v-1.54h7.77v1.54h-3.12v2h4.78v6.18Zm-2.46-1.43a15.85,15.85,0,0,0,.15-2.46v-.83h-3v3.29Zm1.81-3.29v.85a19.84,19.84,0,0,1-.12,2.44h3.26v-3.29Z"/><path class="cls-5" d="M1228.66,176.71a18.64,18.64,0,0,0-6-3.75c0,.63,0,1.19,0,1.56,0,1.71-1.16,3.5-4.4,3.5-3.57,0-5.55-1.29-5.55-3.7,0-2.26,2.18-3.79,5.78-3.79a14,14,0,0,1,2.08.15c0-1.11-.1-2.29-.12-3.32h-1.38c-1.71,0-4.48-.15-6.26-.35V165.1a44.43,44.43,0,0,0,6.26.48h1.33V162h-1.23a58.49,58.49,0,0,1-5.86-.38v-1.86a39.19,39.19,0,0,0,5.83.48h1.28v-1.64a14,14,0,0,0-.07-1.48h2.13a13,13,0,0,0-.12,1.66c0,.3,0,.78,0,1.38a53.67,53.67,0,0,0,6.39-.6l0,1.83c-2,.21-4.1.41-6.43.53v3.57a69.2,69.2,0,0,0,6.91-.65l0,1.88c-2.33.3-4.55.48-6.91.58.05,1.28.13,2.59.18,3.77a20.43,20.43,0,0,1,7.24,3.87Zm-8-4.3a12.71,12.71,0,0,0-2.41-.22c-2.37,0-3.65.9-3.65,2s1,2,3.44,2c1.44,0,2.64-.43,2.64-2.13C1220.71,173.67,1220.69,173.09,1220.69,172.41Z"/><path class="cls-5" d="M1236.67,160.35c1.64-.15,6.34-.6,10.91-1,2.71-.22,5.05-.35,6.71-.42v2a20.55,20.55,0,0,0-4.88.4,8.71,8.71,0,0,0-5.68,7.87c0,4.85,4.53,6.38,8.57,6.53l-.73,2.11c-4.59-.2-9.85-2.66-9.85-8.22a10.06,10.06,0,0,1,4.63-8.39c-2.19.25-9,.9-11.66,1.46l-.23-2.22C1235.42,160.45,1236.19,160.4,1236.67,160.35Zm16.16,7.11-1.28.6a24.1,24.1,0,0,0-2.06-3.54l1.28-.55A30.35,30.35,0,0,1,1252.83,167.46Zm2.87-1.08-1.31.6a22.2,22.2,0,0,0-2.14-3.49l1.26-.58A39.76,39.76,0,0,1,1255.7,166.38Z"/><path class="cls-5" d="M1275.12,164.67c3.12.83,5,3.14,5,5.88,0,3.57-2.36,6.69-8.14,7.59l-1.08-1.68c4.47-.48,7.23-2.79,7.23-6a4.4,4.4,0,0,0-3.56-4.22,20.25,20.25,0,0,1-5.51,8q.3,1.06.6,2l-1.83.56c-.13-.43-.28-.88-.4-1.39a8.35,8.35,0,0,1-4.17,1.36,2.81,2.81,0,0,1-3-3.14c0-3.19,2.79-6.49,6.21-8,0-1.26.17-2.52.27-3.67-.52,0-1,0-1.5,0-1.08,0-3-.1-4-.15l0-1.88c.85.12,3,.3,4.09.3.55,0,1.11,0,1.66,0,.08-.73.15-1.38.2-1.91a10.77,10.77,0,0,0,.08-1.18l2.11.05a7.62,7.62,0,0,0-.3,1.11c-.1.53-.2,1.15-.31,1.88a51.93,51.93,0,0,0,8.73-1l0,1.88a84.13,84.13,0,0,1-9,.91c-.1,1-.18,2-.25,3.06a15,15,0,0,1,4.17-.65c.3,0,.6,0,.9,0l.08-.22a8.56,8.56,0,0,0,.25-1.43l2,.5c-.15.33-.35,1-.5,1.38Zm-8.72,2.84c-2.41,1.38-4.24,3.85-4.24,5.86,0,1,.47,1.51,1.4,1.51a6.3,6.3,0,0,0,3.42-1.31,30.12,30.12,0,0,1-.58-5.63Zm6-1.56a12.35,12.35,0,0,0-4.22.78v1a26.28,26.28,0,0,0,.43,4.53,17.1,17.1,0,0,0,4.2-6.29Z"/><path class="cls-5" d="M1287.81,168.84a11.82,11.82,0,0,1,8-3c3.82,0,6.35,2.29,6.35,5.2,0,4.48-3.94,7.49-13.19,6.71l-.6-2.06c7.84,1,11.68-1.3,11.68-4.7,0-2-1.83-3.36-4.37-3.36a9.65,9.65,0,0,0-7.69,3.29,5,5,0,0,0-.75,1.26l-1.89-.46a88.43,88.43,0,0,0,1.26-10.1l2.13.28C1288.47,163.62,1288,167.23,1287.81,168.84Zm1.54-11.46a66,66,0,0,0,9.62,1.91l-.47,2c-2.37-.32-7.77-1.43-9.68-2Z"/><path class="cls-5" d="M1320,157.16c.18.78.35,2,.51,3.34,4.62,0,7.38,2.94,7.38,6.66,0,4.07-2.51,7.24-7.64,7.24-.27,0-.55,0-.82-.05a9.92,9.92,0,0,1-3.57,4.12l-1.86-1.11a8.25,8.25,0,0,0,3.46-3.49,7.63,7.63,0,0,1-4.09-3.85l1.18-1.4a6.34,6.34,0,0,0,3.64,3.54,18.78,18.78,0,0,0,.78-5.9c0-1.36-.07-2.69-.15-3.88a10.28,10.28,0,0,0-7.81,7.69,4.83,4.83,0,0,0-.18,1.54,17.61,17.61,0,0,0,.33,2.33l-1.76.28a25.54,25.54,0,0,1-.81-6.43,70.15,70.15,0,0,1,.66-7.62,9.18,9.18,0,0,0,0-1.15l2.16.17c-.1.36-.22.76-.32,1.18a34.58,34.58,0,0,0-.68,7.24,11.06,11.06,0,0,1,8.22-6.93c-.1-.81-.23-1.49-.33-1.94a9.36,9.36,0,0,0-.4-1.53Zm.25,15.33c3.47,0,5.71-2,5.71-5.26,0-2.66-1.68-4.9-5.28-5,.1,1.29.18,2.67.18,4a23.25,23.25,0,0,1-.73,6.23Z"/><path class="cls-5" d="M1348.91,159.57c-.45.3-1,.68-1.38,1-1.23.93-4.58,3.87-6.49,5.48a10.75,10.75,0,0,1,3.37-.52c4.15,0,7.14,2.51,7.14,5.88,0,4-3.34,6.63-8.6,6.63-3.39,0-5.48-1.51-5.48-3.57,0-1.71,1.54-3.26,3.85-3.26a4.91,4.91,0,0,1,5.13,4.39,4.33,4.33,0,0,0,3.09-4.22c0-2.44-2.47-4.22-5.61-4.22-4.09,0-6.36,1.73-9.52,4.95l-1.46-1.48c2.06-1.71,5.25-4.38,6.71-5.58s4.47-3.77,5.71-4.88c-1.31,0-6.21.28-7.49.35a11.4,11.4,0,0,0-1.69.16l0-2.09a15.31,15.31,0,0,0,1.76.07c1.28,0,7.19-.17,8.5-.3a7.55,7.55,0,0,0,1.35-.2Zm-4.3,16.46c-.22-2-1.41-3.32-3.29-3.32-1.13,0-2,.68-2,1.54,0,1.23,1.44,1.93,3.3,1.93A12.26,12.26,0,0,0,1344.61,176Z"/><path class="cls-5" d="M1154.15,220.89a2.71,2.71,0,0,0,.26-1.23V205.28a18.31,18.31,0,0,0-.21-2.28h2.47a16.34,16.34,0,0,0-.18,2.28v14.25c4.8-1.2,10.63-4.52,13.75-8.57l1.13,1.76c-3.27,4.05-8.45,7.14-14.7,9a3.48,3.48,0,0,0-1.06.45Z"/><path class="cls-5" d="M1176.37,213.43c1.21-1.23,3.39-4,5-5.88,1.33-1.59,2.36-1.76,4.17-.25a62.13,62.13,0,0,1,5.2,5.2c1.68,1.81,4.25,4.55,6.08,6.71l-1.63,1.78c-1.76-2.26-4.05-4.85-5.66-6.68a65.19,65.19,0,0,0-4.9-5.1c-1-.88-1.4-.86-2.26.2-1.2,1.45-3.32,4.22-4.45,5.6-.52.65-1.08,1.43-1.45,1.94l-1.84-1.86C1175.24,214.53,1175.72,214.08,1176.37,213.43Zm16.61-4.8-1.46.68a25.67,25.67,0,0,0-2.33-4l1.43-.62A38.2,38.2,0,0,1,1193,208.63Zm3.32-1.33-1.46.7a26.22,26.22,0,0,0-2.41-4l1.41-.65A36.32,36.32,0,0,1,1196.3,207.3Z"/><path class="cls-5" d="M1200.22,221a11.9,11.9,0,0,0,4.37-6.18c.73-2.31.76-7.31.76-10.1a9.29,9.29,0,0,0-.18-1.84h2.31c0,.3-.12,1.06-.12,1.81,0,2.79-.1,8.17-.78,10.68a13.89,13.89,0,0,1-4.48,6.89Zm11.51.13a6,6,0,0,0,.18-1.41v-15a13,13,0,0,0-.15-1.86h2.31a14.84,14.84,0,0,0-.1,1.86v14.5a19.11,19.11,0,0,0,7.31-6.18l1.21,1.7a25.38,25.38,0,0,1-8.57,7,4.92,4.92,0,0,0-.86.57Z"/><path class="cls-5" d="M1230.18,202.85c-.15.42-.38,1.23-.48,1.68a57.09,57.09,0,0,0-1.21,9.53,26,26,0,0,0,.2,3.41c.43-1.13,1-2.59,1.39-3.57l1.08.81a52.34,52.34,0,0,0-1.76,5.58,5.83,5.83,0,0,0-.13,1.1l.08.88-1.81.13a31.28,31.28,0,0,1-.91-8,69.37,69.37,0,0,1,1.11-10,16.17,16.17,0,0,0,.18-1.76Zm5.68,12.06a9.07,9.07,0,0,0-.33,2.29c0,1.13.75,2.23,4.17,2.23a27.19,27.19,0,0,0,6.16-.65l0,2.11a33.2,33.2,0,0,1-6.2.5c-4.18,0-6-1.38-6-3.72a14.23,14.23,0,0,1,.4-2.94Zm-1-10.15a43.66,43.66,0,0,0,10.22,0v2.06a64.32,64.32,0,0,1-10.2,0Z"/><path class="cls-5" d="M1259.05,207.37a35.91,35.91,0,0,1-2.13,7.82,30.3,30.3,0,0,1,2.79,4.29l-1.51,1.29a28.36,28.36,0,0,0-2.19-3.67,17.14,17.14,0,0,1-5.68,6.3A8.5,8.5,0,0,0,1249,222a15,15,0,0,0,5.83-6.51,65.05,65.05,0,0,0-4.45-5.35l1.3-1.06c1.31,1.36,2.69,2.95,4,4.5a32.7,32.7,0,0,0,1.58-6.43Zm2.19-.83h-11.61v-1.73h4.77v-4.1h1.79v4.1h5Zm10.91,1.94h-3v12.59c0,1.25-.31,1.81-1.06,2.16a13.23,13.23,0,0,1-4.17.35,7.8,7.8,0,0,0-.61-1.93c1.59,0,3,0,3.4,0s.6-.15.6-.6V208.48h-6.86v-1.79h6.86v-6h1.84v6h3Zm-8.67,8.94a22.47,22.47,0,0,0-2.72-5.63l1.53-.7a19.58,19.58,0,0,1,2.77,5.53Z"/><path class="cls-5" d="M1278.23,205.69v4.7c0,3.82-.35,9.45-2.49,13.24a6.9,6.9,0,0,0-1.58-1c2-3.6,2.23-8.62,2.23-12.19V203.9h9.23v-3.21h1.91v3.21h9.57v1.79Zm0,14.77c1.26-1.91,1.91-5,2.21-7.61l1.71.38c-.35,2.74-1,6-2.26,8Zm11.94,1c1,0,1.18-.63,1.26-4.3a6.07,6.07,0,0,0,1.68.76c-.2,4.14-.68,5.25-2.81,5.25h-3.67c-2.19,0-2.77-.63-2.77-2.72v-9.7h1.84v9.7c0,.86.2,1,1.15,1Zm-.15-9.83a30.31,30.31,0,0,0-5.78-3.87l1.28-1.2a30.68,30.68,0,0,1,5.83,3.69Zm3.85.71a27.07,27.07,0,0,1,3.66,8.16l-1.78.78a28.68,28.68,0,0,0-3.54-8.27Z"/><path class="cls-5" d="M1300.39,219.84a2,2,0,1,1,2,2A1.93,1.93,0,0,1,1300.39,219.84Zm.58-14-.07-3h3l-.05,3-.63,9.75h-1.65Z"/><path class="cls-4" d="M32.64,59.72A43.9,43.9,0,0,0,47.5,68.37a23.67,23.67,0,0,0-3.91,4.74A45.62,45.62,0,0,1,28.5,62.39V73.57H22.84V62.62A44.85,44.85,0,0,1,8,73a30.61,30.61,0,0,0-3.78-4.6,41.6,41.6,0,0,0,14.5-8.69H9.45V42.15H22.84V39.52H5.54v-5.1h17.3V30.64H28.5v3.78H46.21v5.1H28.5v2.63h14V59.72ZM14.74,49h8.1V46.24h-8.1Zm0,6.68h8.1V52.82h-8.1ZM28.5,46.24V49H37V46.24ZM37,52.82H28.5v2.81H37Z"/><path class="cls-4" d="M63.32,63.12c1.79,3.09,5,4.37,9.71,4.56,5.52.23,16.37.09,22.72-.42a25.43,25.43,0,0,0-1.7,5.34c-5.7.28-15.46.37-21.07.14s-9.16-1.57-11.92-5.11c-1.84,1.8-3.72,3.54-6.07,5.52l-2.57-5.43a54.63,54.63,0,0,0,5.7-4.23v-10H53v-5H63.32ZM60.05,42.51a35.92,35.92,0,0,0-6.9-7.63l4.19-3.13a40,40,0,0,1,7.22,7.31Zm8.1,4.14c-.83.88-1.66,1.66-2.48,2.4a38.39,38.39,0,0,0-4-4.33,33.34,33.34,0,0,0,10.17-14l5.43,1.56a50.73,50.73,0,0,1-2.35,4.88h5.25a57.58,57.58,0,0,0,1.93-6.08l6,1.15c-.83,1.66-1.66,3.36-2.49,4.93h8.14v4.6h-9.1v2.9h7.86v4.41H84.67v3h7.68v4.42H84.67v3.12h9.89v4.6H68.15Zm11.27-4.87h-6v2.9h6Zm0,7.31h-6v3h6Zm0,7.46h-6v3.12h6Z"/><path class="cls-4" d="M112.54,34.19a39.24,39.24,0,0,0-1.11,4.05,120.34,120.34,0,0,0-2.16,17.61,20.78,20.78,0,0,0,.19,2.95c.59-1.61,1.33-3.13,2-4.65l2.81,2.26A109.15,109.15,0,0,0,111,67.26a8.73,8.73,0,0,0-.23,2.12c0,.46,0,1.24,0,1.89l-5.16.36a54.93,54.93,0,0,1-1.79-14.53,133.65,133.65,0,0,1,1.89-19,35,35,0,0,0,.41-4.47Zm28,34.36A47.25,47.25,0,0,0,135,64c-.28,4.32-2.76,7.45-8.93,7.45S115.85,68.78,115.85,64s3.91-7.82,10.12-7.82a20.19,20.19,0,0,1,3,.18c-.14-2.81-.27-6.12-.32-9.34-1.1,0-2.21,0-3.27,0-2.66,0-5.24-.09-8-.28V41.36a74.34,74.34,0,0,0,8,.42c1.06,0,2.17,0,3.22-.05,0-2.25,0-4.09-.09-5.06a27.54,27.54,0,0,0-.27-3h6.53a29.55,29.55,0,0,0-.28,3c0,1-.13,2.71-.13,4.73a68.62,68.62,0,0,0,7-1.06V46c-2.2.33-4.6.6-7.08.79.09,4.41.32,8,.51,11.13a28.8,28.8,0,0,1,8.78,5.89Zm-11.32-7.4a13.85,13.85,0,0,0-3.68-.51c-2.57,0-4.32,1.06-4.32,2.76s1.84,2.67,4.23,2.67c2.81,0,3.77-1.47,3.77-4.14Z"/><path class="cls-4" d="M263.37,67.72a6,6,0,0,0,.6-3V39.8a28.08,28.08,0,0,0-.51-5.2h7.23a32.22,32.22,0,0,0-.46,5.2V63.68c7.5-2.12,17.76-8,23.64-15.19l3.27,5.2c-6.3,7.55-15.87,13-26.68,16.57a12.26,12.26,0,0,0-2.76,1.24Z"/><path class="cls-4" d="M308.13,53c2.12-2.11,5.7-6.62,8.83-10.39,2.76-3.27,5.25-3.59,9-.42a119.71,119.71,0,0,1,9.38,9.34c3.09,3.36,8,8.6,11.32,12.42l-4.92,5.34c-2.94-3.77-7.13-8.88-9.85-12.05a99,99,0,0,0-8.46-9.11c-1.61-1.38-2.39-1.38-3.73.27-1.79,2.3-5.1,6.86-7,9.39-1.06,1.42-2.16,3.08-2.94,4.28l-5.43-5.57C305.74,55.35,306.75,54.38,308.13,53Zm31.51-8-4.14,1.8a43.09,43.09,0,0,0-4.18-7.5l4-1.66A74.18,74.18,0,0,1,339.64,45ZM346,42.33l-4,1.93A48,48,0,0,0,337.53,37l4-1.8A66.44,66.44,0,0,1,346,42.33Z"/><path class="cls-4" d="M352.84,67.86a21.68,21.68,0,0,0,7.82-11c1.29-4,1.34-12.65,1.34-18.22a16.63,16.63,0,0,0-.42-4.19h6.77A28.39,28.39,0,0,0,368,38.6c0,5.43-.13,15.14-1.38,19.78a26.65,26.65,0,0,1-8.19,13.21Zm21.3.69a17,17,0,0,0,.37-3.4V38.33a20,20,0,0,0-.37-4H381a22.49,22.49,0,0,0-.33,4V62.43A29.1,29.1,0,0,0,392,52.73l3.54,5.06c-3.82,5-10.44,9.93-15.6,12.56a11.65,11.65,0,0,0-2,1.38Z"/><path class="cls-4" d="M28.82,128.52v24.09H25v-1.47H10.76v1.5H7.13V128.52h7.68a34,34,0,0,0,.81-3.93l4.32.48c-.45,1.2-.93,2.37-1.41,3.45Zm-18.06,3.42V135H25v-3.09Zm0,6.39v3.09H25v-3.09ZM25,147.84v-3.12H10.76v3.12Z"/><path class="cls-4" d="M54.13,125A34.54,34.54,0,0,0,63,135.66a17.09,17.09,0,0,0-3,3.21c-.63-.57-1.26-1.23-1.92-1.92v.21c-.33,9.06-.69,12.6-1.74,13.86a3.62,3.62,0,0,1-2.73,1.41,30,30,0,0,1-4.53.09,8.62,8.62,0,0,0-1.17-3.6c1.65.12,3.21.15,4,.15a1.39,1.39,0,0,0,1.2-.42c.6-.63.93-3.3,1.2-9.57H48.37c-.75,5.76-2.7,10.89-10.47,13.8a12,12,0,0,0-2.37-3.3c6.78-2.19,8.34-6.12,8.94-10.5H39.4V137a22.6,22.6,0,0,1-2.4,2.16,21.45,21.45,0,0,0-3.06-2.88A24.87,24.87,0,0,0,42.79,125l3.84,1.11a36,36,0,0,1-5.94,9.45h16.2a51,51,0,0,1-6.27-9.21Z"/><path class="cls-4" d="M73.32,127.17a25,25,0,0,0-.72,2.64,73.45,73.45,0,0,0-1.44,10.89,14.34,14.34,0,0,0,.12,1.92c.42-1.05.9-2,1.32-3l1.86,1.44a71.63,71.63,0,0,0-2.13,7.29,8.73,8.73,0,0,0-.18,1.38c0,.33,0,.81.06,1.23l-3.42.24a37.93,37.93,0,0,1-1.17-9.72,82.37,82.37,0,0,1,1.23-11.76,22.2,22.2,0,0,0,.3-2.91Zm7,14.67a9.78,9.78,0,0,0-.36,2.49c0,1.32,1.14,2.1,4.14,2.1a34.24,34.24,0,0,0,7.44-.78l.09,4a41.29,41.29,0,0,1-7.68.6c-5.13,0-7.56-1.86-7.56-4.89a18.31,18.31,0,0,1,.51-3.87Zm10.38-12.72V133a82.23,82.23,0,0,1-12.75,0l0-3.84A60.62,60.62,0,0,0,90.66,129.12Z"/><path class="cls-4" d="M116.05,127.68a24.65,24.65,0,0,0,6.39,12.3l-2.76,2.94a35.52,35.52,0,0,1-2.7-4c.3,6.84-3,13.35-10.71,13.35-5,0-8.34-3.18-8.34-8.28a18.94,18.94,0,0,1,4.68-11.67c-1.14.15-2.79.42-3.84.63-.57.12-1,.21-1.74.39l-.54-3.87a16.76,16.76,0,0,0,1.71-.09,53.71,53.71,0,0,0,10-1.74l1.11,3.33a7.92,7.92,0,0,0-1.47.66c-2,1.59-6.15,6.84-6.15,11.82a4.4,4.4,0,0,0,4.71,4.8c5.76,0,9-6.87,6.63-17.73-.21-.57-.42-1.14-.63-1.74Zm8,.69a3.48,3.48,0,1,1-3.48-3.45A3.48,3.48,0,0,1,124.06,128.37Zm-1.83,0a1.64,1.64,0,0,0-1.65-1.62,1.64,1.64,0,0,0,0,3.27A1.65,1.65,0,0,0,122.23,128.37Z"/><path class="cls-4" d="M131.24,136.53c2-.6,7-2.31,10.65-2.31,4.68,0,7.83,2.79,7.83,7.29,0,5.37-4.71,9.06-14.16,9.63L134,147.45c6.75-.18,11.79-1.95,11.79-6,0-2.22-1.68-3.78-4.26-3.78-3.45,0-9.36,2.46-11.91,3.54l-1.53-3.9A25.39,25.39,0,0,0,131.24,136.53Z"/><path class="cls-4" d="M170.49,132.9c-1.77.39-3.78.72-5.76,1-.27,1.29-.57,2.61-.9,3.81a95.81,95.81,0,0,1-4.71,13.74L155,150c1.77-3,4-9.21,5.13-13.38.21-.78.42-1.62.63-2.46-.69,0-1.35.06-2,.06-1.44,0-2.55-.06-3.6-.12l-.09-3.72a29.25,29.25,0,0,0,3.75.24c.87,0,1.74,0,2.64-.09q.18-1,.27-1.71a15.42,15.42,0,0,0,.12-3l4.53.36c-.21.81-.48,2.13-.63,2.79l-.24,1.14c1.68-.27,3.36-.6,5-1Zm-.6,9.75a10.28,10.28,0,0,0-.42,2.49c0,1.29.75,2.25,3.93,2.25a34.44,34.44,0,0,0,6.18-.6l-.15,3.81a47.54,47.54,0,0,1-6.06.42c-5,0-7.56-1.74-7.56-4.74a20.39,20.39,0,0,1,.51-4Zm-1.74-7.47c1.65-.15,3.78-.3,5.7-.3a51.58,51.58,0,0,1,5.22.27l-.09,3.57a42.91,42.91,0,0,0-5.1-.36,43.65,43.65,0,0,0-5.73.33Z"/><path class="cls-4" d="M191.45,126.06a48.51,48.51,0,0,0-1.2,6.15c1.41-2.28,4-4.8,7.35-4.8,4.14,0,7.35,4.05,7.35,10.59,0,8.4-5.16,12.42-13,13.86l-2.25-3.45c6.6-1,11.22-3.18,11.22-10.38,0-4.59-1.53-7.14-4-7.14-3.51,0-6.57,5.28-6.72,9.18a17.84,17.84,0,0,0,.15,3.15l-3.69.24a38.43,38.43,0,0,1-.36-5,72,72,0,0,1,.84-9.51c.15-1.08.21-2.28.24-3.12Z"/><path class="cls-4" d="M223.72,147.78c1.14-.15,2-.3,2.76-.48,3.81-.9,6.75-3.63,6.75-8,0-4.11-2.22-7.17-6.21-7.86a64.56,64.56,0,0,1-1.77,8.07c-1.77,6-4.35,9.66-7.59,9.66s-6.06-3.63-6.06-8.64c0-6.84,6-12.72,13.68-12.72,7.35,0,12,5.13,12,11.61,0,6.24-3.84,10.68-11.34,11.82Zm-2.31-9a47.69,47.69,0,0,0,1.59-7.2,9.32,9.32,0,0,0-7.53,8.61c0,3,1.2,4.47,2.31,4.47S220.21,142.8,221.41,138.78Z"/><path class="cls-4" d="M244.13,148.86a3.92,3.92,0,0,0,.39-2V130.65a18.54,18.54,0,0,0-.33-3.39h4.71a21.25,21.25,0,0,0-.3,3.39v15.57c4.89-1.38,11.58-5.22,15.42-9.9l2.13,3.39c-4.11,4.92-10.35,8.49-17.4,10.8a8.46,8.46,0,0,0-1.8.81Z"/><path class="cls-4" d="M272.58,139.26c1.38-1.38,3.72-4.32,5.76-6.78,1.8-2.13,3.42-2.34,5.88-.27a78.08,78.08,0,0,1,6.12,6.09c2,2.19,5.22,5.61,7.38,8.1l-3.21,3.48c-1.92-2.46-4.65-5.79-6.42-7.86a65.53,65.53,0,0,0-5.52-5.94c-1.05-.9-1.56-.9-2.43.18-1.17,1.5-3.33,4.47-4.56,6.12-.69.93-1.41,2-1.92,2.79l-3.54-3.63C271,140.79,271.68,140.16,272.58,139.26Zm20.55-5.19-2.7,1.17a28.28,28.28,0,0,0-2.73-4.89l2.61-1.08A47.87,47.87,0,0,1,293.13,134.07Zm4.11-1.77-2.61,1.26a31.39,31.39,0,0,0-2.88-4.77l2.58-1.17A43.67,43.67,0,0,1,297.24,132.3Z"/><path class="cls-4" d="M301,149a14.15,14.15,0,0,0,5.1-7.17c.84-2.58.87-8.25.87-11.88a11,11,0,0,0-.27-2.73h4.41a19.13,19.13,0,0,0-.21,2.7c0,3.54-.09,9.87-.9,12.9a17.38,17.38,0,0,1-5.34,8.61Zm13.89.45a11.42,11.42,0,0,0,.24-2.22V129.69a13.3,13.3,0,0,0-.24-2.58h4.47a15.23,15.23,0,0,0-.21,2.61v15.69a19,19,0,0,0,7.41-6.33l2.31,3.3a33,33,0,0,1-10.17,8.19,7.65,7.65,0,0,0-1.32.9Z"/><path class="cls-4" d="M343.26,126.45c-.18.78-.39,1.71-.54,2.46-.15.9-.39,2-.6,3.06,1-.06,1.89-.12,2.49-.12,3.15,0,5.37,1.41,5.37,5.67,0,3.51-.42,8.25-1.68,10.83-1,2.07-2.64,2.73-4.89,2.73a16.58,16.58,0,0,1-3.54-.42l-.66-3.93a17.1,17.1,0,0,0,3.63.63,2.16,2.16,0,0,0,2.22-1.29c.84-1.65,1.23-5.19,1.23-8.13,0-2.37-1-2.7-2.91-2.7-.48,0-1.2.06-2,.12-1.14,4.5-3.3,11.49-6,15.87l-3.9-1.56c2.91-3.9,4.92-9.84,6-13.89-1.05.12-2,.24-2.55.33-.84.09-2.37.3-3.3.45l-.33-4a27.58,27.58,0,0,0,3.15,0c.93,0,2.34-.12,3.84-.24a32.89,32.89,0,0,0,.63-6.3Zm10.26,2.79a53.55,53.55,0,0,1,5.19,11L355,142.05c-.78-3.3-2.91-8.67-5-11.31Z"/><path class="cls-4" d="M368.47,138.9a14.57,14.57,0,0,1,8.73-2.82c5.22,0,8.25,3.21,8.25,6.81,0,5.43-4.29,9.6-16.65,8.52l-1.14-3.9c8.91,1.26,13.62-.93,13.62-4.71,0-1.92-1.83-3.33-4.44-3.33a10.42,10.42,0,0,0-8.19,3.48,6.44,6.44,0,0,0-1.11,1.74l-3.45-.87a108.17,108.17,0,0,0,1.47-12.39l4,.54C369.19,133.62,368.68,137.19,368.47,138.9Zm.93-12.9a94.05,94.05,0,0,0,11.88,2.31l-.9,3.66c-3-.39-9.63-1.77-11.94-2.37Z"/><path class="cls-4" d="M8.36,183.6a20.61,20.61,0,0,1-1.77,1.56,33,33,0,0,0-2.91-2.34,18.45,18.45,0,0,0,6.21-7.17l3.48,1a16.15,16.15,0,0,1-1.17,2.1h18v3.15H27.38v3.84h3.9v3.18h-3.9v3.81h3.48v3.18H4.79v-3.18H8.36v-3.81h-4v-3.18h4ZM4,202.32a14.78,14.78,0,0,0,3.36-5.76l3.45.84a16.42,16.42,0,0,1-3.42,6.3Zm7.47-16.56h2.16v-3.84H11.51Zm0,7h2.16v-3.81H11.51Zm4.59,4.47a38.85,38.85,0,0,1,.72,5.61l-3.48.51a38.08,38.08,0,0,0-.57-5.73Zm2.76-11.46v-3.84H16.64v3.84Zm-2.22,3.18v3.81h2.22v-3.81Zm5.43,8.16a33.43,33.43,0,0,1,1.74,5.58l-3.57.69a32,32,0,0,0-1.53-5.7Zm2-15.18H21.83v3.84h2.28Zm0,7H21.83v3.81h2.28Zm4,7.5a40.69,40.69,0,0,1,3.78,6l-3.66,1.23a38.64,38.64,0,0,0-3.54-6.15Z"/><path class="cls-4" d="M45.84,197.67c-3.3,1.17-6.9,2.31-9.78,3.24l-.81-3.63c1-.27,2.28-.6,3.66-1v-7h-3V186h3v-5.28h-3.3v-3.33h9.9v3.33H42.3V186H45v3.27H42.3v6c1-.3,2-.6,2.94-.93Zm17.82,1.83v3.24H44.37V199.5h8.28v-2.85H46.44v-3.21h6.21v-2.58h-6v-14H62.31v14h-6v2.58h6.36v3.21H56.28v2.85Zm-13.8-17.07H53v-2.49H49.86Zm0,5.4H53v-2.58H49.86Zm9.06-7.89H56v2.49h3Zm0,5.31H56v2.58h3Z"/><path class="cls-4" d="M82.67,183.57a43.54,43.54,0,0,1-5.16,1,54.84,54.84,0,0,1-6.36,12.72l-3.63-1.83A45.33,45.33,0,0,0,73.58,185c-.51,0-1,0-1.53,0-1.23,0-2.43,0-3.72-.09l-.27-3.48a37.76,37.76,0,0,0,4,.21c.87,0,1.77,0,2.67-.09a25.3,25.3,0,0,0,.81-5l4.11.42c-.24,1-.6,2.46-1,4.05a31.38,31.38,0,0,0,4-.93Zm3.9,2.67c-.09,1.26,0,2.49,0,3.81,0,.84.09,2.28.18,3.75a19.79,19.79,0,0,1,6.15,3.81l-2,3.18a26.45,26.45,0,0,0-4-3.15v.27c0,2.76-1.5,4.92-5.73,4.92-3.69,0-6.6-1.65-6.6-4.92,0-2.91,2.43-5.16,6.57-5.16.69,0,1.38.06,2,.12-.09-2.22-.24-4.83-.33-6.63Zm-3.27,9.84a10.51,10.51,0,0,0-2.4-.3c-1.71,0-2.82.72-2.82,1.77s.93,1.86,2.55,1.86c2,0,2.67-1.17,2.67-2.76Zm8.37-8.25a39.61,39.61,0,0,0-7.14-4.23l1.92-2.94a53.46,53.46,0,0,1,7.32,4Z"/><path class="cls-4" d="M115.52,179.52c-.93.69-1.92,1.47-2.61,2-1.92,1.56-5.85,4.59-7.83,6.3-1.59,1.35-1.56,1.68.06,3.06,2.22,1.89,8,6.42,10.89,9.27l-3.45,3.18c-.84-.93-1.77-1.86-2.61-2.76-1.62-1.71-6.15-5.58-8.88-7.89-2.94-2.49-2.7-4.14.27-6.6,2.31-1.89,6.39-5.19,8.4-7.17a20.52,20.52,0,0,0,2.28-2.49Z"/><path class="cls-4" d="M146.27,180.72a14.18,14.18,0,0,0-1.05,1.86,44.11,44.11,0,0,1-4.71,8.25,84.34,84.34,0,0,1,8.37,8.58l-3.42,3a68.41,68.41,0,0,0-7.56-8.49,39.52,39.52,0,0,1-11.28,8.43l-3.09-3.24a34,34,0,0,0,12.3-8.61,23.24,23.24,0,0,0,4.47-7.35H130.13c-1.26,0-2.91.18-3.54.21v-4.26a33.52,33.52,0,0,0,3.54.21h10.56a10.83,10.83,0,0,0,3.12-.39Z"/><path class="cls-4" d="M177.49,181.92a14.11,14.11,0,0,0-1,2.13,34.53,34.53,0,0,1-4.14,8.22c1.11.69,2.13,1.38,2.88,1.92l-2.73,3.51a34.74,34.74,0,0,0-2.79-2.13A28.63,28.63,0,0,1,158.65,203l-3.47-3a25.39,25.39,0,0,0,11.18-6.72c-2-1.32-4.08-2.55-5.61-3.42L163.3,187c1.59.81,3.63,1.95,5.64,3.15a21.85,21.85,0,0,0,3.12-6.39h-8.61a35.3,35.3,0,0,1-7.92,7.74L152.3,189a27.5,27.5,0,0,0,9.56-10,13.27,13.27,0,0,0,1.35-3.15l4.35,1.35c-.72,1-1.5,2.43-1.86,3.06l0,0h6.15a9.53,9.53,0,0,0,2.61-.33Z"/><path class="cls-4" d="M182.58,187.17c1.08.09,3.27.18,4.83.18h16.11c1.38,0,2.73-.12,3.51-.18v4.71c-.72,0-2.25-.15-3.51-.15H187.41c-1.71,0-3.72.06-4.83.15Z"/><path class="cls-4" d="M231.78,194.16A86.65,86.65,0,0,0,221,189.69v8.49c0,.87.15,3,.27,4.17h-4.68a32.1,32.1,0,0,0,.3-4.17V181a20.92,20.92,0,0,0-.3-3.63h4.68A32.63,32.63,0,0,0,221,181v4.41A98,98,0,0,1,233.49,190Z"/><path class="cls-4" d="M239.81,180.39c2.49-.21,7.41-.66,12.84-1.14,3.06-.24,6.3-.42,8.4-.51l0,3.84a30.68,30.68,0,0,0-5.73.39,9,9,0,0,0-6.27,8.31c0,4.89,4.56,6.66,9.6,6.9l-1.38,4.11c-6.24-.39-12.12-3.75-12.12-10.2a11.78,11.78,0,0,1,4.38-9.15c-2.58.27-8.82.93-12.27,1.68l-.39-4.08C238.1,180.51,239.24,180.45,239.81,180.39Zm19.5,9.15-2.28,1a23.15,23.15,0,0,0-2.34-4.17l2.22-.93A39.32,39.32,0,0,1,259.31,189.54Zm3.48-1.47-2.25,1.08a26.39,26.39,0,0,0-2.46-4.05l2.19-1A44.87,44.87,0,0,1,262.79,188.07Z"/><path class="cls-4" d="M290.36,187.38a34.57,34.57,0,0,1-4.59,1.2c.75,1.59,1.59,3.33,2.46,4.95l-1.77,2.25c-1.65-.3-4.5-.75-6.48-1l.33-2.85c1.17.15,2.34.24,3.15.33l-1.35-3.09a74.64,74.64,0,0,1-13.05.18l-.15-3.42a60.3,60.3,0,0,0,11.85.06l-.51-1.17-.72-1.68A58.91,58.91,0,0,1,269.3,183l-.18-3.39a55.93,55.93,0,0,0,9,.33v0a26.72,26.72,0,0,0-1.44-2.55l4.23-.81a25.4,25.4,0,0,0,.93,3,36,36,0,0,0,5.7-1.38l.63,3.33a42.87,42.87,0,0,1-5.1,1.2l.57,1.29.69,1.5a31.8,31.8,0,0,0,5.31-1.47ZM273.71,193a8.8,8.8,0,0,0-.72,2.88c0,1.86,1.32,3.12,5.19,3.12a43.22,43.22,0,0,0,7.86-.66l-.12,3.81a52.61,52.61,0,0,1-7.65.57c-5.55,0-9-1.89-9-6a15.42,15.42,0,0,1,.72-4.05Z"/><path class="cls-4" d="M315.87,180.48q-1.08.68-2.07,1.35c-1.59,1.11-4.71,3.75-6.57,5.25a10,10,0,0,1,2.79-.33c5,0,8.88,3.15,8.88,7.47,0,4.68-3.57,8.4-10.74,8.4-4.14,0-7.26-1.89-7.26-4.86,0-2.4,2.19-4.62,5.34-4.62a6,6,0,0,1,6.33,5.07,4.33,4.33,0,0,0,2.43-4.05c0-2.67-2.7-4.47-6.15-4.47-4.56,0-7.53,2.43-10.71,6l-2.7-2.79c2.1-1.71,5.67-4.74,7.44-6.18s4.74-3.87,6.21-5.16c-1.53,0-5.61.21-7.17.33a19.61,19.61,0,0,0-2.43.24l-.12-3.87c.84.09,1.86.15,2.7.15,1.56,0,7.92-.15,9.6-.3a14.33,14.33,0,0,0,2.28-.3Zm-6.72,18.69c-.18-1.92-1.29-3.18-2.91-3.18-1.11,0-1.83.66-1.83,1.41,0,1.11,1.26,1.86,3,1.86A15.66,15.66,0,0,0,309.15,199.17Z"/><path class="cls-4" d="M329.15,198.39a3.12,3.12,0,0,1,6.24,0,3.13,3.13,0,0,1-6.24,0Zm.51-15.3-.12-4.47H335l-.15,4.47-1.05,10.26h-3.09Z"/><path class="cls-4" d="M166.55,21.93h-.21l-10.88,6-1.8-4.61,13.76-7.63h5.18V71h-6Z"/><path class="cls-4" d="M198.36,23.23c4.32-4.9,9.29-7.85,17.43-7.85,10.22,0,16.05,6.84,16.05,15,0,11.3-8.42,18.65-21.24,30.24l-5.18,4.46v.15h27.94v5.11h-37.3V66.43l6.19-5.4c15.19-13.61,23.19-20.59,23.19-29.95,0-5.91-4.11-10.45-10.66-10.45-5.19,0-9.51,2.6-13.39,6.85Z"/><polyline class="cls-10" points="0 99.92 427.45 99.92 465.25 62.13"/><rect class="cls-11" x="952.53" y="96.17" width="8.93" height="43.7"/><rect class="cls-12" x="819.45" width="142.01" height="96.17"/><path class="cls-13" d="M865.16,32.43a39.21,39.21,0,0,0,16.7,13.42,22.45,22.45,0,0,0-3,4.17,46.59,46.59,0,0,1-6-3.7V49H853.46V46.28a55.27,55.27,0,0,1-6,3.82,18.84,18.84,0,0,0-2.93-3.78c6.71-3.24,13-9.13,15.88-13.89ZM850.89,52.87h24.73v16h-4.76V67.42H855.45v1.44h-4.56Zm20.08-8A42.51,42.51,0,0,1,863,37a39.4,39.4,0,0,1-7.76,7.92ZM855.45,57v6.36h15.41V57Z"/><path class="cls-13" d="M930.76,37.7a28.79,28.79,0,0,1-5.93,10.37,26,26,0,0,0,8.82,4.33,17.9,17.9,0,0,0-2.81,3.86l-.7-.27V68.7h-4.49V67.45H917.5v1.37h-4.33V56.34c-.66.31-1.32.58-2,.82a18.38,18.38,0,0,0-2-3.08l-.35.5c-.47-1-1.28-2.41-2.14-3.78v18h-4.37V54a31,31,0,0,1-3.9,8,23.51,23.51,0,0,0-2.15-4.21c2.38-3.08,4.61-8.46,5.7-13.1h-4.76V40.39h5.11v-8h4.37v8h4.37v2.1a28.83,28.83,0,0,0,6.59-10.14l4.4,1.21c-.39,1-.82,1.95-1.28,2.93h6.28l.82-.16ZM910,53A29.82,29.82,0,0,0,918.63,48a35.88,35.88,0,0,1-2.92-3.82,26.78,26.78,0,0,1-2.89,3A32.45,32.45,0,0,0,910,44.68H906.7v.93c1,1.13,4,4.6,4.64,5.5Zm16.42,1.32a29.22,29.22,0,0,1-4.68-3.2,29.43,29.43,0,0,1-4.48,3.2Zm-.78,9.21V58.17H917.5v5.31Zm-7.14-23-.27.39a24,24,0,0,0,3.36,4.36,24.06,24.06,0,0,0,3.31-4.75Z"/><rect class="cls-14" x="5.46" y="447.87" width="79.67" height="28"/><rect class="cls-14" x="85.12" y="447.87" width="79.67" height="28"/><rect class="cls-14" x="164.79" y="447.87" width="79.67" height="28"/><rect class="cls-14" x="244.46" y="447.87" width="79.67" height="28"/><rect class="cls-15" x="324.12" y="447.87" width="79.67" height="28"/><rect class="cls-15" x="403.79" y="447.87" width="79.67" height="28"/><rect class="cls-15" x="483.46" y="447.87" width="79.67" height="28"/><rect class="cls-15" x="563.12" y="447.87" width="79.67" height="28"/><rect class="cls-16" x="642.79" y="447.87" width="79.67" height="28"/><rect class="cls-16" x="722.46" y="447.87" width="79.67" height="28"/><rect class="cls-16" x="802.12" y="447.87" width="79.67" height="28"/><rect class="cls-16" x="881.79" y="447.87" width="79.67" height="28"/><rect class="cls-14" x="85.12" y="419.87" width="79.67" height="28"/><rect class="cls-14" x="164.79" y="419.87" width="79.67" height="28"/><rect class="cls-14" x="244.46" y="419.87" width="79.67" height="28"/><rect class="cls-15" x="324.12" y="419.87" width="79.67" height="28"/><rect class="cls-15" x="403.79" y="419.87" width="79.67" height="28"/><rect class="cls-15" x="483.46" y="419.87" width="79.67" height="28"/><rect class="cls-15" x="563.12" y="419.87" width="79.67" height="28"/><rect class="cls-16" x="642.79" y="419.87" width="79.67" height="28"/><rect class="cls-16" x="722.46" y="419.87" width="79.67" height="28"/><rect class="cls-16" x="802.12" y="419.87" width="79.67" height="28"/><rect class="cls-16" x="881.79" y="419.87" width="79.67" height="28"/><rect class="cls-14" x="164.79" y="391.87" width="79.67" height="28"/><rect class="cls-14" x="244.46" y="391.87" width="79.67" height="28"/><rect class="cls-15" x="324.12" y="391.87" width="79.67" height="28"/><rect class="cls-15" x="403.79" y="391.87" width="79.67" height="28"/><rect class="cls-15" x="483.46" y="391.87" width="79.67" height="28"/><rect class="cls-15" x="563.12" y="391.87" width="79.67" height="28"/><rect class="cls-16" x="642.79" y="391.87" width="79.67" height="28"/><rect class="cls-16" x="722.46" y="391.87" width="79.67" height="28"/><rect class="cls-16" x="802.12" y="391.87" width="79.67" height="28"/><rect class="cls-16" x="881.79" y="391.87" width="79.67" height="28"/><rect class="cls-14" x="244.46" y="363.87" width="79.67" height="28"/><rect class="cls-15" x="324.12" y="363.87" width="79.67" height="28"/><rect class="cls-15" x="403.79" y="363.87" width="79.67" height="28"/><rect class="cls-15" x="483.46" y="363.87" width="79.67" height="28"/><rect class="cls-15" x="563.12" y="363.87" width="79.67" height="28"/><rect class="cls-16" x="642.79" y="363.87" width="79.67" height="28"/><rect class="cls-16" x="722.46" y="363.87" width="79.67" height="28"/><rect class="cls-16" x="802.12" y="363.87" width="79.67" height="28"/><rect class="cls-16" x="881.79" y="363.87" width="79.67" height="28"/><rect class="cls-15" x="324.12" y="335.87" width="79.67" height="28"/><rect class="cls-15" x="403.79" y="335.87" width="79.67" height="28"/><rect class="cls-15" x="483.46" y="335.87" width="79.67" height="28"/><rect class="cls-15" x="563.12" y="335.87" width="79.67" height="28"/><rect class="cls-16" x="642.79" y="335.87" width="79.67" height="28"/><rect class="cls-16" x="722.46" y="335.87" width="79.67" height="28"/><rect class="cls-16" x="802.12" y="335.87" width="79.67" height="28"/><rect class="cls-16" x="881.79" y="335.87" width="79.67" height="28"/><rect class="cls-15" x="403.79" y="307.87" width="79.67" height="28"/><rect class="cls-15" x="483.46" y="307.87" width="79.67" height="28"/><rect class="cls-15" x="563.12" y="307.87" width="79.67" height="28"/><rect class="cls-16" x="642.79" y="307.87" width="79.67" height="28"/><rect class="cls-16" x="722.46" y="307.87" width="79.67" height="28"/><rect class="cls-16" x="802.12" y="307.87" width="79.67" height="28"/><rect class="cls-16" x="881.79" y="307.87" width="79.67" height="28"/><rect class="cls-15" x="483.46" y="279.87" width="79.67" height="28"/><rect class="cls-15" x="563.12" y="279.87" width="79.67" height="28"/><rect class="cls-16" x="642.79" y="279.87" width="79.67" height="28"/><rect class="cls-16" x="722.46" y="279.87" width="79.67" height="28"/><rect class="cls-16" x="802.12" y="279.87" width="79.67" height="28"/><rect class="cls-16" x="881.79" y="279.87" width="79.67" height="28"/><rect class="cls-15" x="563.12" y="251.87" width="79.67" height="28"/><rect class="cls-16" x="642.79" y="251.87" width="79.67" height="28"/><rect class="cls-16" x="722.46" y="251.87" width="79.67" height="28"/><rect class="cls-16" x="802.12" y="251.87" width="79.67" height="28"/><rect class="cls-16" x="881.79" y="251.87" width="79.67" height="28"/><rect class="cls-16" x="642.79" y="223.87" width="79.67" height="28"/><rect class="cls-16" x="722.46" y="223.87" width="79.67" height="28"/><rect class="cls-16" x="802.12" y="223.87" width="79.67" height="28"/><rect class="cls-16" x="881.79" y="223.87" width="79.67" height="28"/><rect class="cls-16" x="722.46" y="195.87" width="79.67" height="28"/><rect class="cls-16" x="802.12" y="195.87" width="79.67" height="28"/><rect class="cls-16" x="881.79" y="195.87" width="79.67" height="28"/><rect class="cls-16" x="802.12" y="167.87" width="79.67" height="28"/><rect class="cls-16" x="881.79" y="167.87" width="79.67" height="28"/><rect class="cls-16" x="881.79" y="139.87" width="79.67" height="28"/><polygon class="cls-13" points="630.03 570.66 630.03 505.42 948.29 505.42 966.6 538.04 948.29 570.66 630.03 570.66"/><path class="cls-17" d="M947.7,506.42,965.46,538,947.7,569.66H631V506.42H947.7m1.17-2H629v67.24H948.87L967.75,538l-18.88-33.62Z"/><path class="cls-4" d="M708.73,553.44h-12v1.83h-3V535.94c-.29.47-.58.9-.87,1.3-.36-.32-1-1-1.69-1.48v2.81h-5.69v1.87h5.73v2.49h-5.73v.39c0,.54,0,1.08-.07,1.66H692v2.66H684.9l-.07.18c1.91,1.12,5.65,3.57,6.73,4.32l-1.94,2.74c-1.3-1.15-3.89-3.24-5.87-4.65a13.37,13.37,0,0,1-6.37,5.11,10.83,10.83,0,0,0-2-2.3c3.52-1.37,5.32-3.38,6.19-5.4h-5.91V545h6.59a14.22,14.22,0,0,0,.11-1.69v-.36H677v-2.49h5.4v-1.87h-5.51v-7.74h14.29V534A39.39,39.39,0,0,0,696,522.19l3.1.72a59.5,59.5,0,0,1-2,6h3.42a50.55,50.55,0,0,0,2.12-6.37l3.24.76c-.68,1.91-1.51,3.92-2.27,5.61h4.72v3h-4.75v4.18h4.5v2.84h-4.5v4.28h4.5v2.85h-4.5v4.35h5.14ZM679.11,528h-3.2v-2.66h3.2v-3.1h2.95v3.1h4v-3.1h3v3.1h3.13V528H689v2.2h-3V528h-4v2.2h-2.95Zm.29,8.35h3.06v-3.16H679.4Zm9-3.16h-3.13v3.16h3.13Zm12.2-1.23h-3.85v4.18h3.85Zm0,7h-3.85v4.28h3.85Zm-3.85,11.48h3.85v-4.35h-3.85Z"/><path class="cls-4" d="M718.46,535.4v19.84h-3.31V523.63H728.5V535.4Zm0-9.35v2.33h6.91v-2.33Zm6.91,7v-2.48h-6.91v2.48Zm19.54,18.4c0,1.69-.28,2.63-1.36,3.17s-2.56.57-4.79.57a15.34,15.34,0,0,0-.76-2.73,8.86,8.86,0,0,0-.68,1.08,12.55,12.55,0,0,1-7.34-5c-1.16,1.87-3.42,3.67-7.71,5a11,11,0,0,0-2-2.23c4.61-1.22,6.55-3.06,7.35-4.82h-6.88v-2.45h7.38v-2.41h-6.8v-2.45h3.38a13.29,13.29,0,0,0-1.4-2.66l2.55-.8a12.57,12.57,0,0,1,1.84,3.46H732a27.69,27.69,0,0,0,1.51-3.49l3,.9c-.54.9-1.16,1.8-1.7,2.59h3.75v2.45h-7.45v2.41h8v2.45H731.7a11.21,11.21,0,0,0,7.45,4.57,8.54,8.54,0,0,0-.86,1c1.19,0,2.34,0,2.74,0s.57-.18.57-.65v-16H731.27V523.63h13.64Zm-10.44-25.41v2.33h7.13v-2.33Zm7.13,7.05v-2.52h-7.13v2.52Z"/><path class="cls-4" d="M770.4,535.62c2.45,7.49,7,13.57,13.79,16.41a13.18,13.18,0,0,0-2.48,3.14c-6.74-3.14-11.09-9-13.9-16.6a24.9,24.9,0,0,1-13.89,16.6,11.62,11.62,0,0,0-2.56-2.81c8.57-3.75,12.06-10.23,13.5-16.74H752.08v-3.46h13.39a89.16,89.16,0,0,0,.43-9.93h3.64a92.18,92.18,0,0,1-.5,9.93h14.5v3.46Z"/><path class="cls-4" d="M808.81,546.13c2.52,3.42,6.88,5.47,12.93,6.26a12.14,12.14,0,0,0-2,2.92c-7-1.19-11.59-4-14.36-9-1.94,3.45-5.9,6.58-13.82,8.85a13.58,13.58,0,0,0-2-2.66c6.62-1.69,10.18-4,12.09-6.41H790v-2.92h13.14a13.19,13.19,0,0,0,.54-2.87h-9.61v-2.78h9.64v-2.73H793.48v-2.09h-3.06v-7.2h13.36v-3.31h3.45v3.31h13.39v7.2h-2.77v2.09H807.09v2.73h10.18v2.78H807.05a19.47,19.47,0,0,1-.43,2.87H821.3v2.92Zm-5.11-14.07V529.5h3.39v2.56H817.2v-3.57H793.7v3.57Z"/><path class="cls-4" d="M841.18,550.13c-4.82,1.26-10,2.55-13.79,3.49l-.68-3.13,1.69-.36V537.92h2.74v11.59l2-.43V535h-4.65v-11.3h11.38V535h-3.78v4.72h4.5v2.91h-4.5v5.76l4.79-1.11Zm-9.83-18h5.51v-5.58h-5.51Zm27,11.3a23.94,23.94,0,0,1-5.18,5.48c.93,2,2,3.09,3.2,3.09.83,0,1.19-1.11,1.4-4.61a8.45,8.45,0,0,0,2.52,1.77c-.57,4.75-1.54,6.12-4.21,6.12-2.37,0-4.21-1.66-5.65-4.43a40.84,40.84,0,0,1-8.89,4.14,13.14,13.14,0,0,0-2-2.74,37.53,37.53,0,0,0,9.75-4.32,43.21,43.21,0,0,1-1.44-5.76l-6.4.69-.33-2.88,6.26-.65c-.1-.93-.25-1.91-.36-2.88l-4.71.51-.32-2.81,4.78-.51c-.07-.86-.11-1.76-.18-2.66l-5.22.54-.32-2.92,5.4-.5c-.07-1.91-.11-3.85-.11-5.83h3.38c0,1.87,0,3.71,0,5.51l6.19-.61a27.5,27.5,0,0,0-4.71-3l1.83-2a28.91,28.91,0,0,1,5,3l-1.69,2,1.94-.18.29,2.84-8.75.87c0,.9.08,1.8.15,2.66l7.63-.79.32,2.77-7.66.83c.1,1,.21,1.94.36,2.84l8.92-.93.33,2.8-8.79,1a35.7,35.7,0,0,0,.94,4.07,18.17,18.17,0,0,0,3.49-3.71Z"/><path class="cls-4" d="M879,532.24a48.79,48.79,0,0,1-3,10.83,43.7,43.7,0,0,1,3.85,6l-2.7,2.27a36.22,36.22,0,0,0-2.8-4.86,24.38,24.38,0,0,1-7.78,8.46,17.84,17.84,0,0,0-2.27-2.59,21,21,0,0,0,8-8.79,94,94,0,0,0-6.15-7.48l2.34-1.91c1.73,1.8,3.53,3.89,5.25,6a47,47,0,0,0,2-8.36Zm18.61,1.47h-4.07v17.17c0,2-.47,3-1.62,3.64s-3.17.68-6.19.68a15.21,15.21,0,0,0-1.08-3.56c2.16.07,4.1.07,4.72,0s.86-.18.86-.79V533.71h-9.43V531H865.16v-3.09h6.55v-5.69H875v5.69h6.95v2.55h8.31v-8.28h3.31v8.28h4.07Zm-13,12.53a29.68,29.68,0,0,0-3.78-7.88l2.74-1.3a27.15,27.15,0,0,1,3.92,7.74Z"/><path class="cls-4" d="M921,543.83c2.92,2.95,8.42,6,14.72,7.2a17.09,17.09,0,0,0-2.12,3,31.2,31.2,0,0,1-12.6-6.63v7.85h-3.56v-8a31.54,31.54,0,0,1-12.74,6.91,14.54,14.54,0,0,0-2.09-2.81c5.9-1.3,11.7-4.25,14.83-8v-2.84h-8v6.62h-3.53v-9.46h11.52v-2.34H903.5v-2.92h13.93v-1.73c-.43-.25-.87-.54-1.15-.71a22.26,22.26,0,0,0,2.05-2h-5.55a17.43,17.43,0,0,1,1.48,3l-3,1.08a21.64,21.64,0,0,0-1.83-4.07h-1.26A29.06,29.06,0,0,1,905,532a16.58,16.58,0,0,0-2.77-1.87,21.6,21.6,0,0,0,5.54-8l3.21.83c-.33.79-.69,1.54-1.08,2.3h8.57v2.66a18.24,18.24,0,0,0,3.34-5.79l3.24.76a14.8,14.8,0,0,1-1,2.37h10.84V528h-6.7a19,19,0,0,1,1.52,3l-3,1a22.23,22.23,0,0,0-2-3.93h-2.34a22.78,22.78,0,0,1-1.73,2.31H921v2.12h13.36v2.92H921v2.34H932.4V544c0,1.51-.32,2.2-1.37,2.63a13.66,13.66,0,0,1-4.6.47,13.56,13.56,0,0,0-1.16-2.67,28.92,28.92,0,0,0,3.14,0c.43,0,.57-.11.57-.47v-3.49h-8Z"/><polygon class="cls-13" points="311.15 570.66 311.15 505.42 642.21 505.42 660.52 538.04 642.21 570.66 311.15 570.66"/><path class="cls-18" d="M641.62,506.42,659.37,538l-17.75,31.62H312.15V506.42H641.62m1.17-2H310.15v67.24H642.79L661.67,538l-18.88-33.62Z"/><polygon class="cls-13" points="6.46 570.66 6.46 505.42 323.54 505.42 341.85 538.04 323.54 570.66 6.46 570.66"/><path class="cls-14" d="M323,506.42,340.71,538,323,569.66H7.46V506.42H323m1.17-2H5.46v67.24H324.12L343,538l-18.88-33.62Z"/><path class="cls-14" d="M150.12,542a20.64,20.64,0,0,0,7.63,4.9,14,14,0,0,0-2.2,2.59,22.94,22.94,0,0,1-9.07-7.49H135.76a23.36,23.36,0,0,1-3.17,3.64h6.58v-2.7h3.39v2.7h7.13v2.66h-7.13v3.2h12.09v2.78h-27.1v-2.78h11.62v-3.2H132.3v-2.38a25.12,25.12,0,0,1-5.94,4,11.24,11.24,0,0,0-2.16-2.55A21.6,21.6,0,0,0,132,542h-7.42v-2.77h7V528.1h-5.22v-2.74h5.22v-3.13h3.35v3.13h12.24v-3.09h3.42v3.09h5.15v2.74h-5.15v11.12h6.77V542ZM134.89,528.1v2h12.24v-2Zm0,6.51h12.24v-2.05H134.89Zm0,4.61h12.24v-2.16H134.89Z"/><path class="cls-14" d="M177.48,550.59v2.81h-2.77v-9.9a17.59,17.59,0,0,1-1.19,2,21,21,0,0,0-1.84-3.06c2.42-3.67,3.68-9.32,4.43-15.26h-3.67v-3h12.31v3h-5.51A71.16,71.16,0,0,1,177.8,535h6v15.62Zm3.46-12.7h-3.46v9.79h3.46Zm15.29,13.82a15.74,15.74,0,0,0,2.34.14c.94,0,5.69,0,7,0a11,11,0,0,0-.94,2.84h-6.19c-4.5,0-7.63-.93-9.68-4.86a11.52,11.52,0,0,1-4.32,5.44,8.63,8.63,0,0,0-1.94-2.23c3.6-2.31,4.46-6.45,4.78-10.7h3c-.11,1.3-.25,2.6-.47,3.82a7.64,7.64,0,0,0,3.35,4.64v-9.86h-8.42v-2.73h17.71l.5-.15,2.16.68c-.65,1.84-1.44,3.93-2.12,5.33l-2.56-.93a23,23,0,0,0,.87-2.2h-5v3.71h6.48v2.73h-6.48Zm-7.84-19.47a20.44,20.44,0,0,1-3.28,4.35,10.43,10.43,0,0,0-1.48-2.27,17.66,17.66,0,0,0,4.11-5.76h-3V526h3.6v-3.78h2.77V526h3v2.59h-3v.62c.65.5,2.81,2.23,3.35,2.73l-1.59,2c-.36-.51-1.08-1.34-1.76-2.13v5.47h-2.77Zm9.71-.22a17.67,17.67,0,0,1-3.59,4.46,8.45,8.45,0,0,0-1.41-2.16,15.06,15.06,0,0,0,4.36-5.76h-2.7V526h3.34v-3.78h2.78V526H205v2.59h-3.5a14.28,14.28,0,0,0,4.07,5.84,10.11,10.11,0,0,0-1.8,1.94,14.07,14.07,0,0,1-2.91-4.21v5.07H198.1Z"/><path class="cls-15" d="M463.84,535.73c0,5.61-.54,14-3.67,19.47a16.8,16.8,0,0,0-2.84-1.91c2.92-5.11,3.17-12.41,3.17-17.56v-9.14h13v-4.4H477v4.4H490.3v3.23H463.84Zm-.28,14.9c1.69-2.77,2.55-7,2.91-10.87l3.06.68c-.43,3.93-1.26,8.68-3,11.52Zm16.59.9c1.3,0,1.48-.9,1.66-6a10.34,10.34,0,0,0,2.95,1.37c-.33,6-1.19,7.63-4.36,7.63h-4.68c-3.38,0-4.24-1.08-4.24-4.5V536.84h3.27v13.21c0,1.26.25,1.48,1.48,1.48Zm0-13.28a44.76,44.76,0,0,0-8.32-5.55l2.27-2.19a45.4,45.4,0,0,1,8.46,5.25Zm5.79.65c2.31,3.67,4.5,8.45,5.08,11.69L487.78,552A39.61,39.61,0,0,0,483,540.08Z"/><path class="cls-15" d="M525.94,551c0,1.94-.47,3-1.76,3.45s-3.42.61-6.73.58a14.16,14.16,0,0,0-1.12-3.24c2.3.11,4.68.07,5.36.07s.9-.22.9-.9v-6.44h-8.71v10.29h-3.34V544.55h-8.28c-.58,4-1.88,8-4.5,10.9a11.15,11.15,0,0,0-2.63-2.19c3.92-4.36,4.28-10.73,4.28-15.8V524.64h26.53Zm-15.4-9.65v-5.33h-7.82v1.44c0,1.22,0,2.56-.14,3.89Zm-7.82-13.54v5.08h7.82v-5.08Zm19.87,0h-8.71v5.08h8.71Zm0,13.54v-5.33h-8.71v5.33Z"/><path d="M1249.59,434.56c1.67,5.09,4.75,9.23,9.38,11.16a9.28,9.28,0,0,0-1.69,2.13c-4.58-2.13-7.54-6.09-9.45-11.29a16.94,16.94,0,0,1-9.46,11.29,7.78,7.78,0,0,0-1.74-1.91,15.22,15.22,0,0,0,9.19-11.38h-8.7v-2.35h9.12a63.76,63.76,0,0,0,.29-6.76H1249a61.7,61.7,0,0,1-.34,6.76h9.87v2.35Z"/><path d="M1270.48,427.23c-.69,2.06-1.55,4.61-2.33,6.52a7.37,7.37,0,0,1,2,5.09c0,1.4-.29,2.43-1,2.92a3.48,3.48,0,0,1-1.32.49,10.78,10.78,0,0,1-1.62,0,4.45,4.45,0,0,0-.54-2,7.89,7.89,0,0,0,1.25,0,1.38,1.38,0,0,0,.76-.22c.34-.25.44-.84.44-1.55a6.74,6.74,0,0,0-2-4.58c.61-1.64,1.25-3.82,1.71-5.48h-2.62V447.9h-2V426.45h5.39l.34-.07Zm13.29,6.27a21,21,0,0,1-3.62,9.38A13.77,13.77,0,0,0,1285,446a8.6,8.6,0,0,0-1.47,1.91,14.91,14.91,0,0,1-4.77-3.28,15.91,15.91,0,0,1-4.9,3.3,8.56,8.56,0,0,0-1.33-1.86,13.05,13.05,0,0,0,4.78-3.16,22.55,22.55,0,0,1-3.31-6.76c-.17,3.87-.9,8.55-3.38,11.73a7.68,7.68,0,0,0-1.71-1.37c2.77-3.65,3-8.84,3-12.66v-7h12.37v2.08H1274v4.31h8l.42-.07Zm-8,1.74a19.66,19.66,0,0,0,2.92,5.93,17.64,17.64,0,0,0,2.57-5.93Z"/><path d="M1297.12,426.77a30.15,30.15,0,0,1-6.71,10,13.18,13.18,0,0,0-2.18-1.69,22.57,22.57,0,0,0,6.32-9Zm6.76,11.75a56,56,0,0,1,5.78,8.23l-2.33,1.25c-.29-.59-.66-1.25-1.1-2-6,.36-12.34.68-16.68.9l-.29-2.4c1,0,2.13-.07,3.35-.12a63.68,63.68,0,0,0,4.43-10.16l2.7.66a94.86,94.86,0,0,1-4.51,9.4c3-.12,6.35-.27,9.65-.44-1-1.49-2.13-3-3.18-4.33Zm-.22-12.46a35.17,35.17,0,0,0,6.68,8.72,11,11,0,0,0-1.93,2,52.54,52.54,0,0,1-7-9.75Z"/><path d="M1335.88,444.62v2.28H1314v-2.28h12.22a71.34,71.34,0,0,0,3.09-11.44l2.6.49a99.63,99.63,0,0,1-3.29,10.95Zm-.73-12.41H1314.8V430h8.86v-4.53H1326V430h9.11Zm-15,11.41a37,37,0,0,0-2.18-9.73l2.16-.58a37.64,37.64,0,0,1,2.35,9.7Z"/><path d="M1352.43,434.56c1.67,5.09,4.76,9.23,9.38,11.16a9.28,9.28,0,0,0-1.69,2.13c-4.58-2.13-7.54-6.09-9.45-11.29a16.92,16.92,0,0,1-9.45,11.29,8,8,0,0,0-1.74-1.91,15.21,15.21,0,0,0,9.18-11.38H1340v-2.35h9.11a61.21,61.21,0,0,0,.29-6.76h2.48a61.88,61.88,0,0,1-.35,6.76h9.87v2.35Z"/></g></g></svg>