<svg xmlns="http://www.w3.org/2000/svg" viewBox="0 0 1396.16 278.89"><defs><style>.cls-1,.cls-4{fill:#009481;}.cls-1,.cls-7{stroke:#009481;}.cls-1,.cls-2,.cls-7{stroke-miterlimit:10;stroke-width:1.3px;}.cls-2,.cls-3{fill:#fff;}.cls-2{stroke:#008b80;}.cls-5{fill:#231815;}.cls-6{fill:#68b4a9;}.cls-7{fill:none;}</style></defs><g id="Layer_2" data-name="Layer 2"><g id="design"><rect class="cls-1" x="0.65" y="5.13" width="290.15" height="60.13"/><rect class="cls-2" x="0.65" y="65.26" width="290.15" height="144.58"/><path class="cls-3" d="M105.28,30.48V28.91h9.29v1.57ZM114,40.39V48.5H108v1.29h-1.6v-9.4Zm-.11-7.62v1.52h-7.4V32.77Zm-7.4,5.33V36.58h7.4V38.1Zm7.31-12.92V26.7h-7.14V25.18ZM112.34,42H108v5h4.3Zm18.73,1.82v1.57h-1.71v2.51c0,1.85-.8,2-4.74,2a5.44,5.44,0,0,0-.5-1.54c.83,0,1.6,0,2.15,0,1.22,0,1.35,0,1.35-.5V45.35h-9.27v4.47h-1.62V45.35h-1.91V43.78h1.91V36.66h5.35V35h-7.26V33.43H119v-2h-2.84V30H119V28.11h-3.4V26.65H119V24.19l2.23.17c0,.16-.16.3-.52.36v1.93h4.69V24.19l2.23.17c0,.16-.16.3-.52.36v1.93h3.5v1.46h-3.5V30h3v1.43h-3v2H131V35h-7.34v1.71h5.68v7.12Zm-9-5.71h-3.73V40.3h3.73Zm-3.73,3.58v2.13h3.73V41.65Zm2.35-13.54V30h4.69V28.11Zm0,3.31v2h4.69v-2Zm6.92,6.65h-3.94V40.3h3.94Zm-3.94,5.71h3.94V41.65h-3.94Z"/><path class="cls-3" d="M185.84,29.1H164.38v6c0,4.28-.36,10.52-2.62,14.76a7.82,7.82,0,0,0-1.57-1c2.18-4,2.37-9.65,2.37-13.71V27.36h10.59V24.19l2.46.17c0,.19-.17.33-.55.38v2.62h10.78ZM176.19,43v4.39h9.74v1.65H164.54V47.42h9.83V43h-7.81V41.38h7.81V30.23l2.34.14c0,.19-.16.33-.52.39V41.38h8.05V43Zm-3.56-3.67A31.65,31.65,0,0,0,169.57,36a10.93,10.93,0,0,1-3.23,4.16,7.56,7.56,0,0,0-1.3-1.07c2.32-1.66,3.73-4.69,4.3-8.33l2.16.33c0,.19-.2.3-.53.33a20.45,20.45,0,0,1-.8,3.06,33.15,33.15,0,0,1,3.62,3.67Zm12.25.61a44,44,0,0,0-4.2-4,10.26,10.26,0,0,1-3.17,3.8,6.86,6.86,0,0,0-1.24-1c2.29-1.54,3.72-4.41,4.33-7.91l2.12.36c-.05.19-.22.3-.52.33a16.93,16.93,0,0,1-.83,2.95,46.17,46.17,0,0,1,4.69,4.33Z"/><path class="cls-4" d="M73.62,97.49v3.88c0,.36,0,.77,0,1.15h4.16V104H73.48a19,19,0,0,1-.36,2.11c1.09,1.06,3.7,3.92,4.35,4.65l-1,1.25c-.72-1-2.54-3.14-3.74-4.47a12.34,12.34,0,0,1-4.63,6.21,5.41,5.41,0,0,0-1-1.11A11.62,11.62,0,0,0,72,104H67.15v-1.46h5c0-.4,0-.79,0-1.18V97.49h-2a16.32,16.32,0,0,1-1.88,4,8,8,0,0,0-1.14-.8,21.32,21.32,0,0,0,2.73-7.71l1.81.45c0,.16-.2.23-.47.23-.16.81-.37,1.63-.59,2.45h6.6v1.43ZM78.77,95h8.39v18.17H85.62v-1.61H80.26v1.86H78.77Zm1.49,15.11h5.36V96.4H80.26Z"/><path class="cls-4" d="M96.81,96.78v1.27h-7V96.78ZM96.27,106v6.65H91.89v1.09H90.64V106Zm0-6.17v1.25H90.69V99.87Zm-5.53,4.33V103h5.53v1.24Zm5.49-10.43V95H90.8V93.77ZM95,107.31H91.89v4.09H95Zm11.83-5.17c.06,1.86.18,3.56.34,5a18.25,18.25,0,0,0,1.63-4l1.47.73c0,.14-.18.18-.38.18a18.79,18.79,0,0,1-2.43,5.08c.41,2.07,1.11,3.54,1.93,3.54.39,0,.68-1.47.88-3.33a3.77,3.77,0,0,0,1,.77c-.3,2.68-.84,4-1.89,4-1.4,0-2.36-1.36-2.92-3.59a16.3,16.3,0,0,1-3.91,3.4,5.63,5.63,0,0,0-.88-.88,14.74,14.74,0,0,0,4.45-4.13,57.48,57.48,0,0,1-.62-6.76h-9v-1.27h8.92c-.07-2.43-.11-5.11-.14-7.9l1.89.07c0,.18-.14.32-.46.36,0,2.66,0,5.18.07,7.47h3.9v1.27Zm-2.14-6.63v1.23H97.11V95.51h3.13V93l1.84.11c0,.16-.14.27-.43.32v2.13Zm-.61,15.59H99v1.29H97.74v-8.91h6.31ZM99.22,97a12.72,12.72,0,0,1,.75,3.38l-1.21.25a12.2,12.2,0,0,0-.68-3.38Zm3.51,7.63H99v2h3.74ZM99,109.92h3.74v-2.11H99Zm5.08-12.64c0,.14-.2.23-.45.23a30.63,30.63,0,0,1-1,3.31l-1-.32a29.06,29.06,0,0,0,.86-3.63ZM108.38,94a14,14,0,0,1,2.45,4l-1.27.57a13.72,13.72,0,0,0-2.36-4.13Z"/><path class="cls-4" d="M125.36,103.48a2.34,2.34,0,1,1-2.33-2.34A2.33,2.33,0,0,1,125.36,103.48Z"/><path class="cls-4" d="M156,101.23h-8.64a42.18,42.18,0,0,1-4.7,2.93l0,.13A64.23,64.23,0,0,0,152,102.8l1.09,1.13a.33.33,0,0,1-.23.07.65.65,0,0,1-.18,0,69,69,0,0,1-10.3,1.47c-.14.59-.3,1.18-.43,1.75h9.62l.34-.07,1,.32a1.51,1.51,0,0,1-.16.41c-.52,3.47-1,5-1.77,5.62a3.17,3.17,0,0,1-2.31.55c-.73,0-1.79,0-2.91-.09a2.92,2.92,0,0,0-.47-1.43c1.47.13,3,.18,3.51.18a1.48,1.48,0,0,0,1-.23c.5-.41.93-1.52,1.32-4h-9.46c-.12.43-.23.82-.34,1.16l-1.52-.23c.36-1.13.79-2.77,1.15-4.33a53.45,53.45,0,0,1-4.9,2.15,7.94,7.94,0,0,0-.91-1.11,52.55,52.55,0,0,0,6.22-2.77l.12-.59.79.09c.93-.52,1.84-1.06,2.74-1.63h-9.52V99.87h8V97.1h-6V95.79h6V92.93l2,.13c0,.16-.14.27-.46.32v2.41h6v.77a29.54,29.54,0,0,0,2.54-2.75l1.55,1a.6.6,0,0,1-.39.12,1,1,0,0,1-.23,0,36.3,36.3,0,0,1-5.19,5H156ZM145,99.87h2a36.77,36.77,0,0,0,3.41-2.77H145Z"/><path class="cls-4" d="M167.38,105.7a5,5,0,0,1,2.24-.52,2,2,0,0,1,2,2.31c0,.59-.07,1.3-.07,1.84,0,2.32,1.36,2.32,3.31,2.32a19,19,0,0,0,2.95-.21,15.16,15.16,0,0,0,.07,1.61c-.88.09-1.95.14-2.95.14a16.77,16.77,0,0,1-2.36-.14,2.86,2.86,0,0,1-2.58-2.79c0-.52,0-1.54,0-2.22,0-1-.36-1.5-1.16-1.5a6.57,6.57,0,0,0-4.06,1.88c-1.31,1.3-3.79,3.79-4.56,4.7a12.42,12.42,0,0,0-1.22-1.2c2.15-2.2,9.28-9.12,11.59-11.37-1.65.16-6.81.45-9.39.59a.43.43,0,0,1-.36.25l-.14-1.82c3.18-.09,9.14-.38,11.43-.58l.35-.21,1.31,1.2a.85.85,0,0,1-.54.18c-1.43,1.34-4.22,3.91-5.9,5.52Zm5.69-9.08a50,50,0,0,0-9.71-1.52l.34-1.52a47.82,47.82,0,0,1,9.8,1.5Z"/><path class="cls-4" d="M201.4,98.44H189.71c-.09,1.27-.2,2.61-.38,4h8.1l.34,0,.9.16a2.4,2.4,0,0,1-.09.48c-.47,6.83-.93,9.37-1.83,10.28-.62.65-1.23.77-2.66.77-.82,0-2,0-3.09-.12a3.47,3.47,0,0,0-.54-1.49c1.68.16,3.31.16,3.88.16a1.51,1.51,0,0,0,1.09-.25c.7-.64,1.16-2.93,1.57-8.49h-7.92c-.78,4-2.57,8-7.33,10.26a4.67,4.67,0,0,0-1.09-1.23c6.42-2.9,7.12-9,7.4-14.43h-7.2V97h9.4V92.88l2,.14c0,.16-.16.27-.46.31V97h9.58Z"/><path class="cls-4" d="M223.28,102.66a.39.39,0,0,1-.14,0,.55.55,0,0,1-.34-.14c-1.72.57-4.24,1.5-6.13,2.31.05.53.07,1.12.07,1.77s0,1.55-.07,2.43l-1.65.09c.07-.81.11-1.86.11-2.74,0-.34,0-.66,0-.91-2.57,1.25-4.65,2.77-4.65,4.13s1.56,1.95,4.69,1.95a51.07,51.07,0,0,0,5.7-.23l0,1.52c-1.34.14-3.38.18-5.72.18-4.35,0-6.28-1-6.28-3.35,0-2,2.63-3.93,6-5.63-.13-1.43-.77-2.13-1.67-2.13-1.66,0-3.39.93-5.43,3.2-.63.7-1.52,1.58-2.49,2.47l-1.12-1.11c2.27-2,4.41-3.91,5.72-8.37l-1.27,0h-3.79V96.69c1.39,0,3,0,3.93,0l1.54,0a27.53,27.53,0,0,0,.61-3.24l2.23.27c0,.23-.23.36-.57.41-.16.91-.36,1.7-.57,2.52a31.43,31.43,0,0,0,7.81-1.32l.27,1.52a34.1,34.1,0,0,1-8.51,1.27A16.48,16.48,0,0,1,210,102h0a6,6,0,0,1,3.65-1.48c1.55,0,2.52,1.11,2.82,3,1.9-.86,4.31-1.79,6.12-2.49Z"/><path class="cls-4" d="M109.69,154.81a37,37,0,0,1-2.76,3.88,44.53,44.53,0,0,0-2-5.08c3-3.76,6.08-10.32,7.92-16.72l5.24,1.72c-.16.36-.52.52-1.12.48-.84,2.48-1.8,5-2.88,7.44l1.2.36c-.08.36-.4.6-1,.72v27h-4.56Zm33.19-10.16h-3a20.91,20.91,0,0,1-4.44,6,31.88,31.88,0,0,0,8.84,2.76,18.51,18.51,0,0,0-2.6,3.84,32,32,0,0,1-9.64-3.88,32.91,32.91,0,0,1-9.24,4.08,18.92,18.92,0,0,0-2.27-3.08v13.32h-4.16V141.89l5.15.28c0,.36-.32.64-1,.72v4a26.83,26.83,0,0,0,6.23-10.16l5,1.4c-.12.4-.56.52-1,.48-.28.76-.6,1.48-1,2.24h13.12Zm-22.35,9.28a28.35,28.35,0,0,0,7.95-3.16,27.37,27.37,0,0,1-3-3.12,21,21,0,0,1-2.6,2.72,22.68,22.68,0,0,0-2.35-2ZM144,165.25c-.12.28-.48.48-1,.48-4,4.36-11.08,7.08-19.32,8.6a17,17,0,0,0-2.44-3.8c7.48-1,14.48-3.24,17.92-7Zm-7.6-8.4a.87.87,0,0,1-.84.4,31.38,31.38,0,0,1-10.08,5.16,14.73,14.73,0,0,0-2.52-2.76c3.36-.88,7.28-2.52,9.28-4.32Zm3.88,3.6a1,1,0,0,1-.88.44c-3,2.92-8.32,5.36-13.84,6.8a16.14,16.14,0,0,0-2.32-3c5-1,10.28-3,13-5.72Zm-12.48-15.8a18.72,18.72,0,0,0,3.92,3.8,16.33,16.33,0,0,0,3.24-3.8Z"/><path class="cls-4" d="M153.13,159.41c-1,1.24-1.92,2.36-2.88,3.4a45,45,0,0,0-2.32-4.28,46.41,46.41,0,0,0,8.48-12.92l5,2a1.14,1.14,0,0,1-1.12.4c-.8,1.56-1.68,3.2-2.64,4.76l1,.36a1.12,1.12,0,0,1-1,.68v20.72h-4.48Zm7.48-20.6a1,1,0,0,1-1.08.36,70.59,70.59,0,0,1-9,9.36A29.9,29.9,0,0,0,148,145a38.54,38.54,0,0,0,7.76-8.24Zm24.63,21.08V164h-5.52v5.76c0,4.24-1.88,4.72-8.24,4.72a17,17,0,0,0-1.48-4.28c1.68.08,3.6.08,4.12.08s.72-.2.72-.64V164H160.05v-4.08h14.79v-2.2H161.05v-4h23.19v4h-3.56a1.43,1.43,0,0,1-1,.44v1.76ZM167.4,171.57a28.77,28.77,0,0,0-4.48-5.4l3.16-2.16a32.32,32.32,0,0,1,4.72,5.16Zm14.84-33.8v14H163v-14Zm-4.84,5.36v-2h-9.76v2Zm0,5.2v-2h-9.76v2Z"/><rect class="cls-1" x="333.74" y="5.13" width="290.15" height="60.13"/><rect class="cls-2" x="333.74" y="65.26" width="290.15" height="144.58"/><path class="cls-3" d="M421.11,27.64H416.2a60.25,60.25,0,0,1-1.46,6.68h5.41v12h-5.44v2.26h-1.6V38.84a17.83,17.83,0,0,1-1.74,3,15.35,15.35,0,0,0-1-1.65c2-2.79,3.25-7.56,4-12.58H411V25.93h10.09Zm-2.59,17V36h-3.81v8.69Zm18,2.37v1.6H425.09V50h-1.74V37.68a15.94,15.94,0,0,1-2.07,2,12.08,12.08,0,0,0-1-1.54,21.64,21.64,0,0,0,6-9h-3.36v3.42h-1.63v-5h5.57c.36-1.07.67-2.21.94-3.36l2.29.52c-.05.22-.27.33-.63.33-.22.86-.47,1.68-.72,2.51h7.37v5h-1.71V29.13h-6.21A33,33,0,0,1,425.91,34h3.26a32.08,32.08,0,0,0,1.41-3.72l2.12.66c-.06.17-.25.25-.55.25-.31.8-.77,1.87-1.24,2.81h4.85v1.63h-5.1v2.79h4.44v1.49h-4.44v2.81h4.44v1.49h-4.44V47Zm-7.56-8.6V35.64h-3.83v2.79Zm0,4.3V39.92h-3.83v2.81Zm-3.83,1.49V47h3.83V44.22Z"/><path class="cls-3" d="M448.29,28.85V30.4h-9.93V28.85Zm-.77,11.26v8.11h-6.35v1.3h-1.6V40.11Zm0-7.5v1.51H439.6V32.61Zm-7.89,5.26V36.36h7.89v1.51Zm7.78-12.69V26.7h-7.64V25.18Zm-1.49,16.5h-4.72v5h4.72Zm5.74-.08c-.33,2.4-.94,5-2.43,6.56l-1.4-.93c1.35-1.35,2-3.78,2.28-6Zm4.83-14.73a28.32,28.32,0,0,1-.91,3.69,29.09,29.09,0,0,1,3.39,2L458,34a25.93,25.93,0,0,0-3.09-1.91,10.92,10.92,0,0,1-5.13,5.3,5.78,5.78,0,0,0-1.16-1.33,10,10,0,0,0,4.78-4.74,33.91,33.91,0,0,0-3.73-1.57l.91-1.33c1.1.39,2.26.86,3.42,1.38a19.44,19.44,0,0,0,.72-2.92h-4.83v-1.6h11.62l.8,0,1,.11c-.17,1.08-.17,9.3-1.3,10.57-.66.8-1.35.8-2.65.8-.69,0-1.54,0-2.4-.09a3.43,3.43,0,0,0-.49-1.62c1.46.11,2.07.11,3.31.11a.84.84,0,0,0,.72-.28c.46-.55.74-2.57,1-8ZM454.58,47c0,.63.11.74.91.74h2.71c.71,0,.85-.36.91-3.11a6.34,6.34,0,0,0,1.57.69c-.17,3.28-.66,4.08-2.32,4.08h-3.09c-2,0-2.43-.53-2.43-2.4V40.36l2.27.16c0,.17-.2.31-.53.36Zm3.48-5.6a22,22,0,0,0-4.91-3.92l1.18-1.07a22.32,22.32,0,0,1,5,3.8Zm4.72,6.73a19.31,19.31,0,0,0-3.07-6.7l1.52-.61a19.9,19.9,0,0,1,3.23,6.62Z"/><path class="cls-3" d="M489.93,35.81H480.6l.47.13a.57.57,0,0,1-.55.33c-.75,5.14-2.62,9.72-8.53,12.61a14.45,14.45,0,0,0-1.49-1.38c5.74-2.76,7.34-6.62,8-11.69H467.75V34h22.18ZM487.19,28H470.26V26.18h16.93Z"/><path class="cls-3" d="M513.85,27.81a.61.61,0,0,1-.36.3A42.43,42.43,0,0,1,508,37.6,101.67,101.67,0,0,1,518.07,47l-1.68,1.46a91,91,0,0,0-9.69-9.27,43.13,43.13,0,0,1-10.62,9.27,10.43,10.43,0,0,0-1.43-1.49,39.49,39.49,0,0,0,16.16-18H497.27V27h14.62l.36-.13Z"/><path class="cls-3" d="M541.77,39.64a99.1,99.1,0,0,0-9.68-4.5v13.8H530V25l2.79.17c0,.3-.25.5-.72.58v8l.41-.58a96.11,96.11,0,0,1,10.38,4.61Z"/><path class="cls-4" d="M406.7,97.49v3.88c0,.36,0,.77,0,1.15h4.15V104h-4.27a19,19,0,0,1-.36,2.11c1.09,1.06,3.7,3.92,4.36,4.65l-1,1.25c-.73-1-2.55-3.14-3.75-4.47a12.34,12.34,0,0,1-4.63,6.21,5.14,5.14,0,0,0-1-1.11,11.63,11.63,0,0,0,4.95-8.64h-4.86v-1.46h5c0-.4,0-.79,0-1.18V97.49h-2a16,16,0,0,1-1.88,4,7.88,7.88,0,0,0-1.13-.8,21.32,21.32,0,0,0,2.72-7.71l1.81.45c0,.16-.2.23-.47.23-.16.81-.36,1.63-.59,2.45h6.6v1.43ZM411.85,95h8.39v18.17H418.7v-1.61h-5.35v1.86h-1.5Zm1.5,15.11h5.35V96.4h-5.35Z"/><path class="cls-4" d="M429.9,96.78v1.27h-7.06V96.78Zm-.55,9.26v6.65H425v1.09h-1.25V106Zm0-6.17v1.25h-5.54V99.87Zm-5.54,4.33V103h5.54v1.24Zm5.49-10.43V95h-5.38V93.77Zm-1.2,13.54H425v4.09h3.09Zm11.82-5.17c.07,1.86.18,3.56.34,5a18.25,18.25,0,0,0,1.63-4l1.48.73c-.05.14-.18.18-.39.18a18.5,18.5,0,0,1-2.43,5.08c.41,2.07,1.12,3.54,1.93,3.54.39,0,.68-1.47.89-3.33a3.57,3.57,0,0,0,.95.77c-.29,2.68-.84,4-1.88,4-1.41,0-2.36-1.36-2.93-3.59a16.07,16.07,0,0,1-3.9,3.4,5.31,5.31,0,0,0-.89-.88,14.74,14.74,0,0,0,4.45-4.13,55.6,55.6,0,0,1-.61-6.76h-9v-1.27h8.92c-.07-2.43-.11-5.11-.13-7.9l1.88.07c0,.18-.14.32-.45.36,0,2.66,0,5.18.06,7.47h3.91v1.27Zm-2.13-6.63v1.23h-7.56V95.51h3.13V93l1.84.11c0,.16-.14.27-.43.32v2.13Zm-.62,15.59h-5.06v1.29h-1.24v-8.91h6.3ZM432.3,97a12.72,12.72,0,0,1,.75,3.38l-1.2.25a13,13,0,0,0-.68-3.38Zm3.52,7.63h-3.75v2h3.75Zm-3.75,5.26h3.75v-2.11h-3.75Zm5.09-12.64c-.05.14-.21.23-.46.23a26.71,26.71,0,0,1-1,3.31l-1-.32a27.4,27.4,0,0,0,.86-3.63ZM441.47,94a14.42,14.42,0,0,1,2.45,4l-1.27.57a14.16,14.16,0,0,0-2.36-4.13Z"/><path class="cls-4" d="M458.45,103.48a2.34,2.34,0,1,1-2.34-2.34A2.33,2.33,0,0,1,458.45,103.48Z"/><path class="cls-4" d="M489.11,101.23h-8.65a43,43,0,0,1-4.69,2.93l0,.13a63.78,63.78,0,0,0,9.35-1.49l1.09,1.13a.32.32,0,0,1-.23.07.65.65,0,0,1-.18,0,69,69,0,0,1-10.3,1.47c-.13.59-.29,1.18-.43,1.75h9.62l.34-.07.95.32a1.87,1.87,0,0,1-.15.41c-.53,3.47-1.05,5-1.77,5.62a3.21,3.21,0,0,1-2.32.55c-.72,0-1.79,0-2.9-.09a2.94,2.94,0,0,0-.48-1.43c1.48.13,3,.18,3.52.18a1.49,1.49,0,0,0,1-.23c.49-.41.93-1.52,1.31-4H474.7c-.11.43-.23.82-.34,1.16l-1.52-.23c.36-1.13.79-2.77,1.16-4.33-1.59.79-3.25,1.52-4.9,2.15a8.72,8.72,0,0,0-.91-1.11,52.41,52.41,0,0,0,6.21-2.77l.12-.59.79.09c.93-.52,1.84-1.06,2.75-1.63h-9.53V99.87h8V97.1h-6.06V95.79h6.06V92.93l1.95.13c0,.16-.14.27-.45.32v2.41h6v.77a29.54,29.54,0,0,0,2.54-2.75l1.54,1a.6.6,0,0,1-.39.12.94.94,0,0,1-.22,0,36.38,36.38,0,0,1-5.2,5h6.81ZM478,99.87h2a35.5,35.5,0,0,0,3.41-2.77H478Z"/><path class="cls-4" d="M500.46,105.7a5,5,0,0,1,2.25-.52,2,2,0,0,1,2,2.31c0,.59-.06,1.3-.06,1.84,0,2.32,1.36,2.32,3.31,2.32a19.12,19.12,0,0,0,2.95-.21,15.16,15.16,0,0,0,.07,1.61c-.89.09-2,.14-3,.14a16.77,16.77,0,0,1-2.36-.14,2.86,2.86,0,0,1-2.59-2.79c0-.52,0-1.54,0-2.22,0-1-.36-1.5-1.15-1.5a6.52,6.52,0,0,0-4.06,1.88c-1.32,1.3-3.79,3.79-4.56,4.7a12.13,12.13,0,0,0-1.23-1.2c2.16-2.2,9.28-9.12,11.59-11.37-1.65.16-6.8.45-9.39.59a.43.43,0,0,1-.36.25l-.14-1.82c3.18-.09,9.15-.38,11.44-.58l.34-.21,1.31,1.2a.83.83,0,0,1-.54.18c-1.43,1.34-4.22,3.91-5.9,5.52Zm5.7-9.08a50.11,50.11,0,0,0-9.72-1.52l.34-1.52a47.92,47.92,0,0,1,9.81,1.5Z"/><path class="cls-4" d="M534.48,98.44H522.79c-.09,1.27-.2,2.61-.38,4h8.1l.34,0,.91.16c0,.16,0,.34-.09.48-.48,6.83-.93,9.37-1.84,10.28-.61.65-1.23.77-2.66.77-.81,0-1.95,0-3.08-.12a3.62,3.62,0,0,0-.55-1.49c1.68.16,3.32.16,3.88.16s.84,0,1.09-.25c.71-.64,1.16-2.93,1.57-8.49h-7.92c-.77,4-2.56,8-7.33,10.26a4.67,4.67,0,0,0-1.09-1.23c6.42-2.9,7.13-9,7.4-14.43H514V97h9.39V92.88l2,.14c0,.16-.16.27-.46.31V97h9.58Z"/><path class="cls-4" d="M556.36,102.66a.39.39,0,0,1-.14,0,.58.58,0,0,1-.34-.14c-1.72.57-4.24,1.5-6.12,2.31,0,.53.07,1.12.07,1.77s0,1.55-.07,2.43l-1.66.09c.07-.81.11-1.86.11-2.74,0-.34,0-.66,0-.91-2.56,1.25-4.65,2.77-4.65,4.13s1.57,1.95,4.7,1.95a51,51,0,0,0,5.69-.23l0,1.52c-1.33.14-3.38.18-5.71.18-4.36,0-6.29-1-6.29-3.35,0-2,2.63-3.93,6-5.63-.14-1.43-.77-2.13-1.68-2.13-1.66,0-3.38.93-5.42,3.2-.64.7-1.52,1.58-2.5,2.47l-1.11-1.11c2.27-2,4.4-3.91,5.72-8.37l-1.27,0h-3.79V96.69c1.38,0,3,0,3.92,0l1.54,0a29.66,29.66,0,0,0,.62-3.24l2.22.27c0,.23-.23.36-.57.41-.16.91-.36,1.7-.56,2.52a31.43,31.43,0,0,0,7.8-1.32l.27,1.52a34,34,0,0,1-8.51,1.27A16.48,16.48,0,0,1,543,102h0a6,6,0,0,1,3.66-1.48c1.54,0,2.52,1.11,2.81,3,1.91-.86,4.31-1.79,6.13-2.49Z"/><path class="cls-4" d="M460.09,163v6a42.07,42.07,0,0,0,4.6.24c2.16,0,8.83,0,11.55-.12a16.45,16.45,0,0,0-1.72,4.88H464.45c-7.52,0-13-1.24-16.72-7a18.77,18.77,0,0,1-5.52,7.64,25.87,25.87,0,0,0-3.68-3.16c4.2-3,6.24-8.84,7-15.76l5.8.84a1,1,0,0,1-1,.64c-.2,1.4-.44,2.72-.72,4a10.76,10.76,0,0,0,5.52,6.4v-14.2h-8.24v-4.56h21.4v4.56h-8.16v5h11.08V163Zm-14.8-17.44v5.56h-4.72V141.05H455v-4.4l6.24.36c0,.4-.36.64-1.12.76v3.28h14.51v10.08h-4.95v-5.56Z"/><path class="cls-4" d="M518.32,155.37h-23c-.24.52-.44,1-.68,1.56h19.23v17.52h-4.91v-.92H495.45v1h-4.72V163.25a28,28,0,0,1-6.44,6.08,21.92,21.92,0,0,0-3.28-3.4,24.33,24.33,0,0,0,9.08-10.56h-8.32v-3.72h15.68v-1.52H486.17v-3.48h11.28v-1.52H484v-3.72h7a22.57,22.57,0,0,0-2-3.08l4.12-1.6a15.51,15.51,0,0,1,2.88,4.36l-.76.32h9.24l-.72-.28a31.73,31.73,0,0,0,2.6-4.48l5.6,1.8c-.12.32-.48.44-1.08.44a25.69,25.69,0,0,1-2,2.52h7.31v3.72H502.41v1.52h11.67v3.48H502.41v1.52h15.91Zm-9.39,5H495.45v1.4h13.48Zm0,5.52v-1.44H495.45v1.44Zm-13.48,4.16h13.48v-1.52H495.45Z"/><rect class="cls-1" x="672.33" y="5.13" width="290.15" height="60.13"/><rect class="cls-2" x="672.33" y="65.26" width="290.15" height="144.58"/><path class="cls-3" d="M694.18,30.48V28.91h9.3v1.57Zm8.69,9.91V48.5h-5.93v1.29h-1.6v-9.4Zm-.11-7.62v1.52h-7.4V32.77Zm-7.4,5.33V36.58h7.4V38.1Zm7.32-12.92V26.7h-7.15V25.18ZM701.24,42h-4.3v5h4.3ZM720,43.78v1.57h-1.71v2.51c0,1.85-.8,2-4.74,2a5.44,5.44,0,0,0-.5-1.54c.83,0,1.6,0,2.15,0,1.22,0,1.35,0,1.35-.5V45.35h-9.26v4.47h-1.63V45.35h-1.91V43.78h1.91V36.66H711V35h-7.26V33.43h4.17v-2h-2.84V30h2.84V28.11H704.5V26.65h3.39V24.19l2.23.17c0,.16-.16.3-.52.36v1.93h4.69V24.19l2.23.17c0,.16-.16.3-.52.36v1.93h3.5v1.46H716V30h3v1.43h-3v2h3.92V35h-7.34v1.71h5.68v7.12Zm-9-5.71h-3.72V40.3H711Zm-3.72,3.58v2.13H711V41.65Zm2.34-13.54V30h4.69V28.11Zm0,3.31v2h4.69v-2Zm6.92,6.65h-3.94V40.3h3.94Zm-3.94,5.71h3.94V41.65h-3.94Z"/><path class="cls-3" d="M747.15,29.1H725.69v6c0,4.28-.36,10.52-2.62,14.76a7.62,7.62,0,0,0-1.58-1c2.18-4,2.38-9.65,2.38-13.71V27.36h10.59V24.19l2.46.17c0,.19-.17.33-.56.38v2.62h10.79ZM737.5,43v4.39h9.73v1.65H725.85V47.42h9.82V43h-7.8V41.38h7.8V30.23l2.35.14c0,.19-.17.33-.52.39V41.38h8V43Zm-3.56-3.67A31.87,31.87,0,0,0,730.87,36a10.91,10.91,0,0,1-3.22,4.16,7.56,7.56,0,0,0-1.3-1.07c2.32-1.66,3.72-4.69,4.3-8.33l2.16.33c0,.19-.2.3-.53.33a20.45,20.45,0,0,1-.8,3.06,33.15,33.15,0,0,1,3.62,3.67Zm12.25.61a44,44,0,0,0-4.2-4,10.26,10.26,0,0,1-3.17,3.8,7.22,7.22,0,0,0-1.24-1c2.29-1.54,3.72-4.41,4.33-7.91l2.12.36c0,.19-.22.3-.52.33a16.93,16.93,0,0,1-.83,2.95,46.17,46.17,0,0,1,4.69,4.33Z"/><path class="cls-3" d="M752.62,34.18a32.07,32.07,0,0,1-2.9,4.41,14.34,14.34,0,0,0-.91-1.79c2.37-2.87,4.66-7.67,6.07-12.44l2.18.69c-.08.19-.28.3-.63.3a54.63,54.63,0,0,1-2.13,5.46l.64.2c-.06.19-.2.3-.53.35V49.85h-1.79Zm4.27-6.73,2.18.13c0,.17-.16.31-.52.36V45.13h-1.66Zm17.83,1.4h-2.29a14.49,14.49,0,0,1-3.87,5,21.51,21.51,0,0,0,7.26,2.73,6.52,6.52,0,0,0-1.05,1.49,22.27,22.27,0,0,1-7.5-3.17,24.87,24.87,0,0,1-7.2,3.37A8.54,8.54,0,0,0,759,36.88a22.77,22.77,0,0,0,6.87-3,14.81,14.81,0,0,1-3.23-3.59,19.46,19.46,0,0,1-2.51,2.87,9.15,9.15,0,0,0-1.3-1.07,21.07,21.07,0,0,0,5.24-8l2.13.64a.58.58,0,0,1-.61.25c-.3.74-.66,1.51-1.05,2.26h10.16Zm.47,14.54a.57.57,0,0,1-.56.2c-2.64,3-7.91,5.07-13.87,6.12a6.73,6.73,0,0,0-1-1.52c5.71-.85,10.87-2.7,13.41-5.57Zm-5.63-5.85a.49.49,0,0,1-.47.22,21,21,0,0,1-7.15,3.87,6.69,6.69,0,0,0-1.07-1.13,18.38,18.38,0,0,0,6.89-3.62Zm2.67,2.68a.52.52,0,0,1-.49.22c-2,2-5.71,3.81-9.44,4.83a6.93,6.93,0,0,0-1-1.27c3.59-.83,7.26-2.46,9.19-4.44Zm-8.58-11.37-.11.17A14.08,14.08,0,0,0,767.16,33a13.21,13.21,0,0,0,3.36-4.11Z"/><path class="cls-3" d="M799.19,26.29l1.71,1.05a.77.77,0,0,1-.47.27,40.4,40.4,0,0,1-9.63,7.75v12c0,1.32-.35,1.87-1.4,2.18a26.14,26.14,0,0,1-5.74.3,8.58,8.58,0,0,0-.77-1.88c1.51.06,3,.09,3.94.09,1.79,0,2,0,2-.72V33.71l1.19,0a33.62,33.62,0,0,0,7-5.51H778.56V26.43h20.27Z"/><path class="cls-3" d="M812.71,35v4.22H819V41h-6.27v8.83h-1.79V41h-6.34V39.23h6.34V35h-5.54V33.27h5.54V24.22l2.35.14c0,.19-.2.33-.56.38v8.53h5.55V35ZM807,25.79a27.69,27.69,0,0,1,2.2,5.63l-1.63.55a30.62,30.62,0,0,0-2.09-5.71Zm11.89.5c-.06.16-.28.25-.58.27a45.91,45.91,0,0,1-2.6,5.55s-1.43-.55-1.46-.55a37.63,37.63,0,0,0,2.51-6Zm1.24,1.27,2.34.14c0,.19-.16.33-.52.38V43h-1.82ZM827,24.72l2.37.13c0,.22-.16.33-.52.39v22c0,1.33-.39,1.91-1.21,2.21a17.33,17.33,0,0,1-5,.36A7.7,7.7,0,0,0,822,48c1,0,2,0,2.73,0,2.21,0,2.32,0,2.32-.72Z"/><path class="cls-3" d="M845.91,41.19v6a25.75,25.75,0,0,0,4.8.36c1,0,5.82,0,7.09,0a5.52,5.52,0,0,0-.72,1.88h-6.46c-5.93,0-10.23-1-12.8-6a14.33,14.33,0,0,1-4.33,6.48,8.05,8.05,0,0,0-1.41-1.21c3-2.24,4.64-6.46,5.27-11.62l2.38.39c-.06.19-.22.33-.56.33-.16,1.1-.38,2.18-.63,3.23A8.82,8.82,0,0,0,844,46.68V34.54h-7V32.77h16.22v1.77h-7.28v4.88h8.47v1.77Zm-10.65-11.9v4.17h-1.82V27.53H844V24.14l2.52.16c0,.19-.2.33-.58.39v2.84h10.65v5.93h-1.91V29.29Z"/><path class="cls-3" d="M883.71,35.81h-9.33l.47.13a.57.57,0,0,1-.55.33c-.75,5.14-2.62,9.72-8.53,12.61a14.45,14.45,0,0,0-1.49-1.38c5.74-2.76,7.34-6.62,8-11.69H861.53V34h22.18ZM881,28H864V26.18H881Z"/><path class="cls-3" d="M907.63,27.81a.61.61,0,0,1-.36.3,42.43,42.43,0,0,1-5.52,9.49A101.67,101.67,0,0,1,911.85,47l-1.68,1.46a91,91,0,0,0-9.69-9.27,43.13,43.13,0,0,1-10.62,9.27,10.43,10.43,0,0,0-1.43-1.49,39.49,39.49,0,0,0,16.16-18H891.05V27h14.62l.36-.13Z"/><path class="cls-3" d="M935.55,39.64a99.1,99.1,0,0,0-9.68-4.5v13.8H923.8V25l2.79.17c0,.3-.25.5-.72.58v8l.41-.58a96.11,96.11,0,0,1,10.38,4.61Z"/><path class="cls-4" d="M745.29,97.49v3.88c0,.36,0,.77,0,1.15h4.15V104h-4.26c-.07.68-.21,1.38-.36,2.11,1.08,1.06,3.69,3.92,4.35,4.65l-1,1.25c-.73-1-2.54-3.14-3.74-4.47a12.34,12.34,0,0,1-4.63,6.21,5.71,5.71,0,0,0-1-1.11,11.62,11.62,0,0,0,4.94-8.64h-4.85v-1.46h5c0-.4,0-.79,0-1.18V97.49h-2a16.32,16.32,0,0,1-1.88,4,8.59,8.59,0,0,0-1.14-.8,21.32,21.32,0,0,0,2.73-7.71l1.81.45c-.05.16-.2.23-.48.23-.16.81-.36,1.63-.59,2.45h6.61v1.43ZM750.44,95h8.4v18.17H757.3v-1.61h-5.36v1.86h-1.5Zm1.5,15.11h5.36V96.4h-5.36Z"/><path class="cls-4" d="M768.49,96.78v1.27h-7.06V96.78ZM768,106v6.65h-4.38v1.09h-1.25V106Zm-.05-6.17v1.25h-5.54V99.87Zm-5.54,4.33V103h5.54v1.24Zm5.5-10.43V95h-5.38V93.77Zm-1.21,13.54h-3.08v4.09h3.08Zm11.82-5.17c.07,1.86.19,3.56.34,5a17.8,17.8,0,0,0,1.64-4l1.47.73c0,.14-.18.18-.38.18a18.79,18.79,0,0,1-2.43,5.08c.41,2.07,1.11,3.54,1.93,3.54.38,0,.68-1.47.88-3.33a3.6,3.6,0,0,0,1,.77c-.3,2.68-.84,4-1.89,4-1.4,0-2.36-1.36-2.92-3.59a16.3,16.3,0,0,1-3.91,3.4,5.63,5.63,0,0,0-.88-.88,14.74,14.74,0,0,0,4.45-4.13,57.48,57.48,0,0,1-.62-6.76h-9v-1.27h8.92c-.07-2.43-.12-5.11-.14-7.9l1.88.07c0,.18-.13.32-.45.36,0,2.66,0,5.18.07,7.47h3.9v1.27Zm-2.13-6.63v1.23h-7.55V95.51h3.13V93l1.83.11c0,.16-.13.27-.43.32v2.13Zm-.61,15.59h-5.06v1.29h-1.25v-8.91h6.31ZM770.9,97a12.68,12.68,0,0,1,.74,3.38l-1.2.25a12.2,12.2,0,0,0-.68-3.38Zm3.51,7.63h-3.74v2h3.74Zm-3.74,5.26h3.74v-2.11h-3.74Zm5.08-12.64c0,.14-.2.23-.45.23a30.63,30.63,0,0,1-1,3.31l-1-.32a29.06,29.06,0,0,0,.86-3.63ZM780.06,94a14.19,14.19,0,0,1,2.45,4l-1.27.57a13.94,13.94,0,0,0-2.36-4.13Z"/><path class="cls-4" d="M797,103.48a2.34,2.34,0,1,1-2.34-2.34A2.33,2.33,0,0,1,797,103.48Z"/><path class="cls-4" d="M827.7,101.23h-8.64a43.12,43.12,0,0,1-4.7,2.93l0,.13a64.23,64.23,0,0,0,9.35-1.49l1.09,1.13a.33.33,0,0,1-.23.07.62.62,0,0,1-.18,0,69.21,69.21,0,0,1-10.3,1.47c-.14.59-.3,1.18-.43,1.75h9.62l.34-.07.95.32a1.51,1.51,0,0,1-.16.41c-.52,3.47-1,5-1.77,5.62a3.17,3.17,0,0,1-2.31.55c-.73,0-1.8,0-2.91-.09a2.92,2.92,0,0,0-.47-1.43c1.47.13,3,.18,3.51.18a1.49,1.49,0,0,0,1-.23c.5-.41.93-1.52,1.32-4H813.3c-.12.43-.23.82-.35,1.16l-1.52-.23c.37-1.13.8-2.77,1.16-4.33-1.59.79-3.24,1.52-4.9,2.15a7.94,7.94,0,0,0-.91-1.11,52.55,52.55,0,0,0,6.22-2.77l.11-.59.8.09c.93-.52,1.84-1.06,2.74-1.63h-9.53V99.87h8V97.1h-6V95.79h6V92.93l2,.13c0,.16-.13.27-.45.32v2.41h6v.77a29.54,29.54,0,0,0,2.54-2.75l1.54,1a.55.55,0,0,1-.38.12,1,1,0,0,1-.23,0,36.3,36.3,0,0,1-5.19,5h6.8Zm-11.07-1.36h2a35.36,35.36,0,0,0,3.4-2.77h-5.42Z"/><path class="cls-4" d="M839.06,105.7a5,5,0,0,1,2.24-.52,2,2,0,0,1,2,2.31c0,.59-.07,1.3-.07,1.84,0,2.32,1.36,2.32,3.31,2.32a19,19,0,0,0,3-.21,15.16,15.16,0,0,0,.07,1.61c-.88.09-1.95.14-2.95.14a16.77,16.77,0,0,1-2.36-.14,2.88,2.88,0,0,1-2.59-2.79c0-.52.05-1.54.05-2.22,0-1-.36-1.5-1.16-1.5a6.54,6.54,0,0,0-4.06,1.88c-1.31,1.3-3.79,3.79-4.56,4.7a12.42,12.42,0,0,0-1.22-1.2c2.15-2.2,9.28-9.12,11.59-11.37-1.66.16-6.81.45-9.39.59a.43.43,0,0,1-.37.25l-.13-1.82c3.17-.09,9.14-.38,11.43-.58l.34-.21,1.32,1.2a.88.88,0,0,1-.55.18c-1.42,1.34-4.22,3.91-5.89,5.52Zm5.69-9.08A50,50,0,0,0,835,95.1l.34-1.52a47.82,47.82,0,0,1,9.8,1.5Z"/><path class="cls-4" d="M873.08,98.44H861.39c-.09,1.27-.2,2.61-.39,4h8.1l.34,0,.91.16a2.4,2.4,0,0,1-.09.48c-.47,6.83-.93,9.37-1.84,10.28-.61.65-1.22.77-2.65.77-.82,0-1.95,0-3.09-.12a3.6,3.6,0,0,0-.54-1.49c1.68.16,3.31.16,3.88.16a1.51,1.51,0,0,0,1.09-.25c.7-.64,1.16-2.93,1.56-8.49h-7.92c-.77,4-2.56,8-7.32,10.26a4.67,4.67,0,0,0-1.09-1.23c6.42-2.9,7.12-9,7.39-14.43h-7.19V97h9.39V92.88l2,.14c0,.16-.15.27-.45.31V97h9.58Z"/><path class="cls-4" d="M895,102.66a.48.48,0,0,1-.14,0,.55.55,0,0,1-.34-.14c-1.73.57-4.24,1.5-6.13,2.31,0,.53.07,1.12.07,1.77s0,1.55-.07,2.43l-1.65.09c.06-.81.11-1.86.11-2.74,0-.34,0-.66,0-.91-2.57,1.25-4.65,2.77-4.65,4.13s1.56,1.95,4.69,1.95a51.18,51.18,0,0,0,5.7-.23l0,1.52c-1.34.14-3.38.18-5.72.18-4.35,0-6.28-1-6.28-3.35,0-2,2.63-3.93,6-5.63-.13-1.43-.77-2.13-1.68-2.13-1.65,0-3.38.93-5.42,3.2-.63.7-1.52,1.58-2.49,2.47l-1.12-1.11c2.27-2,4.41-3.91,5.72-8.37l-1.27,0h-3.79V96.69c1.39,0,3,0,3.93,0l1.54,0a29.74,29.74,0,0,0,.61-3.24l2.23.27c-.05.23-.23.36-.57.41-.16.91-.36,1.7-.57,2.52a31.5,31.5,0,0,0,7.81-1.32l.27,1.52a34.1,34.1,0,0,1-8.51,1.27,16.48,16.48,0,0,1-1.63,3.84h0a6,6,0,0,1,3.65-1.48c1.55,0,2.52,1.11,2.82,3,1.9-.86,4.31-1.79,6.12-2.49Z"/><path class="cls-4" d="M813.92,164.49H800.68c2.88,3.28,7.44,5.16,13.88,5.84a17.64,17.64,0,0,0-2.84,4.2c-7.6-1.2-12.44-4-15.6-9-2.4,3.6-6.92,6.76-15.23,9a19.6,19.6,0,0,0-3-3.88c7-1.6,11-3.76,13.11-6.2H778.61v-4.08H793.2a12,12,0,0,0,.32-2h-9.8v-3.88h9.88v-1.92H782.45v-2.76h-3.24v-8.68H793.6v-4.4l6,.32c0,.4-.32.64-1.08.76v3.32h14.68v8.68h-3v2.76H798.44v1.92h10.4v3.88H798.4a17.72,17.72,0,0,1-.24,2h15.76Zm-30-15.8h9.64v-2.84l5.92.32c0,.4-.36.68-1.08.76v1.76h9.8v-3.36H784Z"/><path class="cls-4" d="M831,166c1.48-.36,3-.68,4.48-1l.48,4c-5.12,1.4-10.47,2.8-14,3.68a1,1,0,0,1-.64.72l-1.76-4.88,1.8-.36v-13.6l4.71.28c0,.32-.28.56-.92.64v11.88l1.6-.36V151.57h-5.15V138.29h13.23v13.28H831v4.76h4.4v4.16H831Zm-5.36-23.64v5.2h5v-5.2Zm22.16,17.08c.24,1.24.52,2.44.8,3.52a19.81,19.81,0,0,0,3.2-3.44l4.8,2a1.12,1.12,0,0,1-1,.44,26.17,26.17,0,0,1-5.36,5.36c.84,1.64,1.8,2.56,2.8,2.56s1.44-1.2,1.64-4.76a10.36,10.36,0,0,0,3.4,2.76c-.8,5.28-2.08,6.68-5.16,6.68-1.36,0-4.08-.16-6.56-4.6a49.55,49.55,0,0,1-9.48,4.24,16.66,16.66,0,0,0-2.84-4,42.46,42.46,0,0,0,10.56-4.32,51.15,51.15,0,0,1-1.48-5.92l-6.68.68-.44-4.12,6.48-.64c-.12-.76-.2-1.52-.28-2.28l-4.72.48-.44-4,4.76-.48-.12-2.12-5.36.52-.44-4.12,5.6-.52q-.12-3.24-.12-6.48l6,.32c0,.4-.36.68-1.16.8,0,1.64,0,3.24,0,4.88l5.6-.52a41.66,41.66,0,0,0-4.44-2.8l2.64-2.84a32.55,32.55,0,0,1,5.52,3.36l-1.8,2.12,2-.2.4,4-9.72,1c0,.72.08,1.44.16,2.16l8.28-.84.44,3.92-8.36.88c.08.76.16,1.56.28,2.28l9.92-1,.48,4Z"/><path class="cls-4" d="M1232.79,65.74c2.07-.25,4.3-.55,6.48-.86l.11,2.79-6.59,1.19v4.63h-3.17V69.38l-.69.11a.67.67,0,0,1-.47.47l-1.13-3.56,2.29-.25V49.55l1.85.57A25.15,25.15,0,0,0,1237,47.5l2.93,2.46c-.14.14-.39.14-.72.14a36.3,36.3,0,0,1-6.43,2.45v1.93h5.55v3.09h-5.55v2.29h5.79v3.07h-5.79Zm17.41-6.1,2.09.77c0,.23-.19.31-.33.45a18.23,18.23,0,0,1-3.78,7.34,17.28,17.28,0,0,0,5.72,2.31,13.41,13.41,0,0,0-2.16,3,17.26,17.26,0,0,1-6.07-3,20.59,20.59,0,0,1-6,3.06,11.92,11.92,0,0,0-1.8-2.9,17.78,17.78,0,0,0,5.44-2.48,19,19,0,0,1-2.9-5l1.77-.47h-2.65v-3h.61a12.3,12.3,0,0,0-2-1.85c2.57-1.49,2.81-3.51,2.81-5.33v-4h9V55c0,.85,0,.93.36.93.61,0,.69,0,.8-.08s.28-.36.33-2.73a7.7,7.7,0,0,0,2.46,1.3c-.11,2.29-.22,4.16-2.9,4.16h-1.52c-2.62,0-2.62-2.09-2.62-3.56V51.39h-2.89v1.25c0,2.42-.5,5.24-3.07,7.09h8.67Zm-6.73,3.09a12.25,12.25,0,0,0,2.2,3.34,13.12,13.12,0,0,0,2.24-3.34Z"/><path class="cls-4" d="M1264.6,48.58l2.07,1.05a.67.67,0,0,1-.25.41c-.57,2.21-1.43,5.16-2.2,7.37a8.43,8.43,0,0,1,2.29,5.46c0,4.08-2.26,4.44-4.72,4.33a7.2,7.2,0,0,0-.66-2.73c.44,0,.88,0,1.18,0,.86,0,1.22-.42,1.22-1.93a7.67,7.67,0,0,0-2.13-4.8c.53-1.77,1.11-4.22,1.52-6.13h-2.1V73.55H1258V48.69h6.15Zm9,6.87.25,2.43c-2.46.71-5,1.4-6.65,1.85a.52.52,0,0,1-.39.46l-1.32-3.2c.55-.08,1.16-.19,1.82-.3V47.81L1271,48c0,.25-.22.38-.69.47v2.42h3.2v2.6h-3.2v2.59Zm-2.24,6.21a28.13,28.13,0,0,0,.75-2.93l3.92,1a.8.8,0,0,1-.75.33c-.22.5-.47,1-.74,1.63H1281V73.41h-3.2v-.8h-7v.91h-3.07V61.66Zm6.4,4.19V64.39h-7v1.46Zm-7,4h7V68.36h-7Zm6.37-14.1c0,.83.08.94.69.94h1.68c.55,0,.66-.33.75-2.4a7.92,7.92,0,0,0,2.62,1.16c-.31,3.09-1.08,3.94-3,3.94h-2.51c-2.59,0-3.17-.83-3.17-3.61v-8l3.67.22c0,.25-.22.41-.69.5v2.78a16.35,16.35,0,0,0,3.06-1.9l2.26,2.29a.86.86,0,0,1-.6.11,25.59,25.59,0,0,1-4.72,2.15Z"/><path class="cls-4" d="M1309.38,52.25l1.74.11c0,.25,0,.72,0,1-.33,12.69-.64,17.1-1.71,18.51-.89,1.24-1.85,1.6-4.56,1.6-.66,0-1.4,0-2.12,0a7.86,7.86,0,0,0-1-3.17c1.6.11,3.06.14,3.75.14a1.26,1.26,0,0,0,1.1-.5c.75-.85,1.11-4.83,1.36-14.62h-5.58a24.68,24.68,0,0,1-1.71,3.89l2.46-1a22.92,22.92,0,0,1,3.09,6.4l-3,1.33a23.45,23.45,0,0,0-2.73-6.27c-.33.55-.66,1-1,1.52a16.7,16.7,0,0,0-2-1.9v9.9h-7v2h-3v-19h2.84a37.64,37.64,0,0,0,1-4.66l4,.85c-.11.25-.33.36-.74.39-.31,1-.78,2.31-1.25,3.42h4.14v6.12c1.69-2.59,2.9-6.73,3.53-10.76l3.92.89a.66.66,0,0,1-.72.38c-.24,1.16-.52,2.35-.82,3.51h5.38Zm-15.11,6.84v-4h-3.92v4Zm-3.92,7.12h3.92V62h-3.92Z"/><path class="cls-4" d="M1323.07,49.68c0,.31-.3.5-.85.53a66.18,66.18,0,0,0-1.47,12.14,24.7,24.7,0,0,0,.2,3.89c.33-.8,1.4-3.15,1.76-4l1.63,2.54a49.42,49.42,0,0,0-2.29,4.77,4.67,4.67,0,0,0-.22,1.32,3.85,3.85,0,0,0,.14,1l-3.48.52a32.81,32.81,0,0,1-1.27-9.85,94.78,94.78,0,0,1,1.3-13.43Zm16.55,20.61c-1,.06-2.12.08-3.17.08a39.22,39.22,0,0,1-4.69-.24c-3.83-.53-5.38-2.57-5.38-4.91a8.6,8.6,0,0,1,2.38-5.49l3.31,1.13a5.57,5.57,0,0,0-2,3.86c0,2.07,2.49,2.29,5.77,2.29a38.31,38.31,0,0,0,4-.19ZM1327,52.44a95.23,95.23,0,0,0,11.67-1l.3,3.42a100,100,0,0,1-11.86.94Z"/><path class="cls-4" d="M1205,99.74a.8.8,0,0,1-.49.46,45,45,0,0,1-5.16,9.14,109.44,109.44,0,0,1,9.21,8.49l-3.06,2.71a86.42,86.42,0,0,0-8.42-8.47,45.34,45.34,0,0,1-9.76,8.44,17.32,17.32,0,0,0-2.57-2.65,35.69,35.69,0,0,0,15-16.11h-12.44V98.44h14.43l.58-.19Z"/><path class="cls-4" d="M1237.17,108.48l-8.66,0,.55.16a.65.65,0,0,1-.63.36c-.75,4.53-2.51,9-8.31,11.92a25.23,25.23,0,0,0-2.67-2.37c5.43-2.76,6.76-5.93,7.28-10.1h-9.85v-3.23h22.29Zm-2.81-7.64h-16.94V97.61h16.94Z"/><path class="cls-4" d="M1248.41,103.93a32.44,32.44,0,0,1,2,5.85l-2.68.74a31.54,31.54,0,0,0-1.88-5.85Zm16,.63a.63.63,0,0,1-.69.36c-2.26,8.14-6.53,12.94-12.83,15.48a11.87,11.87,0,0,0-1.87-2.18c5.9-2.21,10-6.59,11.89-14.79Zm-9.46-1.79a35.35,35.35,0,0,1,1.32,6.07l-2.81.58a36,36,0,0,0-1.35-6.1Z"/><path class="cls-4" d="M1274.07,99.82h17.24l.25-.14,3.06,2.18a1.7,1.7,0,0,1-.5.39c-2.45,10.31-7.14,15.31-15.58,18.62a17.91,17.91,0,0,0-2.21-2.9c7.48-2.79,12.14-7.59,13.57-14.79h-15.83Zm21.13-4.61a3,3,0,1,1,0,6,3,3,0,0,1,0-6Zm1.93,3a1.93,1.93,0,1,0-1.93,1.93A1.91,1.91,0,0,0,1297.13,98.19Z"/><path class="cls-4" d="M1325.66,99.32a.82.82,0,0,1-.55.42,29.23,29.23,0,0,1-5.82,8.91,20,20,0,0,0-3.09-1.88,15.66,15.66,0,0,0,4.08-5.43h-17.85V98.05h19.87l.38-.25Zm-10.54,5.35c0,.28-.3.5-.74.58-.69,6-3,12.28-8.53,15.62a26.15,26.15,0,0,0-3-2.21c5.24-2.81,7.39-8.28,7.78-14.46Z"/><path class="cls-4" d="M1336.15,103.93a32.44,32.44,0,0,1,2,5.85l-2.68.74a32.26,32.26,0,0,0-1.87-5.85Zm16.06.63a.64.64,0,0,1-.69.36c-2.27,8.14-6.54,12.94-12.83,15.48a12,12,0,0,0-1.88-2.18c5.91-2.21,10-6.59,11.89-14.79Zm-9.47-1.79a35.38,35.38,0,0,1,1.33,6.07l-2.82.58a36,36,0,0,0-1.35-6.1Z"/><path class="cls-4" d="M1361.81,99.82h17.24l.25-.14,3.06,2.18a1.65,1.65,0,0,1-.49.39c-2.46,10.31-7.15,15.31-15.59,18.62a17.91,17.91,0,0,0-2.21-2.9c7.48-2.79,12.14-7.59,13.58-14.79h-15.84Zm21.13-4.61a3,3,0,1,1,0,6,3,3,0,0,1,0-6Zm1.94,3a1.94,1.94,0,1,0-1.94,1.93A1.92,1.92,0,0,0,1384.88,98.19Z"/><path class="cls-4" d="M1214.36,147.44c.85,0,2.12,0,2.9-.08,3.17-.22,15.09-1,19.75-1.19l0,3.73a8.18,8.18,0,0,0-6,1.68c-3,2-6.79,5.82-6.79,9s2.79,5,8.83,5.6l-1.71,3.45c-7.84-.94-10.93-4.25-10.93-9,0-3.36,3.09-7.72,7.23-10.62-3.42.31-9.79.8-12.33,1.08-.06.22-.41.41-.66.47Zm18.43,6.57a18.26,18.26,0,0,1,3.36,3.72l-1.62,1.3a19.33,19.33,0,0,0-3.26-3.78Zm3.28-2.46a16,16,0,0,1,3.37,3.7l-1.6,1.27a19.54,19.54,0,0,0-3.29-3.75Z"/><path class="cls-4" d="M1266.28,155a38.43,38.43,0,0,1-7.64,1.49,9.68,9.68,0,0,0,4.06,3.42l-1.93,2.7a6.8,6.8,0,0,0-4.28-1.18,9.72,9.72,0,0,0-1.52.11l-.82-2.54c.35,0,.8-.06,1.24-.06s.88,0,1.21.06a11.82,11.82,0,0,1-1.49-2.15c-2,.14-4.19.19-5.93.19-1.35,0-3.34,0-5,0l-.05-2.9c1.1,0,2.42,0,3.67,0,2.12,0,4.24,0,6.37-.13-.2-.67-.55-1.77-.77-2.68-.91.08-2.13.11-3.18.11-1.51,0-3,0-4.36-.05l0-2.93c1.46.08,2.93.08,4.19.08.83,0,1.94,0,2.76-.08-.22-1.13-.41-2.62-.58-3.92l4.39.09c0,.33-.28.58-.74.66.08.88.19,2,.35,2.92a30.77,30.77,0,0,0,7-1.38l.66,3a35.81,35.81,0,0,1-7,1.29c.25.94.5,2,.72,2.68a37.16,37.16,0,0,0,8.19-1.77Zm-4.88,14a42.42,42.42,0,0,1-4.39.19l-2.09,0c-4.77-.06-8.09-1.69-8.09-4.86,0-1.74,1.41-3.42,3-4.41l2.29,2.12a2.84,2.84,0,0,0-1.76,2.12c0,1.91,3.17,2,5.13,2a60.14,60.14,0,0,0,6.07-.3Z"/><path class="cls-4" d="M1283,155.61a14.61,14.61,0,0,1,5.27-1c4.19,0,7.09,2.56,7.09,6.9,0,4.93-4.3,7.8-10.32,7.8-3.56,0-6.07-1.63-6.07-4.41,0-2.24,2.27-4.06,4.86-4.06a5.57,5.57,0,0,1,5.6,4.36,4,4,0,0,0,2.29-3.67c0-2.37-2-3.89-4.75-3.89a14,14,0,0,0-9.18,3.42c-.66.61-1.77,1.71-2.49,2.51l-2.45-2.45c2-2,8.91-8.55,12.61-12-1.35.19-6.13.44-8.33.57a1.06,1.06,0,0,1-.67.42l-.3-3.89c3.53,0,11.31-.3,13.13-.61l.42-.19,2.23,2.81a1.41,1.41,0,0,1-.8.31c-1.43,1-5.88,5-8.14,7Zm1.46,10.68a10.61,10.61,0,0,0,1.69-.17,2.78,2.78,0,0,0-2.6-2.51c-.91,0-1.73.47-1.73,1.27C1281.77,166.18,1283.5,166.29,1284.41,166.29Z"/><path class="cls-4" d="M1300.67,151.39v-2.62h9.65v2.62Zm8.94,9.16V169h-5.08v1h-2.73v-9.52Zm-.11-7.78v2.48h-7.62v-2.48Zm-7.62,6.37v-2.51h7.62v2.51Zm7.51-14.21v2.51h-7.34v-2.51Zm-2.54,18.24h-2.32v3.2h2.32Zm20,.25V166h-1.74v1.16c0,2.59-1.13,2.92-5.38,2.92a9,9,0,0,0-.75-2.56c1,.05,2.32.05,2.65.05s.47-.11.47-.44V166h-7.23v4.08h-2.78V166h-1.77v-2.59h1.77v-7h5v-1h-6.73V153H1314v-1.21h-2.4v-2.29h2.4v-1.08h-2.9V146h2.9v-2l3.64.22c0,.25-.22.39-.69.47V146h3.23v-2l3.66.22c0,.25-.22.39-.69.5V146h3.12v2.37h-3.12v1.08h2.54v2.29h-2.54V153h3.65v2.51h-7v1h5.33v7Zm-9.8-4.67h-2.18v1.3h2.18Zm-2.18,3.34v1.33h2.18v-1.33Zm2-13.71v1.08h3.23v-1.08Zm0,3.37V153h3.23v-1.21Zm5.21,7h-2.32v1.3h2.32Zm-2.32,4.67h2.32v-1.33h-2.32Z"/><path class="cls-4" d="M1335.21,150v4.53c0,4.46-.38,11.33-2.76,15.69a13.09,13.09,0,0,0-2.84-1.85c2.18-4,2.38-9.79,2.38-13.87v-7.56h10.09v-2.84l4.2.22c0,.27-.23.44-.75.55v2.07h10.12V150Zm11.67,14v2.65h8.89v2.84h-20.86v-2.84h8.77v-2.65h-6.87v-2.87h6.87V158l-1.54,1.85a20.54,20.54,0,0,0-2.18-2.43,8.65,8.65,0,0,1-2.6,3,12.14,12.14,0,0,0-2.26-1.85c2.26-1.41,3.31-4.08,3.67-7.34l3.51.44a.59.59,0,0,1-.61.41,20.61,20.61,0,0,1-.58,2.71,31.51,31.51,0,0,1,2.59,2.54v-6.46l3.92.22c0,.25-.22.44-.72.5v6.23c1.71-1.49,2.65-3.83,3-6.59l3.45.55c-.06.22-.28.36-.64.39a19.2,19.2,0,0,1-.66,2.56A51.46,51.46,0,0,1,1356,158l-2,2.29c-.72-.8-2-1.93-3.17-3a9.43,9.43,0,0,1-2.57,2.82,12.55,12.55,0,0,0-1.41-1.3v2.26h7.34v2.87Z"/><polygon class="cls-4" points="368.92 116.92 350.76 102.72 350.76 110.06 260.88 110.06 260.88 123.79 350.76 123.79 350.76 131.13 368.92 116.92"/><polygon class="cls-4" points="703.31 137.55 685.15 123.35 685.15 130.68 595.27 130.68 595.27 144.42 685.15 144.42 685.15 151.75 703.31 137.55"/><polygon class="cls-4" points="260.88 158.18 277.44 172.38 277.44 165.05 368.92 165.05 368.92 151.31 277.44 151.31 277.44 143.97 260.88 158.18"/><path class="cls-5" d="M64.36,245.21H61.85c-.09,1.24-.19,2.25-.31,3h2.37v1H61.39c-.46,2.26-1.17,2.38-2.58,2.38-.51,0-1.14,0-1.77-.07a2.32,2.32,0,0,0-.29-.94,21.36,21.36,0,0,0,2.26.12c.61,0,.92-.24,1.21-1.49H51.7c-.08.39-.15.76-.22,1.08l-1.14-.06c.29-1.33.63-3.18.94-5.09H48.62v-1.05h2.83c.2-1.36.4-2.7.54-3.88h9.28l.27,0,.63.09c0,.1,0,.23-.05.35-.07,1.31-.14,2.47-.2,3.47h2.44Zm-.86-6.57H52.57a15.75,15.75,0,0,1-2.6,3A3.66,3.66,0,0,0,49,241a13.52,13.52,0,0,0,3.74-5.15c1.14.15,1.31.19,1.46.2,0,.14-.13.21-.34.23a13.91,13.91,0,0,1-.68,1.32H63.5Zm-8,9.62c.13-.89.29-1.94.41-3H52.4c-.17,1.06-.34,2.11-.51,3Zm.54-4.1c.1-1,.21-2,.27-2.86H53c-.13.91-.29,1.89-.42,2.86Zm.92,1.05c-.14,1.11-.27,2.18-.39,3H60.4c.12-.79.24-1.77.33-3Zm.44-3.91c-.08.91-.2,1.87-.3,2.86h3.7c0-.85.12-1.8.17-2.86Z"/><path class="cls-5" d="M66.41,239.71v-1h5.72v1Zm5.35,6.1v5H68.11v.8h-1v-5.8Zm-.07-4.69v.93H67.14v-.93Zm-4.55,3.28v-.94h4.55v.94Zm4.5-8v.94h-4.4v-.94Zm-.88,10.34H68.11v3.06h2.65ZM82.3,247.9v1h-1v1.55c0,1.13-.5,1.2-2.93,1.2a3.28,3.28,0,0,0-.3-1l1.32,0c.75,0,.83,0,.83-.3v-1.53H74.46v2.75h-1v-2.75H72.29v-1h1.17v-4.39h3.3v-1H72.29v-.93h2.56v-1.25H73.1v-.88h1.75v-1.16H72.76v-.9h2.09v-1.51l1.38.1c0,.1-.1.19-.32.22v1.19H78.8v-1.51l1.37.1c0,.1-.1.19-.32.22v1.19H82v.9H79.85v1.16h1.84v.88H79.85v1.25h2.42v.93H77.74v1h3.51v4.39Zm-5.54-3.52h-2.3v1.38h2.3Zm-2.3,2.21v1.31h2.3v-1.31Zm1.45-8.35v1.16H78.8v-1.16Zm0,2v1.25H78.8v-1.25Zm4.26,4.1H77.74v1.38h2.43Zm-2.43,3.52h2.43v-1.31H77.74Z"/><path class="cls-5" d="M99.89,238.86H86.67v3.72c0,2.63-.22,6.48-1.62,9.09a4.72,4.72,0,0,0-1-.64c1.34-2.48,1.46-5.95,1.46-8.45v-4.79h6.52v-2l1.52.1c0,.12-.1.21-.34.24v1.62h6.64Zm-6,8.58v2.7h6v1H86.77v-1h6v-2.7H88v-1h4.81v-6.87l1.45.09c0,.12-.1.2-.33.24v6.54h5v1Zm-2.19-2.26a18.25,18.25,0,0,0-1.89-2.07,6.73,6.73,0,0,1-2,2.56,4.69,4.69,0,0,0-.8-.66,7.6,7.6,0,0,0,2.65-5.13l1.32.2c0,.12-.11.19-.32.2a13,13,0,0,1-.49,1.89,20.24,20.24,0,0,1,2.23,2.26Zm7.55.37a27.46,27.46,0,0,0-2.58-2.49,6.47,6.47,0,0,1-2,2.34,4.47,4.47,0,0,0-.76-.65,7.14,7.14,0,0,0,2.66-4.87l1.31.22c0,.12-.13.18-.32.2a10.87,10.87,0,0,1-.51,1.82,28.12,28.12,0,0,1,2.89,2.67Z"/><path class="cls-5" d="M104.49,243.82a24.17,24.17,0,0,1-2,2c-.14-.22-.44-.71-.63-1a20.75,20.75,0,0,0,4.27-5.29l1.26.53c-.05.1-.19.15-.38.13-.42.7-.92,1.43-1.44,2.13l.3.1a.39.39,0,0,1-.34.22v8.89h-1.08Zm2.43-7.48a.36.36,0,0,1-.36.14,23.46,23.46,0,0,1-3.84,4.06,6.11,6.11,0,0,0-.67-.85,16.21,16.21,0,0,0,3.57-3.86Zm8.56,8.58.79.38a.55.55,0,0,1-.17.15,9.73,9.73,0,0,1-2.91,3.49,15.6,15.6,0,0,0,4.89,1.73,4,4,0,0,0-.69,1,15.93,15.93,0,0,1-5.14-2.09,16.85,16.85,0,0,1-5.2,2.09,5.82,5.82,0,0,0-.58-1,15.51,15.51,0,0,0,4.85-1.77,11,11,0,0,1-2.18-2.24,15.37,15.37,0,0,1-2.07,1.58,5.29,5.29,0,0,0-.71-.8,14.84,14.84,0,0,0,4.28-4l-3.52.12a.31.31,0,0,1-.25.24l-.38-1.29,2.65-.06c.39-.3.78-.63,1.19-1A22.78,22.78,0,0,0,107,238.6l.71-.73c.33.22.67.48,1,.75a19.61,19.61,0,0,0,2.23-2.81l1.22.65a.42.42,0,0,1-.37.14,27.67,27.67,0,0,1-2.35,2.61,18.64,18.64,0,0,1,1.67,1.55,41.57,41.57,0,0,0,3.38-3.57l1.24.66a.4.4,0,0,1-.39.12,49.89,49.89,0,0,1-4.71,4.49l5-.12c-.44-.56-.91-1.1-1.37-1.58l.88-.51a19.66,19.66,0,0,1,2.94,3.67l-1,.58a10,10,0,0,0-.8-1.24l-4.35.17.17.07a.35.35,0,0,1-.37.13,13.94,13.94,0,0,1-1,1.35h4.47Zm-5.52,1-.1.11a9.24,9.24,0,0,0,2.38,2.32,8.26,8.26,0,0,0,2.36-2.43Z"/><path class="cls-5" d="M123.85,237.09c0,.19-.22.29-.56.27a40.3,40.3,0,0,0-.9,7.65,18.83,18.83,0,0,0,.22,3.37c.32-.84,1-2.62,1.29-3.22l.71.75c-.69,1.72-1.2,2.69-1.44,3.45a2.75,2.75,0,0,0-.14.8,1.84,1.84,0,0,0,.09.53l-1.21.22a18.81,18.81,0,0,1-.75-5.85,50.1,50.1,0,0,1,.9-8.28Zm10.83,12.42c-.62,0-1.24.06-1.87.06a23.32,23.32,0,0,1-3.17-.19c-2.09-.31-3.06-1.46-3.06-2.82a5.18,5.18,0,0,1,1.6-3.28l1.11.47a4,4,0,0,0-1.45,2.67c0,2,2.89,2,4.66,2,.71,0,1.48,0,2.19-.08Zm-7.87-10.38a55.51,55.51,0,0,0,7.41-.65l.1,1.19a63.6,63.6,0,0,1-7.48.63Z"/><path class="cls-5" d="M144.18,238h-3a35.17,35.17,0,0,1-.9,4.11h3.34v7.39h-3.35v1.4h-1v-6a11.89,11.89,0,0,1-1.07,1.87,8.78,8.78,0,0,0-.6-1c1.21-1.72,2-4.66,2.45-7.75H138V236.9h6.22Zm-1.6,10.48v-5.35h-2.34v5.35Zm11.07,1.47v1h-7v.83h-1.07v-7.58a9.52,9.52,0,0,1-1.28,1.26,6.52,6.52,0,0,0-.63-1,13.34,13.34,0,0,0,3.69-5.58h-2.07V241h-1v-3.11h3.43c.22-.66.41-1.36.58-2.07l1.41.32c0,.14-.17.2-.39.2-.14.53-.29,1-.45,1.55h4.54V241h-1v-2.11h-3.83a20.7,20.7,0,0,1-1.37,3h2a17.69,17.69,0,0,0,.87-2.29l1.31.41c0,.1-.15.15-.34.15-.19.49-.48,1.15-.77,1.73h3v1h-3.15v1.71h2.74v.92h-2.74v1.73h2.74v.92h-2.74v1.74ZM149,244.6v-1.71h-2.36v1.71Zm0,2.65v-1.73h-2.36v1.73Zm-2.36.92v1.74H149v-1.74Z"/><path class="cls-5" d="M161.78,238.7v1h-6.12v-1Zm-.48,6.94v5h-3.91v.8h-1v-5.8Zm0-4.62V242h-4.86V241Zm-4.86,3.24v-.93h4.86v.93Zm4.79-7.82v.94h-4.7v-.94Zm-.91,10.17h-2.91v3.06h2.91Zm3.53-.05a7.42,7.42,0,0,1-1.49,4l-.87-.58a6.57,6.57,0,0,0,1.41-3.72Zm3-9.08a18.9,18.9,0,0,1-.56,2.28,18.38,18.38,0,0,1,2.09,1.2l-.58.9a18.48,18.48,0,0,0-1.91-1.17,6.73,6.73,0,0,1-3.16,3.27,3.4,3.4,0,0,0-.71-.82,6.16,6.16,0,0,0,2.94-2.92,19.81,19.81,0,0,0-2.29-1l.56-.82c.68.24,1.39.53,2.1.85a11.85,11.85,0,0,0,.45-1.8h-3v-1h7.65l.61.06c-.1.67-.1,5.73-.8,6.52-.4.49-.83.49-1.63.49-.42,0-1,0-1.48-.05a2.19,2.19,0,0,0-.3-1c.9.07,1.27.07,2,.07a.49.49,0,0,0,.44-.17c.29-.34.46-1.58.59-4.91Zm-1.16,12.39c0,.39.07.46.56.46h1.67c.44,0,.52-.22.56-1.92a3.65,3.65,0,0,0,1,.42c-.1,2-.41,2.52-1.43,2.52h-1.9c-1.21,0-1.5-.32-1.5-1.48v-4.08l1.39.1c0,.11-.12.19-.32.22Zm2.14-3.45a13.35,13.35,0,0,0-3-2.41l.73-.67a14.2,14.2,0,0,1,3.06,2.35Zm2.91,4.15a12,12,0,0,0-1.89-4.13l.94-.38a12.67,12.67,0,0,1,2,4.08Z"/><path class="cls-5" d="M188.28,243h-5.75l.29.08a.37.37,0,0,1-.34.21c-.46,3.16-1.61,6-5.25,7.76a11.13,11.13,0,0,0-.92-.85c3.54-1.7,4.52-4.08,4.91-7.2h-6.61v-1.14h13.67Zm-1.69-4.8H176.16v-1.14h10.43Z"/><path class="cls-5" d="M203.87,238.06a.37.37,0,0,1-.22.18,26.55,26.55,0,0,1-3.4,5.85,62.85,62.85,0,0,1,6.22,5.76l-1,.91a55.44,55.44,0,0,0-6-5.72,26.91,26.91,0,0,1-6.54,5.72,6.31,6.31,0,0,0-.88-.92,24.44,24.44,0,0,0,10-11.1h-8.35v-1.16h9l.22-.08Z"/><path class="cls-5" d="M221.92,245.35a58.93,58.93,0,0,0-6-2.77v8.5h-1.27V236.31l1.72.1c0,.19-.16.3-.45.36v5l.26-.36a59.94,59.94,0,0,1,6.39,2.84Z"/><path class="cls-5" d="M242.07,243.11a.45.45,0,0,1-.11,0,.43.43,0,0,1-.25-.1c-1.29.42-3.18,1.12-4.59,1.73,0,.39,0,.84,0,1.33s0,1.15,0,1.82l-1.24.07c.05-.62.08-1.4.08-2.06,0-.26,0-.49,0-.68-1.92.93-3.49,2.07-3.49,3.09s1.17,1.46,3.52,1.46a37.21,37.21,0,0,0,4.27-.17v1.14c-1,.1-2.53.14-4.28.14-3.26,0-4.71-.78-4.71-2.52,0-1.49,2-2.94,4.52-4.21-.1-1.07-.58-1.6-1.26-1.6-1.24,0-2.53.7-4.06,2.4-.47.52-1.14,1.19-1.87,1.85l-.83-.83a11.93,11.93,0,0,0,4.28-6.28l-1,0h-2.84v-1.1h4.1a22.12,22.12,0,0,0,.46-2.44l1.66.21q0,.26-.42.3c-.12.69-.27,1.28-.43,1.89a23.66,23.66,0,0,0,5.85-1l.21,1.13a25.41,25.41,0,0,1-6.38,1,12.63,12.63,0,0,1-1.22,2.87h0a4.55,4.55,0,0,1,2.74-1.11c1.16,0,1.89.84,2.11,2.21,1.43-.64,3.23-1.34,4.59-1.87Z"/><path class="cls-5" d="M117.64,274.3H111.3c1.23,1.94,3.5,3.11,6.55,3.56a4.74,4.74,0,0,0-.7,1c-3.37-.63-5.76-2.08-7.06-4.58h-.25c-.87,1.74-2.77,3.35-6.82,4.58a4.92,4.92,0,0,0-.69-.94c3.55-1,5.32-2.28,6.2-3.64h-6.07v-1H109a6.37,6.37,0,0,0,.32-1.56h-4.81v-1h4.85v-1.46h-5.31v-1h5.31v-1.7l1.48.1c0,.12-.11.21-.33.24v1.36H116v-2.16H104v2.25h-1.12v-3.27h6.48v-2.09l1.51.1c0,.12-.12.21-.34.22v1.77h6.58v3.27h-1.09v.88h-5.51v1.46h5.12v1h-5.15a7.25,7.25,0,0,1-.29,1.56h7.41Z"/><path class="cls-5" d="M125.67,269.46l.58,0a2.82,2.82,0,0,1,0,.39c-.12,5.92-.22,7.84-.68,8.44s-.9.54-1.57.54c-.37,0-.81,0-1.27,0a2.45,2.45,0,0,0-.29-1c.77,0,1.46,0,1.77,0a.44.44,0,0,0,.42-.22c.31-.39.45-2.14.55-7.09h-2.25c-.18,3.25-.69,6.34-2.17,8.33a3.58,3.58,0,0,0-.85-.75c1.78-2.41,2-6.82,2.07-11.12H120v-1.08h3.09V263.1l1.45.09c0,.12-.12.2-.34.23v2.49h3.08V267H123c0,.82,0,1.65-.07,2.47Zm10.11-2.81h-6.87a11.57,11.57,0,0,1-1.73,2.93,6.42,6.42,0,0,0-.8-.75,14.38,14.38,0,0,0,2.55-5.78l1.38.36c0,.12-.16.17-.36.17a20,20,0,0,1-.61,2h6.44Zm-6.54,10.15c0,.65.15.78,1.12.78h3.5c.77,0,.9-.3,1-1.9a3.22,3.22,0,0,0,1,.41c-.14,2-.48,2.5-1.89,2.5h-3.61c-1.68,0-2.14-.36-2.14-1.79V273l-1.1.53-.43-.94,1.53-.73v-3.11l1.38.09c0,.11-.1.2-.32.22v2.31l1.83-.87v-3.13l1.35.09c0,.12-.11.2-.33.22V270l1.79-.85c.17-.16.18-.17.35-.31a7.17,7.17,0,0,1,.85.31.34.34,0,0,1-.15.17c0,2.38-.05,4.57-.12,5-.12.92-.76,1-2.05,1a3.8,3.8,0,0,0-.26-.9c.32,0,.8,0,.94,0s.34-.07.39-.34.08-1.84.08-3.84l-1.82.85v5h-1V271.6l-1.83.87Z"/><path class="cls-5" d="M143.4,263.8c0,.2-.19.32-.53.37-.13,2-.3,6.48-.3,9s1.25,3.76,3.39,3.76,4.19-1,6.12-3.23a6.76,6.76,0,0,0,.77,1,9.2,9.2,0,0,1-6.9,3.46c-3.1,0-4.68-1.79-4.68-5,0-2.14.16-7.41.28-9.5Z"/><path class="cls-5" d="M157.05,265.7c1,.07,2.46.07,3.62.07l2.35,0c0-.82,0-1.77,0-2.37l1.72.09c0,.2-.17.3-.46.36,0,.27,0,1.58,0,1.87a34.19,34.19,0,0,0,5.64-.67l.16,1.12a34.06,34.06,0,0,1-5.8.65c0,1,0,2.07.07,3.13a27.38,27.38,0,0,0,4.79-.67l.14,1.11a31.43,31.43,0,0,1-4.92.59l.14,2.84a19,19,0,0,1,5,2.66l-.75,1a16.77,16.77,0,0,0-4.22-2.5c0,.28,0,.58,0,.8,0,1.62-1,2.55-3,2.55s-3.74-.88-3.74-2.48,1.85-2.53,3.76-2.53a7.59,7.59,0,0,1,1.78.2c0-.73-.05-1.61-.07-2.53-.54,0-1.15,0-1.65,0-2.9,0-3.72-.46-3.72-1.44,0-.65.49-1.17,1.58-1.87l.82.53c-.77.42-1.17.79-1.17,1.13,0,.51.79.62,2.95.62.38,0,.77,0,1.14,0l-.1-3.15c-.73,0-1.58,0-2.35,0-1.08,0-2.63,0-3.65,0Zm6.29,8.86a7,7,0,0,0-1.9-.27c-1.3,0-2.61.52-2.61,1.54s1.19,1.5,2.67,1.5,1.86-.6,1.86-1.79Z"/><path class="cls-5" d="M181.94,265.87c0-.37-.07-2.22-.11-2.65l1.76.07c0,.13-.14.3-.45.36,0,.2,0,.4,0,2.19,2.09-.07,4.28-.12,5.56-.14v1.18c-1.45,0-3.51,0-5.53.06,0,1.33.07,2.55.12,3.49a5.78,5.78,0,0,1,.2,1.78,7.21,7.21,0,0,1-.17,1.65c-.44,2-1.9,3.74-4.89,4.93a9.9,9.9,0,0,0-.87-1c2.6-.93,4-2.34,4.42-4h0a2.12,2.12,0,0,1-1.75.9,2.9,2.9,0,0,1-2.85-3,3.13,3.13,0,0,1,3.06-3.18,2.5,2.5,0,0,1,1.58.53c0-.29,0-1.43-.07-2.16-1.77,0-7.14.22-7.84.25l0-1.12L178,266Zm.32,6c0-.66,0-2.21-1.73-2.21a2.06,2.06,0,0,0-2,2.16,1.9,1.9,0,0,0,1.89,2A1.83,1.83,0,0,0,182.26,271.84Z"/><path class="cls-5" d="M381.86,243.46h-8.43v8.16h-1.1v-2c-2,.31-4,.58-5.36.75a.26.26,0,0,1-.23.22l-.4-1.19,1.64-.17v-5.78h-1.57v-1h15.45Zm-2.22-6.9v4.83h-11v-4.83Zm-7.31,8.11v-1.21h-3.28v1.21Zm0,2.12v-1.24h-3.28v1.24Zm-3.28.89v1.44c1-.12,2.16-.23,3.28-.37v-1.07Zm9.45-9.13V237.4h-8.76v1.15Zm0,2v-1.19h-8.76v1.19Zm1.87,4,.73.29a1,1,0,0,1-.15.21,10.17,10.17,0,0,1-2.43,4,9.54,9.54,0,0,0,3.5,1.66,3.75,3.75,0,0,0-.7.91,10.24,10.24,0,0,1-3.59-1.87,11.66,11.66,0,0,1-3.33,1.9,4,4,0,0,0-.64-.9A9.88,9.88,0,0,0,377,249a9.64,9.64,0,0,1-2.07-3.22l.66-.21h-1.61v-.95h6.23Zm-4.52,1a7.81,7.81,0,0,0,1.87,2.77,8.71,8.71,0,0,0,1.88-2.77Z"/><path class="cls-5" d="M386.44,243.82a24.17,24.17,0,0,1-2,2,11.12,11.12,0,0,0-.63-1,20.54,20.54,0,0,0,4.27-5.29l1.26.53a.35.35,0,0,1-.37.13c-.43.7-.92,1.43-1.45,2.13l.31.1a.41.41,0,0,1-.34.22v8.89h-1.09Zm2.43-7.48a.36.36,0,0,1-.36.14,23.46,23.46,0,0,1-3.84,4.06,6,6,0,0,0-.66-.85,16.42,16.42,0,0,0,3.57-3.86Zm8.57,8.58.78.38a.46.46,0,0,1-.17.15,9.54,9.54,0,0,1-2.91,3.49,15.57,15.57,0,0,0,4.9,1.73,3.79,3.79,0,0,0-.7,1,15.79,15.79,0,0,1-5.13-2.09,17,17,0,0,1-5.2,2.09,6.57,6.57,0,0,0-.58-1,15.55,15.55,0,0,0,4.84-1.77,10.7,10.7,0,0,1-2.17-2.24,15.44,15.44,0,0,1-2.08,1.58,5.29,5.29,0,0,0-.71-.8,14.71,14.71,0,0,0,4.28-4l-3.52.12a.3.3,0,0,1-.25.24l-.38-1.29,2.66-.06c.39-.3.78-.63,1.19-1A22.88,22.88,0,0,0,389,238.6l.71-.73c.33.22.67.48,1,.75a19.61,19.61,0,0,0,2.23-2.81l1.23.65a.45.45,0,0,1-.38.14,27.51,27.51,0,0,1-2.34,2.61,19.88,19.88,0,0,1,1.66,1.55,41.57,41.57,0,0,0,3.38-3.57l1.25.66a.42.42,0,0,1-.4.12,51,51,0,0,1-4.7,4.49l5-.12c-.44-.56-.92-1.1-1.38-1.58l.88-.51a19.26,19.26,0,0,1,2.94,3.67l-1,.58a9,9,0,0,0-.8-1.24l-4.35.17.17.07c-.05.1-.18.15-.37.13a13.94,13.94,0,0,1-1,1.35h4.47Zm-5.53,1-.1.11a9.24,9.24,0,0,0,2.38,2.32,8.26,8.26,0,0,0,2.36-2.43Z"/><path class="cls-5" d="M410.82,238.92a.45.45,0,0,1-.43.28c-.61,5.28-2.38,9.89-5.2,9.89-1.43,0-2.72-1.43-2.72-4.11a7.46,7.46,0,0,1,7.65-7.5c4.91,0,7,3.11,7,6.43,0,4-2.35,6-6.46,7a7.87,7.87,0,0,0-.72-1c3.91-.75,5.92-2.65,5.92-5.86,0-2.81-1.8-5.36-5.78-5.36a4.06,4.06,0,0,0-.51,0Zm-1.64-.22a6.26,6.26,0,0,0-5.55,6.24c0,1.82.78,3,1.59,3C407.28,247.9,408.76,243.36,409.18,238.7Z"/><path class="cls-5" d="M419.76,239.71v-1h5.73v1Zm5.35,6.1v5h-3.65v.8h-1v-5.8Zm-.06-4.69v.93h-4.56v-.93Zm-4.56,3.28v-.94h4.56v.94Zm4.5-8v.94h-4.4v-.94Zm-.88,10.34h-2.65v3.06h2.65Zm11.54,1.12v1h-1v1.55c0,1.13-.49,1.2-2.93,1.2a3.28,3.28,0,0,0-.3-1l1.32,0c.75,0,.84,0,.84-.3v-1.53h-5.71v2.75h-1v-2.75h-1.17v-1h1.17v-4.39h3.3v-1h-4.47v-.93h2.57v-1.25h-1.75v-.88h1.75v-1.16h-2.09v-.9h2.09v-1.51l1.37.1c0,.1-.1.19-.32.22v1.19h2.89v-1.51l1.38.1c0,.1-.1.19-.33.22v1.19h2.16v.9H433.2v1.16H435v.88H433.2v1.25h2.42v.93H431.1v1h3.5v4.39Zm-5.54-3.52h-2.29v1.38h2.29Zm-2.29,2.21v1.31h2.29v-1.31Zm1.44-8.35v1.16h2.89v-1.16Zm0,2v1.25h2.89v-1.25Zm4.27,4.1H431.1v1.38h2.43Zm-2.43,3.52h2.43v-1.31H431.1Z"/><path class="cls-5" d="M453.25,238.86H440v3.72c0,2.63-.22,6.48-1.61,9.09a4.79,4.79,0,0,0-1-.64c1.34-2.48,1.46-5.95,1.46-8.45v-4.79h6.53v-2l1.51.1c0,.12-.1.21-.34.24v1.62h6.65Zm-5.95,8.58v2.7h6v1H440.12v-1h6.06v-2.7h-4.82v-1h4.82v-6.87l1.44.09c0,.12-.1.2-.32.24v6.54h5v1Zm-2.2-2.26a18.05,18.05,0,0,0-1.88-2.07,6.85,6.85,0,0,1-2,2.56,4.69,4.69,0,0,0-.8-.66,7.6,7.6,0,0,0,2.65-5.13l1.33.2c0,.12-.12.19-.33.2a10.89,10.89,0,0,1-.49,1.89,20.24,20.24,0,0,1,2.23,2.26Zm7.55.37a27.46,27.46,0,0,0-2.58-2.49,6.37,6.37,0,0,1-2,2.34,4.47,4.47,0,0,0-.76-.65,7.19,7.19,0,0,0,2.67-4.87l1.31.22c0,.12-.14.18-.33.2a10.87,10.87,0,0,1-.51,1.82,28.12,28.12,0,0,1,2.89,2.67Z"/><path class="cls-5" d="M456.27,238.13c1.28-.06,11.75-.8,14-.82l0,1.27h-.63a4.94,4.94,0,0,0-2.91.86c-2.55,1.53-5,4.27-5,6.46,0,2.38,1.66,3.79,5.88,4.34l-.56,1.19c-4.83-.7-6.63-2.5-6.63-5.53,0-2.39,2.36-5.3,5.47-7.25-1.87.13-6.88.51-9.08.71a.49.49,0,0,1-.37.27Zm11,3.34a12.79,12.79,0,0,1,2.31,2.35l-.64.53a11.72,11.72,0,0,0-2.25-2.37Zm1.84-1.49a11.1,11.1,0,0,1,2.31,2.34l-.65.51a11.93,11.93,0,0,0-2.24-2.34Z"/><path class="cls-5" d="M479.68,238h-3a39.79,39.79,0,0,1-.9,4.11h3.33v7.39h-3.35v1.4h-1v-6a11.89,11.89,0,0,1-1.07,1.87,8.69,8.69,0,0,0-.59-1c1.2-1.72,2-4.66,2.45-7.75h-2.08V236.9h6.22Zm-1.59,10.48v-5.35h-2.35v5.35Zm11.06,1.47v1h-7v.83h-1.07v-7.58a9.52,9.52,0,0,1-1.28,1.26,7.37,7.37,0,0,0-.62-1,13.42,13.42,0,0,0,3.68-5.58h-2.07V241h-1v-3.11h3.43c.22-.66.41-1.36.58-2.07l1.41.32c0,.14-.17.2-.39.2-.14.53-.29,1-.44,1.55h4.54V241h-1.06v-2.11H484a19.72,19.72,0,0,1-1.38,3h2a17.58,17.58,0,0,0,.86-2.29l1.31.41c0,.1-.15.15-.34.15a18.41,18.41,0,0,1-.76,1.73h3v1h-3.15v1.71h2.74v.92h-2.74v1.73h2.74v.92h-2.74v1.74Zm-4.66-5.31v-1.71h-2.36v1.71Zm0,2.65v-1.73h-2.36v1.73Zm-2.36.92v1.74h2.36v-1.74Z"/><path class="cls-5" d="M497.28,238.7v1h-6.12v-1Zm-.48,6.94v5h-3.91v.8h-1v-5.8Zm0-4.62V242h-4.86V241Zm-4.86,3.24v-.93h4.86v.93Zm4.8-7.82v.94H492v-.94Zm-.92,10.17h-2.91v3.06h2.91Zm3.53-.05a7.34,7.34,0,0,1-1.49,4L497,250a6.57,6.57,0,0,0,1.41-3.72Zm3-9.08a18.9,18.9,0,0,1-.56,2.28,18.38,18.38,0,0,1,2.09,1.2l-.58.9a17.21,17.21,0,0,0-1.9-1.17A6.77,6.77,0,0,1,498.2,244a3.69,3.69,0,0,0-.72-.82,6.16,6.16,0,0,0,2.94-2.92,19.1,19.1,0,0,0-2.29-1l.56-.82c.68.24,1.39.53,2.11.85a11.8,11.8,0,0,0,.44-1.8h-3v-1h7.65l.61.06c-.1.67-.1,5.73-.79,6.52-.41.49-.84.49-1.64.49-.42,0-.95,0-1.47-.05a2.2,2.2,0,0,0-.31-1c.9.07,1.27.07,2,.07a.49.49,0,0,0,.44-.17c.29-.34.46-1.58.6-4.91Zm-1.16,12.39c0,.39.07.46.56.46h1.67c.44,0,.53-.22.56-1.92a3.65,3.65,0,0,0,1,.42c-.1,2-.41,2.52-1.43,2.52h-1.9c-1.21,0-1.5-.32-1.5-1.48v-4.08l1.4.1c0,.11-.12.19-.33.22Zm2.15-3.45a13.66,13.66,0,0,0-3-2.41l.73-.67a14,14,0,0,1,3.06,2.35Zm2.9,4.15a12,12,0,0,0-1.88-4.13l.93-.38a12.46,12.46,0,0,1,2,4.08Z"/><path class="cls-5" d="M523.78,243H518l.29.08a.37.37,0,0,1-.34.21c-.46,3.16-1.61,6-5.25,7.76a9.72,9.72,0,0,0-.92-.85c3.54-1.7,4.52-4.08,4.92-7.2h-6.62v-1.14h13.67Zm-1.68-4.8H511.66v-1.14H522.1Z"/><path class="cls-5" d="M539.37,238.06a.34.34,0,0,1-.22.18,26.55,26.55,0,0,1-3.4,5.85,62.85,62.85,0,0,1,6.22,5.76l-1,.91a55.35,55.35,0,0,0-6-5.72,27,27,0,0,1-6.55,5.72,5.4,5.4,0,0,0-.88-.92,24.39,24.39,0,0,0,10-11.1h-8.35v-1.16h9l.22-.08Z"/><path class="cls-5" d="M557.42,245.35a59.79,59.79,0,0,0-6-2.77v8.5h-1.28V236.31l1.72.1c0,.19-.15.3-.44.36v5l.25-.36a59.06,59.06,0,0,1,6.39,2.84Z"/><path class="cls-5" d="M566.45,237.09c-.05.19-.22.29-.56.27A41.14,41.14,0,0,0,565,245a18.83,18.83,0,0,0,.22,3.37c.32-.84,1-2.62,1.29-3.22l.72.75c-.7,1.72-1.21,2.69-1.45,3.45a3.09,3.09,0,0,0-.13.8,1.84,1.84,0,0,0,.08.53l-1.21.22a18.83,18.83,0,0,1-.74-5.85,49,49,0,0,1,.9-8.28Zm10.83,12.42c-.61,0-1.24.06-1.87.06a23.06,23.06,0,0,1-3.16-.19c-2.09-.31-3.06-1.46-3.06-2.82a5.13,5.13,0,0,1,1.6-3.28l1.1.47a4,4,0,0,0-1.44,2.67c0,2,2.89,2,4.65,2,.72,0,1.48,0,2.2-.08Zm-7.87-10.38a55.51,55.51,0,0,0,7.41-.65l.1,1.19a63.42,63.42,0,0,1-7.48.63Z"/><path class="cls-5" d="M366.24,263.15c-.05.16-.17.22-.36.26a21.49,21.49,0,0,0,7.45,5.93,4.61,4.61,0,0,0-.75,1,23.73,23.73,0,0,1-7.41-6.09,21.92,21.92,0,0,1-7.24,6.22,6.36,6.36,0,0,0-.71-.9,19.81,19.81,0,0,0,7.34-6.51ZM360,278.88V272h10.47v6.89h-1.15v-.73h-8.19v.73Zm.87-10.17h8.7v1h-8.7Zm8.45,4.34h-8.19v4.06h8.19Z"/><path class="cls-5" d="M388.55,264.92a1.57,1.57,0,0,0,.51-.05l.74.37a.25.25,0,0,1-.17.16,12.84,12.84,0,0,1-2.78,4.5,11.9,11.9,0,0,0,4.35,2.47,5.28,5.28,0,0,0-.73,1c-.28-.1-.53-.2-.79-.32v5.8h-1.12v-.73h-5v.8h-1.07v-5.77c-.46.22-.92.43-1.39.6a4.14,4.14,0,0,0-.65-.94l.12,0a25.41,25.41,0,0,0-1.45-2.29v8.37H378v-8.46a19.59,19.59,0,0,1-2.41,5.2,6,6,0,0,0-.63-1,19.09,19.09,0,0,0,2.9-6.7h-2.5v-1.07H378v-3.74l1.43.1c0,.12-.1.19-.33.22v3.42h2.3v1.07h-2.3v1.22c.51.58,1.91,2.38,2.23,2.84-.31.41-.48.62-.58.74a14.3,14.3,0,0,0,4.58-2.76,13.54,13.54,0,0,1-1.94-2.72,12.31,12.31,0,0,1-1.82,2,7.23,7.23,0,0,0-.82-.73A13.29,13.29,0,0,0,384.4,263l1.34.45a.34.34,0,0,1-.37.15,12.56,12.56,0,0,1-.6,1.29Zm.18,7.63a13.07,13.07,0,0,1-2.65-1.9,14.65,14.65,0,0,1-2.58,1.9Zm-5.2,4.51h5v-3.5h-5Zm.68-11.12-.19.29a11.32,11.32,0,0,0,2.06,2.92,11.54,11.54,0,0,0,2.16-3.21Z"/><path class="cls-5" d="M398.58,263.8c0,.2-.19.32-.53.37-.14,2-.31,6.48-.31,9s1.26,3.76,3.4,3.76,4.18-1,6.12-3.23a6.14,6.14,0,0,0,.77,1,9.21,9.21,0,0,1-6.9,3.46c-3.1,0-4.68-1.79-4.68-5,0-2.14.15-7.41.27-9.5Z"/><path class="cls-5" d="M421.36,266.79a21.55,21.55,0,0,1-5.22,1A45.06,45.06,0,0,1,413,278.38l-1.23-.46a36,36,0,0,0,3.08-10.11c-.34,0-2.62,0-3.13,0l0-1.16c.28,0,.63,0,1,0,.16,0,1.86,0,2.3,0,.17-1.09.34-2.28.44-3.31l1.75.17c0,.18-.25.32-.49.34-.1.74-.27,1.66-.43,2.7a19.5,19.5,0,0,0,4.76-.95Zm4.52,11.32c-.51,0-1,0-1.57,0a16.8,16.8,0,0,1-4-.38,2.35,2.35,0,0,1-1.88-2.34,4.09,4.09,0,0,1,1.05-2.47l1,.44a3.15,3.15,0,0,0-.88,1.89c0,1.34,1.29,1.68,4.38,1.68.63,0,1.28,0,1.91-.07Zm-6.63-8.19a20.32,20.32,0,0,1,6.17-.87v1.16a19.34,19.34,0,0,0-5.88.76Z"/><path class="cls-5" d="M433.34,266.72a.48.48,0,0,1-.44.29,19.51,19.51,0,0,1-.7,5h0a11.49,11.49,0,0,1,6.25-2.09c2.62,0,4.25,1.34,4.22,3.72-.05,3.13-2.63,4.52-9.21,4.79a5.15,5.15,0,0,0-.43-1.12c5.93-.26,8.31-1.22,8.36-3.66,0-1.63-1.12-2.61-3.11-2.61-3.14,0-6,1.88-6.46,2.72l-1.15-.56c.34-.33.93-3.37,1-6.7Zm.29-3.3a27.7,27.7,0,0,1,6.6,1.5l-.43,1.17a27.68,27.68,0,0,0-6.53-1.54Z"/><path class="cls-5" d="M448.54,269.22a19.71,19.71,0,0,1-1.79,2.72,8.13,8.13,0,0,0-.56-1.1,23,23,0,0,0,3.74-7.67l1.35.42c-.06.12-.17.19-.4.19a33.49,33.49,0,0,1-1.3,3.37l.39.12c0,.12-.12.18-.33.22v11.39h-1.1Zm2.63-4.15,1.35.09c0,.1-.11.19-.33.22V276h-1Zm11,.87h-1.41a8.89,8.89,0,0,1-2.38,3.11,13.4,13.4,0,0,0,4.47,1.68,4.08,4.08,0,0,0-.64.92,13.7,13.7,0,0,1-4.62-1.95,15.24,15.24,0,0,1-4.44,2.07,5.4,5.4,0,0,0-.65-.88,14.23,14.23,0,0,0,4.24-1.82,9.18,9.18,0,0,1-2-2.21,13.08,13.08,0,0,1-1.55,1.77,6.6,6.6,0,0,0-.8-.67,13,13,0,0,0,3.23-4.91l1.31.39a.33.33,0,0,1-.37.15c-.19.46-.41.94-.65,1.4h6.25Zm.29,9c-.06.1-.18.13-.34.12-1.63,1.85-4.87,3.13-8.55,3.77a3.84,3.84,0,0,0-.59-.93c3.52-.53,6.7-1.67,8.26-3.44ZM459,271.29a.3.3,0,0,1-.29.14,12.92,12.92,0,0,1-4.41,2.38,4.33,4.33,0,0,0-.66-.7,11.12,11.12,0,0,0,4.25-2.22Zm1.64,1.65a.31.31,0,0,1-.3.14,14,14,0,0,1-5.81,3,5.52,5.52,0,0,0-.63-.78,12.3,12.3,0,0,0,5.66-2.73Zm-5.28-7-.07.1a8.53,8.53,0,0,0,2.23,2.43,8.17,8.17,0,0,0,2.07-2.53Z"/><path class="cls-5" d="M478.08,264.36l1.06.65a.5.5,0,0,1-.29.17,25.14,25.14,0,0,1-5.93,4.77v7.38c0,.82-.22,1.16-.87,1.34a15.7,15.7,0,0,1-3.54.19,4.64,4.64,0,0,0-.47-1.16c.93,0,1.82.05,2.43.05,1.1,0,1.26,0,1.26-.44v-8.38l.73,0a20.94,20.94,0,0,0,4.28-3.4H465.37v-1.13h12.49Z"/><path class="cls-5" d="M497,270.22h-5.74l.29.09a.36.36,0,0,1-.34.2c-.46,3.16-1.62,6-5.25,7.77a9.63,9.63,0,0,0-.92-.85c3.53-1.7,4.52-4.08,4.91-7.21h-6.61v-1.14H497Zm-1.68-4.79H484.89v-1.14h10.43Z"/><path class="cls-5" d="M512.59,265.29a.31.31,0,0,1-.22.19,25.78,25.78,0,0,1-3.4,5.85,61.76,61.76,0,0,1,6.22,5.76l-1,.9a55.34,55.34,0,0,0-6-5.71,26.67,26.67,0,0,1-6.54,5.71,6.93,6.93,0,0,0-.89-.92,24.34,24.34,0,0,0,10-11.1h-8.34v-1.15h9l.22-.09Z"/><path class="cls-5" d="M530.65,272.59a61,61,0,0,0-6-2.77v8.5h-1.27V263.54l1.71.11c0,.18-.15.3-.44.35v5l.26-.36a58,58,0,0,1,6.39,2.84Z"/><path class="cls-5" d="M539.68,264.33c0,.18-.23.28-.56.27a40.42,40.42,0,0,0-.91,7.65,18.59,18.59,0,0,0,.23,3.36c.32-.83,1-2.62,1.29-3.21l.71.75c-.7,1.71-1.21,2.68-1.44,3.45a2.75,2.75,0,0,0-.14.8,1.82,1.82,0,0,0,.08.52l-1.2.23a18.52,18.52,0,0,1-.75-5.85,50.1,50.1,0,0,1,.9-8.28Zm10.82,12.42c-.61,0-1.24.05-1.87.05a23.27,23.27,0,0,1-3.16-.19c-2.09-.3-3.06-1.46-3.06-2.82a5.21,5.21,0,0,1,1.6-3.28l1.11.48a4,4,0,0,0-1.45,2.67c0,2,2.89,2,4.66,2,.71,0,1.48,0,2.19-.09Zm-7.87-10.38a57.37,57.37,0,0,0,7.42-.65l.1,1.19a63.6,63.6,0,0,1-7.48.63Z"/><path class="cls-5" d="M559.17,270.38l.19,1-2.21.85v5.27c0,1.3-.63,1.41-2.87,1.41a3.5,3.5,0,0,0-.34-1.09l1.31,0c.75,0,.83,0,.83-.35v-4.88l-1.83.68a.32.32,0,0,1-.21.27l-.46-1.29c.68-.21,1.55-.5,2.5-.82v-3.74h-2.33v-1.07h2.33v-3.55l1.4.08c0,.14-.11.21-.33.24v3.23h2v1.07h-2v3.38Zm-.88,3.33c.92-.58,2.31-1.51,3.67-2.43v-8.23l1.4.09c0,.11-.11.2-.33.23v7.41c0,3.49-.49,6.24-4.08,8.11a3.23,3.23,0,0,0-.71-.86,6.12,6.12,0,0,0,3.65-5.54c-1,.76-2,1.51-2.73,2a.36.36,0,0,1-.14.33Zm1.6-8.52a13.11,13.11,0,0,1,1.82,3.66l-.94.51a13.41,13.41,0,0,0-1.75-3.71Zm6,11.6c0,.62.08.74.51.74H568c.37,0,.42-.46.47-2.07a3.17,3.17,0,0,0,1,.48c-.1,1.95-.39,2.63-1.42,2.63h-1.77c-1.14,0-1.46-.36-1.46-1.8V263.05l1.43.1c0,.12-.12.19-.34.22V271l.28-.28a33.56,33.56,0,0,1,3.42,3.21l-.76.83a33.67,33.67,0,0,0-2.94-3Zm3.48-11c-.07.12-.24.13-.36.12a30.66,30.66,0,0,1-2.09,3.6l-.81-.48a22.62,22.62,0,0,0,2-3.92Z"/><path class="cls-5" d="M580.44,275.82h-3.91v3h-1.1v-3h-3.95v-1h3.95V273.2h-3.22v-6h7.65v6h-3.33v1.58h3.91Zm-8-12.34a8.56,8.56,0,0,1,1.29,2.82l-1,.37a10.16,10.16,0,0,0-1.22-2.87Zm.75,4.62v1.63h2.28V268.1Zm0,2.51v1.67h2.28v-1.67Zm2.55-7.47a10.07,10.07,0,0,1,.78,2.94l-1.07.27a10.82,10.82,0,0,0-.71-3Zm3.08,6.59V268.1h-2.35v1.63Zm0,2.55v-1.67h-2.35v1.67Zm1.85-8.6a.42.42,0,0,1-.37.15,23.27,23.27,0,0,1-1.67,3l-.9-.39a21.57,21.57,0,0,0,1.58-3.28Zm2.5,5.29a36.68,36.68,0,0,0,.66,4.47,17.31,17.31,0,0,0,1.85-3.79l1.35.4c0,.12-.17.19-.38.17a18.24,18.24,0,0,1-2.48,4.59c.51,1.8,1.17,2.94,1.92,2.94.43,0,.63-.91.72-3a2.79,2.79,0,0,0,.9.65c-.22,2.7-.62,3.52-1.72,3.52s-2-1.18-2.65-3a15.1,15.1,0,0,1-3.3,2.81,5.74,5.74,0,0,0-.75-.82,13.29,13.29,0,0,0,3.67-3.21,37.3,37.3,0,0,1-.88-5.53l-1.87.24-.15-1,1.94-.24c-.12-1.62-.19-3.28-.21-4.95l1.5.09c0,.13-.12.22-.36.23,0,1.52,0,3,.15,4.49l4.17-.51.13,1Zm1.71-5.6a12.3,12.3,0,0,1,2.13,2.88l-.92.56a11.34,11.34,0,0,0-2.07-2.94Z"/><path class="cls-5" d="M738.12,235.92a.39.39,0,0,1-.36.25,21.4,21.4,0,0,0,7.45,5.93,4,4,0,0,0-.75,1,23.48,23.48,0,0,1-7.41-6.09,22.06,22.06,0,0,1-7.24,6.23,6,6,0,0,0-.72-.91,19.73,19.73,0,0,0,7.34-6.51Zm-6.24,15.72v-6.89h10.47v6.89h-1.16v-.73H733v.73Zm.87-10.17h8.7v1h-8.7Zm8.44,4.34H733v4.06h8.19Z"/><path class="cls-5" d="M760.42,237.68a1.54,1.54,0,0,0,.51-.05l.75.38a.28.28,0,0,1-.17.15,12.77,12.77,0,0,1-2.79,4.5,12,12,0,0,0,4.35,2.47,5,5,0,0,0-.73,1c-.27-.1-.53-.21-.78-.32v5.79h-1.12v-.73h-5v.8h-1.07v-5.76a14.3,14.3,0,0,1-1.4.59,3.75,3.75,0,0,0-.64-.93l.11,0a23.05,23.05,0,0,0-1.44-2.29v8.38h-1.11v-8.47a18.85,18.85,0,0,1-2.41,5.2,5.25,5.25,0,0,0-.63-1,18.92,18.92,0,0,0,2.91-6.7h-2.5v-1.07h2.63v-3.74l1.43.11c0,.11-.1.18-.32.22v3.41h2.29v1.07H751v1.23c.51.58,1.9,2.38,2.23,2.84l-.58.73a14.09,14.09,0,0,0,4.57-2.76,14,14,0,0,1-1.94-2.72,11.91,11.91,0,0,1-1.82,2,8.33,8.33,0,0,0-.81-.73,13.24,13.24,0,0,0,3.65-5.42l1.35.44c0,.1-.17.17-.38.15a12.48,12.48,0,0,1-.59,1.29Zm.19,7.64a12.57,12.57,0,0,1-2.65-1.91,14.91,14.91,0,0,1-2.59,1.91Zm-5.2,4.5h5v-3.5h-5Zm.68-11.12-.19.29a11.53,11.53,0,0,0,2.06,2.93,11.49,11.49,0,0,0,2.15-3.22Z"/><path class="cls-5" d="M770.45,236.56c0,.21-.19.32-.53.38-.13,2-.3,6.47-.3,9s1.26,3.75,3.4,3.75,4.18-1,6.12-3.23a6.83,6.83,0,0,0,.76,1,9.22,9.22,0,0,1-6.9,3.45c-3.09,0-4.67-1.79-4.67-5,0-2.14.15-7.41.27-9.5Z"/><path class="cls-5" d="M793.23,239.55a20.9,20.9,0,0,1-5.22,1,44.82,44.82,0,0,1-3.11,10.63l-1.22-.46a36.47,36.47,0,0,0,3.07-10.12c-.34,0-2.61,0-3.12,0l0-1.16c.27,0,.63,0,1,0,.15,0,1.85,0,2.29,0,.17-1.08.34-2.27.45-3.31l1.75.17c0,.19-.26.32-.5.34-.1.75-.27,1.67-.42,2.7a19.5,19.5,0,0,0,4.76-1Zm4.52,11.32c-.51,0-1,0-1.56,0a16.74,16.74,0,0,1-4-.38,2.36,2.36,0,0,1-1.89-2.34,4.11,4.11,0,0,1,1.06-2.47l1,.45a3.1,3.1,0,0,0-.89,1.88c0,1.35,1.3,1.69,4.39,1.69.63,0,1.27,0,1.9-.07Zm-6.63-8.19a20.37,20.37,0,0,1,6.17-.87V243a19.07,19.07,0,0,0-5.88.77Z"/><path class="cls-5" d="M805.22,239.49a.48.48,0,0,1-.45.28,19.22,19.22,0,0,1-.69,5h0a11.6,11.6,0,0,1,6.26-2.09c2.62,0,4.25,1.34,4.22,3.72-.06,3.13-2.64,4.52-9.22,4.79a5.3,5.3,0,0,0-.42-1.12c5.93-.25,8.31-1.22,8.36-3.65,0-1.63-1.12-2.62-3.11-2.62-3.14,0-6,1.89-6.46,2.72l-1.16-.56c.34-.32.94-3.37,1-6.7Zm.29-3.3a27.63,27.63,0,0,1,6.59,1.49l-.42,1.18a27.79,27.79,0,0,0-6.53-1.55Z"/><path class="cls-5" d="M818.43,247.78c1.32-.65,3.41-1.75,5.4-2.8l.32,1c-1.76,1-3.68,2.08-4.89,2.72a.34.34,0,0,1-.17.31Zm.85-10.59a22.34,22.34,0,0,1,4,1.87l-.63,1a19.17,19.17,0,0,0-4-2Zm9.89,2.92a.39.39,0,0,1-.34.19v1.89a9.47,9.47,0,0,0,5.56,8.41c-.22.27-.56.73-.75,1a10,10,0,0,1-5.41-7.15h0a10.07,10.07,0,0,1-6.09,7.15,5.1,5.1,0,0,0-.71-.93,9.41,9.41,0,0,0,6.2-8.5v-2.08h-2a15.87,15.87,0,0,1-2.05,3.93,6.54,6.54,0,0,0-1-.59,19.39,19.39,0,0,0,3.11-7.62l1.48.36c-.05.12-.17.18-.39.18-.2.87-.46,1.76-.73,2.61h7l.19-.07.9.56a.53.53,0,0,1-.25.15,24.23,24.23,0,0,1-1.52,4.52c-.24-.13-.69-.35-1-.47a24.72,24.72,0,0,0,1.18-3.56Z"/><path class="cls-5" d="M845.17,238.92a.45.45,0,0,1-.43.28c-.61,5.28-2.38,9.89-5.2,9.89-1.43,0-2.72-1.43-2.72-4.11a7.46,7.46,0,0,1,7.65-7.5c4.91,0,7,3.11,7,6.43,0,4-2.35,6-6.46,7a7,7,0,0,0-.72-1c3.91-.75,5.92-2.65,5.92-5.86,0-2.81-1.8-5.36-5.78-5.36a4.06,4.06,0,0,0-.51,0Zm-1.64-.22a6.26,6.26,0,0,0-5.55,6.24c0,1.82.78,3,1.59,3C841.63,247.9,843.11,243.36,843.53,238.7Z"/><path class="cls-5" d="M854.11,239.71v-1h5.73v1Zm5.35,6.1v5h-3.65v.8h-1v-5.8Zm-.06-4.69v.93h-4.56v-.93Zm-4.56,3.28v-.94h4.56v.94Zm4.5-8v.94h-4.4v-.94Zm-.88,10.34h-2.65v3.06h2.65ZM870,247.9v1h-1v1.55c0,1.13-.49,1.2-2.93,1.2a3.28,3.28,0,0,0-.3-1l1.32,0c.75,0,.84,0,.84-.3v-1.53h-5.71v2.75h-1v-2.75H860v-1h1.17v-4.39h3.3v-1H860v-.93h2.57v-1.25h-1.75v-.88h1.75v-1.16h-2.09v-.9h2.09v-1.51l1.37.1c0,.1-.1.19-.32.22v1.19h2.89v-1.51l1.38.1c0,.1-.1.19-.33.22v1.19h2.16v.9h-2.16v1.16h1.84v.88h-1.84v1.25H870v.93h-4.52v1H869v4.39Zm-5.54-3.52h-2.29v1.38h2.29Zm-2.29,2.21v1.31h2.29v-1.31Zm1.44-8.35v1.16h2.89v-1.16Zm0,2v1.25h2.89v-1.25Zm4.27,4.1h-2.43v1.38h2.43Zm-2.43,3.52h2.43v-1.31h-2.43Z"/><path class="cls-5" d="M887.6,238.86H874.37v3.72c0,2.63-.22,6.48-1.61,9.09a4.79,4.79,0,0,0-1-.64c1.34-2.48,1.46-5.95,1.46-8.45v-4.79h6.53v-2l1.51.1c0,.12-.1.21-.34.24v1.62h6.65Zm-6,8.58v2.7h6v1H874.47v-1h6.06v-2.7h-4.81v-1h4.81v-6.87l1.44.09c0,.12-.1.2-.32.24v6.54h5v1Zm-2.19-2.26a19.25,19.25,0,0,0-1.89-2.07,6.75,6.75,0,0,1-2,2.56,4.33,4.33,0,0,0-.8-.66,7.56,7.56,0,0,0,2.65-5.13l1.33.2c0,.12-.12.19-.32.2a11.87,11.87,0,0,1-.5,1.89,19.4,19.4,0,0,1,2.23,2.26Zm7.54.37a27.46,27.46,0,0,0-2.58-2.49,6.37,6.37,0,0,1-2,2.34,4.47,4.47,0,0,0-.76-.65,7.19,7.19,0,0,0,2.67-4.87l1.31.22c0,.12-.14.18-.33.2a10.87,10.87,0,0,1-.51,1.82,28.12,28.12,0,0,1,2.89,2.67Z"/><path class="cls-5" d="M889.84,243.94c.72-.68,2.47-2.53,3.37-3.5,1.31-1.45,1.95-1.77,2.8-1.77,1,0,1.75.65,3.27,2.45a77.27,77.27,0,0,0,6.41,6.78l-.91,1a66,66,0,0,1-6.11-6.56c-1.45-1.77-2-2.45-2.67-2.45s-1.21.57-2.25,1.74c-.58.66-2,2.17-2.68,3a.51.51,0,0,1-.19.48Z"/><path class="cls-5" d="M768.44,265.29a.31.31,0,0,1-.22.19,25.78,25.78,0,0,1-3.4,5.85,63,63,0,0,1,6.23,5.76l-1,.9a55.34,55.34,0,0,0-6-5.71A26.67,26.67,0,0,1,757.5,278a6.93,6.93,0,0,0-.89-.92,24.28,24.28,0,0,0,10-11.1h-8.34v-1.15h9l.22-.09Z"/><path class="cls-5" d="M788.56,270.22h-5.75l.29.09a.35.35,0,0,1-.34.2c-.46,3.16-1.62,6-5.25,7.77a9.63,9.63,0,0,0-.92-.85c3.53-1.7,4.52-4.08,4.91-7.21h-6.61v-1.14h13.67Zm-1.69-4.79H776.44v-1.14h10.43Z"/><path class="cls-5" d="M794.9,268.1a18.27,18.27,0,0,1,1.27,3.65l-.95.26a18.73,18.73,0,0,0-1.24-3.62Zm10.15.12c0,.15-.21.19-.36.17-1.33,5-3.83,8-7.94,9.67a5.16,5.16,0,0,0-.66-.78c4.06-1.6,6.39-4.39,7.63-9.45Zm-6-.94a23.07,23.07,0,0,1,.8,3.86l-1,.19a20.73,20.73,0,0,0-.79-3.83Z"/><path class="cls-5" d="M811.06,265.6h10.82l.1-.05,1.15.88a.41.41,0,0,1-.2.16c-1.38,6.39-4.33,9.72-9.54,11.69a6.75,6.75,0,0,0-.76-1c5-1.82,7.8-5,8.91-10.51H811.06Zm13-3a1.86,1.86,0,1,1-1.87,1.87A1.86,1.86,0,0,1,824,262.56Zm1.29,1.87a1.3,1.3,0,1,0-2.6,0,1.32,1.32,0,0,0,1.31,1.31A1.3,1.3,0,0,0,825.31,264.43Z"/><path class="cls-5" d="M842.43,265.09a.44.44,0,0,1-.22.15,14.49,14.49,0,0,1-4,5.44,7.5,7.5,0,0,0-1-.69,10.2,10.2,0,0,0,3.38-4.22H828.35v-1.16h12.82l.19-.08Zm-6.63,3.09c0,.14-.17.26-.39.29-.49,4-1.87,7.84-5.37,9.86a8.63,8.63,0,0,0-1-.78c3.47-1.9,4.71-5.46,5.12-9.55Z"/><path class="cls-5" d="M848.45,268.1a18.27,18.27,0,0,1,1.27,3.65l-1,.26a18.73,18.73,0,0,0-1.24-3.62Zm10.15.12c0,.15-.21.19-.36.17-1.33,5-3.83,8-7.94,9.67a5.16,5.16,0,0,0-.66-.78c4.06-1.6,6.39-4.39,7.63-9.45Zm-6-.94a23.07,23.07,0,0,1,.8,3.86l-1,.19a20.73,20.73,0,0,0-.79-3.83Z"/><path class="cls-5" d="M864.61,265.6h10.82l.1-.05,1.15.88a.41.41,0,0,1-.2.16c-1.38,6.39-4.33,9.72-9.54,11.69a6.75,6.75,0,0,0-.76-1c5-1.82,7.8-5,8.91-10.51H864.61Zm13-3a1.86,1.86,0,1,1-1.87,1.87A1.86,1.86,0,0,1,877.57,262.56Zm1.29,1.87a1.3,1.3,0,1,0-2.6,0,1.32,1.32,0,0,0,1.31,1.31A1.3,1.3,0,0,0,878.86,264.43Z"/><rect class="cls-6" x="1047.63" y="65.26" width="21.16" height="92.92"/><rect class="cls-6" x="1013.64" y="65.26" width="21.16" height="92.92"/><rect class="cls-6" x="979.65" y="65.26" width="21.16" height="92.92"/><polygon class="cls-6" points="1143.9 111.72 1085.36 50.54 1085.36 172.9 1143.9 111.72"/><circle class="cls-7" cx="1284.44" cy="111.72" r="111.07"/></g></g></svg>