<svg xmlns="http://www.w3.org/2000/svg" width="291.448" height="1514.029" viewBox="0 0 291.448 1514.029">
  <g id="Group_54" data-name="Group 54" transform="translate(-840.85 -1666.829)">
    <rect id="Rectangle_85" data-name="Rectangle 85" width="290.148" height="60.131" transform="translate(841.5 1667.479)" fill="#009481" stroke="#009481" stroke-miterlimit="10" stroke-width="1.3"/>
    <rect id="Rectangle_86" data-name="Rectangle 86" width="290.148" height="144.578" transform="translate(841.5 1727.611)" fill="#fff" stroke="#008b80" stroke-miterlimit="10" stroke-width="1.3"/>
    <g id="Group_33" data-name="Group 33" transform="translate(592.167 -8280.717)">
      <path id="Path_110" data-name="Path 110" d="M353.833,9973.548v-1.573h9.3v1.573Zm8.69,9.9v8.109h-5.931v1.3h-1.6v-9.407Zm-.11-7.614v1.516h-7.394v-1.516Zm-7.394,5.324v-1.519h7.394v1.519Zm7.311-12.911v1.517h-7.145v-1.517Zm-1.435,16.773h-4.3v4.966h4.3Zm18.733,1.82v1.573h-1.711v2.511c0,1.848-.8,1.958-4.745,1.958a5.306,5.306,0,0,0-.5-1.545c.828.028,1.6.056,2.152.056,1.214,0,1.352,0,1.352-.5v-2.482H366.91v4.469h-1.628v-4.469h-1.9v-1.573h1.9v-7.118h5.352v-1.711h-7.256V9976.5h4.166v-2.015H364.7v-1.434h2.841v-1.877h-3.393v-1.462h3.393v-2.455l2.235.165c-.028.166-.166.3-.524.359v1.931h4.689v-2.455l2.235.165c-.027.166-.165.3-.524.359v1.931h3.5v1.462h-3.5v1.877h2.979v1.434h-2.979v2.015h3.917v1.516h-7.338v1.711h5.683v7.118Zm-8.994-5.71H366.91v2.234h3.724Zm-3.724,3.586v2.124h3.724v-2.124Zm2.345-13.546v1.877h4.689v-1.877Zm0,3.311v2.015h4.689v-2.015Zm6.924,6.649h-3.945v2.234h3.945Zm-3.945,5.71h3.945v-2.124h-3.945Z" fill="#fff"/>
      <path id="Path_111" data-name="Path 111" d="M434.4,9972.169H412.935v6.041c0,4.276-.359,10.512-2.621,14.76a7.43,7.43,0,0,0-1.572-1.049c2.179-4.028,2.372-9.656,2.372-13.711v-7.78h10.594v-3.172l2.455.165c-.027.193-.165.332-.552.386v2.621H434.4Zm-9.655,13.931v4.388h9.738v1.653H413.1v-1.653h9.822V9986.1h-7.808v-1.654h7.808V9973.3l2.345.137c-.028.194-.166.331-.524.387v10.622H432.8v1.654Zm-3.559-3.67a30.9,30.9,0,0,0-3.063-3.364,10.933,10.933,0,0,1-3.227,4.166,7.084,7.084,0,0,0-1.3-1.076c2.317-1.655,3.724-4.689,4.3-8.332l2.152.332c-.028.191-.193.3-.525.33a20.718,20.718,0,0,1-.8,3.063,31.6,31.6,0,0,1,3.614,3.67Zm12.249.608a43.111,43.111,0,0,0-4.194-4.056,10.314,10.314,0,0,1-3.172,3.808,6.713,6.713,0,0,0-1.242-1.049c2.29-1.545,3.725-4.414,4.332-7.918l2.124.358c-.055.194-.221.3-.524.331a17.236,17.236,0,0,1-.828,2.953,47.008,47.008,0,0,1,4.69,4.331Z" fill="#fff"/>
    </g>
    <g id="Group_35" data-name="Group 35" transform="translate(592.386 -8280.717)">
      <g id="Group_34" data-name="Group 34">
        <path id="Path_112" data-name="Path 112" d="M322.172,10040.554v3.879c0,.364,0,.772-.023,1.158H326.3v1.452h-4.265a19.171,19.171,0,0,1-.363,2.11c1.089,1.066,3.7,3.926,4.356,4.651l-1.021,1.248c-.726-1-2.541-3.132-3.744-4.47a12.35,12.35,0,0,1-4.629,6.217,5.323,5.323,0,0,0-1.021-1.113,11.63,11.63,0,0,0,4.947-8.644H315.7v-1.452h4.969c.023-.409.023-.794.023-1.18v-3.857h-2.02a15.966,15.966,0,0,1-1.883,3.948,8.266,8.266,0,0,0-1.134-.794,21.292,21.292,0,0,0,2.722-7.715l1.816.454c-.046.158-.2.227-.477.227-.159.816-.363,1.633-.59,2.45h6.6v1.43Zm5.15-2.541h8.4v18.173h-1.543v-1.609H328.82v1.859h-1.5Zm1.5,15.111h5.355v-13.659H328.82Z" fill="#009481"/>
        <path id="Path_113" data-name="Path 113" d="M345.368,10039.85v1.271h-7.056v-1.271Zm-.544,9.258v6.648h-4.38v1.089H339.2v-7.737Zm-.046-6.172v1.248h-5.536v-1.248Zm-5.536,4.334v-1.247h5.536v1.247Zm5.491-10.437v1.248h-5.378v-1.248Zm-1.2,13.545h-3.086v4.085h3.086Zm11.822-5.173c.068,1.86.181,3.562.34,5.015a18.358,18.358,0,0,0,1.634-4.04l1.474.728c-.045.136-.181.182-.385.182a18.775,18.775,0,0,1-2.428,5.082c.408,2.064,1.112,3.54,1.929,3.54.385,0,.68-1.476.884-3.336a3.562,3.562,0,0,0,.954.771c-.295,2.678-.84,4.017-1.884,4.017-1.406,0-2.359-1.361-2.927-3.585a16.258,16.258,0,0,1-3.9,3.4,5.421,5.421,0,0,0-.885-.885,14.753,14.753,0,0,0,4.447-4.13,56.879,56.879,0,0,1-.613-6.762h-8.962v-1.271h8.917c-.068-2.427-.114-5.1-.136-7.9l1.883.068c0,.182-.136.317-.454.363-.023,2.654,0,5.172.068,7.464h3.9v1.271Zm-2.133-6.625v1.225h-7.556v-1.225h3.131v-2.565l1.838.114c-.022.159-.136.272-.431.318v2.133Zm-.613,15.588h-5.06v1.293H346.3v-8.917h6.308Zm-4.833-14.069a12.5,12.5,0,0,1,.749,3.382l-1.2.25a12.386,12.386,0,0,0-.68-3.382Zm3.517,7.624h-3.744v2.021h3.744Zm-3.744,5.265h3.744v-2.109h-3.744Zm5.083-12.639c-.045.137-.2.228-.454.228a29.147,29.147,0,0,1-1,3.313l-1.044-.317a28.1,28.1,0,0,0,.862-3.63Zm4.311-3.312a14.379,14.379,0,0,1,2.451,4.038l-1.271.566a14.092,14.092,0,0,0-2.36-4.129Z" fill="#009481"/>
        <path id="Path_114" data-name="Path 114" d="M373.919,10046.544a2.337,2.337,0,1,1-2.337-2.337A2.333,2.333,0,0,1,373.919,10046.544Z" fill="#009481"/>
        <path id="Path_115" data-name="Path 115" d="M404.581,10044.3h-8.645a42.743,42.743,0,0,1-4.7,2.926l-.023.137a63.858,63.858,0,0,0,9.349-1.5l1.089,1.135a.34.34,0,0,1-.227.067.561.561,0,0,1-.181-.022,68.511,68.511,0,0,1-10.3,1.474c-.136.591-.3,1.182-.431,1.747h9.621l.34-.066.953.316a1.526,1.526,0,0,1-.159.409c-.522,3.471-1.044,4.992-1.77,5.627a3.178,3.178,0,0,1-2.314.545c-.726,0-1.792-.022-2.9-.091a2.906,2.906,0,0,0-.477-1.43c1.475.137,2.973.182,3.517.182a1.482,1.482,0,0,0,1-.227c.5-.409.93-1.521,1.315-3.972h-9.461q-.171.647-.341,1.158l-1.52-.228c.363-1.135.794-2.768,1.157-4.333-1.588.794-3.244,1.52-4.9,2.154a7.84,7.84,0,0,0-.907-1.111,53.544,53.544,0,0,0,6.217-2.769l.113-.589.794.09c.931-.521,1.838-1.065,2.746-1.633H384v-1.362h8.01v-2.768h-6.058v-1.316h6.058v-2.858l1.951.136c-.023.159-.136.272-.454.318v2.4h5.99v.772a28.616,28.616,0,0,0,2.541-2.746l1.543.953a.6.6,0,0,1-.385.113.861.861,0,0,1-.227-.022,36.285,36.285,0,0,1-5.2,5.014h6.807Zm-11.073-1.362h2.019a36.835,36.835,0,0,0,3.4-2.768h-5.423Z" fill="#009481"/>
        <path id="Path_116" data-name="Path 116" d="M415.933,10048.767a4.92,4.92,0,0,1,2.246-.521,2.053,2.053,0,0,1,2,2.313c0,.591-.068,1.294-.068,1.839,0,2.314,1.361,2.314,3.313,2.314a19.7,19.7,0,0,0,2.95-.2,15.61,15.61,0,0,0,.068,1.611c-.885.091-1.952.136-2.95.136a16.735,16.735,0,0,1-2.36-.136,2.867,2.867,0,0,1-2.587-2.791c0-.522.046-1.543.046-2.225,0-.952-.363-1.5-1.157-1.5a6.5,6.5,0,0,0-4.062,1.883c-1.316,1.293-3.789,3.789-4.56,4.7a12.89,12.89,0,0,0-1.226-1.2c2.156-2.2,9.28-9.121,11.6-11.367-1.657.158-6.807.453-9.394.59a.44.44,0,0,1-.363.249l-.136-1.815c3.177-.09,9.144-.385,11.436-.589l.34-.205,1.316,1.2a.921.921,0,0,1-.545.182c-1.429,1.338-4.22,3.9-5.9,5.514Zm5.695-9.075a49.448,49.448,0,0,0-9.711-1.521l.34-1.52a47.663,47.663,0,0,1,9.8,1.5Z" fill="#009481"/>
        <path id="Path_117" data-name="Path 117" d="M449.953,10041.507H438.267c-.09,1.271-.2,2.609-.385,3.948h8.1l.34-.046.908.159a3.066,3.066,0,0,1-.091.477c-.476,6.829-.93,9.371-1.838,10.278-.612.658-1.225.771-2.654.771-.817,0-1.952-.045-3.086-.113a3.658,3.658,0,0,0-.545-1.5c1.679.158,3.313.158,3.88.158.545,0,.84-.021,1.089-.25.7-.634,1.157-2.926,1.566-8.484h-7.919c-.771,4.038-2.564,7.985-7.329,10.256a4.633,4.633,0,0,0-1.089-1.227c6.421-2.9,7.125-9.029,7.4-14.43h-7.193v-1.475h9.394v-4.084l2.019.136c-.022.159-.158.272-.453.317v3.631h9.575Z" fill="#009481"/>
        <path id="Path_118" data-name="Path 118" d="M471.833,10045.727a.313.313,0,0,1-.136.046.57.57,0,0,1-.34-.137c-1.725.567-4.243,1.5-6.127,2.314q.069.782.068,1.771c0,.726-.022,1.542-.068,2.428l-1.656.091c.068-.817.113-1.861.113-2.746,0-.34,0-.657-.022-.907-2.564,1.248-4.652,2.768-4.652,4.13,0,1.315,1.566,1.951,4.7,1.951a51.04,51.04,0,0,0,5.7-.227l.023,1.52c-1.339.137-3.381.181-5.718.181-4.356,0-6.285-1.044-6.285-3.357,0-2,2.632-3.925,6.036-5.627-.137-1.43-.772-2.133-1.68-2.133-1.656,0-3.38.931-5.422,3.2-.636.705-1.521,1.589-2.5,2.475l-1.112-1.112c2.269-2,4.4-3.9,5.718-8.372l-1.271.022h-3.789v-1.475c1.384.022,2.995.022,3.925.022l1.543-.022a29.483,29.483,0,0,0,.613-3.246l2.224.273c-.046.227-.228.363-.568.408-.159.907-.363,1.7-.567,2.519a31.061,31.061,0,0,0,7.8-1.315l.272,1.521a34.251,34.251,0,0,1-8.508,1.271,16.542,16.542,0,0,1-1.634,3.834h.023a6.031,6.031,0,0,1,3.653-1.475c1.543,0,2.518,1.112,2.813,2.95,1.906-.863,4.312-1.793,6.127-2.5Z" fill="#009481"/>
      </g>
    </g>
    <g id="Group_37" data-name="Group 37" transform="translate(592.516 -8280.717)">
      <g id="Group_36" data-name="Group 36">
        <path id="Path_119" data-name="Path 119" d="M358.243,10097.877a36.968,36.968,0,0,1-2.76,3.879,44.693,44.693,0,0,0-2-5.079c3.039-3.76,6.079-10.318,7.918-16.717l5.239,1.72c-.16.359-.52.52-1.119.479-.84,2.479-1.8,5-2.88,7.438l1.2.36c-.08.36-.4.6-1.04.72v26.956h-4.559Zm33.194-10.158h-3a20.906,20.906,0,0,1-4.44,6.039,31.849,31.849,0,0,0,8.839,2.758,18.531,18.531,0,0,0-2.6,3.841,31.973,31.973,0,0,1-9.638-3.881,32.844,32.844,0,0,1-9.238,4.08,18.522,18.522,0,0,0-2.28-3.08v13.319h-4.159v-25.836l5.159.28c-.04.358-.32.64-1,.72v4a26.728,26.728,0,0,0,6.239-10.158l4.959,1.4c-.12.4-.56.521-1,.48-.28.76-.6,1.479-.96,2.239h13.118ZM369.081,10097a28.285,28.285,0,0,0,7.959-3.16,27.277,27.277,0,0,1-3-3.119,20.929,20.929,0,0,1-2.6,2.719,22.22,22.22,0,0,0-2.36-1.96Zm23.436,11.318c-.12.279-.48.479-1.04.479-4,4.359-11.078,7.079-19.316,8.6a17.018,17.018,0,0,0-2.44-3.8c7.479-1,14.477-3.24,17.917-7Zm-7.6-8.4a.864.864,0,0,1-.839.4,31.389,31.389,0,0,1-10.079,5.158,14.711,14.711,0,0,0-2.519-2.759c3.359-.88,7.278-2.52,9.278-4.319Zm3.88,3.6a.985.985,0,0,1-.88.441c-2.96,2.919-8.319,5.358-13.838,6.8a16.136,16.136,0,0,0-2.32-3.04c5.04-1,10.279-3.039,12.958-5.719Zm-12.478-15.8a18.656,18.656,0,0,0,3.919,3.8,16.286,16.286,0,0,0,3.239-3.8Z" fill="#009481"/>
        <path id="Path_120" data-name="Path 120" d="M401.683,10102.475c-.96,1.241-1.92,2.361-2.88,3.4a45.068,45.068,0,0,0-2.32-4.279,46.4,46.4,0,0,0,8.479-12.917l4.959,1.959a1.136,1.136,0,0,1-1.12.4c-.8,1.559-1.68,3.2-2.639,4.759l1.04.36a1.124,1.124,0,0,1-1.04.68v20.717h-4.479Zm7.478-20.595a1.017,1.017,0,0,1-1.08.359,70.419,70.419,0,0,1-9.038,9.357,29.961,29.961,0,0,0-2.52-3.519,38.537,38.537,0,0,0,7.759-8.238Zm24.636,21.076v4.079h-5.519v5.759c0,4.239-1.88,4.719-8.239,4.719a16.92,16.92,0,0,0-1.479-4.278c1.679.08,3.6.08,4.119.08.56-.04.72-.2.72-.641v-5.639H408.6v-4.079h14.8v-2.2H409.6v-4h23.2v4h-3.559a1.431,1.431,0,0,1-.96.44v1.76Zm-17.837,11.678a28.763,28.763,0,0,0-4.479-5.4l3.159-2.16a32.322,32.322,0,0,1,4.72,5.159Zm14.838-33.794v13.957H411.6v-13.957Zm-4.84,5.358v-2H416.2v2Zm0,5.2v-2.039H416.2v2.039Z" fill="#009481"/>
      </g>
    </g>
    <rect id="Rectangle_87" data-name="Rectangle 87" width="290.148" height="60.131" transform="translate(841.5 2079.986)" fill="#009481" stroke="#009481" stroke-miterlimit="10" stroke-width="1.3"/>
    <rect id="Rectangle_88" data-name="Rectangle 88" width="290.148" height="144.578" transform="translate(841.5 2140.118)" fill="#fff" stroke="#008b80" stroke-miterlimit="10" stroke-width="1.3"/>
    <g id="Group_38" data-name="Group 38" transform="translate(261.035 -7868.21)">
      <path id="Path_121" data-name="Path 121" d="M669.669,9970.706h-4.911a61.978,61.978,0,0,1-1.462,6.677H668.7v12h-5.435v2.261h-1.6v-9.737a18.771,18.771,0,0,1-1.738,3.034,14.576,14.576,0,0,0-.966-1.655c1.959-2.786,3.255-7.56,3.973-12.58h-3.366V9969h10.1Zm-2.593,17.021v-8.688h-3.807v8.688Zm17.96,2.373v1.6H673.642v1.353H671.9v-12.3a16.236,16.236,0,0,1-2.069,2.042,11.494,11.494,0,0,0-1.021-1.545,21.686,21.686,0,0,0,5.986-9.049h-3.365v3.421h-1.628v-5.049h5.573c.358-1.076.662-2.207.938-3.366l2.29.523c-.056.222-.276.331-.635.331-.221.856-.469,1.685-.717,2.512h7.366v5.049h-1.711V9972.2H676.7a32.966,32.966,0,0,1-2.235,4.883h3.256a29.9,29.9,0,0,0,1.407-3.726l2.124.662c-.055.166-.248.248-.552.248-.3.8-.772,1.877-1.241,2.815h4.855v1.628h-5.1v2.786h4.441v1.49h-4.441v2.813h4.441v1.489h-4.441v2.813Zm-7.56-8.606v-2.786h-3.834v2.786Zm0,4.3v-2.813h-3.834v2.813Zm-3.834,1.489v2.813h3.834v-2.813Z" fill="#fff"/>
      <path id="Path_122" data-name="Path 122" d="M696.848,9971.92v1.545h-9.932v-1.545Zm-.773,11.256v8.111H689.73v1.3h-1.6v-9.407Zm-.027-7.5v1.518h-7.891v-1.518Zm-7.891,5.27v-1.518h7.891v1.518Zm7.78-12.69v1.517h-7.642v-1.517Zm-1.49,16.5H689.73v4.965h4.717Zm5.739-.083c-.331,2.4-.938,5.02-2.428,6.565l-1.407-.937c1.352-1.352,2.014-3.78,2.29-6.042Zm4.828-14.733a27.754,27.754,0,0,1-.911,3.7,27.317,27.317,0,0,1,3.393,1.958l-.937,1.463a26.878,26.878,0,0,0-3.09-1.9,10.912,10.912,0,0,1-5.132,5.3,5.774,5.774,0,0,0-1.158-1.324,9.949,9.949,0,0,0,4.772-4.744,34.569,34.569,0,0,0-3.724-1.573l.91-1.325c1.1.388,2.263.856,3.421,1.381a18.91,18.91,0,0,0,.718-2.926h-4.828v-1.6h11.614l.8-.029.993.112c-.165,1.075-.165,9.3-1.3,10.565-.662.8-1.352.8-2.649.8-.689,0-1.545-.027-2.4-.082a3.494,3.494,0,0,0-.5-1.628c1.462.109,2.069.109,3.31.109a.815.815,0,0,0,.717-.274c.469-.554.745-2.566.966-7.975Zm-1.876,20.113c0,.634.11.744.91.744h2.7c.717,0,.855-.359.91-3.117a6.231,6.231,0,0,0,1.573.689c-.166,3.282-.663,4.083-2.318,4.083h-3.09c-1.958,0-2.427-.524-2.427-2.4v-6.621l2.262.165c-.028.165-.193.3-.524.358Zm3.476-5.6a21.815,21.815,0,0,0-4.911-3.918l1.186-1.075a22.507,22.507,0,0,1,4.966,3.807Zm4.717,6.731a19.466,19.466,0,0,0-3.062-6.705l1.517-.605a20.013,20.013,0,0,1,3.228,6.621Z" fill="#fff"/>
      <path id="Path_123" data-name="Path 123" d="M738.482,9978.872h-9.325l.469.139a.593.593,0,0,1-.551.33c-.745,5.131-2.621,9.711-8.525,12.608a14.77,14.77,0,0,0-1.49-1.38c5.738-2.76,7.339-6.621,7.973-11.7H716.3v-1.848h22.181Zm-2.731-7.779H718.812v-1.849h16.939Z" fill="#fff"/>
      <path id="Path_124" data-name="Path 124" d="M762.405,9970.872a.569.569,0,0,1-.358.3,42.673,42.673,0,0,1-5.518,9.49,101.6,101.6,0,0,1,10.1,9.352l-1.683,1.462a90.118,90.118,0,0,0-9.683-9.269,43.4,43.4,0,0,1-10.621,9.269,10.4,10.4,0,0,0-1.435-1.488,39.556,39.556,0,0,0,16.167-18.016H745.825V9970.1h14.621l.359-.137Z" fill="#fff"/>
      <path id="Path_125" data-name="Path 125" d="M790.329,9982.707a99.669,99.669,0,0,0-9.684-4.5V9992h-2.069V9968.03l2.786.166c-.027.3-.248.5-.717.579v8.056l.414-.58a95.676,95.676,0,0,1,10.373,4.607Z" fill="#fff"/>
    </g>
    <g id="Group_40" data-name="Group 40" transform="translate(259.303 -7868.21)">
      <g id="Group_39" data-name="Group 39">
        <path id="Path_126" data-name="Path 126" d="M655.255,10040.554v3.879c0,.364,0,.772-.023,1.158h4.152v1.452h-4.265a19.171,19.171,0,0,1-.363,2.11c1.089,1.066,3.7,3.926,4.356,4.651l-1.021,1.248c-.726-1-2.541-3.132-3.744-4.47a12.35,12.35,0,0,1-4.629,6.217,5.323,5.323,0,0,0-1.021-1.113,11.63,11.63,0,0,0,4.947-8.644h-4.856v-1.452h4.969c.023-.409.023-.794.023-1.18v-3.857h-2.02a15.965,15.965,0,0,1-1.883,3.948,8.266,8.266,0,0,0-1.134-.794,21.292,21.292,0,0,0,2.722-7.715l1.816.454c-.046.158-.2.227-.477.227-.159.816-.363,1.633-.59,2.45h6.6v1.43Zm5.15-2.541h8.4v18.173h-1.543v-1.609H661.9v1.859h-1.5Zm1.5,15.111h5.355v-13.659H661.9Z" fill="#009481"/>
        <path id="Path_127" data-name="Path 127" d="M678.451,10039.85v1.271H671.4v-1.271Zm-.544,9.258v6.648h-4.38v1.089h-1.248v-7.737Zm-.046-6.172v1.248h-5.536v-1.248Zm-5.536,4.334v-1.247h5.536v1.247Zm5.491-10.437v1.248h-5.378v-1.248Zm-1.2,13.545h-3.086v4.085h3.086Zm11.822-5.173c.068,1.86.181,3.562.34,5.015a18.359,18.359,0,0,0,1.634-4.04l1.474.728c-.045.136-.181.182-.385.182a18.773,18.773,0,0,1-2.428,5.082c.408,2.064,1.112,3.54,1.929,3.54.385,0,.68-1.476.884-3.336a3.563,3.563,0,0,0,.954.771c-.295,2.678-.84,4.017-1.884,4.017-1.406,0-2.359-1.361-2.927-3.585a16.259,16.259,0,0,1-3.9,3.4,5.423,5.423,0,0,0-.885-.885,14.752,14.752,0,0,0,4.447-4.13,56.88,56.88,0,0,1-.613-6.762h-8.962v-1.271h8.917c-.068-2.427-.114-5.1-.136-7.9l1.883.068c0,.182-.136.317-.454.363-.023,2.654,0,5.172.068,7.464h3.9v1.271Zm-2.133-6.625v1.225h-7.556v-1.225h3.131v-2.565l1.838.114c-.022.159-.136.272-.431.318v2.133Zm-.613,15.588h-5.06v1.293h-1.248v-8.917h6.308Zm-4.833-14.069a12.5,12.5,0,0,1,.749,3.382l-1.2.25a12.385,12.385,0,0,0-.68-3.382Zm3.517,7.624h-3.744v2.021h3.744Zm-3.744,5.265h3.744v-2.109h-3.744Zm5.083-12.639c-.045.137-.2.228-.454.228a29.153,29.153,0,0,1-1,3.313l-1.044-.317a28.1,28.1,0,0,0,.862-3.63Zm4.311-3.312a14.379,14.379,0,0,1,2.451,4.038l-1.271.566a14.092,14.092,0,0,0-2.36-4.129Z" fill="#009481"/>
        <path id="Path_128" data-name="Path 128" d="M707,10046.544a2.337,2.337,0,1,1-2.337-2.337A2.333,2.333,0,0,1,707,10046.544Z" fill="#009481"/>
        <path id="Path_129" data-name="Path 129" d="M737.664,10044.3h-8.645a42.739,42.739,0,0,1-4.7,2.926l-.023.137a63.858,63.858,0,0,0,9.349-1.5l1.089,1.135a.34.34,0,0,1-.227.067.565.565,0,0,1-.181-.022,68.511,68.511,0,0,1-10.3,1.474c-.136.591-.295,1.182-.431,1.747h9.621l.34-.066.953.316a1.526,1.526,0,0,1-.159.409c-.522,3.471-1.044,4.992-1.77,5.627a3.177,3.177,0,0,1-2.314.545c-.726,0-1.792-.022-2.9-.091a2.9,2.9,0,0,0-.477-1.43c1.475.137,2.973.182,3.517.182a1.482,1.482,0,0,0,1-.227c.5-.409.93-1.521,1.315-3.972h-9.461q-.171.647-.341,1.158l-1.52-.228c.363-1.135.794-2.768,1.157-4.333-1.588.794-3.244,1.52-4.9,2.154a7.842,7.842,0,0,0-.907-1.111,53.544,53.544,0,0,0,6.217-2.769l.113-.589.794.09c.931-.521,1.838-1.065,2.746-1.633h-9.53v-1.362h8.01v-2.768h-6.058v-1.316h6.058v-2.858l1.951.136c-.023.159-.136.272-.454.318v2.4h5.99v.772a28.612,28.612,0,0,0,2.541-2.746l1.543.953a.6.6,0,0,1-.385.113.862.862,0,0,1-.227-.022,36.283,36.283,0,0,1-5.2,5.014h6.807Zm-11.073-1.362h2.02a36.955,36.955,0,0,0,3.4-2.768h-5.423Z" fill="#009481"/>
        <path id="Path_130" data-name="Path 130" d="M749.016,10048.767a4.923,4.923,0,0,1,2.246-.521,2.053,2.053,0,0,1,2,2.313c0,.591-.068,1.294-.068,1.839,0,2.314,1.361,2.314,3.313,2.314a19.7,19.7,0,0,0,2.95-.2,15.61,15.61,0,0,0,.068,1.611c-.885.091-1.952.136-2.95.136a16.736,16.736,0,0,1-2.36-.136,2.867,2.867,0,0,1-2.587-2.791c0-.522.046-1.543.046-2.225,0-.952-.363-1.5-1.157-1.5a6.5,6.5,0,0,0-4.062,1.883c-1.316,1.293-3.789,3.789-4.56,4.7a12.89,12.89,0,0,0-1.226-1.2c2.156-2.2,9.28-9.121,11.595-11.367-1.657.158-6.807.453-9.394.59a.44.44,0,0,1-.363.249l-.136-1.815c3.177-.09,9.144-.385,11.436-.589l.34-.205,1.316,1.2a.921.921,0,0,1-.545.182c-1.429,1.338-4.22,3.9-5.9,5.514Zm5.7-9.075a49.448,49.448,0,0,0-9.711-1.521l.34-1.52a47.664,47.664,0,0,1,9.8,1.5Z" fill="#009481"/>
        <path id="Path_131" data-name="Path 131" d="M783.036,10041.507H771.35c-.09,1.271-.2,2.609-.385,3.948h8.1l.34-.046.908.159a3.059,3.059,0,0,1-.091.477c-.476,6.829-.93,9.371-1.838,10.278-.612.658-1.225.771-2.654.771-.817,0-1.952-.045-3.086-.113a3.658,3.658,0,0,0-.545-1.5c1.679.158,3.313.158,3.88.158.545,0,.84-.021,1.089-.25.7-.634,1.157-2.926,1.566-8.484h-7.919c-.771,4.038-2.564,7.985-7.329,10.256a4.632,4.632,0,0,0-1.089-1.227c6.421-2.9,7.125-9.029,7.4-14.43H762.5v-1.475H771.9v-4.084l2.019.136c-.022.159-.158.272-.453.317v3.631h9.575Z" fill="#009481"/>
        <path id="Path_132" data-name="Path 132" d="M804.916,10045.727a.313.313,0,0,1-.136.046.57.57,0,0,1-.34-.137c-1.725.567-4.243,1.5-6.127,2.314q.069.782.068,1.771c0,.726-.022,1.542-.068,2.428l-1.656.091c.068-.817.113-1.861.113-2.746,0-.34,0-.657-.022-.907-2.564,1.248-4.652,2.768-4.652,4.13,0,1.315,1.566,1.951,4.7,1.951a51.039,51.039,0,0,0,5.695-.227l.023,1.52c-1.339.137-3.381.181-5.718.181-4.356,0-6.285-1.044-6.285-3.357,0-2,2.632-3.925,6.036-5.627-.137-1.43-.772-2.133-1.68-2.133-1.656,0-3.38.931-5.422,3.2-.636.705-1.521,1.589-2.5,2.475l-1.112-1.112c2.269-2,4.4-3.9,5.718-8.372l-1.271.022h-3.789v-1.475c1.384.022,2.995.022,3.925.022l1.543-.022a29.483,29.483,0,0,0,.613-3.246l2.224.273c-.046.227-.228.363-.568.408-.159.907-.363,1.7-.567,2.519a31.061,31.061,0,0,0,7.8-1.315l.272,1.521a34.252,34.252,0,0,1-8.508,1.271,16.542,16.542,0,0,1-1.634,3.834h.023a6.031,6.031,0,0,1,3.653-1.475c1.543,0,2.518,1.112,2.813,2.95,1.906-.863,4.312-1.793,6.127-2.5Z" fill="#009481"/>
      </g>
    </g>
    <g id="Group_42" data-name="Group 42" transform="translate(258.913 -7868.21)">
      <g id="Group_41" data-name="Group 41">
        <path id="Path_133" data-name="Path 133" d="M708.643,10106.075v6.039a42.023,42.023,0,0,0,4.6.239c2.16,0,8.839,0,11.558-.119a16.431,16.431,0,0,0-1.72,4.879H713c-7.519,0-13.038-1.239-16.717-7.038a18.781,18.781,0,0,1-5.519,7.639,25.836,25.836,0,0,0-3.679-3.16c4.2-3,6.238-8.838,6.958-15.757l5.8.84a1.011,1.011,0,0,1-1,.64c-.2,1.4-.44,2.72-.72,4.039a10.758,10.758,0,0,0,5.519,6.4v-14.2h-8.239v-4.558h21.4v4.558h-8.158v5.039h11.078v4.521Zm-14.8-17.437v5.56h-4.719v-10.078h14.438v-4.4l6.239.36c-.04.4-.36.64-1.12.76v3.279H723.2v10.078h-4.959v-5.56Z" fill="#009481"/>
        <path id="Path_134" data-name="Path 134" d="M766.88,10098.436H743.844c-.24.521-.44,1.04-.68,1.561H762.4v17.517h-4.919v-.919H744v.96h-4.719v-11.238a27.96,27.96,0,0,1-6.439,6.078,21.9,21.9,0,0,0-3.28-3.4,24.323,24.323,0,0,0,9.079-10.56h-8.319v-3.718H746v-1.521H734.725v-3.479H746v-1.52H732.526v-3.72h7.039a22.612,22.612,0,0,0-2-3.079l4.119-1.6a15.5,15.5,0,0,1,2.88,4.359l-.76.319h9.238l-.719-.279a31.762,31.762,0,0,0,2.6-4.479l5.6,1.8c-.12.32-.48.44-1.08.44a25.414,25.414,0,0,1-2.039,2.52h7.319v3.72H750.963v1.52h11.678v3.479H750.963v1.521H766.88Zm-9.4,5.039H744v1.4h13.478Zm0,5.521v-1.44H744v1.44ZM744,10113.154h13.478v-1.52H744Z" fill="#009481"/>
      </g>
    </g>
    <rect id="Rectangle_89" data-name="Rectangle 89" width="290.148" height="60.131" transform="translate(841.5 2492.428)" fill="#009481" stroke="#009481" stroke-miterlimit="10" stroke-width="1.3"/>
    <rect id="Rectangle_90" data-name="Rectangle 90" width="290.148" height="144.578" transform="translate(841.5 2552.56)" fill="#fff" stroke="#008b80" stroke-miterlimit="10" stroke-width="1.3"/>
    <g id="Group_43" data-name="Group 43" transform="translate(-77.734 -7455.769)">
      <path id="Path_135" data-name="Path 135" d="M942.734,9973.548v-1.573h9.3v1.573Zm8.69,9.9v8.109h-5.931v1.3h-1.6v-9.407Zm-.11-7.614v1.516h-7.393v-1.516Zm-7.393,5.324v-1.519h7.393v1.519Zm7.31-12.911v1.517h-7.145v-1.517Zm-1.434,16.773h-4.3v4.966h4.3Zm18.732,1.82v1.573h-1.71v2.511c0,1.848-.8,1.958-4.746,1.958a5.305,5.305,0,0,0-.5-1.545c.827.028,1.6.056,2.152.056,1.214,0,1.351,0,1.351-.5v-2.482h-9.269v4.469h-1.628v-4.469h-1.9v-1.573h1.9v-7.118h5.352v-1.711H952.28V9976.5h4.165v-2.015H953.6v-1.434h2.841v-1.877h-3.393v-1.462h3.393v-2.455l2.235.165c-.028.166-.165.3-.524.359v1.931h4.69v-2.455l2.234.165c-.027.166-.165.3-.524.359v1.931h3.5v1.462h-3.5v1.877h2.98v1.434h-2.98v2.015h3.918v1.516h-7.339v1.711h5.684v7.118Zm-8.994-5.71h-3.724v2.234h3.724Zm-3.724,3.586v2.124h3.724v-2.124Zm2.345-13.546v1.877h4.69v-1.877Zm0,3.311v2.015h4.69v-2.015Zm6.924,6.649h-3.945v2.234h3.945Zm-3.945,5.71h3.945v-2.124h-3.945Z" fill="#fff"/>
      <path id="Path_136" data-name="Path 136" d="M995.707,9972.169H974.244v6.041c0,4.276-.359,10.512-2.621,14.76a7.4,7.4,0,0,0-1.572-1.049c2.179-4.028,2.372-9.656,2.372-13.711v-7.78h10.594v-3.172l2.455.165c-.027.193-.165.332-.551.386v2.621h10.786Zm-9.655,13.931v4.388h9.738v1.653H974.41v-1.653h9.821V9986.1h-7.808v-1.654h7.808V9973.3l2.345.137c-.028.194-.166.331-.524.387v10.622h8.055v1.654Zm-3.559-3.67a30.981,30.981,0,0,0-3.062-3.364,10.936,10.936,0,0,1-3.228,4.166,7.083,7.083,0,0,0-1.3-1.076c2.318-1.655,3.725-4.689,4.3-8.332l2.152.332c-.028.191-.193.3-.524.33a20.844,20.844,0,0,1-.8,3.063,31.759,31.759,0,0,1,3.614,3.67Zm12.249.608a43.108,43.108,0,0,0-4.194-4.056,10.3,10.3,0,0,1-3.172,3.808,6.713,6.713,0,0,0-1.242-1.049c2.29-1.545,3.725-4.414,4.332-7.918l2.124.358c-.055.194-.221.3-.524.331a17.236,17.236,0,0,1-.828,2.953,47,47,0,0,1,4.69,4.331Z" fill="#fff"/>
      <path id="Path_137" data-name="Path 137" d="M1001.174,9977.245a32.244,32.244,0,0,1-2.9,4.414,15.627,15.627,0,0,0-.91-1.794c2.373-2.869,4.662-7.669,6.069-12.442l2.18.69c-.083.191-.276.3-.635.3a54.749,54.749,0,0,1-2.124,5.462l.635.193c-.056.191-.194.3-.525.357v18.485h-1.793Zm4.276-6.732,2.18.139c-.028.165-.166.3-.524.358V9988.2h-1.656Zm17.822,1.407h-2.29a14.523,14.523,0,0,1-3.862,5.049,21.645,21.645,0,0,0,7.256,2.731,6.564,6.564,0,0,0-1.049,1.489,22.27,22.27,0,0,1-7.5-3.174,24.7,24.7,0,0,1-7.2,3.367,8.63,8.63,0,0,0-1.048-1.435,22.692,22.692,0,0,0,6.869-2.952,14.864,14.864,0,0,1-3.228-3.586,20.194,20.194,0,0,1-2.51,2.869,9.886,9.886,0,0,0-1.3-1.076,21.167,21.167,0,0,0,5.242-7.973l2.124.634a.563.563,0,0,1-.607.249c-.3.745-.662,1.517-1.048,2.262h10.152Zm.469,14.539a.541.541,0,0,1-.552.193c-2.648,3.007-7.917,5.075-13.876,6.124a6.378,6.378,0,0,0-.966-1.518c5.711-.854,10.87-2.7,13.408-5.573Zm-5.628-5.849a.489.489,0,0,1-.469.221,20.94,20.94,0,0,1-7.145,3.862,6.943,6.943,0,0,0-1.076-1.132,18.352,18.352,0,0,0,6.9-3.613Zm2.676,2.676a.536.536,0,0,1-.5.221c-1.987,1.986-5.711,3.808-9.435,4.828a7.154,7.154,0,0,0-1.021-1.27c3.586-.827,7.255-2.455,9.187-4.441Zm-8.58-11.366-.11.166a14.085,14.085,0,0,0,3.614,3.944,13.46,13.46,0,0,0,3.366-4.11Z" fill="#fff"/>
      <path id="Path_138" data-name="Path 138" d="M1047.747,9969.354l1.71,1.05a.742.742,0,0,1-.469.275,40.743,40.743,0,0,1-9.628,7.751V9990.4c0,1.323-.358,1.876-1.407,2.179a25.82,25.82,0,0,1-5.738.3,8.165,8.165,0,0,0-.772-1.876c1.517.056,2.951.083,3.945.083,1.793,0,2.041,0,2.041-.718v-13.6l1.186.056a33.665,33.665,0,0,0,6.953-5.518h-18.457v-1.821h20.277Z" fill="#fff"/>
      <path id="Path_139" data-name="Path 139" d="M1061.269,9978.072v4.221h6.263v1.765h-6.263v8.829h-1.793v-8.829h-6.345v-1.765h6.345v-4.221h-5.545v-1.738h5.545v-9.049l2.345.138c-.027.193-.193.332-.552.386v8.525h5.546v1.738Zm-5.738-9.214a27.126,27.126,0,0,1,2.207,5.627l-1.627.553a30.421,30.421,0,0,0-2.1-5.711Zm11.891.5c-.056.166-.276.248-.58.276a45.878,45.878,0,0,1-2.593,5.546s-1.435-.552-1.462-.552a38.164,38.164,0,0,0,2.51-5.959Zm1.241,1.271,2.345.138c-.028.192-.166.331-.524.386v14.9h-1.821Zm6.925-2.842,2.372.138c-.027.22-.165.331-.524.385v22.043c0,1.325-.386,1.905-1.214,2.207-.883.332-2.4.36-4.966.36a7.893,7.893,0,0,0-.717-1.877c1.021.028,1.959.028,2.731.028,2.207,0,2.318,0,2.318-.719Z" fill="#fff"/>
      <path id="Path_140" data-name="Path 140" d="M1094.462,9984.252v6.014a26.087,26.087,0,0,0,4.8.359c.966,0,5.821,0,7.09-.028a5.768,5.768,0,0,0-.717,1.876h-6.455c-5.932,0-10.236-1.021-12.8-5.959a14.33,14.33,0,0,1-4.331,6.483,8.758,8.758,0,0,0-1.407-1.214c3.034-2.234,4.634-6.455,5.269-11.614l2.372.386c-.055.193-.22.331-.551.331-.166,1.1-.387,2.18-.635,3.229a8.8,8.8,0,0,0,5.463,5.628V9977.6h-7.035v-1.765h16.221v1.765h-7.283v4.884h8.47v1.766Zm-10.649-11.891v4.166h-1.821V9970.6h10.539V9967.2l2.51.166c-.027.192-.193.331-.579.387v2.841h10.649v5.932h-1.9v-4.166Z" fill="#fff"/>
      <path id="Path_141" data-name="Path 141" d="M1132.262,9978.872h-9.325l.469.139a.594.594,0,0,1-.552.33c-.744,5.131-2.62,9.711-8.524,12.608a14.764,14.764,0,0,0-1.49-1.38c5.738-2.76,7.338-6.621,7.973-11.7h-10.732v-1.848h22.181Zm-2.731-7.779h-16.939v-1.849h16.939Z" fill="#fff"/>
      <path id="Path_142" data-name="Path 142" d="M1156.185,9970.872a.569.569,0,0,1-.359.3,42.63,42.63,0,0,1-5.517,9.49,101.6,101.6,0,0,1,10.1,9.352l-1.683,1.462a90.209,90.209,0,0,0-9.683-9.269,43.389,43.389,0,0,1-10.622,9.269,10.342,10.342,0,0,0-1.434-1.488,39.554,39.554,0,0,0,16.166-18.016H1139.6V9970.1h14.621l.359-.137Z" fill="#fff"/>
      <path id="Path_143" data-name="Path 143" d="M1184.108,9982.707a99.665,99.665,0,0,0-9.683-4.5V9992h-2.069V9968.03l2.786.166c-.027.3-.248.5-.717.579v8.056l.414-.58a95.672,95.672,0,0,1,10.373,4.607Z" fill="#fff"/>
    </g>
    <g id="Group_45" data-name="Group 45" transform="translate(-79.293 -7455.769)">
      <g id="Group_44" data-name="Group 44">
        <path id="Path_144" data-name="Path 144" d="M993.85,10040.554v3.879c0,.364,0,.772-.022,1.158h4.152v1.452h-4.266a18.7,18.7,0,0,1-.363,2.11c1.089,1.066,3.7,3.926,4.356,4.651l-1.021,1.248c-.726-1-2.541-3.132-3.743-4.47a12.361,12.361,0,0,1-4.629,6.217,5.323,5.323,0,0,0-1.021-1.113,11.625,11.625,0,0,0,4.946-8.644h-4.855v-1.452h4.969c.022-.409.022-.794.022-1.18v-3.857h-2.019a16,16,0,0,1-1.883,3.948,8.277,8.277,0,0,0-1.135-.794,21.292,21.292,0,0,0,2.723-7.715l1.815.454c-.045.158-.2.227-.476.227-.159.816-.363,1.633-.59,2.45h6.6v1.43Zm5.151-2.541h8.4v18.173h-1.543v-1.609H1000.5v1.859H999Zm1.5,15.111h5.355v-13.659H1000.5Z" fill="#009481"/>
        <path id="Path_145" data-name="Path 145" d="M1017.047,10039.85v1.271h-7.057v-1.271Zm-.545,9.258v6.648h-4.379v1.089h-1.248v-7.737Zm-.045-6.172v1.248h-5.537v-1.248Zm-5.537,4.334v-1.247h5.537v1.247Zm5.491-10.437v1.248h-5.377v-1.248Zm-1.2,13.545h-3.086v4.085h3.086Zm11.821-5.173c.068,1.86.182,3.562.341,5.015a18.358,18.358,0,0,0,1.633-4.04l1.475.728c-.045.136-.181.182-.386.182a18.775,18.775,0,0,1-2.428,5.082c.409,2.064,1.112,3.54,1.929,3.54.386,0,.681-1.476.885-3.336a3.559,3.559,0,0,0,.953.771c-.3,2.678-.84,4.017-1.883,4.017-1.407,0-2.36-1.361-2.927-3.585a16.26,16.26,0,0,1-3.9,3.4,5.379,5.379,0,0,0-.885-.885,14.753,14.753,0,0,0,4.447-4.13,56.9,56.9,0,0,1-.612-6.762h-8.963v-1.271h8.917c-.068-2.427-.113-5.1-.136-7.9l1.884.068c0,.182-.137.317-.454.363-.023,2.654,0,5.172.068,7.464h3.9v1.271Zm-2.133-6.625v1.225h-7.555v-1.225h3.131v-2.565l1.838.114c-.023.159-.137.272-.431.318v2.133Zm-.612,15.588h-5.06v1.293h-1.248v-8.917h6.308Zm-4.833-14.069a12.572,12.572,0,0,1,.749,3.382l-1.2.25a12.428,12.428,0,0,0-.681-3.382Zm3.517,7.624h-3.744v2.021h3.744Zm-3.744,5.265h3.744v-2.109h-3.744Zm5.082-12.639c-.045.137-.2.228-.453.228a29.147,29.147,0,0,1-1,3.313l-1.044-.317a28.093,28.093,0,0,0,.863-3.63Zm4.312-3.312a14.374,14.374,0,0,1,2.45,4.038l-1.271.566a14.086,14.086,0,0,0-2.359-4.129Z" fill="#009481"/>
        <path id="Path_146" data-name="Path 146" d="M1045.6,10046.544a2.337,2.337,0,1,1-2.337-2.337A2.334,2.334,0,0,1,1045.6,10046.544Z" fill="#009481"/>
        <path id="Path_147" data-name="Path 147" d="M1076.259,10044.3h-8.645a42.721,42.721,0,0,1-4.7,2.926l-.023.137a63.843,63.843,0,0,0,9.348-1.5l1.089,1.135a.34.34,0,0,1-.227.067.568.568,0,0,1-.181-.022,68.514,68.514,0,0,1-10.3,1.474c-.137.591-.3,1.182-.431,1.747h9.62l.34-.066.953.316a1.489,1.489,0,0,1-.158.409c-.522,3.471-1.044,4.992-1.77,5.627a3.18,3.18,0,0,1-2.315.545c-.726,0-1.792-.022-2.9-.091a2.9,2.9,0,0,0-.476-1.43c1.474.137,2.972.182,3.516.182a1.479,1.479,0,0,0,1-.227c.5-.409.93-1.521,1.316-3.972h-9.462q-.169.647-.34,1.158l-1.52-.228c.363-1.135.794-2.768,1.157-4.333-1.589.794-3.245,1.52-4.9,2.154a7.781,7.781,0,0,0-.908-1.111,53.466,53.466,0,0,0,6.217-2.769l.114-.589.794.09c.93-.521,1.838-1.065,2.745-1.633h-9.529v-1.362h8.009v-2.768h-6.058v-1.316h6.058v-2.858l1.952.136c-.023.159-.137.272-.454.318v2.4h5.99v.772a28.738,28.738,0,0,0,2.541-2.746l1.543.953a.6.6,0,0,1-.386.113.862.862,0,0,1-.227-.022,36.282,36.282,0,0,1-5.2,5.014h6.807Zm-11.072-1.362h2.019a36.969,36.969,0,0,0,3.4-2.768h-5.423Z" fill="#009481"/>
        <path id="Path_148" data-name="Path 148" d="M1087.612,10048.767a4.92,4.92,0,0,1,2.246-.521,2.053,2.053,0,0,1,2,2.313c0,.591-.068,1.294-.068,1.839,0,2.314,1.361,2.314,3.312,2.314a19.685,19.685,0,0,0,2.95-.2,15.61,15.61,0,0,0,.068,1.611c-.885.091-1.951.136-2.95.136a16.72,16.72,0,0,1-2.359-.136,2.866,2.866,0,0,1-2.587-2.791c0-.522.045-1.543.045-2.225,0-.952-.363-1.5-1.157-1.5a6.494,6.494,0,0,0-4.061,1.883c-1.316,1.293-3.79,3.789-4.561,4.7a12.919,12.919,0,0,0-1.225-1.2c2.155-2.2,9.28-9.121,11.594-11.367-1.656.158-6.807.453-9.393.59a.441.441,0,0,1-.363.249l-.136-1.815c3.176-.09,9.144-.385,11.435-.589l.341-.205,1.316,1.2a.923.923,0,0,1-.545.182c-1.43,1.338-4.22,3.9-5.9,5.514Zm5.695-9.075a49.471,49.471,0,0,0-9.711-1.521l.34-1.52a47.685,47.685,0,0,1,9.8,1.5Z" fill="#009481"/>
        <path id="Path_149" data-name="Path 149" d="M1121.631,10041.507h-11.685c-.091,1.271-.2,2.609-.386,3.948h8.1l.341-.046.907.159a2.944,2.944,0,0,1-.09.477c-.477,6.829-.931,9.371-1.838,10.278-.613.658-1.225.771-2.655.771-.817,0-1.951-.045-3.086-.113a3.642,3.642,0,0,0-.544-1.5c1.679.158,3.312.158,3.88.158.544,0,.839-.021,1.089-.25.7-.634,1.157-2.926,1.565-8.484h-7.919c-.771,4.038-2.564,7.985-7.328,10.256a4.633,4.633,0,0,0-1.089-1.227c6.421-2.9,7.124-9.029,7.4-14.43H1101.1v-1.475h9.393v-4.084l2.02.136c-.023.159-.159.272-.454.317v3.631h9.575Z" fill="#009481"/>
        <path id="Path_150" data-name="Path 150" d="M1143.512,10045.727a.317.317,0,0,1-.137.046.572.572,0,0,1-.34-.137c-1.724.567-4.243,1.5-6.126,2.314q.067.782.068,1.771c0,.726-.023,1.542-.068,2.428l-1.657.091c.068-.817.114-1.861.114-2.746,0-.34,0-.657-.023-.907-2.564,1.248-4.651,2.768-4.651,4.13,0,1.315,1.565,1.951,4.7,1.951a51.051,51.051,0,0,0,5.695-.227l.022,1.52c-1.338.137-3.38.181-5.717.181-4.357,0-6.286-1.044-6.286-3.357,0-2,2.633-3.925,6.036-5.627-.136-1.43-.771-2.133-1.679-2.133-1.656,0-3.381.931-5.423,3.2-.635.705-1.52,1.589-2.5,2.475l-1.112-1.112c2.269-2,4.4-3.9,5.718-8.372l-1.27.022h-3.79v-1.475c1.385.022,2.995.022,3.926.022l1.543-.022a29.708,29.708,0,0,0,.612-3.246l2.224.273c-.045.227-.227.363-.567.408-.159.907-.363,1.7-.568,2.519a31.067,31.067,0,0,0,7.806-1.315l.272,1.521a34.251,34.251,0,0,1-8.509,1.271,16.508,16.508,0,0,1-1.633,3.834h.022a6.034,6.034,0,0,1,3.653-1.475c1.543,0,2.519,1.112,2.814,2.95,1.906-.863,4.311-1.793,6.126-2.5Z" fill="#009481"/>
      </g>
    </g>
    <g id="Group_47" data-name="Group 47" transform="translate(-80.482 -7455.769)">
      <g id="Group_46" data-name="Group 46">
        <path id="Path_151" data-name="Path 151" d="M1062.476,10107.555h-13.238c2.88,3.28,7.439,5.159,13.878,5.838a17.643,17.643,0,0,0-2.84,4.2c-7.6-1.2-12.438-4-15.6-8.959-2.4,3.6-6.919,6.758-15.238,9a19.6,19.6,0,0,0-2.959-3.88c7.039-1.6,10.958-3.759,13.118-6.2h-12.438v-4.08h14.6a11.982,11.982,0,0,0,.32-2.039h-9.8v-3.88h9.878v-1.919H1031v-2.759h-3.239v-8.679h14.4v-4.4l6.039.32c-.04.4-.32.64-1.08.76v3.319H1061.8v8.679h-3.04v2.759H1047v1.919h10.4v3.88h-10.439a17.659,17.659,0,0,1-.24,2.039h15.758Zm-29.955-15.8h9.638v-2.84l5.919.32c-.04.4-.36.68-1.08.76v1.76h9.8v-3.359h-24.276Z" fill="#009481"/>
        <path id="Path_152" data-name="Path 152" d="M1079.56,10109.035c1.48-.36,3-.682,4.479-1.04l.48,3.959c-5.119,1.4-10.478,2.8-13.958,3.68a.977.977,0,0,1-.639.719l-1.76-4.879,1.8-.359v-13.6l4.719.281c-.04.319-.28.56-.92.639v11.879l1.6-.359v-15.317H1070.2v-13.278h13.237v13.278h-3.879v4.759h4.4v4.158h-4.4Zm-5.359-23.637v5.2h4.959v-5.2Zm22.156,17.076c.24,1.241.52,2.44.8,3.521a19.766,19.766,0,0,0,3.2-3.44l4.8,1.96a1.12,1.12,0,0,1-1.04.441,26.2,26.2,0,0,1-5.359,5.358c.84,1.64,1.8,2.56,2.8,2.56.96,0,1.44-1.2,1.64-4.759a10.357,10.357,0,0,0,3.4,2.759c-.8,5.279-2.079,6.68-5.159,6.68-1.359,0-4.079-.161-6.559-4.6a49.556,49.556,0,0,1-9.478,4.239,16.668,16.668,0,0,0-2.84-4,42.453,42.453,0,0,0,10.559-4.319,51.153,51.153,0,0,1-1.48-5.919l-6.679.68-.44-4.12,6.479-.639c-.12-.761-.2-1.521-.28-2.28l-4.719.48-.44-4,4.759-.48-.12-2.12-5.359.521-.44-4.119,5.6-.521q-.12-3.239-.12-6.479l6,.32c-.04.4-.36.68-1.16.8-.04,1.64-.04,3.24,0,4.88l5.6-.521a41.942,41.942,0,0,0-4.44-2.8l2.64-2.839a32.461,32.461,0,0,1,5.519,3.359l-1.8,2.12,1.96-.2.4,4.039-9.719.96c.04.72.08,1.438.16,2.159l8.279-.84.44,3.92-8.359.88c.08.76.16,1.56.28,2.279l9.919-.961.48,4.039Z" fill="#009481"/>
      </g>
    </g>
    <g id="Group_49" data-name="Group 49" transform="translate(-548.309 -6985.647)">
      <g id="Group_48" data-name="Group 48">
        <path id="Path_153" data-name="Path 153" d="M1481.346,10008.8c2.069-.248,4.3-.55,6.483-.854l.11,2.786c-2.234.414-4.551.828-6.593,1.187v4.634h-3.172v-4.109l-.69.108a.671.671,0,0,1-.469.471l-1.131-3.56,2.29-.248v-16.607l1.848.579a25.43,25.43,0,0,0,5.545-2.621l2.924,2.456c-.138.138-.386.138-.717.138a36.087,36.087,0,0,1-6.428,2.455v1.931h5.546v3.089h-5.546v2.291h5.794v3.063h-5.794Zm17.408-6.1,2.1.772c-.054.221-.192.3-.331.441a18.183,18.183,0,0,1-3.779,7.339,17.271,17.271,0,0,0,5.711,2.317,13.39,13.39,0,0,0-2.152,2.979,17.149,17.149,0,0,1-6.07-3.006,20.442,20.442,0,0,1-5.986,3.062,12.091,12.091,0,0,0-1.793-2.9,17.781,17.781,0,0,0,5.435-2.483,19.092,19.092,0,0,1-2.9-4.966l1.766-.469H1488.1v-3.007h.607a12.028,12.028,0,0,0-1.987-1.849,5.39,5.39,0,0,0,2.815-5.324v-4.056h9.049v6.538c0,.855,0,.938.358.938.607,0,.69,0,.8-.083.249-.138.276-.359.331-2.732a7.7,7.7,0,0,0,2.456,1.3c-.111,2.289-.221,4.166-2.9,4.166h-1.517c-2.621,0-2.621-2.1-2.621-3.559v-3.67h-2.9v1.242c0,2.428-.5,5.241-3.062,7.09h8.662Zm-6.732,3.09a12.374,12.374,0,0,0,2.207,3.339,13.112,13.112,0,0,0,2.235-3.339Z" fill="#009481"/>
        <path id="Path_154" data-name="Path 154" d="M1513.16,9991.646l2.069,1.048a.7.7,0,0,1-.249.414c-.579,2.207-1.434,5.158-2.207,7.365a8.435,8.435,0,0,1,2.29,5.462c0,4.084-2.262,4.443-4.717,4.332a7.233,7.233,0,0,0-.662-2.73c.441.027.882.027,1.186.027.855,0,1.214-.413,1.214-1.931a7.719,7.719,0,0,0-2.124-4.8c.524-1.766,1.1-4.221,1.517-6.124h-2.1v21.9h-2.869v-24.856h6.152Zm8.993,6.868.249,2.429c-2.456.718-4.966,1.406-6.649,1.849a.531.531,0,0,1-.386.469l-1.324-3.2c.552-.083,1.158-.191,1.82-.3v-8.883l3.642.221c-.028.248-.221.387-.69.469v2.428h3.2v2.594h-3.2v2.593Zm-2.234,6.208a28.373,28.373,0,0,0,.745-2.924l3.917.965a.772.772,0,0,1-.745.332c-.22.5-.469,1.047-.744,1.627h6.427v11.752h-3.2v-.8h-7.007v.91h-3.062v-11.863Zm6.4,4.194v-1.463h-7.007v1.463Zm-7.007,4.027h7.007v-1.518h-7.007Zm6.372-14.1c0,.828.083.938.69.938h1.684c.551,0,.662-.331.744-2.4a7.881,7.881,0,0,0,2.621,1.159c-.3,3.09-1.076,3.944-3.034,3.944h-2.511c-2.593,0-3.173-.827-3.173-3.614v-8.027l3.669.221c-.027.248-.22.414-.69.5v2.786a16.3,16.3,0,0,0,3.063-1.9l2.262,2.29a.877.877,0,0,1-.607.11,26.181,26.181,0,0,1-4.718,2.152Z" fill="#009481"/>
        <path id="Path_155" data-name="Path 155" d="M1557.939,9995.315l1.739.11c0,.249-.028.717-.056,1.048-.331,12.691-.634,17.105-1.71,18.512-.883,1.241-1.849,1.6-4.552,1.6-.662,0-1.407-.028-2.125-.028a7.749,7.749,0,0,0-1.02-3.172c1.6.11,3.062.138,3.752.138a1.276,1.276,0,0,0,1.1-.5c.745-.855,1.1-4.828,1.352-14.622h-5.572a25.263,25.263,0,0,1-1.711,3.891l2.455-1.049a22.6,22.6,0,0,1,3.09,6.4l-3.035,1.324a23.71,23.71,0,0,0-2.731-6.263c-.331.552-.662,1.049-.993,1.517a16.676,16.676,0,0,0-1.987-1.9v9.9H1538.9v1.958h-3.035v-18.979h2.842a37.428,37.428,0,0,0,1.02-4.662l4.056.855c-.11.248-.331.358-.745.386a35.144,35.144,0,0,1-1.241,3.421h4.137v6.125c1.683-2.594,2.9-6.732,3.532-10.76l3.918.883a.67.67,0,0,1-.718.387c-.248,1.158-.524,2.344-.827,3.5h5.379Zm-15.118,6.842v-4H1538.9v4Zm-3.917,7.118h3.917v-4.222H1538.9Z" fill="#009481"/>
        <path id="Path_156" data-name="Path 156" d="M1571.628,9992.75c-.055.3-.3.5-.856.524a66.321,66.321,0,0,0-1.462,12.139,25.282,25.282,0,0,0,.194,3.89c.331-.8,1.407-3.146,1.765-4.028l1.628,2.539a49.718,49.718,0,0,0-2.29,4.772,4.737,4.737,0,0,0-.22,1.324,3.7,3.7,0,0,0,.137.966l-3.476.523a32.709,32.709,0,0,1-1.269-9.849,95.115,95.115,0,0,1,1.3-13.436Zm16.553,20.608c-1.021.055-2.124.082-3.173.082a37.774,37.774,0,0,1-4.69-.248c-3.835-.523-5.38-2.565-5.38-4.91a8.651,8.651,0,0,1,2.373-5.49l3.31,1.131a5.609,5.609,0,0,0-2.041,3.862c0,2.068,2.483,2.29,5.766,2.29a36.058,36.058,0,0,0,3.945-.193Zm-12.608-17.85a95.9,95.9,0,0,0,11.67-1.021l.3,3.421a102.746,102.746,0,0,1-11.862.938Z" fill="#009481"/>
        <path id="Path_157" data-name="Path 157" d="M1453.558,10042.8a.837.837,0,0,1-.5.47,44.64,44.64,0,0,1-5.159,9.132,111.068,111.068,0,0,1,9.215,8.5l-3.062,2.7a87.555,87.555,0,0,0-8.415-8.469,45.275,45.275,0,0,1-9.766,8.442,17.769,17.769,0,0,0-2.565-2.648,35.763,35.763,0,0,0,14.952-16.111h-12.442v-3.311h14.428l.58-.194Z" fill="#009481"/>
        <path id="Path_158" data-name="Path 158" d="M1485.73,10051.548l-8.663.027.552.166a.669.669,0,0,1-.634.357c-.745,4.525-2.51,9.021-8.3,11.918a25.757,25.757,0,0,0-2.676-2.373c5.434-2.758,6.759-5.93,7.283-10.1h-9.849v-3.229h22.291Zm-2.814-7.643h-16.939v-3.228h16.939Z" fill="#009481"/>
        <path id="Path_159" data-name="Path 159" d="M1496.963,10047a32.459,32.459,0,0,1,1.959,5.85l-2.676.744a32.07,32.07,0,0,0-1.876-5.849Zm16.056.635a.641.641,0,0,1-.69.359c-2.262,8.138-6.538,12.938-12.828,15.477a12.131,12.131,0,0,0-1.876-2.18c5.9-2.207,10.042-6.594,11.891-14.787Zm-9.462-1.793a35.613,35.613,0,0,1,1.324,6.069l-2.815.579a35.985,35.985,0,0,0-1.351-6.1Z" fill="#009481"/>
        <path id="Path_160" data-name="Path 160" d="M1522.624,10042.885h17.243l.248-.138,3.063,2.18a1.838,1.838,0,0,1-.5.385c-2.456,10.319-7.145,15.313-15.587,18.622a17.521,17.521,0,0,0-2.207-2.9c7.476-2.787,12.138-7.587,13.573-14.787h-15.836Zm21.133-4.606a2.979,2.979,0,0,1,0,5.959,2.979,2.979,0,1,1,0-5.959Zm1.931,2.979a1.931,1.931,0,1,0-1.931,1.932A1.919,1.919,0,0,0,1545.688,10041.257Z" fill="#009481"/>
        <path id="Path_161" data-name="Path 161" d="M1574.218,10042.388a.8.8,0,0,1-.552.414,29.146,29.146,0,0,1-5.82,8.911,20.068,20.068,0,0,0-3.09-1.876,15.857,15.857,0,0,0,4.083-5.435h-17.85v-3.283h19.863l.387-.248Zm-10.538,5.353c-.028.275-.3.5-.746.579-.689,6.042-2.979,12.277-8.524,15.614a25.854,25.854,0,0,0-3.007-2.207c5.241-2.813,7.394-8.275,7.78-14.455Z" fill="#009481"/>
        <path id="Path_162" data-name="Path 162" d="M1584.706,10047a32.307,32.307,0,0,1,1.959,5.85l-2.676.744a31.919,31.919,0,0,0-1.876-5.849Zm16.057.635a.641.641,0,0,1-.69.359c-2.263,8.138-6.538,12.938-12.828,15.477a12.17,12.17,0,0,0-1.876-2.18c5.9-2.207,10.042-6.594,11.89-14.787Zm-9.463-1.793a35.625,35.625,0,0,1,1.324,6.069l-2.814.579a35.893,35.893,0,0,0-1.352-6.1Z" fill="#009481"/>
        <path id="Path_163" data-name="Path 163" d="M1610.368,10042.885h17.242l.248-.138,3.063,2.18a1.822,1.822,0,0,1-.5.385c-2.455,10.319-7.145,15.313-15.587,18.622a17.534,17.534,0,0,0-2.207-2.9c7.476-2.787,12.138-7.587,13.573-14.787h-15.835Zm21.132-4.606a2.979,2.979,0,0,1,0,5.959,2.979,2.979,0,1,1,0-5.959Zm1.931,2.979a1.931,1.931,0,1,0-1.931,1.932A1.919,1.919,0,0,0,1633.431,10041.257Z" fill="#009481"/>
        <path id="Path_164" data-name="Path 164" d="M1462.915,10090.51c.855,0,2.124-.027,2.9-.083,3.173-.221,15.091-.966,19.753-1.187l.056,3.725a8.151,8.151,0,0,0-5.987,1.683c-3.034,2.015-6.786,5.821-6.786,8.967s2.786,4.966,8.828,5.6l-1.711,3.449c-7.835-.939-10.925-4.249-10.925-9.022,0-3.365,3.09-7.724,7.228-10.621-3.42.3-9.793.8-12.332,1.076-.054.221-.413.414-.662.47Zm18.429,6.565a18.43,18.43,0,0,1,3.365,3.725l-1.627,1.3a19.032,19.032,0,0,0-3.256-3.779Zm3.283-2.455a15.606,15.606,0,0,1,3.365,3.7l-1.6,1.269a19.485,19.485,0,0,0-3.283-3.752Z" fill="#009481"/>
        <path id="Path_165" data-name="Path 165" d="M1514.84,10098.1a38.661,38.661,0,0,1-7.642,1.489,9.629,9.629,0,0,0,4.056,3.421l-1.931,2.7a6.728,6.728,0,0,0-4.276-1.187,9.342,9.342,0,0,0-1.518.11l-.827-2.538c.358-.027.8-.056,1.241-.056s.883.028,1.214.056a11.479,11.479,0,0,1-1.49-2.152c-2.014.139-4.193.193-5.931.193-1.352,0-3.339,0-5.049-.055l-.055-2.9c1.1.029,2.427.057,3.669.057,2.125,0,4.249,0,6.373-.139-.193-.661-.552-1.765-.773-2.676-.91.083-2.124.11-3.172.11-1.517,0-3.007,0-4.359-.055l.027-2.926c1.463.083,2.925.083,4.194.083.828,0,1.931,0,2.759-.083-.221-1.13-.414-2.62-.58-3.917l4.387.083c0,.332-.276.58-.745.663.083.882.193,1.986.358,2.923a31.273,31.273,0,0,0,6.953-1.379l.662,2.952a35.686,35.686,0,0,1-7.035,1.3c.249.938.5,1.986.717,2.675a37.412,37.412,0,0,0,8.194-1.765Zm-4.883,13.958a41.816,41.816,0,0,1-4.386.194c-.635,0-1.325-.027-2.1-.027-4.773-.056-8.083-1.684-8.083-4.855,0-1.738,1.407-3.421,3.007-4.414l2.289,2.124a2.872,2.872,0,0,0-1.765,2.124c0,1.9,3.173,1.985,5.132,1.985a59.091,59.091,0,0,0,6.069-.3Z" fill="#009481"/>
        <path id="Path_166" data-name="Path 166" d="M1531.508,10098.676a14.524,14.524,0,0,1,5.269-1.021c4.194,0,7.09,2.565,7.09,6.9,0,4.938-4.3,7.808-10.318,7.808-3.559,0-6.069-1.628-6.069-4.414,0-2.234,2.262-4.057,4.855-4.057a5.562,5.562,0,0,1,5.6,4.36,3.979,3.979,0,0,0,2.29-3.67c0-2.372-1.958-3.89-4.745-3.89a13.943,13.943,0,0,0-9.186,3.421c-.662.607-1.766,1.711-2.484,2.511l-2.455-2.455c1.959-1.959,8.912-8.553,12.608-11.974-1.352.193-6.124.441-8.331.579a1.021,1.021,0,0,1-.662.413l-.3-3.889c3.531,0,11.311-.3,13.132-.607l.414-.192,2.234,2.813a1.392,1.392,0,0,1-.8.3c-1.434,1.048-5.876,5.021-8.138,7.035Zm1.462,10.676a10.2,10.2,0,0,0,1.683-.166,2.768,2.768,0,0,0-2.594-2.51c-.91,0-1.738.469-1.738,1.27C1530.321,10109.242,1532.059,10109.352,1532.97,10109.352Z" fill="#009481"/>
        <path id="Path_167" data-name="Path 167" d="M1549.224,10094.455v-2.621h9.656v2.621Zm8.939,9.159v8.469h-5.077v1.049h-2.731v-9.518Zm-.111-7.78v2.483h-7.614v-2.483Zm-7.614,6.373v-2.511h7.614v2.511Zm7.5-14.208v2.511H1550.6V10088Zm-2.538,18.235h-2.318v3.2h2.318Zm20.029.249v2.593h-1.739v1.159c0,2.593-1.131,2.924-5.379,2.924a9.409,9.409,0,0,0-.745-2.565c1.048.055,2.318.055,2.649.055.358-.027.468-.11.468-.441v-1.131h-7.228v4.083h-2.786v-4.083h-1.766v-2.593h1.766v-6.952h4.966v-.993h-6.732v-2.511h3.614v-1.214h-2.4v-2.29h2.4v-1.076h-2.9v-2.372h2.9v-1.959l3.642.221c-.027.248-.221.386-.689.468v1.271h3.227v-1.959l3.669.221c-.027.248-.221.386-.689.5v1.241h3.117v2.372h-3.117v1.076h2.538v2.29h-2.538v1.214h3.641v2.511h-6.952v.993h5.324v6.952Zm-9.794-4.663h-2.18v1.3h2.18Zm-2.18,3.339v1.324h2.18v-1.324Zm2.015-13.712v1.076h3.227v-1.076Zm0,3.366v1.214h3.227v-1.214Zm5.213,7.007h-2.317v1.3h2.317Zm-2.317,4.663h2.317v-1.324h-2.317Z" fill="#009481"/>
        <path id="Path_168" data-name="Path 168" d="M1583.768,10093.048v4.524c0,4.469-.386,11.339-2.758,15.7a12.951,12.951,0,0,0-2.842-1.848c2.18-4,2.373-9.793,2.373-13.876v-7.56h10.1v-2.843l4.193.222c-.027.275-.221.44-.745.552v2.069h10.125v3.063Zm11.67,13.959v2.648h8.883v2.842h-20.856v-2.842h8.773v-2.648h-6.869v-2.869h6.869v-3.118l-1.545,1.85a19.757,19.757,0,0,0-2.179-2.428,8.658,8.658,0,0,1-2.594,2.951,12.479,12.479,0,0,0-2.262-1.848c2.262-1.407,3.311-4.083,3.669-7.339l3.5.441a.6.6,0,0,1-.607.413,20.2,20.2,0,0,1-.58,2.7,32.438,32.438,0,0,1,2.594,2.539v-6.457l3.917.222c-.027.248-.221.441-.717.5v6.234c1.71-1.49,2.649-3.835,3.035-6.594l3.448.552c-.055.22-.276.359-.634.386a19.583,19.583,0,0,1-.662,2.566,50.552,50.552,0,0,1,3.917,3.366l-1.959,2.289c-.717-.8-1.958-1.932-3.172-3.007a9.343,9.343,0,0,1-2.566,2.814,13.552,13.552,0,0,0-1.407-1.3v2.262h7.338v2.869Z" fill="#009481"/>
      </g>
    </g>
    <path id="Path_170" data-name="Path 170" d="M951.868,10080.617l-18.166-14.2v7.335H843.824v13.735H933.7v7.335Z" transform="translate(11066.819 1525.285) rotate(90)" fill="#009481"/>
    <g id="Group_53" data-name="Group 53" transform="translate(2785.73 855.354) rotate(90)">
      <path id="Path_169" data-name="Path 169" d="M617.48,10059.99l-18.166-14.2v7.334H509.436v13.736h89.878v7.335Z" transform="translate(591.794 -8280.717)" fill="#009481"/>
      <path id="Path_171" data-name="Path 171" d="M509.436,10101.244l16.557,14.2v-7.335H617.48v-13.735H525.993v-7.335Z" transform="translate(591.794 -8280.717)" fill="#009481"/>
    </g>
    <g id="Group_50" data-name="Group 50" transform="translate(591.82 -8280.717)">
      <path id="Path_172" data-name="Path 172" d="M312.92,10188.28H310.4c-.085,1.241-.187,2.244-.306,3.043h2.363v1.02h-2.516c-.459,2.261-1.173,2.379-2.584,2.379-.51,0-1.138-.016-1.767-.066a2.211,2.211,0,0,0-.289-.936c1,.1,1.887.119,2.261.119.611,0,.917-.239,1.206-1.5h-8.516c-.085.392-.153.766-.221,1.087l-1.139-.066c.289-1.326.629-3.18.935-5.083H297.18v-1.055H300c.2-1.358.408-2.7.544-3.876h9.281l.272-.032.629.085a3.041,3.041,0,0,1-.051.356q-.1,1.964-.2,3.467h2.448Zm-.867-6.578h-10.93a15.328,15.328,0,0,1-2.6,3.043,3.849,3.849,0,0,0-.934-.7,13.642,13.642,0,0,0,3.739-5.15c1.139.153,1.309.188,1.462.2-.017.137-.136.2-.34.222-.187.425-.425.867-.68,1.326h10.284Zm-7.989,9.621c.136-.884.289-1.937.408-3.043h-3.519c-.17,1.055-.34,2.107-.51,3.043Zm.544-4.1c.1-.984.2-1.971.272-2.854h-3.332c-.136.9-.289,1.887-.425,2.854Zm.918,1.055c-.136,1.105-.272,2.176-.391,3.043h3.824c.119-.782.238-1.769.323-3.043Zm.442-3.909c-.085.9-.2,1.87-.306,2.854h3.705c.051-.849.119-1.8.17-2.854Z" fill="#231815"/>
      <path id="Path_173" data-name="Path 173" d="M314.962,10182.773v-.969h5.728v.969Zm5.354,6.1v5h-3.654v.8h-.986v-5.8Zm-.068-4.692v.936h-4.555v-.936Zm-4.555,3.281v-.935h4.555v.935Zm4.5-7.955v.935h-4.4v-.935Zm-.884,10.335h-2.651v3.06h2.651Zm11.542,1.121v.969H329.8v1.548c0,1.139-.493,1.206-2.924,1.206a3.277,3.277,0,0,0-.306-.951c.51.017.986.034,1.326.034.748,0,.833,0,.833-.307v-1.53h-5.711v2.754h-1v-2.754h-1.173v-.969h1.173v-4.385h3.3v-1.055h-4.471v-.935h2.567v-1.242h-1.751v-.882h1.751v-1.157h-2.091v-.9h2.091v-1.513l1.377.1c-.017.1-.1.187-.323.222v1.189h2.889v-1.513l1.377.1c-.017.1-.1.187-.323.222v1.189h2.159v.9h-2.159v1.157h1.836v.882h-1.836v1.242h2.414v.935H326.3v1.055h3.5v4.385Zm-5.541-3.518h-2.295v1.376h2.295Zm-2.295,2.209v1.309h2.295v-1.309Zm1.445-8.347v1.157h2.889v-1.157Zm0,2.039v1.242h2.889v-1.242Zm4.266,4.1H326.3v1.376h2.431Zm-2.431,3.518h2.431v-1.309H326.3Z" fill="#231815"/>
      <path id="Path_174" data-name="Path 174" d="M348.45,10181.923H335.225v3.722c0,2.636-.221,6.478-1.614,9.1a4.613,4.613,0,0,0-.969-.646c1.342-2.481,1.461-5.95,1.461-8.449v-4.793h6.528v-1.954l1.512.1c-.016.119-.1.205-.339.238v1.614h6.646Zm-5.95,8.585v2.7h6v1.019H335.327v-1.019h6.052v-2.7h-4.811v-1.021h4.811v-6.867l1.444.085c-.016.119-.1.2-.323.238v6.544h4.964v1.021Zm-2.192-2.261a19,19,0,0,0-1.887-2.074,6.744,6.744,0,0,1-1.989,2.566,4.327,4.327,0,0,0-.8-.662,7.6,7.6,0,0,0,2.652-5.134l1.326.2c-.017.118-.119.187-.323.2a12.811,12.811,0,0,1-.493,1.889,19.427,19.427,0,0,1,2.227,2.261Zm7.547.373a26.623,26.623,0,0,0-2.584-2.5,6.349,6.349,0,0,1-1.955,2.346,4.071,4.071,0,0,0-.765-.646,7.166,7.166,0,0,0,2.669-4.878l1.309.221c-.034.119-.136.186-.323.2a10.582,10.582,0,0,1-.51,1.817,29.117,29.117,0,0,1,2.89,2.67Z" fill="#231815"/>
      <path id="Path_175" data-name="Path 175" d="M353.041,10186.887a23.048,23.048,0,0,1-1.954,2.04c-.136-.221-.442-.714-.629-.953a20.625,20.625,0,0,0,4.266-5.285l1.258.526c-.051.1-.187.153-.374.135a25.6,25.6,0,0,1-1.445,2.125l.306.1a.41.41,0,0,1-.34.221v8.89h-1.088Zm2.431-7.479a.342.342,0,0,1-.357.137,23.825,23.825,0,0,1-3.841,4.063,6.34,6.34,0,0,0-.663-.851,16.58,16.58,0,0,0,3.569-3.858Zm8.567,8.584.782.374a.452.452,0,0,1-.17.152,9.608,9.608,0,0,1-2.906,3.485,15.483,15.483,0,0,0,4.9,1.734,3.992,3.992,0,0,0-.7.984,15.611,15.611,0,0,1-5.134-2.09,16.645,16.645,0,0,1-5.2,2.09,5.769,5.769,0,0,0-.578-.984,15.655,15.655,0,0,0,4.845-1.768,10.891,10.891,0,0,1-2.176-2.245,15.522,15.522,0,0,1-2.074,1.581,5.216,5.216,0,0,0-.714-.8,14.761,14.761,0,0,0,4.284-3.961l-3.519.119a.306.306,0,0,1-.255.237l-.374-1.291,2.652-.053c.391-.3.782-.629,1.19-.984a22.525,22.525,0,0,0-3.315-2.907l.714-.731c.323.222.663.477,1.02.748a19.586,19.586,0,0,0,2.227-2.8l1.224.646a.422.422,0,0,1-.374.136,27.119,27.119,0,0,1-2.346,2.618,18.793,18.793,0,0,1,1.666,1.547,42.273,42.273,0,0,0,3.382-3.569l1.241.663a.423.423,0,0,1-.391.118,49.962,49.962,0,0,1-4.708,4.487c1.58-.033,3.314-.067,5.031-.118-.442-.562-.918-1.105-1.377-1.581l.884-.51a19.653,19.653,0,0,1,2.941,3.672l-.952.577a9.869,9.869,0,0,0-.8-1.24c-1.445.051-2.94.118-4.351.17l.17.067c-.051.1-.187.153-.374.137a12.5,12.5,0,0,1-1.037,1.343h4.47Zm-5.524.97-.1.1a9.377,9.377,0,0,0,2.38,2.329,8.452,8.452,0,0,0,2.362-2.43Z" fill="#231815"/>
      <path id="Path_176" data-name="Path 176" d="M372.4,10180.155c-.051.188-.221.289-.561.272a40.766,40.766,0,0,0-.9,7.649,18.734,18.734,0,0,0,.221,3.365c.323-.833,1.054-2.618,1.292-3.214l.714.748c-.7,1.718-1.207,2.687-1.445,3.452a2.906,2.906,0,0,0-.136.8,1.8,1.8,0,0,0,.085.527l-1.207.221a18.653,18.653,0,0,1-.748-5.847,49.734,49.734,0,0,1,.9-8.279Zm10.828,12.426c-.612.034-1.241.051-1.87.051a23.376,23.376,0,0,1-3.161-.187c-2.091-.307-3.06-1.462-3.06-2.821a5.191,5.191,0,0,1,1.6-3.281l1.1.477a4.017,4.017,0,0,0-1.444,2.668c0,1.972,2.889,1.972,4.657,1.972.714,0,1.479-.034,2.193-.085Zm-7.87-10.386a55.671,55.671,0,0,0,7.411-.646l.1,1.189a64.194,64.194,0,0,1-7.479.629Z" fill="#231815"/>
      <path id="Path_177" data-name="Path 177" d="M392.736,10181.022H389.71a38.253,38.253,0,0,1-.9,4.113h3.332v7.395h-3.349v1.394h-.986v-6a11.617,11.617,0,0,1-1.07,1.87,8.944,8.944,0,0,0-.6-1.021c1.207-1.718,2.005-4.657,2.447-7.751h-2.073v-1.054h6.221Zm-1.6,10.488v-5.354h-2.346v5.354Zm11.066,1.461v.986h-7.02v.833h-1.071v-7.581a9.9,9.9,0,0,1-1.275,1.258,7.158,7.158,0,0,0-.629-.953,13.353,13.353,0,0,0,3.689-5.574h-2.074v2.107h-1v-3.111h3.434c.22-.662.408-1.359.577-2.073l1.411.322c-.034.137-.17.2-.391.2-.136.527-.289,1.038-.441,1.547h4.538v3.111h-1.054v-2.107H397.07a20.275,20.275,0,0,1-1.376,3.009H397.7a18.365,18.365,0,0,0,.867-2.295l1.309.407c-.034.1-.153.153-.34.153-.187.493-.476,1.156-.765,1.734h2.992v1h-3.145v1.717h2.737v.918h-2.737v1.733h2.737v.918h-2.737v1.733Zm-4.658-5.3v-1.717h-2.362v1.717Zm0,2.651v-1.733h-2.362v1.733Zm-2.362.918v1.733h2.362v-1.733Z" fill="#231815"/>
      <path id="Path_178" data-name="Path 178" d="M410.331,10181.77v.952h-6.119v-.952Zm-.476,6.937v5h-3.91v.8h-.985v-5.8Zm-.017-4.624v.934h-4.862v-.934Zm-4.862,3.247v-.937h4.862v.937Zm4.794-7.819v.935h-4.709v-.935Zm-.918,10.165h-2.907v3.06h2.907Zm3.536-.051a7.425,7.425,0,0,1-1.5,4.045l-.867-.578a6.583,6.583,0,0,0,1.411-3.723Zm2.974-9.078a17.094,17.094,0,0,1-.56,2.278,16.8,16.8,0,0,1,2.09,1.207l-.578.9a16.837,16.837,0,0,0-1.9-1.172,6.73,6.73,0,0,1-3.162,3.264,3.552,3.552,0,0,0-.714-.815,6.133,6.133,0,0,0,2.941-2.924,21.435,21.435,0,0,0-2.3-.969l.561-.816c.68.238,1.394.527,2.108.85a11.6,11.6,0,0,0,.442-1.8h-2.975v-.986h7.156l.493-.016.612.067c-.1.663-.1,5.729-.8,6.511-.408.492-.833.492-1.632.492-.425,0-.952-.018-1.479-.051a2.155,2.155,0,0,0-.306-1c.9.069,1.275.069,2.04.069a.5.5,0,0,0,.442-.17c.289-.34.459-1.581.6-4.913Zm-1.155,12.393c0,.391.068.459.56.459h1.667c.441,0,.526-.222.56-1.922a3.783,3.783,0,0,0,.969.426c-.1,2.022-.408,2.516-1.428,2.516h-1.9c-1.206,0-1.5-.323-1.5-1.479v-4.08l1.394.1c-.017.1-.119.187-.323.22Zm2.142-3.451a13.5,13.5,0,0,0-3.026-2.414l.731-.662a13.824,13.824,0,0,1,3.059,2.346Zm2.906,4.147a11.988,11.988,0,0,0-1.887-4.13l.935-.374a12.339,12.339,0,0,1,1.989,4.079Z" fill="#231815"/>
      <path id="Path_179" data-name="Path 179" d="M436.833,10186.054h-5.745l.289.084a.364.364,0,0,1-.34.205c-.459,3.162-1.615,5.983-5.253,7.769a8.926,8.926,0,0,0-.918-.851c3.536-1.7,4.522-4.08,4.913-7.207h-6.613v-1.139h13.667Zm-1.683-4.793H424.713v-1.14H435.15Z" fill="#231815"/>
      <path id="Path_180" data-name="Path 180" d="M452.422,10181.124a.349.349,0,0,1-.221.187,26.341,26.341,0,0,1-3.4,5.849,62.6,62.6,0,0,1,6.221,5.762l-1.037.9a55.528,55.528,0,0,0-5.966-5.712,26.762,26.762,0,0,1-6.545,5.712,6.228,6.228,0,0,0-.884-.918,24.375,24.375,0,0,0,9.962-11.1h-8.347v-1.156h9.009l.221-.085Z" fill="#231815"/>
      <path id="Path_181" data-name="Path 181" d="M470.476,10188.417a61.6,61.6,0,0,0-5.966-2.772v8.5h-1.275v-14.771l1.717.1c-.017.188-.153.307-.442.358v4.963l.255-.357a59.246,59.246,0,0,1,6.391,2.839Z" fill="#231815"/>
      <path id="Path_182" data-name="Path 182" d="M490.621,10186.173a.248.248,0,0,1-.1.034.421.421,0,0,1-.255-.1c-1.292.427-3.179,1.122-4.59,1.735.034.39.051.833.051,1.326,0,.543-.017,1.155-.051,1.818l-1.24.068c.051-.612.085-1.395.085-2.057,0-.256,0-.493-.017-.681-1.921.935-3.485,2.073-3.485,3.094,0,.985,1.173,1.462,3.519,1.462a38.14,38.14,0,0,0,4.266-.17l.017,1.139c-1,.1-2.532.136-4.283.136-3.264,0-4.709-.781-4.709-2.516,0-1.5,1.972-2.941,4.522-4.215-.1-1.071-.578-1.6-1.258-1.6-1.241,0-2.533.7-4.063,2.4-.476.526-1.139,1.189-1.87,1.852l-.832-.833a11.937,11.937,0,0,0,4.283-6.271l-.952.017h-2.838v-1.1c1.036.018,2.243.018,2.94.018l1.156-.018a22.113,22.113,0,0,0,.459-2.431l1.666.2c-.034.17-.17.272-.425.307-.119.681-.272,1.274-.425,1.887a23.179,23.179,0,0,0,5.847-.986l.2,1.14a25.67,25.67,0,0,1-6.374.952,12.321,12.321,0,0,1-1.224,2.871h.017a4.532,4.532,0,0,1,2.737-1.1c1.156,0,1.887.833,2.108,2.21,1.428-.647,3.229-1.343,4.589-1.87Z" fill="#231815"/>
      <path id="Path_183" data-name="Path 183" d="M366.2,10217.37h-6.34c1.223,1.937,3.5,3.111,6.544,3.553a5.163,5.163,0,0,0-.7,1.02c-3.365-.629-5.762-2.073-7.054-4.572H358.4c-.867,1.733-2.771,3.349-6.817,4.572a4.839,4.839,0,0,0-.7-.935c3.553-1,5.321-2.277,6.205-3.638h-6.069v-1H357.6a6.566,6.566,0,0,0,.323-1.563h-4.811v-.986h4.845v-1.462h-5.3v-.969h5.3v-1.7l1.479.1c-.017.119-.1.2-.323.238v1.359h5.422v-2.16H352.6v2.245h-1.123v-3.264h6.477v-2.091l1.513.1c-.017.119-.119.2-.34.221v1.768H365.7v3.264h-1.088v.884H359.11v1.462h5.116v.986h-5.15a7.221,7.221,0,0,1-.289,1.563H366.2Z" fill="#231815"/>
      <path id="Path_184" data-name="Path 184" d="M374.223,10212.525l.578.033a3.417,3.417,0,0,1-.017.392c-.119,5.916-.221,7.837-.68,8.432-.391.527-.9.544-1.564.544-.374,0-.816-.017-1.274-.035a2.457,2.457,0,0,0-.29-1.037c.765.053,1.462.053,1.768.053a.455.455,0,0,0,.425-.223c.306-.39.442-2.141.544-7.087h-2.244c-.187,3.246-.7,6.339-2.175,8.329a3.564,3.564,0,0,0-.85-.748c1.784-2.414,2.006-6.816,2.073-11.117H368.6v-1.088h3.093v-2.8l1.445.084c-.017.119-.119.2-.34.238v2.481h3.077v1.088h-4.284c-.017.816-.034,1.649-.068,2.465Zm10.114-2.8H377.47a11.422,11.422,0,0,1-1.734,2.923,6.9,6.9,0,0,0-.8-.747,14.319,14.319,0,0,0,2.55-5.779l1.377.356c-.034.12-.153.17-.357.17a20.917,20.917,0,0,1-.612,2.007h6.442Zm-6.544,10.148c0,.645.153.782,1.122.782h3.5c.765,0,.9-.307.986-1.9a3.271,3.271,0,0,0,.969.408c-.136,1.955-.476,2.5-1.887,2.5h-3.6c-1.683,0-2.142-.356-2.142-1.784v-3.842l-1.105.527-.425-.936,1.53-.731v-3.109l1.377.084c-.017.119-.1.2-.323.222v2.311l1.836-.866v-3.127l1.342.085c-.017.117-.1.2-.323.221v2.346l1.785-.85c.17-.153.187-.17.357-.307a8.3,8.3,0,0,1,.85.307.363.363,0,0,1-.153.17c-.017,2.38-.051,4.572-.119,5.048-.119.918-.765.968-2.057.968a3.528,3.528,0,0,0-.254-.9c.322.017.8.017.934.017.238,0,.34-.067.391-.34.051-.255.085-1.836.085-3.841l-1.819.85v4.98h-1.019v-4.488l-1.836.867Z" fill="#231815"/>
      <path id="Path_185" data-name="Path 185" d="M391.954,10206.865c-.034.2-.187.323-.527.374-.136,1.972-.306,6.477-.306,8.992,0,2.532,1.258,3.757,3.4,3.757,2.074,0,4.181-1.037,6.119-3.229a6.748,6.748,0,0,0,.765,1,9.216,9.216,0,0,1-6.9,3.451c-3.094,0-4.675-1.785-4.675-5,0-2.142.153-7.411.272-9.5Z" fill="#231815"/>
      <path id="Path_186" data-name="Path 186" d="M405.605,10208.769c1.054.068,2.465.068,3.621.068.765,0,1.632-.017,2.346-.034-.017-.815-.034-1.768-.034-2.362l1.717.085c-.017.2-.17.306-.459.356-.017.272,0,1.581,0,1.87a33.255,33.255,0,0,0,5.643-.663l.153,1.122a34.893,34.893,0,0,1-5.8.646c.017,1.02.034,2.072.068,3.127a28.467,28.467,0,0,0,4.793-.663l.136,1.105a32.553,32.553,0,0,1-4.912.595l.136,2.839a18.9,18.9,0,0,1,5,2.651l-.748,1.037a16.583,16.583,0,0,0-4.215-2.5c0,.272.017.578.017.8-.017,1.616-.986,2.552-3.043,2.552-2.159,0-3.739-.886-3.739-2.482,0-1.632,1.852-2.532,3.756-2.532a7.409,7.409,0,0,1,1.785.2c-.017-.731-.051-1.616-.068-2.534-.544.018-1.156.035-1.649.035-2.907,0-3.723-.459-3.723-1.446,0-.645.493-1.172,1.581-1.869l.816.527c-.765.424-1.173.8-1.173,1.139,0,.51.8.612,2.958.612.374,0,.765,0,1.139-.017l-.1-3.146c-.731.035-1.581.035-2.346.035-1.088,0-2.635,0-3.655-.035Zm6.29,8.856a7.164,7.164,0,0,0-1.9-.272c-1.292,0-2.6.527-2.6,1.548,0,1,1.19,1.494,2.669,1.494,1.343,0,1.853-.594,1.853-1.783Z" fill="#231815"/>
      <path id="Path_187" data-name="Path 187" d="M430.493,10208.939c-.017-.374-.068-2.228-.1-2.652l1.751.068c-.018.136-.136.306-.442.356,0,.2,0,.408.034,2.193,2.09-.068,4.283-.119,5.558-.137v1.174c-1.445-.034-3.5,0-5.525.067.034,1.326.069,2.549.12,3.485a5.784,5.784,0,0,1,.2,1.784,7.393,7.393,0,0,1-.169,1.649c-.443,1.988-1.9,3.739-4.9,4.929a9.388,9.388,0,0,0-.867-.97c2.6-.934,4-2.345,4.42-3.959h-.017a2.135,2.135,0,0,1-1.751.9,2.9,2.9,0,0,1-2.856-2.976,3.129,3.129,0,0,1,3.06-3.178,2.515,2.515,0,0,1,1.581.527c0-.289-.034-1.429-.068-2.159-1.768.034-7.14.22-7.837.255l-.034-1.122,3.876-.1Zm.323,5.966c0-.663,0-2.209-1.734-2.209a2.049,2.049,0,0,0-2.023,2.157,1.9,1.9,0,0,0,1.887,1.973A1.833,1.833,0,0,0,430.816,10214.905Z" fill="#231815"/>
    </g>
    <g id="Group_51" data-name="Group 51" transform="translate(265.229 -7868.21)">
      <path id="Path_188" data-name="Path 188" d="M630.42,10186.53h-8.431v8.158h-1.105v-1.988c-2.023.306-4.029.578-5.355.748a.27.27,0,0,1-.238.221l-.391-1.19,1.632-.17v-5.778h-1.564v-.971H630.42Zm-2.227-6.9v4.827h-11v-4.827Zm-7.309,8.107v-1.206H617.6v1.206Zm0,2.125v-1.241H617.6v1.241Zm-3.281.884v1.445c1.037-.119,2.159-.238,3.281-.374v-1.071Zm9.451-9.128v-1.155H618.3v1.155Zm0,2.006v-1.19H618.3v1.19Zm1.87,4.028.731.289a.991.991,0,0,1-.153.2,10.112,10.112,0,0,1-2.431,3.962,9.59,9.59,0,0,0,3.5,1.666,3.888,3.888,0,0,0-.7.9,10.027,10.027,0,0,1-3.587-1.87,11.681,11.681,0,0,1-3.332,1.9,4.132,4.132,0,0,0-.645-.9,9.949,9.949,0,0,0,3.2-1.733,9.645,9.645,0,0,1-2.073-3.229l.662-.2h-1.614v-.953h6.238Zm-4.522.986a7.915,7.915,0,0,0,1.87,2.771,8.714,8.714,0,0,0,1.887-2.771Z" fill="#231815"/>
      <path id="Path_189" data-name="Path 189" d="M634.994,10186.887a22.9,22.9,0,0,1-1.955,2.04c-.136-.221-.441-.714-.628-.953a20.625,20.625,0,0,0,4.266-5.285l1.258.526c-.051.1-.187.153-.374.135a25.609,25.609,0,0,1-1.445,2.125l.306.1a.41.41,0,0,1-.34.221v8.89h-1.088Zm2.431-7.479a.342.342,0,0,1-.357.137,23.793,23.793,0,0,1-3.842,4.063,6.341,6.341,0,0,0-.663-.851,16.563,16.563,0,0,0,3.57-3.858Zm8.567,8.584.782.374a.452.452,0,0,1-.17.152A9.6,9.6,0,0,1,643.7,10192a15.5,15.5,0,0,0,4.9,1.734,3.992,3.992,0,0,0-.7.984,15.611,15.611,0,0,1-5.134-2.09,16.645,16.645,0,0,1-5.2,2.09,5.767,5.767,0,0,0-.578-.984,15.655,15.655,0,0,0,4.845-1.768,10.892,10.892,0,0,1-2.176-2.245,15.52,15.52,0,0,1-2.074,1.581,5.214,5.214,0,0,0-.714-.8,14.761,14.761,0,0,0,4.284-3.961l-3.519.119a.306.306,0,0,1-.255.237l-.374-1.291,2.652-.053c.391-.3.782-.629,1.19-.984a22.524,22.524,0,0,0-3.315-2.907l.714-.731c.323.222.663.477,1.02.748a19.582,19.582,0,0,0,2.227-2.8l1.223.646a.421.421,0,0,1-.373.136,27.123,27.123,0,0,1-2.346,2.618,18.8,18.8,0,0,1,1.666,1.547,42.6,42.6,0,0,0,3.382-3.569l1.241.663a.423.423,0,0,1-.391.118,50.086,50.086,0,0,1-4.708,4.487c1.58-.033,3.314-.067,5.031-.118-.442-.562-.918-1.105-1.377-1.581l.884-.51a19.654,19.654,0,0,1,2.941,3.672l-.952.577a9.866,9.866,0,0,0-.8-1.24c-1.445.051-2.941.118-4.351.17l.169.067c-.051.1-.187.153-.374.137a12.493,12.493,0,0,1-1.036,1.343h4.47Zm-5.524.97-.1.1a9.376,9.376,0,0,0,2.38,2.329,8.451,8.451,0,0,0,2.362-2.43Z" fill="#231815"/>
      <path id="Path_190" data-name="Path 190" d="M659.371,10181.991a.44.44,0,0,1-.425.271c-.611,5.287-2.379,9.894-5.2,9.894-1.428,0-2.72-1.429-2.72-4.113a7.458,7.458,0,0,1,7.649-7.5c4.913,0,7.038,3.111,7.038,6.426,0,4.045-2.346,6-6.46,6.952a6.643,6.643,0,0,0-.714-1.036c3.91-.749,5.916-2.652,5.916-5.865,0-2.8-1.8-5.354-5.78-5.354a4.7,4.7,0,0,0-.51.034Zm-1.631-.222a6.259,6.259,0,0,0-5.559,6.239c0,1.818.782,2.957,1.6,2.957C655.836,10190.966,657.315,10186.428,657.74,10181.77Z" fill="#231815"/>
      <path id="Path_191" data-name="Path 191" d="M668.314,10182.773v-.969h5.729v.969Zm5.355,6.1v5h-3.655v.8h-.986v-5.8Zm-.068-4.692v.936h-4.556v-.936Zm-4.556,3.281v-.935H673.6v.935Zm4.505-7.955v.935h-4.4v-.935Zm-.884,10.335h-2.652v3.06h2.652Zm11.542,1.121v.969h-1.054v1.548c0,1.139-.493,1.206-2.924,1.206a3.276,3.276,0,0,0-.306-.951c.51.017.986.034,1.326.034.748,0,.833,0,.833-.307v-1.53h-5.712v2.754h-1v-2.754H674.2v-.969h1.173v-4.385h3.3v-1.055H674.2v-.935h2.567v-1.242h-1.751v-.882h1.751v-1.157h-2.091v-.9h2.091v-1.513l1.377.1c-.018.1-.1.187-.323.222v1.189h2.889v-1.513l1.377.1c-.017.1-.1.187-.323.222v1.189h2.159v.9H681.76v1.157H683.6v.882H681.76v1.242h2.414v.935h-4.522v1.055h3.5v4.385Zm-5.542-3.518h-2.3v1.376h2.3Zm-2.3,2.209v1.309h2.3v-1.309Zm1.446-8.347v1.157h2.889v-1.157Zm0,2.039v1.242h2.889v-1.242Zm4.266,4.1h-2.431v1.376h2.431Zm-2.431,3.518h2.431v-1.309h-2.431Z" fill="#231815"/>
      <path id="Path_192" data-name="Path 192" d="M701.8,10181.923H688.578v3.722c0,2.636-.221,6.478-1.615,9.1a4.589,4.589,0,0,0-.969-.646c1.343-2.481,1.462-5.95,1.462-8.449v-4.793h6.528v-1.954l1.512.1c-.017.119-.1.205-.34.238v1.614H701.8Zm-5.95,8.585v2.7h6v1.019H688.68v-1.019h6.051v-2.7h-4.81v-1.021h4.81v-6.867l1.445.085c-.017.119-.1.2-.323.238v6.544h4.964v1.021Zm-2.192-2.261a19,19,0,0,0-1.887-2.074,6.744,6.744,0,0,1-1.989,2.566,4.325,4.325,0,0,0-.8-.662,7.605,7.605,0,0,0,2.652-5.134l1.326.2c-.017.118-.119.187-.323.2a12.815,12.815,0,0,1-.493,1.889,19.41,19.41,0,0,1,2.226,2.261Zm7.547.373a26.629,26.629,0,0,0-2.584-2.5,6.35,6.35,0,0,1-1.955,2.346,4.1,4.1,0,0,0-.765-.646,7.166,7.166,0,0,0,2.669-4.878l1.309.221c-.034.119-.136.186-.323.2a10.582,10.582,0,0,1-.51,1.817,29.121,29.121,0,0,1,2.89,2.67Z" fill="#231815"/>
      <path id="Path_193" data-name="Path 193" d="M704.83,10181.192c1.275-.052,11.746-.8,13.956-.816l.017,1.275c-.221-.018-.425-.018-.629-.018a4.9,4.9,0,0,0-2.907.867c-2.55,1.53-5.014,4.266-5.014,6.46,0,2.38,1.666,3.79,5.881,4.334l-.561,1.19c-4.827-.7-6.629-2.5-6.629-5.524,0-2.4,2.363-5.3,5.473-7.259-1.869.136-6.884.51-9.077.714a.518.518,0,0,1-.374.272Zm11.015,3.349a12.565,12.565,0,0,1,2.312,2.346l-.646.527a11.357,11.357,0,0,0-2.244-2.363Zm1.836-1.5a10.786,10.786,0,0,1,2.312,2.345l-.646.512a12.028,12.028,0,0,0-2.244-2.347Z" fill="#231815"/>
      <path id="Path_194" data-name="Path 194" d="M728.239,10181.022h-3.026a38.275,38.275,0,0,1-.9,4.113h3.332v7.395h-3.349v1.394h-.986v-6a11.541,11.541,0,0,1-1.071,1.87,8.659,8.659,0,0,0-.595-1.021c1.207-1.718,2.006-4.657,2.448-7.751h-2.074v-1.054h6.222Zm-1.6,10.488v-5.354h-2.346v5.354Zm11.066,1.461v.986h-7.02v.833h-1.071v-7.581a9.9,9.9,0,0,1-1.275,1.258,7.152,7.152,0,0,0-.629-.953,13.353,13.353,0,0,0,3.689-5.574h-2.074v2.107h-1v-3.111h3.433c.221-.662.408-1.359.578-2.073l1.411.322c-.034.137-.17.2-.391.2-.136.527-.289,1.038-.442,1.547h4.539v3.111H736.4v-2.107h-3.825a20.176,20.176,0,0,1-1.377,3.009H733.2a18.355,18.355,0,0,0,.867-2.295l1.309.407c-.034.1-.153.153-.34.153-.187.493-.476,1.156-.765,1.734h2.992v1H734.12v1.717h2.737v.918H734.12v1.733h2.737v.918H734.12v1.733Zm-4.658-5.3v-1.717h-2.362v1.717Zm0,2.651v-1.733h-2.362v1.733Zm-2.362.918v1.733h2.362v-1.733Z" fill="#231815"/>
      <path id="Path_195" data-name="Path 195" d="M745.834,10181.77v.952h-6.12v-.952Zm-.476,6.937v5h-3.91v.8h-.986v-5.8Zm-.017-4.624v.934h-4.862v-.934Zm-4.862,3.247v-.937h4.862v.937Zm4.794-7.819v.935h-4.709v-.935Zm-.918,10.165h-2.907v3.06h2.907Zm3.536-.051a7.433,7.433,0,0,1-1.5,4.045l-.867-.578a6.583,6.583,0,0,0,1.411-3.723Zm2.974-9.078a17.1,17.1,0,0,1-.561,2.278,16.824,16.824,0,0,1,2.091,1.207l-.578.9a16.953,16.953,0,0,0-1.9-1.172,6.728,6.728,0,0,1-3.161,3.264,3.553,3.553,0,0,0-.714-.815,6.131,6.131,0,0,0,2.94-2.924,21.425,21.425,0,0,0-2.294-.969l.561-.816c.679.238,1.393.527,2.107.85a11.593,11.593,0,0,0,.442-1.8H746.82v-.986h7.156l.493-.016.612.067c-.1.663-.1,5.729-.8,6.511-.408.492-.833.492-1.632.492-.425,0-.952-.018-1.479-.051a2.167,2.167,0,0,0-.306-1c.9.069,1.275.069,2.04.069a.5.5,0,0,0,.442-.17c.289-.34.459-1.581.6-4.913Zm-1.156,12.393c0,.391.068.459.561.459h1.666c.442,0,.527-.222.561-1.922a3.782,3.782,0,0,0,.969.426c-.1,2.022-.408,2.516-1.428,2.516h-1.9c-1.207,0-1.5-.323-1.5-1.479v-4.08l1.394.1c-.017.1-.119.187-.323.22Zm2.142-3.451a13.479,13.479,0,0,0-3.026-2.414l.731-.662a13.833,13.833,0,0,1,3.06,2.346Zm2.907,4.147a11.988,11.988,0,0,0-1.887-4.13l.935-.374a12.338,12.338,0,0,1,1.989,4.079Z" fill="#231815"/>
      <path id="Path_196" data-name="Path 196" d="M772.336,10186.054H766.59l.29.084a.365.365,0,0,1-.341.205c-.459,3.162-1.614,5.983-5.252,7.769a8.922,8.922,0,0,0-.918-.851c3.536-1.7,4.522-4.08,4.913-7.207h-6.613v-1.139h13.667Zm-1.683-4.793H760.216v-1.14h10.437Z" fill="#231815"/>
      <path id="Path_197" data-name="Path 197" d="M787.925,10181.124a.349.349,0,0,1-.221.187,26.306,26.306,0,0,1-3.4,5.849,62.5,62.5,0,0,1,6.222,5.762l-1.037.9a55.54,55.54,0,0,0-5.967-5.712,26.738,26.738,0,0,1-6.544,5.712,6.28,6.28,0,0,0-.884-.918,24.373,24.373,0,0,0,9.961-11.1h-8.346v-1.156h9.009l.221-.085Z" fill="#231815"/>
      <path id="Path_198" data-name="Path 198" d="M805.979,10188.417a61.6,61.6,0,0,0-5.966-2.772v8.5h-1.275v-14.771l1.717.1c-.017.188-.153.307-.442.358v4.963l.255-.357a59.334,59.334,0,0,1,6.391,2.839Z" fill="#231815"/>
      <path id="Path_199" data-name="Path 199" d="M815.007,10180.155c-.051.188-.221.289-.561.272a40.769,40.769,0,0,0-.9,7.649,18.734,18.734,0,0,0,.221,3.365c.323-.833,1.054-2.618,1.292-3.214l.714.748c-.7,1.718-1.207,2.687-1.445,3.452a2.9,2.9,0,0,0-.136.8,1.8,1.8,0,0,0,.085.527l-1.207.221a18.654,18.654,0,0,1-.748-5.847,49.731,49.731,0,0,1,.9-8.279Zm10.828,12.426c-.612.034-1.241.051-1.87.051a23.375,23.375,0,0,1-3.161-.187c-2.091-.307-3.06-1.462-3.06-2.821a5.191,5.191,0,0,1,1.6-3.281l1.1.477a4.017,4.017,0,0,0-1.444,2.668c0,1.972,2.89,1.972,4.657,1.972.714,0,1.479-.034,2.193-.085Zm-7.87-10.386a55.67,55.67,0,0,0,7.411-.646l.1,1.189a64.178,64.178,0,0,1-7.479.629Z" fill="#231815"/>
      <path id="Path_200" data-name="Path 200" d="M614.8,10206.22a.4.4,0,0,1-.358.254,21.461,21.461,0,0,0,7.446,5.934,4.323,4.323,0,0,0-.748.984,23.609,23.609,0,0,1-7.412-6.085,21.946,21.946,0,0,1-7.241,6.222,5.735,5.735,0,0,0-.714-.9,19.835,19.835,0,0,0,7.344-6.511Zm-6.239,15.723v-6.885H619.03v6.885h-1.156v-.73h-8.193v.73Zm.867-10.164h8.7v1.036h-8.7Zm8.448,4.334h-8.193v4.063h8.193Z" fill="#231815"/>
      <path id="Path_201" data-name="Path 201" d="M637.1,10207.987a1.5,1.5,0,0,0,.51-.052l.748.374a.25.25,0,0,1-.17.153,12.836,12.836,0,0,1-2.788,4.5,11.932,11.932,0,0,0,4.352,2.464,5.2,5.2,0,0,0-.731.97c-.272-.1-.527-.2-.782-.323v5.8h-1.122v-.732h-5.031v.8h-1.071v-5.763a14.121,14.121,0,0,1-1.394.6,3.954,3.954,0,0,0-.646-.935l.119-.035a26.286,26.286,0,0,0-1.445-2.294v8.379h-1.105v-8.464a19.309,19.309,0,0,1-2.414,5.2,5.485,5.485,0,0,0-.629-1,19.02,19.02,0,0,0,2.907-6.7h-2.5v-1.07h2.635v-3.74l1.428.1c-.017.119-.1.187-.323.221v3.417h2.295v1.07H627.65v1.224c.51.577,1.9,2.38,2.227,2.839-.306.408-.476.611-.578.731a14.181,14.181,0,0,0,4.572-2.754,13.847,13.847,0,0,1-1.937-2.72,12.329,12.329,0,0,1-1.819,2.006,8.636,8.636,0,0,0-.816-.731,13.23,13.23,0,0,0,3.655-5.423l1.342.442a.348.348,0,0,1-.374.153,12.884,12.884,0,0,1-.594,1.292Zm.187,7.632a12.876,12.876,0,0,1-2.652-1.9,14.651,14.651,0,0,1-2.583,1.9Zm-5.2,4.5h5.031v-3.5h-5.031Zm.68-11.117-.188.289a11.39,11.39,0,0,0,2.057,2.924,11.458,11.458,0,0,0,2.159-3.213Z" fill="#231815"/>
      <path id="Path_202" data-name="Path 202" d="M647.132,10206.865c-.034.2-.187.323-.527.374-.136,1.972-.306,6.477-.306,8.992,0,2.532,1.258,3.757,3.4,3.757,2.074,0,4.182-1.037,6.12-3.229a6.751,6.751,0,0,0,.765,1,9.216,9.216,0,0,1-6.9,3.451c-3.094,0-4.675-1.785-4.675-5,0-2.142.153-7.411.272-9.5Z" fill="#231815"/>
      <path id="Path_203" data-name="Path 203" d="M669.911,10209.857a21.267,21.267,0,0,1-5.218.969,44.866,44.866,0,0,1-3.111,10.624l-1.224-.459a36.382,36.382,0,0,0,3.077-10.114c-.34.016-2.618.034-3.128.016l-.017-1.154c.272.017.629.017,1.02.017.153,0,1.853,0,2.295-.017.17-1.088.34-2.278.442-3.315l1.751.171c-.017.187-.255.322-.493.339-.1.748-.272,1.665-.425,2.7a19.617,19.617,0,0,0,4.759-.952Zm4.522,11.32c-.51.017-1.037.034-1.564.034a17.043,17.043,0,0,1-4.029-.374,2.36,2.36,0,0,1-1.886-2.346,4.1,4.1,0,0,1,1.053-2.465l1.02.442a3.129,3.129,0,0,0-.884,1.887c0,1.343,1.292,1.683,4.386,1.683.629,0,1.275-.017,1.9-.068Zm-6.629-8.193a20.269,20.269,0,0,1,6.17-.866v1.155a19.216,19.216,0,0,0-5.882.765Z" fill="#231815"/>
      <path id="Path_204" data-name="Path 204" d="M681.9,10209.789a.485.485,0,0,1-.442.289,19.43,19.43,0,0,1-.7,5.015h.017a11.562,11.562,0,0,1,6.255-2.091c2.618,0,4.25,1.343,4.216,3.722-.051,3.128-2.635,4.522-9.213,4.793a5.083,5.083,0,0,0-.425-1.122c5.932-.255,8.312-1.223,8.363-3.653.017-1.632-1.122-2.617-3.111-2.617-3.145,0-5.983,1.887-6.459,2.719l-1.156-.561c.34-.322.935-3.365.969-6.7Zm.289-3.3a27.332,27.332,0,0,1,6.6,1.5l-.425,1.173a27.616,27.616,0,0,0-6.527-1.547Z" fill="#231815"/>
      <path id="Path_205" data-name="Path 205" d="M697.095,10212.288a19.89,19.89,0,0,1-1.785,2.72,9.6,9.6,0,0,0-.561-1.105,23.205,23.205,0,0,0,3.74-7.666l1.343.425c-.051.119-.17.187-.391.187a33.554,33.554,0,0,1-1.309,3.366l.391.119c-.034.119-.119.187-.323.221v11.389h-1.105Zm2.635-4.149,1.343.086c-.017.1-.1.188-.323.222v10.59h-1.02Zm10.981.868H709.3a8.962,8.962,0,0,1-2.38,3.111,13.325,13.325,0,0,0,4.471,1.683,4.037,4.037,0,0,0-.646.918,13.723,13.723,0,0,1-4.624-1.956,15.211,15.211,0,0,1-4.436,2.075,5.335,5.335,0,0,0-.646-.884,14,14,0,0,0,4.232-1.819,9.132,9.132,0,0,1-1.988-2.21,12.467,12.467,0,0,1-1.547,1.768,6.034,6.034,0,0,0-.8-.662,13.025,13.025,0,0,0,3.229-4.913l1.309.392a.346.346,0,0,1-.374.152c-.187.459-.408.936-.646,1.394h6.256Zm.289,8.958a.332.332,0,0,1-.34.119c-1.632,1.852-4.879,3.128-8.55,3.773a3.955,3.955,0,0,0-.595-.935c3.518-.528,6.7-1.666,8.261-3.434Zm-3.468-3.6a.3.3,0,0,1-.289.136,12.911,12.911,0,0,1-4.4,2.38,4.241,4.241,0,0,0-.662-.7,11.319,11.319,0,0,0,4.249-2.226Zm1.649,1.649a.332.332,0,0,1-.306.136,14.083,14.083,0,0,1-5.814,2.975,4.3,4.3,0,0,0-.628-.782,12.262,12.262,0,0,0,5.66-2.737Zm-5.287-7-.067.1a8.666,8.666,0,0,0,2.226,2.431,8.282,8.282,0,0,0,2.074-2.533Z" fill="#231815"/>
      <path id="Path_206" data-name="Path 206" d="M726.64,10207.427l1.054.646a.462.462,0,0,1-.289.17,25.129,25.129,0,0,1-5.932,4.775v7.377c0,.817-.221,1.157-.867,1.345a15.968,15.968,0,0,1-3.536.187,5.061,5.061,0,0,0-.476-1.157c.935.035,1.819.053,2.431.053,1.1,0,1.258,0,1.258-.442V10212l.731.034a20.714,20.714,0,0,0,4.283-3.4H713.925v-1.122h12.494Z" fill="#231815"/>
      <path id="Path_207" data-name="Path 207" d="M745.561,10213.291h-5.746l.289.085a.369.369,0,0,1-.34.2c-.459,3.162-1.614,5.984-5.252,7.768a9.145,9.145,0,0,0-.918-.849c3.536-1.7,4.522-4.08,4.912-7.207h-6.612v-1.14h13.667Zm-1.683-4.794H733.441v-1.139h10.437Z" fill="#231815"/>
      <path id="Path_208" data-name="Path 208" d="M761.15,10208.361a.352.352,0,0,1-.221.187,26.251,26.251,0,0,1-3.4,5.847,62.509,62.509,0,0,1,6.222,5.764l-1.037.9a55.715,55.715,0,0,0-5.967-5.711,26.694,26.694,0,0,1-6.544,5.711,6.482,6.482,0,0,0-.884-.918,24.371,24.371,0,0,0,9.961-11.1h-8.346v-1.155h9.009l.221-.086Z" fill="#231815"/>
      <path id="Path_209" data-name="Path 209" d="M779.2,10215.653a61.371,61.371,0,0,0-5.967-2.771v8.5h-1.274v-14.771l1.717.1c-.017.188-.153.306-.443.357v4.964l.256-.357a59.32,59.32,0,0,1,6.391,2.838Z" fill="#231815"/>
      <path id="Path_210" data-name="Path 210" d="M788.232,10207.392c-.051.188-.221.289-.561.272a40.746,40.746,0,0,0-.9,7.649,18.708,18.708,0,0,0,.221,3.365c.323-.832,1.054-2.618,1.292-3.212l.714.747c-.7,1.716-1.207,2.687-1.445,3.451a2.9,2.9,0,0,0-.136.8,1.8,1.8,0,0,0,.085.527l-1.207.221a18.659,18.659,0,0,1-.748-5.848,49.72,49.72,0,0,1,.9-8.278Zm10.828,12.427c-.612.033-1.241.051-1.87.051a23.2,23.2,0,0,1-3.162-.188c-2.09-.3-3.059-1.461-3.059-2.82a5.191,5.191,0,0,1,1.6-3.281l1.1.476a4.022,4.022,0,0,0-1.445,2.669c0,1.973,2.89,1.973,4.658,1.973.714,0,1.479-.034,2.193-.085Zm-7.87-10.387a55.523,55.523,0,0,0,7.411-.646l.1,1.188a63.772,63.772,0,0,1-7.479.629Z" fill="#231815"/>
      <path id="Path_211" data-name="Path 211" d="M807.731,10213.443l.187.97c-.731.288-1.5.577-2.21.85v5.27c0,1.309-.629,1.41-2.873,1.41a3.674,3.674,0,0,0-.339-1.089c.492.019.968.034,1.308.034.748,0,.833,0,.833-.355v-4.879l-1.836.68a.3.3,0,0,1-.2.272l-.459-1.292c.68-.2,1.547-.493,2.5-.816v-3.739h-2.328v-1.072h2.328v-3.551l1.394.085c-.017.136-.1.2-.323.237v3.229h2.04v1.072h-2.04v3.382Zm-.884,3.332c.918-.578,2.312-1.513,3.671-2.431v-8.228l1.4.085c-.018.119-.1.2-.323.238v7.41c0,3.485-.493,6.239-4.08,8.109a3.482,3.482,0,0,0-.714-.867,6.12,6.12,0,0,0,3.655-5.541c-1.02.765-2.023,1.513-2.737,1.988a.326.326,0,0,1-.136.323Zm1.6-8.517a13.062,13.062,0,0,1,1.819,3.655l-.935.51a13.68,13.68,0,0,0-1.751-3.706Zm5.966,11.593c0,.63.085.747.51.747H816.5c.374,0,.425-.459.476-2.072a3.017,3.017,0,0,0,1,.476c-.1,1.955-.391,2.635-1.428,2.635h-1.768c-1.139,0-1.462-.356-1.462-1.8v-13.718l1.428.1c-.017.119-.119.187-.34.221v7.581l.289-.289a34.285,34.285,0,0,1,3.417,3.213l-.765.833a31.621,31.621,0,0,0-2.941-2.958Zm3.485-10.946a.353.353,0,0,1-.357.119,31.6,31.6,0,0,1-2.091,3.6l-.816-.477a23.091,23.091,0,0,0,2.023-3.927Z" fill="#231815"/>
      <path id="Path_212" data-name="Path 212" d="M829,10218.883h-3.909v3.043h-1.105v-3.043h-3.944v-1.036h3.944v-1.582H820.77v-6.033h7.649v6.033h-3.331v1.582H829Zm-7.989-12.341a8.8,8.8,0,0,1,1.292,2.822l-1,.374a10.187,10.187,0,0,0-1.224-2.873Zm.748,4.624v1.632h2.278v-1.632Zm0,2.515v1.666h2.278v-1.666Zm2.55-7.479a10.267,10.267,0,0,1,.782,2.94l-1.071.272a10.847,10.847,0,0,0-.714-2.992Zm3.076,6.6v-1.632h-2.345v1.632Zm0,2.549v-1.666h-2.345v1.666Zm1.853-8.6a.412.412,0,0,1-.374.153,23.6,23.6,0,0,1-1.666,3.009c-.016,0-.9-.393-.9-.393a21.548,21.548,0,0,0,1.58-3.279Zm2.5,5.287a37.35,37.35,0,0,0,.663,4.47,17.442,17.442,0,0,0,1.853-3.79l1.343.408c-.034.118-.17.186-.374.17a18.351,18.351,0,0,1-2.482,4.589c.51,1.8,1.173,2.941,1.921,2.941.425,0,.629-.918.714-3.043a2.948,2.948,0,0,0,.9.646c-.221,2.7-.612,3.519-1.717,3.519-1.139,0-2.006-1.174-2.652-3.025a15.141,15.141,0,0,1-3.3,2.8,6.658,6.658,0,0,0-.747-.815,13.444,13.444,0,0,0,3.671-3.213,35.826,35.826,0,0,1-.884-5.524l-1.87.238-.153-1.056,1.938-.236c-.119-1.615-.187-3.281-.2-4.946l1.5.084c0,.136-.119.221-.357.238,0,1.513.051,3.024.153,4.486l4.165-.509.136,1.037Zm1.717-5.593a12.55,12.55,0,0,1,2.125,2.873l-.918.561a11.714,11.714,0,0,0-2.074-2.941Z" fill="#231815"/>
    </g>
    <g id="Group_52" data-name="Group 52" transform="translate(-79.647 -7455.769)">
      <path id="Path_213" data-name="Path 213" d="M986.673,10178.982a.394.394,0,0,1-.357.255,21.477,21.477,0,0,0,7.445,5.933,4.288,4.288,0,0,0-.747.986,23.639,23.639,0,0,1-7.412-6.086,21.968,21.968,0,0,1-7.241,6.222,5.79,5.79,0,0,0-.714-.9,19.8,19.8,0,0,0,7.343-6.509Zm-6.238,15.724v-6.885h10.471v6.885H989.75v-.731h-8.193v.731Zm.867-10.165h8.7v1.037h-8.7Zm8.448,4.335h-8.193v4.063h8.193Z" fill="#231815"/>
      <path id="Path_214" data-name="Path 214" d="M1008.977,10180.75a1.527,1.527,0,0,0,.51-.051l.748.374a.249.249,0,0,1-.17.152,12.858,12.858,0,0,1-2.788,4.506,11.961,11.961,0,0,0,4.352,2.464,5.2,5.2,0,0,0-.731.97c-.272-.1-.527-.2-.782-.323v5.8h-1.122v-.73h-5.032v.8h-1.07v-5.763a14.038,14.038,0,0,1-1.4.595,4,4,0,0,0-.645-.936l.119-.033a26.45,26.45,0,0,0-1.445-2.295v8.381h-1.1v-8.466a19.3,19.3,0,0,1-2.414,5.2,5.542,5.542,0,0,0-.629-1,19.022,19.022,0,0,0,2.907-6.7h-2.5v-1.071h2.635v-3.739l1.428.1c-.017.118-.1.188-.323.222v3.416h2.294v1.071h-2.294v1.224c.51.578,1.9,2.38,2.227,2.839-.306.407-.476.611-.578.73a14.165,14.165,0,0,0,4.572-2.753,13.886,13.886,0,0,1-1.938-2.721,12.279,12.279,0,0,1-1.818,2,8.616,8.616,0,0,0-.816-.729,13.238,13.238,0,0,0,3.654-5.423l1.343.441c-.051.1-.17.17-.374.153a12.569,12.569,0,0,1-.595,1.292Zm.187,7.633a12.846,12.846,0,0,1-2.652-1.905,14.621,14.621,0,0,1-2.584,1.905Zm-5.2,4.5h5.032v-3.5h-5.032Zm.68-11.118-.187.289a11.36,11.36,0,0,0,2.057,2.925,11.479,11.479,0,0,0,2.159-3.214Z" fill="#231815"/>
      <path id="Path_215" data-name="Path 215" d="M1019.007,10179.629c-.033.2-.187.322-.527.374-.135,1.971-.306,6.475-.306,8.992s1.259,3.756,3.4,3.756c2.074,0,4.182-1.037,6.12-3.229a6.828,6.828,0,0,0,.764,1,9.215,9.215,0,0,1-6.9,3.45c-3.093,0-4.674-1.784-4.674-5,0-2.141.153-7.41.272-9.5Z" fill="#231815"/>
      <path id="Path_216" data-name="Path 216" d="M1041.787,10182.62a21.276,21.276,0,0,1-5.218.969,44.855,44.855,0,0,1-3.111,10.624l-1.224-.459a36.37,36.37,0,0,0,3.077-10.115c-.34.019-2.618.035-3.128.019l-.017-1.156c.272.017.629.017,1.02.017.153,0,1.853,0,2.295-.017.17-1.088.34-2.278.442-3.315l1.75.171c-.017.188-.255.323-.492.34-.1.748-.272,1.666-.425,2.7a19.721,19.721,0,0,0,4.759-.952Zm4.522,11.321c-.51.017-1.037.033-1.564.033a16.934,16.934,0,0,1-4.029-.375,2.359,2.359,0,0,1-1.887-2.345,4.1,4.1,0,0,1,1.054-2.465l1.02.442a3.128,3.128,0,0,0-.884,1.887c0,1.343,1.292,1.683,4.386,1.683.629,0,1.275-.017,1.9-.067Zm-6.63-8.193a20.251,20.251,0,0,1,6.171-.867v1.156a19.186,19.186,0,0,0-5.882.765Z" fill="#231815"/>
      <path id="Path_217" data-name="Path 217" d="M1053.772,10182.552a.484.484,0,0,1-.442.289,19.489,19.489,0,0,1-.7,5.015h.017a11.568,11.568,0,0,1,6.255-2.092c2.618,0,4.25,1.344,4.215,3.724-.051,3.128-2.634,4.521-9.212,4.794a5.1,5.1,0,0,0-.425-1.122c5.932-.255,8.312-1.225,8.363-3.654.017-1.632-1.122-2.618-3.111-2.618-3.145,0-5.983,1.887-6.459,2.72l-1.156-.561c.34-.324.935-3.366.969-6.7Zm.289-3.3a27.377,27.377,0,0,1,6.6,1.5l-.425,1.173a27.626,27.626,0,0,0-6.528-1.547Z" fill="#231815"/>
      <path id="Path_218" data-name="Path 218" d="M1066.982,10190.847c1.326-.646,3.417-1.75,5.406-2.8l.322,1.036c-1.767,1-3.688,2.074-4.9,2.721a.339.339,0,0,1-.17.306Zm.85-10.589a21.7,21.7,0,0,1,3.977,1.869l-.628,1.037a19.491,19.491,0,0,0-3.961-2.006Zm9.893,2.922a.4.4,0,0,1-.34.188v1.887a9.474,9.474,0,0,0,5.559,8.414c-.221.272-.562.731-.749,1.02a10.028,10.028,0,0,1-5.4-7.156h-.017a10.074,10.074,0,0,1-6.085,7.156,5.239,5.239,0,0,0-.714-.935,9.417,9.417,0,0,0,6.2-8.5v-2.075h-2.04a15.69,15.69,0,0,1-2.057,3.928,7.106,7.106,0,0,0-1-.595,19.415,19.415,0,0,0,3.11-7.615l1.479.357c-.051.119-.17.187-.391.187-.2.866-.459,1.751-.731,2.6h6.953l.186-.068.9.562a.6.6,0,0,1-.256.153,23.872,23.872,0,0,1-1.512,4.521c-.238-.137-.7-.358-.969-.477a24.151,24.151,0,0,0,1.173-3.554Z" fill="#231815"/>
      <path id="Path_219" data-name="Path 219" d="M1093.722,10181.991a.44.44,0,0,1-.425.271c-.612,5.287-2.379,9.894-5.2,9.894-1.428,0-2.72-1.429-2.72-4.113a7.459,7.459,0,0,1,7.649-7.5c4.913,0,7.038,3.111,7.038,6.426,0,4.045-2.346,6-6.46,6.952a6.716,6.716,0,0,0-.714-1.036c3.91-.749,5.916-2.652,5.916-5.865,0-2.8-1.8-5.354-5.78-5.354a4.663,4.663,0,0,0-.51.034Zm-1.632-.222a6.259,6.259,0,0,0-5.558,6.239c0,1.818.782,2.957,1.6,2.957C1090.187,10190.966,1091.665,10186.428,1092.09,10181.77Z" fill="#231815"/>
      <path id="Path_220" data-name="Path 220" d="M1102.665,10182.773v-.969h5.728v.969Zm5.354,6.1v5h-3.654v.8h-.986v-5.8Zm-.067-4.692v.936H1103.4v-.936Zm-4.556,3.281v-.935h4.556v.935Zm4.505-7.955v.935h-4.4v-.935Zm-.884,10.335h-2.652v3.06h2.652Zm11.542,1.121v.969h-1.054v1.548c0,1.139-.493,1.206-2.924,1.206a3.278,3.278,0,0,0-.306-.951c.51.017.986.034,1.326.034.748,0,.833,0,.833-.307v-1.53h-5.712v2.754h-1v-2.754h-1.173v-.969h1.173v-4.385h3.3v-1.055h-4.471v-.935h2.567v-1.242h-1.751v-.882h1.751v-1.157h-2.091v-.9h2.091v-1.513l1.377.1c-.017.1-.1.187-.323.222v1.189h2.89v-1.513l1.377.1c-.017.1-.1.187-.323.222v1.189h2.158v.9h-2.158v1.157h1.835v.882h-1.835v1.242h2.413v.935H1114v1.055h3.5v4.385Zm-5.542-3.518h-2.295v1.376h2.295Zm-2.295,2.209v1.309h2.295v-1.309Zm1.445-8.347v1.157h2.89v-1.157Zm0,2.039v1.242h2.89v-1.242Zm4.267,4.1H1114v1.376h2.431Zm-2.431,3.518h2.431v-1.309H1114Z" fill="#231815"/>
      <path id="Path_221" data-name="Path 221" d="M1136.153,10181.923h-13.224v3.722c0,2.636-.221,6.478-1.615,9.1a4.587,4.587,0,0,0-.969-.646c1.343-2.481,1.462-5.95,1.462-8.449v-4.793h6.527v-1.954l1.513.1c-.017.119-.1.205-.34.238v1.614h6.646Zm-5.949,8.585v2.7h6v1.019h-13.173v-1.019h6.051v-2.7h-4.81v-1.021h4.81v-6.867l1.445.085c-.017.119-.1.2-.323.238v6.544h4.964v1.021Zm-2.193-2.261a19,19,0,0,0-1.887-2.074,6.743,6.743,0,0,1-1.988,2.566,4.327,4.327,0,0,0-.8-.662,7.609,7.609,0,0,0,2.652-5.134l1.325.2c-.016.118-.119.187-.323.2a12.694,12.694,0,0,1-.493,1.889,19.421,19.421,0,0,1,2.227,2.261Zm7.548.373a26.6,26.6,0,0,0-2.584-2.5,6.349,6.349,0,0,1-1.955,2.346,4.1,4.1,0,0,0-.765-.646,7.165,7.165,0,0,0,2.669-4.878l1.309.221c-.034.119-.136.186-.323.2a10.588,10.588,0,0,1-.51,1.817,28.974,28.974,0,0,1,2.889,2.67Z" fill="#231815"/>
      <path id="Path_222" data-name="Path 222" d="M1138.4,10187.006c.714-.68,2.465-2.534,3.366-3.5,1.308-1.445,1.954-1.768,2.8-1.768,1.02,0,1.751.646,3.264,2.447a79.079,79.079,0,0,0,6.408,6.782l-.9,1.054a68.07,68.07,0,0,1-6.119-6.561c-1.445-1.768-1.972-2.448-2.669-2.448-.68,0-1.207.562-2.243,1.734-.578.663-1.955,2.176-2.686,2.991a.486.486,0,0,1-.187.477Z" fill="#231815"/>
      <path id="Path_223" data-name="Path 223" d="M1017,10208.361a.352.352,0,0,1-.221.187,26.251,26.251,0,0,1-3.4,5.847,62.4,62.4,0,0,1,6.221,5.764l-1.036.9a55.727,55.727,0,0,0-5.967-5.711,26.732,26.732,0,0,1-6.544,5.711,6.482,6.482,0,0,0-.884-.918,24.376,24.376,0,0,0,9.961-11.1h-8.346v-1.155h9.009l.221-.086Z" fill="#231815"/>
      <path id="Path_224" data-name="Path 224" d="M1037.111,10213.291h-5.745l.289.085a.369.369,0,0,1-.34.2c-.459,3.162-1.615,5.984-5.252,7.768a9.144,9.144,0,0,0-.918-.849c3.535-1.7,4.521-4.08,4.912-7.207h-6.612v-1.14h13.666Zm-1.682-4.794h-10.437v-1.139h10.437Z" fill="#231815"/>
      <path id="Path_225" data-name="Path 225" d="M1043.454,10211.166a18.333,18.333,0,0,1,1.274,3.654l-.951.255a19.071,19.071,0,0,0-1.241-3.62Zm10.147.119c-.033.151-.2.187-.356.17-1.326,4.963-3.825,8.006-7.939,9.672a4.644,4.644,0,0,0-.663-.782c4.063-1.6,6.392-4.385,7.633-9.452Zm-6.017-.937a23.325,23.325,0,0,1,.8,3.86l-1,.186a20.477,20.477,0,0,0-.8-3.823Z" fill="#231815"/>
      <path id="Path_226" data-name="Path 226" d="M1059.621,10208.667h10.811l.1-.051,1.156.884a.384.384,0,0,1-.2.153c-1.377,6.391-4.335,9.723-9.536,11.693a7.444,7.444,0,0,0-.765-1c4.946-1.818,7.8-4.98,8.907-10.5h-10.471Zm12.953-3.043a1.861,1.861,0,1,1-1.87,1.87A1.861,1.861,0,0,1,1072.574,10205.624Zm1.291,1.87a1.3,1.3,0,0,0-1.291-1.31,1.309,1.309,0,1,0,1.291,1.31Z" fill="#231815"/>
      <path id="Path_227" data-name="Path 227" d="M1090.984,10208.157a.43.43,0,0,1-.221.152,14.554,14.554,0,0,1-4.028,5.44,7.219,7.219,0,0,0-1.037-.7,10.256,10.256,0,0,0,3.382-4.216h-12.17v-1.156h12.816l.187-.084Zm-6.629,3.094c-.017.136-.17.255-.391.289-.493,4.012-1.87,7.836-5.371,9.859a8.068,8.068,0,0,0-1-.782c3.467-1.9,4.708-5.457,5.116-9.554Z" fill="#231815"/>
      <path id="Path_228" data-name="Path 228" d="M1097,10211.166a18.332,18.332,0,0,1,1.274,3.654l-.951.255a19.08,19.08,0,0,0-1.241-3.62Zm10.148.119c-.034.151-.2.187-.357.17-1.326,4.963-3.825,8.006-7.939,9.672a4.687,4.687,0,0,0-.662-.782c4.062-1.6,6.391-4.385,7.632-9.452Zm-6.018-.937a23.337,23.337,0,0,1,.8,3.86l-1,.186a20.468,20.468,0,0,0-.8-3.823Z" fill="#231815"/>
      <path id="Path_229" data-name="Path 229" d="M1113.171,10208.667h10.811l.1-.051,1.156.884a.384.384,0,0,1-.2.153c-1.377,6.391-4.335,9.723-9.536,11.693a7.435,7.435,0,0,0-.765-1c4.946-1.818,7.8-4.98,8.907-10.5h-10.471Zm12.953-3.043a1.861,1.861,0,1,1-1.87,1.87A1.861,1.861,0,0,1,1126.124,10205.624Zm1.291,1.87a1.3,1.3,0,0,0-1.291-1.31,1.309,1.309,0,1,0,1.291,1.31Z" fill="#231815"/>
    </g>
    <rect id="Rectangle_91" data-name="Rectangle 91" width="21.163" height="92.917" transform="translate(1032.917 2848.969) rotate(90)" fill="#68b4a9"/>
    <rect id="Rectangle_92" data-name="Rectangle 92" width="21.163" height="92.917" transform="translate(1032.917 2814.979) rotate(90)" fill="#68b4a9"/>
    <rect id="Rectangle_93" data-name="Rectangle 93" width="21.163" height="92.917" transform="translate(1032.917 2780.989) rotate(90)" fill="#68b4a9"/>
    <path id="Path_230" data-name="Path 230" d="M1392.454,10054.786l-58.536-61.176v122.352Z" transform="translate(11040.962 1552.788) rotate(90)" fill="#68b4a9"/>
    <circle id="Ellipse_1" data-name="Ellipse 1" cx="111.07" cy="111.07" r="111.07" transform="translate(875.5 2958.07)" fill="none" stroke="#009481" stroke-miterlimit="10" stroke-width="1.3"/>
  </g>
</svg>
