<svg xmlns="http://www.w3.org/2000/svg" viewBox="0 0 31.63 208.3"><defs><style>.cls-1{fill:#fff;}.cls-2{fill:#016f64;}</style></defs><g id="Layer_2" data-name="Layer 2"><g id="レイヤー_1" data-name="レイヤー 1"><path class="cls-1" d="M.24,16.05a20.35,20.35,0,0,1-.18-4.68A15.75,15.75,0,0,1,1,6.93a11,11,0,0,1,3.1-4.52,9.86,9.86,0,0,1,5-2.28,13,13,0,0,1,6.34.71,20.24,20.24,0,0,1,6.78,4.08,28.26,28.26,0,0,1,8.7,14.37,21.6,21.6,0,0,1,.69,5.77,15.9,15.9,0,0,1-1.47,6.68,10.43,10.43,0,0,1-3.78,4.33c-.13.09-.27.16-.41.24,0-.27,0-.54,0-.81V28.93c0-.58,0-1.15-.06-1.73A17.15,17.15,0,0,0,25.36,24a14.28,14.28,0,0,0-3.14-6,21.28,21.28,0,0,0-4.41-3.73,24.06,24.06,0,0,0-6.64-2.93,12,12,0,0,0-4.92-.42A6.75,6.75,0,0,0,.79,14.84C.6,15.24.42,15.64.24,16.05Z"/><path class="cls-2" d="M.24,16.05c.18-.41.36-.81.55-1.21a6.75,6.75,0,0,1,5.46-3.93,12,12,0,0,1,4.92.42,24.06,24.06,0,0,1,6.64,2.93A21.28,21.28,0,0,1,22.22,18a14.28,14.28,0,0,1,3.14,6,17.15,17.15,0,0,1,.54,3.19c.05.58.06,1.15.06,1.73V35.5c0,.27,0,.54,0,.81a7.74,7.74,0,0,1-2.15.93,8.81,8.81,0,0,1-2.75.4c0-.13,0-.25,0-.37q0-4.73,0-9.45a8.16,8.16,0,0,0-.39-2.5,6.28,6.28,0,0,0-2.18-3.2c-1-.78-2.11-1.49-3.21-2.16-.07,0-.14-.11-.26,0V36a.74.74,0,0,1,0,.33,16,16,0,0,1-2.75-1.44,17.73,17.73,0,0,1-2.21-1.63V19a.76.76,0,0,0-.06-.44l-.12-.05a5.71,5.71,0,0,0-2.63-.1,4,4,0,0,0-3,2.61,8.37,8.37,0,0,0-.53,2.85,20.31,20.31,0,0,0,.05,2.06A27.54,27.54,0,0,1,.32,16.66C.29,16.46.26,16.25.24,16.05Z"/><path class="cls-1" d="M15,36.35a.74.74,0,0,0,0-.33V19.92c.12-.07.19,0,.26,0,1.1.67,2.17,1.38,3.21,2.16a6.28,6.28,0,0,1,2.18,3.2,8.16,8.16,0,0,1,.39,2.5q0,4.73,0,9.45c0,.12,0,.24,0,.37a12.31,12.31,0,0,1-3.77-.47A12.41,12.41,0,0,1,15,36.35Z"/><path class="cls-1" d="M3.81,25.94a20.31,20.31,0,0,1-.05-2.06A8.37,8.37,0,0,1,4.29,21a4,4,0,0,1,3-2.61,5.71,5.71,0,0,1,2.63.1l.12.05a.76.76,0,0,1,.06.44V33.28A15.25,15.25,0,0,1,8.3,31.73,28.13,28.13,0,0,1,4,26.19Z"/><rect class="cls-1" x="14.15" y="66.01" width="2.1" height="7.1"/><path class="cls-1" d="M20,87.59h2.35V81.45c0-1.09.1-6.82-6.86-6.82-5,0-7,3-7,6.9v6.13H11v-5.9c0-.61.34-3.56,3.08-3.56v9.39h2.66V78.13S20,78.44,20,81.39v6.2"/><path class="cls-1" d="M16.81,117.29h1.7v-4.45c0-.79.08-4.94-5-4.94-3.65,0-5,2.16-5,5v4.45h1.84v-4.27c0-.45.25-2.59,2.24-2.59v6.81h1.92v-6.86s2.32.23,2.32,2.36v4.5"/><path class="cls-1" d="M16.81,188.86h1.7v-4.45c0-.79.08-4.94-5-4.94-3.65,0-5,2.16-5,5v4.44h1.84v-4.27c0-.45.25-2.59,2.24-2.59v6.81h1.92V182s2.32.23,2.32,2.36v4.5"/><path class="cls-1" d="M8.49,89.34H18.73v6.92c0,1.37-1.51,2.37-3.29,2.37H8.57v-2.7h7.08a.67.67,0,0,0,.82-.74V91.87h-8V89.34"/><path class="cls-1" d="M8.49,151.05H18.73V158c0,1.36-1.51,2.37-3.29,2.37H8.57v-2.7h7.08a.68.68,0,0,0,.82-.75v-3.32h-8v-2.52"/><path class="cls-1" d="M8.49,191.05H18.73V198c0,1.36-1.51,2.36-3.29,2.36H8.57v-2.7h7.08a.68.68,0,0,0,.82-.75v-3.31h-8v-2.53"/><path class="cls-1" d="M16.39,101.65V99.43h2.29v2.1h3.54v2.19H18.75v2.88H16.39v-2.19c0-.3,0-.6-.79-.6H12c-.27,0-.72.36-.72,1.15v1.81H8.49v-2.91s.07-2.21,2.87-2.21h5"/><path class="cls-1" d="M8.49,121.8v-2.61h10v2.44H17.31s1.24,1,1.24,1.47v1.79h-2.1V121.8h-8"/><path class="cls-1" d="M16.34,127.81v-2.18h2.29v2h3.66v2.26H18.63v2.84H16.37V130H12.23c-.52,0-1,.31-1,1.16v1.65H8.49v-2.6a2.23,2.23,0,0,1,2.35-2.37h5.5"/><path class="cls-1" d="M16.34,203.33v-2.19h2.29v2h3.66v2.26H18.63v2.84H16.37v-2.71H12.23c-.52,0-1,.31-1,1.16v1.65H8.49v-2.6a2.23,2.23,0,0,1,2.35-2.37h5.5"/><path class="cls-1" d="M10.43,141.38l-.08-3.9s.22-1.17,1.17-1.17a1.26,1.26,0,0,1,1.3,1.14v3.93H10.43m8.08.35v-7h-2.3l.11,5c0,1.8-1.57,1.44-1.57,1.44v-4.76A2.61,2.61,0,0,0,11.84,134c-2,0-3.35,1.26-3.35,2.08v7.64h7.67C18.56,143.71,18.51,141.73,18.51,141.73Z"/><rect class="cls-1" x="8.49" y="146.3" width="10.22" height="3.05"/><path class="cls-1" d="M8.8,175.13h7s.8-.1.8-.8v-3h-8v-2.47h7.2a.71.71,0,0,0,.66-.69v-3l-8,0v-2.45H18.9v12.58a3.17,3.17,0,0,1-3.26,2.38H8.7v-2.65"/><rect class="cls-1" x="19.86" y="146.3" width="2.4" height="3.05"/><path class="cls-1" d="M15.52,65a8.57,8.57,0,0,1-3.1-.62,6.32,6.32,0,0,1-3.84-4.2,10.38,10.38,0,0,1,0-6.24A6.34,6.34,0,0,1,13,49.54a9.4,9.4,0,0,1,5.63,0,6.51,6.51,0,0,1,4.59,5,10.58,10.58,0,0,1,.25,3.37A9.49,9.49,0,0,1,23,60.37a6.56,6.56,0,0,1-4.74,4.29A10.38,10.38,0,0,1,15.52,65Zm.24-4.19a6.09,6.09,0,0,0,2.53-.48,3.46,3.46,0,0,0,2-4A3.28,3.28,0,0,0,19.81,55a3.7,3.7,0,0,0-2.3-1.47,8.07,8.07,0,0,0-3.69,0,4.21,4.21,0,0,0-1.62.75,3.63,3.63,0,0,0-1,4.12,3.32,3.32,0,0,0,1.93,1.92A6.47,6.47,0,0,0,15.76,60.76Z"/></g></g></svg>