<svg xmlns="http://www.w3.org/2000/svg" viewBox="0 0 275.69 80.04"><defs><style>.cls-1{fill:#03629e;}.cls-2{fill:#fff;}.cls-3{fill:#1c2a5f;}.cls-4{fill:#c21f71;}.cls-5{fill:#233a7f;}.cls-6{fill:#009481;}</style></defs><g id="Layer_2" data-name="Layer 2"><g id="design"><path class="cls-1" d="M29.08,20.52c.08.19.16.38.23.57C29.24,20.9,29.16,20.71,29.08,20.52Z"/><path class="cls-2" d="M29.31,21.09s0,0,0,.06Z"/><rect class="cls-3" x="56.95" y="14.4" width="7.11" height="2.1"/><path class="cls-4" d="M78.55,10.68V8.33H72.41c-1.1,0-6.83-.11-6.83,6.86,0,5,3,7,6.9,7h6.14V19.62h-5.9c-.62,0-3.57-.34-3.57-3.09h9.4V13.87H69.08s.31-3.19,3.26-3.19h6.21"/><path class="cls-3" d="M108.27,13.84v-1.7h-4.45c-.8,0-4.95-.08-4.95,5,0,3.66,2.16,5.05,5,5.05h4.45V20.32H104c-.44,0-2.59-.24-2.59-2.24h6.82V16.16h-6.86s.22-2.32,2.36-2.32h4.5"/><path class="cls-3" d="M179.89,13.84v-1.7h-4.45c-.8,0-4.95-.08-4.95,5,0,3.66,2.16,5.05,5,5.05h4.45V20.32h-4.28c-.45,0-2.59-.24-2.59-2.24h6.82V16.16H173s.23-2.32,2.37-2.32h4.5"/><path class="cls-3" d="M80.3,22.16V11.92h6.93c1.37,0,2.37,1.51,2.37,3.29v6.88H86.9V15a.68.68,0,0,0-.75-.82H82.83v8H80.3"/><path class="cls-3" d="M142.05,22.16V11.92H149c1.36,0,2.37,1.51,2.37,3.29v6.88h-2.71V15a.67.67,0,0,0-.75-.82h-3.32v8h-2.52"/><path class="cls-3" d="M182.08,22.16V11.92H189c1.36,0,2.37,1.51,2.37,3.29v6.88h-2.71V15a.67.67,0,0,0-.74-.82h-3.32v8h-2.53"/><path class="cls-3" d="M92.61,14.26H90.4V12h2.09V8.43h2.2V11.9h2.88v2.36H95.38c-.3,0-.61,0-.61.79v3.64c0,.28.37.72,1.16.72h1.81v2.75H94.83s-2.22-.06-2.22-2.87v-5"/><path class="cls-3" d="M112.78,22.16h-2.61v-10h2.44v1.17s1-1.24,1.48-1.24h1.78v2.1h-3.09v8"/><path class="cls-3" d="M118.8,14.31h-2.19V12h2V8.36h2.26V12h2.84v2.27H121v4.15c0,.51.31,1,1.16,1h1.65v2.75h-2.6a2.22,2.22,0,0,1-2.37-2.34V14.31"/><path class="cls-3" d="M194.37,14.31h-2.19V12h2V8.36h2.26V12h2.84v2.27h-2.71v4.15c0,.51.31,1,1.16,1h1.65v2.75h-2.6a2.22,2.22,0,0,1-2.37-2.34V14.31"/><path class="cls-3" d="M132.37,20.23l-3.9.08s-1.17-.22-1.17-1.18a1.25,1.25,0,0,1,1.14-1.29h3.93v2.39m.36-8.09h-7v2.3l5-.11c1.81,0,1.45,1.57,1.45,1.57h-4.76A2.61,2.61,0,0,0,125,18.81c0,2,1.26,3.35,2.08,3.35h7.65V14.49C134.71,12.09,132.73,12.14,132.73,12.14Z"/><rect class="cls-3" x="137.29" y="11.93" width="3.05" height="10.23"/><path class="cls-3" d="M166.15,21.85v-7s-.1-.8-.8-.8h-3v8h-2.47V14.8a.71.71,0,0,0-.69-.66h-3l0,8h-2.45V11.75h12.59A3.17,3.17,0,0,1,168.79,15v7h-2.65"/><path class="cls-4" d="M47.66,19.7c-3,0-4.39-2.13-4.39-4.76s1.39-4.76,4.39-4.76,4.39,2.13,4.39,4.76-1.51,4.76-4.39,4.76m0-12.42c-5.2,0-7.62,3.38-7.62,7.56s2.42,7.56,7.62,7.56c5,0,7.61-3.39,7.61-7.56S52.66,7.28,47.66,7.28Z"/><rect class="cls-5" x="137.29" y="8.38" width="3.05" height="2.41"/><path class="cls-3" d="M31.69,4.66c3.31,5.6-.58,14-8.69,18.81S5.64,27.61,2.33,22,2.92,8,11,3.21,28.38-.93,31.69,4.66"/><path class="cls-4" d="M20.12,10.64a6.08,6.08,0,0,1,4.29-1.75h8.44a8.7,8.7,0,0,0-1.11-4.12H25.38a13.42,13.42,0,0,0-9.55,3.59,19.5,19.5,0,0,0-5,8.41c-.82,2.63-1.56,7.89,3.93,9.68a22.93,22.93,0,0,0,8.24-3h0c-8.25.7-6.23-5.29-6.23-5.29H29.22A17.58,17.58,0,0,0,31.79,14H17.84a25,25,0,0,1,2.28-3.33"/><path class="cls-6" d="M6,60.07h8.55v2H9.38a4.05,4.05,0,0,1-2.78-.82A2.23,2.23,0,0,1,6,60.07m8.55-4.77H6V53.46h8.59Zm5.78-1.84h8.59V55.3H20.35Zm6.2,8.64h-6.2v-2h8.57A2.09,2.09,0,0,1,26.55,62.1ZM34.94,73c-4.31-.45-7.67-2.7-9.27-6.11,3.28,0,5.13-1.08,6-2a7.77,7.77,0,0,0,2-5.28V48.69H20.35V46.78H35V42H20.35V39.57H14.57V42H0v4.77H14.57v1.91H1.22V59.63a7.12,7.12,0,0,0,1.9,4.91,8.25,8.25,0,0,0,6.2,2.32C7.58,70.87,3.52,72.39,0,73v5.69c6.56-.88,12.13-3.92,14.57-9.5v9.56h5.78V69.05c2.45,5.51,7.81,9.17,14.59,9.68Z"/><path class="cls-6" d="M38,46.69a14.56,14.56,0,0,1,6.69,1.38V42.91a21.21,21.21,0,0,0-6.7-1v4.77"/><path class="cls-6" d="M53.46,50H59.9v2.21H53.46Zm0,7H59.9v2.21H53.46Zm6.44,9.3H54.17c-.35,0-.58-.23-.71-.67V64H59.9ZM73.19,50V45.23H65.62V39.58H59.9v5.65H53.46V39.56l-4.77,0c.07,5.24-2,9.28-4.14,11l3,3.67a12.09,12.09,0,0,0,1.11-1V65.66A5.41,5.41,0,0,0,54.17,71h19V66.27H65.62V64h7.57V59.18H65.62V57h7.57V52.21H65.62V50Z"/><path class="cls-6" d="M47.1,69.52V58.76c0-3.32-2.06-5.84-4.71-5.84H37.86v5.72h3.67V69.25c0,1-1.67,2.75-3.67,3.47v5.91a13.09,13.09,0,0,0,6-2.88,11.06,11.06,0,0,0,7.8,2.93H73.22V73h-21c-3.28,0-5.12-1.18-5.12-3.43"/><path class="cls-6" d="M183.74,48.6l4.88-2.69h-9l4.11,2.69m-9.89.35s1.35-1.9,1.63-2.38.3-.83-.28-.86h-8.9V40.39h30.58v3.47s.19,3-3.34,5.07l-5.62,3.39,1.15,1.22-.7,1.09.45.36H200v5c0,1.67-2,11.5-12.49,12.49V67.13s6.52-1.35,6.65-6.62H185.6V72.37c0,1.12-.86,6.29-6.07,6.29h-7V73.1h7.39V60.48H164.54V55h17.4S181.3,52.45,173.85,49Z"/><path class="cls-6" d="M212.89,54.69h-2.07V73s2.07-2,2.07-7.09V54.69m0-9.41L211,49.61h7.17V48h-5.32Zm10.44,4.37h5.07V48h-5.07Zm-9.73-7h4.73V39.53h5.08v3.32h5V39.53h5.07v3.28h4.25V48h-4.13v1.65h4.54v5.08H218v10c0,8.7-4,13.52-4,13.52l-3.3-2.14v2.6h-4.91V61.33c0-2.85-1.12-1.08-1.12-1.08l-1.44,1.86V53.65c3.39-4.82,5.94-13.65,5.94-13.65h5Z"/><path class="cls-6" d="M230.68,74h1.92V72.36h-1.92Zm.09-6.41h1.42v-.92h-1.42Zm0-5.22h1.42v-.93h-1.42Zm-6.65,5.22h1.42v-.92h-1.42Zm0-5.22h1.42v-.93h-1.42Zm8.17,16.14-1.67-4v4.27h-4.83V72.42h-1.67v6.25h-4.64V59.14a2.8,2.8,0,0,1,2.81-2.8h12.08a2.8,2.8,0,0,1,2.8,2.8v16.6C237.17,78.6,232.29,78.48,232.29,78.48Z"/><path class="cls-6" d="M263.3,63.16v-4.3h-3.17L263.4,50h1.54l4.34,8.9h-3.13v4.3s-.49,3.27-1.34,3.27c0,0-1.23-.69-1.51-3.27m-9.37-5s-3.41-2.43-3-5.49h3.67V50h2.88C257.51,51.08,257.26,54.22,253.93,58.11ZM275.69,50V44.71h-8.6V39.58H262v5.13H253.3v2.66h-2.85v-7.8h-4.94v7.8h-4.15v5.25h4.12s-.25,7.05-4,11.1v6.72l4-3.06V78.73h4.94V61.79l4.35,2.59a9.62,9.62,0,0,0,3.47-2.85s.66,7.3,2.88,9.61a8.67,8.67,0,0,1-5.73,2.64h-2.63v5s7.89-1.1,10-2.73c1.65-1.24,1.44-1.48,3.08-.07,1.28,1.11,4.47,2.87,9.77,2.83V74.06s-6-.36-7.5-2.84A26.42,26.42,0,0,0,271.05,61a29.19,29.19,0,0,0,4.62,3.26V58.15s-5.08-5.66-4.52-8.19Z"/><path class="cls-6" d="M118.65,64l0-9.67A2.36,2.36,0,0,0,118,53a1.66,1.66,0,0,1-.49-.78.07.07,0,0,1,0-.05c0-.07.14-.11.32-.12s.56-.14.56-1V46.51a3.09,3.09,0,0,0-.65-1.89s-.91-.91-1.45-1.47v0l-2.81-2.72a2.22,2.22,0,0,0-1.9-.74h-6.13a2.17,2.17,0,0,0-1.86.85,2.41,2.41,0,0,0-1.51-.43h-2.5c-.27-.26-2.42-2.37-3.93-2.37a2,2,0,0,0-1.35.47,2.54,2.54,0,0,0-.78,1.75H90.15c-.27-.2-2.59-2-3.62-1.89,0,0-.65-.23-1.67,1,0,0-3.68,3.07-4.91,3.39-1.43.37-2,1.55-2,4.35v4.51l.09,0a14.42,14.42,0,0,1,2,1.19l-1.53,1.2c-.4.31-.6.53-.6,1.75v6.18S81,64.81,81.1,64.89v8.73l3.05,3.23a13.88,13.88,0,0,0,3,2.87,3.56,3.56,0,0,0,3,0,1.11,1.11,0,0,0,.56-1v-2s0-.31.64-.31H97.8l3.36,3.2s.37.41,1.47.39h1.31a1.41,1.41,0,0,0,1-1.44v-3a.64.64,0,0,1,.06-.39s.1,0,.36.27,3.51,3.48,4.23,3.67a5.74,5.74,0,0,0,1.45.15H114a2.85,2.85,0,0,0,2.07-.82,3.18,3.18,0,0,0,.83-2.29s0-10.15,0-11L118.65,64"/><path class="cls-6" d="M161.78,76.45V73.11a1.82,1.82,0,0,0-.44-1.27l-1.52-1.47c-.09,0-.29-.14-.29-1v-2.1a.61.61,0,0,1,.26-.49s.89-.45.89-1.22V61.77a1.37,1.37,0,0,0-.39-1.08l-1.12-1.28V47.69a2.12,2.12,0,0,0-.55-1.83l-2.23-2.69a1.27,1.27,0,0,0-.1-.12l-.15-.19h0l-2.76-2.59s-.56-.86-2.83-.86H126.59a3.91,3.91,0,0,0-2.77.8,3,3,0,0,0-.91,2.34V53.1a3.56,3.56,0,0,0,1.57,2.8,23.12,23.12,0,0,1-2.46.92s-1.68.19-1.68,2.67v3.38a3.42,3.42,0,0,0,1.32,2.83c-.35.22-.89.88-.89,2.86v2.26c0,1.56.1,1.9,1.54,3.14l1.61,1.55h0L127,78.57a1.71,1.71,0,0,0,1,.35h32.05a2,2,0,0,0,1.33-.45,1.58,1.58,0,0,0,.45-1.19c0-.6,0-.77-.05-.83"/><path class="cls-2" d="M90.09,40.23h3.65v-.14a2.41,2.41,0,0,1,.7-1.69A1.72,1.72,0,0,1,95.6,38c1.46,0,3.74,2.3,3.77,2.33l0,0H102a1.92,1.92,0,0,1,1.42.45l.16.18.09-.23c.38-.91,1.67-.82,1.69-.82h6.14a2,2,0,0,1,1.67.62s2.49,2.42,2.73,2.66v4.45c0,1.32-1,1.34-1,1.34-.26,0-.59.06-.67.3a.31.31,0,0,0,0,.1c0,.24.26.46.35.53l1.33,1.4a2.4,2.4,0,0,1,.34,1.31v3a2,2,0,0,1-.54,1.53,1.9,1.9,0,0,1-1.22.5h-.16V72.55c0,2.44-1.16,3.67-3.44,3.67h-3a3.64,3.64,0,0,1-1.35-.33S104,73.36,104,73.36l0,0H102.2v2.26a1.07,1.07,0,0,1-.77,1,3.31,3.31,0,0,1-3.07-.3l-2.92-3H87.93v2.31a1.4,1.4,0,0,1-1,1.25,2.84,2.84,0,0,1-2.52,0l-3-3.22V64.77l-3.16-3.22v-6c0-1.13.18-1.26.48-1.5l1.86-1.46-.16-.12a13.21,13.21,0,0,0-2.12-1.3V46.8c0-2.63.47-3.72,1.72-4s4.91-3.35,5.06-3.48c.89-1.09,1.4-1,1.4-1,.86,0,2.83,1.34,3.52,1.88l0,0h0"/><path class="cls-2" d="M122.52,73.74c-1.41-1.22-1.45-1.49-1.45-2.92V68.56c0-2.51.89-2.68.9-2.68l.56-.09-.53-.2c-1.28-.5-1.35-2.32-1.35-2.75V59.49c0-2.2,1.38-2.37,1.43-2.38a15,15,0,0,0,2.75-1l.21-.14-.22-.12a3.23,3.23,0,0,1-1.61-2.7V42.56a2.73,2.73,0,0,1,.81-2.11,3.74,3.74,0,0,1,2.55-.73h24c2.07,0,2.59.74,2.6.74S156,43.2,156,43.2a2.19,2.19,0,0,1,.39,1.36V56.29a1,1,0,0,0,.47.77h0l.66.71a2.67,2.67,0,0,1,.45,1.58v2.93a2,2,0,0,1-.61,1.38c-.53.33-.6.64-.6.79a.54.54,0,0,0,0,.08v2.58A3.09,3.09,0,0,0,157.85,69l.28.31a2.1,2.1,0,0,1,.39,1.31v3.15c0,1.26-.74,1.84-2.34,1.84l-31.68,0c-.08-.09-2-1.91-2-1.91"/><path class="cls-6" d="M127,61.67s-.8-.15-.29-.67c0,0,1-1.18,1.54-1.15a1.15,1.15,0,0,0,.46.1h8.9c.28.07.69.26.7.69v.51s0,.52-1,.52H127M138.26,55v.46s0,.63-1,.63h-6s-.93-.25-.53-.88c.26-.4.52-.84.63-1h6C137.62,54.23,138.26,54.37,138.26,55Zm-11.54-3.93a.9.9,0,0,1,0-1.79h23.61a.9.9,0,0,1,0,1.79Zm0-6.35h23.61a.89.89,0,1,1,0,1.78H126.72a.89.89,0,0,1,0-1.78Zm26.9,22.8H141c-.48,0-1.27-.1-1.27-.5V66.3s0-.21.6-.38h11.55A1.07,1.07,0,0,0,153,64.85v-2.1a1.08,1.08,0,0,0-1.08-1.08H141c-.49,0-1.29-.1-1.27-.49v-.59s0-.48.92-.64h12.27A1.07,1.07,0,0,0,154,58.87v-1.7a1.07,1.07,0,0,0-1.07-1.07h-11.6c-.08,0-1.48,0-1.48-.58v-.45s-.06-.79,1.09-.87h10.43a1.07,1.07,0,0,0,1.08-1.07V42.41a1.07,1.07,0,0,0-1.08-1.07H125.44a1.08,1.08,0,0,0-1.08,1.07V53.13a1.08,1.08,0,0,0,1.08,1.07h3.24c.31.1.59.3.34.67a10.78,10.78,0,0,1-5.71,3.53S122,58.3,122,60v3s0,1.13,1.48.33c0,0,1.89-1.32,2.18-1.07,0,0,.19-.15.19.57v2a1.07,1.07,0,0,0,1.07,1.07H137.8c.19.1.36.2.37.4V67s.08.52-.92.52H123.49a1.07,1.07,0,0,0-1.08,1.07v2.22a1.08,1.08,0,0,0,1.08,1.08h30.13a1.08,1.08,0,0,0,1.07-1.08V68.6A1.07,1.07,0,0,0,153.62,67.53Z"/><path class="cls-6" d="M81.14,44.1a1.47,1.47,0,0,0-1.39,1.68v2.45c0,.8.29,1.44,1.46.54,0,0,3-1.69,5.9-7.51.8-1.6-.46-1.22-1.08-.61a11.45,11.45,0,0,1-4.89,3.45"/><path class="cls-6" d="M92.71,65.59s0-.52,0-.69-.09-.55,1-.55h2.36s.89.05.88.55v.54s0,.41-.55.56H93.48c-.38-.07-.77-.17-.77-.41m-3-9a.66.66,0,1,1,0-1.32H101a.66.66,0,1,1,0,1.32ZM103,66H99.44c-.43-.06-1.07-.15-1.07-.46,0,0,0-.39,0-.56s-.1-.63,1-.63h3.06a1,1,0,0,0,1-1V62a1,1,0,0,0-1-1h-2.6c-.14,0-1.46,0-1.46-.46v-.37c0-.16-.1-.63,1-.63h2.53a1,1,0,0,0,1-1V53a1,1,0,0,0-1-1H88.62a1,1,0,0,0-1,1v5.67a1,1,0,0,0,1,1h7.46s.89,0,.88.55v.35s0,.56-.89.56H88.28a1,1,0,0,0-1,1v1.35a1,1,0,0,0,1,1h2.45s.89.05.88.55v.54s0,.41-.56.56H86.48a1,1,0,0,0-1,1v1.5a1,1,0,0,0,1,1H96.59c.26,0,.52.29.52.84v2.19c0,.25.11.45.6.45,0,0,.64,0,.65-.41,0-.21,0-2.24,0-2.24s0-.82.58-.83c1.79,0,4.08,0,4.08,0a1,1,0,0,0,1-1V67A1,1,0,0,0,103,66Z"/><path class="cls-6" d="M111.14,45.42a1,1,0,0,0,1-1V42.57a1,1,0,0,0-1-1h-5.77a1,1,0,0,0-1,1v1.87a1,1,0,0,0,1,1h5.77"/><path class="cls-6" d="M111.34,49.81h-6.28a1,1,0,0,0-1,1v2a1,1,0,0,0,1,1H108s1.09,0,1.09.93v12c0,.3-.14,1.7-1.22,1.68h-2.31a1,1,0,0,0-1,1v2a1,1,0,0,0,1,1h2.73a2,2,0,0,0,2.18-2.11V54.71s0-1,.61-1h.3a1,1,0,0,0,1-1v-2a1,1,0,0,0-1-1"/><path class="cls-6" d="M107.55,58.05a.39.39,0,0,0-.39-.39.38.38,0,0,0-.39.39v3.49h0s0,.42-.25.55c0,0,.82.77.82,1.32v1.12s0,.09.12.09a.09.09,0,0,0,.1-.09V58.05"/><path class="cls-6" d="M100.7,47.08H95.85c-.62,0-1.58-.16-1.39-.75a1,1,0,0,1,1-.82h5.26a.79.79,0,0,1,0,1.57m3.18,0h-.12s-.84-.06-.84-.56v-3.8a.65.65,0,0,0-.65-.65H97.16c-1.07,0-.86-.65-.86-.65.1-.24.27-.81.27-.81a.56.56,0,0,0-.35-.76.72.72,0,0,0-.9.33s-.11.31-.45,1.08a1.21,1.21,0,0,1-1.07.81h-5a.65.65,0,0,0-.65.65v2.14a.66.66,0,0,0,.65.65H92.6c.2,0,.44.16.37.59,0,0,0,1-1.45,1H87.38a.65.65,0,0,0-.66.65V50a.61.61,0,0,0,.11.35.6.6,0,0,1-.11-.33V48.62c0,.33-.3.55-.44.51-.33-.1-.7.1-1.24.88a15.69,15.69,0,0,1-4,4.19,1.92,1.92,0,0,0-1.27,2v3.91c0,.81.75,1.15,1.39.34.27-.35.53-.69.77-1s.83-.83.83-.07V72.56a.33.33,0,0,0,.33.33h.73a.32.32,0,0,0,.32-.33V55.62c.56-1.29,1.14-2.92,2-5,.19-.44.46-.34.67-.26a.67.67,0,0,0,.55.28h16.5a.65.65,0,0,0,.65-.65V47.73A.65.65,0,0,0,103.88,47.08Z"/></g></g></svg>