<svg xmlns="http://www.w3.org/2000/svg" viewBox="0 0 343.44 27.57"><defs><style>.cls-1{fill:#08887b;}.cls-2{fill:#fff;}.cls-3{fill:none;stroke:#fff;stroke-linecap:round;stroke-linejoin:round;stroke-width:0.69px;}.cls-4{fill:#1b2c76;}.cls-5{fill:#c01577;}</style></defs><g id="Layer_2" data-name="Layer 2"><g id="design"><path class="cls-1" d="M167.89,14.57h5.56v1.32h-3.38a2.62,2.62,0,0,1-1.8-.54,1.41,1.41,0,0,1-.38-.78m5.56-3.11h-5.59v-1.2h5.59Zm3.77-1.2h5.59v1.2h-5.59Zm4,5.63h-4V14.57h5.57A1.36,1.36,0,0,1,181.25,15.89ZM186.71,23a7.22,7.22,0,0,1-6-4,5.31,5.31,0,0,0,3.91-1.29,5.07,5.07,0,0,0,1.32-3.44V7.16h-8.69V5.91h9.51V2.81h-9.51V1.22h-3.77V2.81H164v3.1h9.46V7.16h-8.69v7.12A4.61,4.61,0,0,0,166,17.47,5.37,5.37,0,0,0,170,19c-1.13,2.6-3.77,3.59-6.05,4v3.71c4.26-.58,7.89-2.56,9.48-6.19v6.22h3.77v-6.3a10.91,10.91,0,0,0,9.49,6.3Z"/><path class="cls-1" d="M188.68,5.86a9.32,9.32,0,0,1,4.35.89V3.39a13.8,13.8,0,0,0-4.36-.64V5.86"/><path class="cls-1" d="M198.77,8H203V9.44h-4.19Zm0,4.54H203V14h-4.19ZM203,18.6h-3.73c-.22,0-.38-.15-.46-.44V17.09H203ZM211.61,8V4.9h-4.93V1.22H203V4.9h-4.19V1.21l-3.11,0c.05,3.41-1.32,6-2.69,7.17l2,2.4a9.2,9.2,0,0,0,.72-.68V18.2a3.54,3.54,0,0,0,3.57,3.51h12.38V18.6h-4.93V17.09h4.93V14h-4.93V12.55h4.93V9.44h-4.93V8Z"/><path class="cls-1" d="M194.63,20.72v-7c0-2.16-1.34-3.8-3.06-3.8h-2.94v3.72H191v6.91c0,.68-1.09,1.79-2.39,2.26v3.84a8.43,8.43,0,0,0,3.9-1.87,7.19,7.19,0,0,0,5.08,1.91h14V23H198c-2.13,0-3.33-.77-3.33-2.23"/><path class="cls-1" d="M241.21,17.1l0-6.3a1.5,1.5,0,0,0-.44-.84,1.08,1.08,0,0,1-.32-.51.06.06,0,0,1,0,0s.09-.07.21-.07.36-.09.36-.63v-3a2,2,0,0,0-.42-1.23l-1-1v0l-1.82-1.77a1.48,1.48,0,0,0-1.24-.48h-4a1.4,1.4,0,0,0-1.21.56,1.54,1.54,0,0,0-1-.28h-1.63c-.18-.18-1.58-1.55-2.56-1.55a1.34,1.34,0,0,0-.88.31,1.67,1.67,0,0,0-.51,1.14h-2.17c-.17-.14-1.68-1.27-2.36-1.24,0,0-.41-.14-1.08.68A17.91,17.91,0,0,1,216,3.1c-.93.24-1.27,1-1.27,2.82V8.86l.06,0a9.92,9.92,0,0,1,1.29.78l-1,.78c-.25.2-.39.35-.39,1.14v4s2,2,2.06,2.09v5.69l2,2.1a8.72,8.72,0,0,0,1.94,1.87,2.33,2.33,0,0,0,1.95,0,.72.72,0,0,0,.36-.63V25.4s0-.2.42-.2h4.21l2.19,2.08s.24.27,1,.26h.85a.91.91,0,0,0,.67-.94V24.66a.39.39,0,0,1,0-.26s.06,0,.23.17A17.88,17.88,0,0,0,235.32,27a3.16,3.16,0,0,0,1,.1h1.89a1.89,1.89,0,0,0,1.35-.53,2.08,2.08,0,0,0,.54-1.49s0-6.61,0-7.16l1.18-.78"/><path class="cls-1" d="M269.28,25.23V23.15a.58.58,0,0,0,0-.1,1.19,1.19,0,0,0-.29-.82l-1-1c-.06,0-.19-.09-.19-.63V19.28A.38.38,0,0,1,268,19s.58-.29.58-.8V15.67a.85.85,0,0,0-.26-.7s-.65-.75-.72-.83V6.51a1.39,1.39,0,0,0-.36-1.2l-1.45-1.75-.07-.08-.1-.12h0l-1.8-1.69s-.36-.56-1.84-.56H246.38a2.57,2.57,0,0,0-1.81.52A2,2,0,0,0,244,3.17V10a2.31,2.31,0,0,0,1,1.82,13.67,13.67,0,0,1-1.6.6s-1.09.12-1.09,1.74v2.2a2.22,2.22,0,0,0,.86,1.84c-.23.14-.59.57-.59,1.86v1.48c0,1,.07,1.23,1,2l1,1h0l2,2a1.09,1.09,0,0,0,.65.23h20.87a1.29,1.29,0,0,0,.86-.3,1,1,0,0,0,.3-.78c0-.38,0-.49,0-.53"/><path class="cls-1" d="M283.58,7.09l3.18-1.75h-5.85l2.67,1.75m-6.44.23s.88-1.23,1.07-1.54.19-.55-.19-.56h-5.79V1.75h19.9V4A3.85,3.85,0,0,1,290,7.31L286.3,9.52l.75.79-.46.72.3.23h7.25v3.26c0,1.08-1.32,7.48-8.13,8.13V19.16s4.24-.88,4.33-4.31h-5.55v7.72c0,.73-.56,4.1-4,4.1h-4.55V23.05h4.8V14.83h-10V11.28h11.33S282,9.6,277.14,7.32Z"/><path class="cls-1" d="M302.56,11.06h-1.35V23s1.35-1.31,1.35-4.62V11.06m0-6.12-1.2,2.82H306v-1h-3.47Zm6.8,2.84h3.3V6.71h-3.3ZM303,3.25h3.09V1.19h3.3V3.35h3.25V1.19H316V3.33h2.77V6.71H316V7.78h3v3.31H305.86v6.52a14.62,14.62,0,0,1-2.58,8.81L301.13,25v1.69h-3.19V15.38c0-1.85-.73-.7-.73-.7l-.94,1.21v-5.5c2.2-3.14,3.87-8.89,3.87-8.89h3.25Z"/><path class="cls-1" d="M314.14,23.61h1.25V22.56h-1.25Zm.06-4.17h.92v-.6h-.92Zm0-3.4h.92v-.61h-.92Zm-4.33,3.4h.93v-.6h-.93Zm0-3.4h.93v-.61h-.93Zm5.32,10.51L314.1,24v2.78H311V22.6h-1.09v4.07h-3V14a1.83,1.83,0,0,1,1.83-1.83h7.86A1.83,1.83,0,0,1,318.37,14v10.8C318.37,26.63,315.19,26.55,315.19,26.55Z"/><path class="cls-1" d="M335.37,16.58v-2.8h-2.06L335.44,8h1l2.83,5.8h-2v2.8s-.32,2.12-.87,2.12c0,0-.8-.44-1-2.12m-6.09-3.29s-2.23-1.59-2-3.57h2.39V8h1.88C331.61,8.71,331.45,10.76,329.28,13.29ZM343.44,8V4.56h-5.6V1.22H334.5V4.56h-5.64V6.29H327V1.22h-3.22V6.29h-2.7V9.72h2.69s-.17,4.59-2.61,7.22v4.38l2.62-2v7.39H327v-11l2.83,1.69a6.26,6.26,0,0,0,2.26-1.85s.43,4.75,1.88,6.25a5.67,5.67,0,0,1-3.73,1.72h-1.72v3.24s5.14-.71,6.54-1.77c1.07-.81.93-1,2-.05a9.71,9.71,0,0,0,6.36,1.84V23.67s-3.92-.24-4.89-1.85a17.15,17.15,0,0,0,1.88-6.68,19,19,0,0,0,3,2.12v-4S340.12,9.63,340.48,8Z"/><path class="cls-2" d="M222.62,1.65H225v-.1a1.5,1.5,0,0,1,.46-1.09A1.1,1.1,0,0,1,226.2.2c1,0,2.44,1.5,2.45,1.52l0,0h1.72a1.23,1.23,0,0,1,.92.29l.1.12.06-.15c.25-.6,1.09-.54,1.1-.54h4a1.29,1.29,0,0,1,1.09.41s1.62,1.57,1.77,1.73v2.9c0,.85-.64.87-.67.87s-.38,0-.43.19a.13.13,0,0,0,0,.06.52.52,0,0,0,.23.35l.86.91a1.6,1.6,0,0,1,.22.86v1.94a1.31,1.31,0,0,1-.35,1,1.19,1.19,0,0,1-.79.32h-.1v9.68c0,1.58-.76,2.39-2.25,2.39h-2a2.43,2.43,0,0,1-.88-.21s-1.65-1.66-1.65-1.66l0,0H230.5v1.48a.7.7,0,0,1-.5.62,2.15,2.15,0,0,1-2-.2l-1.9-2h-4.89v1.51a.9.9,0,0,1-.63.81,1.84,1.84,0,0,1-1.63,0l-2-2.1V17.62l-2.06-2.09V11.59c0-.73.11-.82.32-1l1.2-.95-.1-.08a8.34,8.34,0,0,0-1.38-.84V5.92c0-1.7.3-2.42,1.12-2.63A16.94,16.94,0,0,0,219.35,1c.59-.72.91-.62.91-.62a5.84,5.84,0,0,1,2.3,1.22l0,0h0"/><path class="cls-2" d="M243.73,23.46c-.92-.79-.95-1-.95-1.89V20.09c0-1.63.58-1.74.59-1.74l.36-.06-.34-.13c-.83-.33-.88-1.52-.88-1.79V14.19c0-1.43.89-1.55.93-1.55a8.58,8.58,0,0,0,1.79-.69l.14-.09-.14-.08a2.09,2.09,0,0,1-1-1.75V3.17a1.78,1.78,0,0,1,.53-1.38,2.4,2.4,0,0,1,1.65-.47H262c1.35,0,1.69.48,1.69.49l1.89,1.77a1.48,1.48,0,0,1,.25.88V12.1a.6.6,0,0,0,.3.5h0l.43.47a1.67,1.67,0,0,1,.3,1V16a1.31,1.31,0,0,1-.4.89c-.34.21-.39.42-.39.51a.35.35,0,0,0,0,.06v1.68a2,2,0,0,0,.7,1.23l.18.2a1.42,1.42,0,0,1,.26.86.15.15,0,0,1,0,.06v2c0,.82-.48,1.2-1.52,1.2l-20.62,0-1.29-1.25"/><path class="cls-1" d="M246.61,15.61s-.52-.1-.19-.44c0,0,.66-.77,1-.75a.65.65,0,0,0,.29.06h5.8c.18,0,.45.17.46.46v.33s0,.34-.66.34h-6.71M254,11.27v.3s0,.41-.67.41h-3.89s-.61-.16-.34-.57l.4-.66h3.92C253.55,10.76,254,10.85,254,11.27Zm-7.51-2.56a.58.58,0,1,1,0-1.16h15.37a.58.58,0,1,1,0,1.16Zm0-4.13h15.37a.58.58,0,1,1,0,1.16H246.46a.58.58,0,1,1,0-1.16ZM264,19.42h-8.2c-.32,0-.83-.06-.83-.32v-.48s0-.14.39-.25h7.52a.7.7,0,0,0,.7-.7V16.31a.7.7,0,0,0-.7-.7h-7.09c-.31,0-.83-.07-.82-.33V14.9s0-.31.6-.42h8a.69.69,0,0,0,.7-.69V12.68a.7.7,0,0,0-.7-.7H256c-.05,0-1,0-1-.38v-.29s0-.51.71-.56h6.79a.7.7,0,0,0,.7-.7v-7a.7.7,0,0,0-.7-.7H245.63a.7.7,0,0,0-.7.7v7a.7.7,0,0,0,.7.7h2.11c.2.06.38.19.22.43a7,7,0,0,1-3.72,2.3s-.88-.07-.88,1v1.93s0,.74,1,.22c0,0,1.23-.86,1.42-.7,0,0,.12-.1.12.37v1.33a.7.7,0,0,0,.7.7h7.11c.13.07.24.13.24.27v.44s.06.34-.59.34h-9a.7.7,0,0,0-.7.7v1.44a.7.7,0,0,0,.7.7H264a.7.7,0,0,0,.7-.7V20.12A.7.7,0,0,0,264,19.42Z"/><path class="cls-1" d="M216.79,4.16s-.9,0-.9,1.1v1.6c0,.52.18.93.94.35,0,0,1.94-1.1,3.84-4.89.53-1-.3-.8-.69-.4a7.54,7.54,0,0,1-3.19,2.24"/><path class="cls-1" d="M224.32,18.16s0-.34,0-.45-.06-.36.65-.36h1.53s.58,0,.58.36v.35s0,.26-.36.36h-1.9c-.24,0-.5-.1-.5-.26m-2-5.88a.43.43,0,1,1,0-.86h7.4a.43.43,0,1,1,0,.86ZM231,18.42H228.7c-.28,0-.7-.09-.7-.3,0,0,0-.25,0-.36s-.06-.41.65-.41h2a.63.63,0,0,0,.63-.63v-.88a.63.63,0,0,0-.63-.63H229c-.09,0-1,0-1-.3v-.24c0-.1-.06-.41.65-.41h1.65a.63.63,0,0,0,.63-.64V9.94a.63.63,0,0,0-.63-.64h-8.65a.64.64,0,0,0-.64.64v3.68a.64.64,0,0,0,.64.64h4.85s.58,0,.58.36v.23s0,.36-.58.36h-5.08a.63.63,0,0,0-.63.63v.88a.63.63,0,0,0,.63.63H223s.58,0,.58.36v.35s0,.26-.36.36h-3a.64.64,0,0,0-.63.64v1a.64.64,0,0,0,.63.64h6.59c.17,0,.33.19.33.55v1.43c0,.16.08.29.39.29,0,0,.42,0,.43-.27s0-1.46,0-1.46,0-.53.38-.54c1.16,0,2.65,0,2.65,0a.64.64,0,0,0,.64-.64v-1A.64.64,0,0,0,231,18.42Z"/><path class="cls-1" d="M236.32,5a.64.64,0,0,0,.64-.63V3.18a.64.64,0,0,0-.64-.64h-3.76a.63.63,0,0,0-.63.64V4.39a.63.63,0,0,0,.63.63h3.76"/><path class="cls-1" d="M236.45,7.89h-4.09a.64.64,0,0,0-.64.63V9.79a.64.64,0,0,0,.64.64h1.89s.71,0,.71.61v7.83c0,.19-.09,1.11-.79,1.09h-1.51a.64.64,0,0,0-.64.64v1.29a.64.64,0,0,0,.64.63h1.78a1.3,1.3,0,0,0,1.41-1.37V11.07s0-.64.4-.64h.2a.64.64,0,0,0,.64-.64V8.52a.64.64,0,0,0-.64-.63"/><path class="cls-1" d="M234,13.25a.25.25,0,0,0-.25-.25.26.26,0,0,0-.26.25v2.27h0s0,.28-.16.36.53.5.53.86v.73s0,.05.08.05a0,0,0,0,0,.06-.05V13.25"/><path class="cls-1" d="M229.52,6.11h-3.16c-.4,0-1-.1-.9-.49a.67.67,0,0,1,.67-.53h3.43a.47.47,0,0,1,.47.52.48.48,0,0,1-.51.5m2.07,0h-.07s-.55,0-.55-.37V3.27a.42.42,0,0,0-.42-.43h-3.33c-.7,0-.56-.42-.56-.42.06-.16.17-.53.17-.53a.36.36,0,0,0-.22-.49.46.46,0,0,0-.59.21s-.07.2-.29.7a.8.8,0,0,1-.7.53h-3.28a.43.43,0,0,0-.43.43V4.66a.42.42,0,0,0,.42.43h2.51c.13,0,.29.1.24.38,0,0,0,.64-.94.64h-2.7a.42.42,0,0,0-.43.42V8a.48.48,0,0,0,.07.23.46.46,0,0,1-.07-.22V7.11c0,.21-.19.36-.28.33s-.46.07-.81.58a10.22,10.22,0,0,1-2.62,2.73,1.24,1.24,0,0,0-.82,1.3V14.6c0,.52.48.75.9.22.18-.23.34-.45.5-.67s.54-.54.54,0V22.7a.21.21,0,0,0,.21.21h.48a.21.21,0,0,0,.21-.21v-11c.37-.84.74-1.9,1.33-3.29.12-.28.29-.22.44-.16a.42.42,0,0,0,.35.18h10.74A.42.42,0,0,0,232,8V6.53A.42.42,0,0,0,231.59,6.11Z"/><path class="cls-3" d="M11.67,26.22a14,14,0,0,1-3.3.12,11,11,0,0,1-3.14-.68,7.79,7.79,0,0,1-3.18-2.18A6.94,6.94,0,0,1,.44,20a9.07,9.07,0,0,1,.5-4.47,14.19,14.19,0,0,1,2.88-4.79A20,20,0,0,1,14,4.54,15.52,15.52,0,0,1,18,4.06a11.16,11.16,0,0,1,4.72,1,7.37,7.37,0,0,1,3.06,2.66c.06.1.11.2.16.3h-5.2c-.41,0-.82,0-1.23,0a13.22,13.22,0,0,0-2.25.38A10.28,10.28,0,0,0,13,10.7a15.61,15.61,0,0,0-2.63,3.11A17.25,17.25,0,0,0,8.34,18.5,8.53,8.53,0,0,0,8.05,22a4.75,4.75,0,0,0,2.77,3.85C11.1,26,11.39,26.09,11.67,26.22Z"/><path class="cls-3" d="M11.67,26.22c-.28-.13-.57-.25-.85-.39A4.75,4.75,0,0,1,8.05,22a8.53,8.53,0,0,1,.29-3.48,17.25,17.25,0,0,1,2.07-4.69A15.61,15.61,0,0,1,13,10.7a10.28,10.28,0,0,1,4.25-2.22,13.22,13.22,0,0,1,2.25-.38c.41,0,.82,0,1.23,0H26a5.34,5.34,0,0,1,.66,1.51,6.08,6.08,0,0,1,.28,1.94H20a5.84,5.84,0,0,0-1.77.27A4.45,4.45,0,0,0,16,13.32c-.55.73-1.05,1.49-1.52,2.26,0,.05-.08.1,0,.18H25.77a.58.58,0,0,1,.23,0,10.92,10.92,0,0,1-1,2,13.33,13.33,0,0,1-1.15,1.56H13.77a.51.51,0,0,0-.32,0,.19.19,0,0,0,0,.09,3.86,3.86,0,0,0-.07,1.85,2.83,2.83,0,0,0,1.84,2.09,5.73,5.73,0,0,0,2,.37,11.66,11.66,0,0,0,1.45,0,19.42,19.42,0,0,1-6.54,2.46Z"/><path class="cls-3" d="M26,15.78a.58.58,0,0,0-.23,0H14.4c0-.08,0-.13,0-.18.47-.77,1-1.53,1.52-2.26a4.45,4.45,0,0,1,2.26-1.55A5.84,5.84,0,0,1,20,11.5h6.92a8.3,8.3,0,0,1-.33,2.67A8.27,8.27,0,0,1,26,15.78Z"/><path class="cls-3" d="M18.65,23.7a11.66,11.66,0,0,1-1.45,0,5.73,5.73,0,0,1-2-.37,2.83,2.83,0,0,1-1.84-2.09,3.86,3.86,0,0,1,.07-1.85.19.19,0,0,1,0-.09.51.51,0,0,1,.32,0H23.84a10,10,0,0,1-1.1,1.24,20.3,20.3,0,0,1-3.9,3.07Z"/><rect class="cls-3" x="46.94" y="14.91" width="5.01" height="1.48"/><path class="cls-3" d="M62.18,12.29V10.63H57.84c-.77,0-4.82-.07-4.82,4.85,0,3.55,2.11,4.91,4.87,4.91h4.34V18.6H58.06c-.43,0-2.52-.24-2.52-2.18h6.64V14.54H55.49s.22-2.25,2.3-2.25h4.39"/><path class="cls-3" d="M83.14,14.52v-1.2H80a3.16,3.16,0,0,0-3.49,3.51c0,2.58,1.52,3.56,3.52,3.56h3.14v-1.3h-3c-.32,0-1.83-.17-1.83-1.58h4.81V16.16H78.3s.16-1.64,1.66-1.64h3.18"/><path class="cls-3" d="M133.66,14.52v-1.2h-3.14A3.16,3.16,0,0,0,127,16.83c0,2.58,1.53,3.56,3.53,3.56h3.14v-1.3h-3c-.32,0-1.83-.17-1.83-1.58h4.81V16.16h-4.84s.16-1.64,1.67-1.64h3.17"/><path class="cls-3" d="M63.41,20.39V13.16H68.3c1,0,1.67,1.07,1.67,2.33v4.85H68.06v-5a.48.48,0,0,0-.52-.58H65.19v5.63H63.41"/><path class="cls-3" d="M107,20.39V13.16h4.89c1,0,1.67,1.07,1.67,2.33v4.85h-1.91v-5a.48.48,0,0,0-.53-.58h-2.34v5.63H107"/><path class="cls-3" d="M135.21,20.39V13.16h4.88c1,0,1.67,1.07,1.67,2.33v4.85h-1.9v-5a.48.48,0,0,0-.53-.58H137v5.63h-1.78"/><path class="cls-3" d="M72.1,14.82H70.53V13.2H72V10.7h1.55v2.45h2v1.67H74c-.2,0-.42,0-.42.56V18c0,.19.26.5.81.5h1.28v1.94h-2s-1.56-.05-1.56-2V14.82"/><path class="cls-3" d="M86.32,20.39H84.48v-7H86.2v.83s.73-.87,1-.87H88.5v1.47H86.32v5.62"/><path class="cls-3" d="M90.57,14.85H89V13.23H90.4V10.65H92v2.58h2v1.6H92.09v2.93c0,.36.22.69.82.69h1.16v1.94H92.24a1.56,1.56,0,0,1-1.67-1.65V14.85"/><path class="cls-3" d="M143.87,14.85h-1.54V13.23h1.38V10.65h1.6v2.58h2v1.6H145.4v2.93c0,.36.22.69.82.69h1.16v1.94h-1.83a1.56,1.56,0,0,1-1.68-1.65V14.85"/><path class="cls-3" d="M100.14,19l-2.75,0s-.83-.15-.83-.82a.9.9,0,0,1,.81-.92h2.77V19m.25-5.71H95.45v1.62L99,14.87c1.28,0,1,1.11,1,1.11H96.65A1.83,1.83,0,0,0,94.93,18c0,1.42.89,2.36,1.47,2.36h5.39V15C101.79,13.29,100.39,13.32,100.39,13.32Z"/><rect class="cls-3" x="103.61" y="13.18" width="2.15" height="7.21"/><path class="cls-3" d="M124,20.17v-5s-.07-.57-.57-.57h-2.08v5.65h-1.75V15.2a.49.49,0,0,0-.48-.47H117l0,5.66h-1.73V13.05h8.88a2.23,2.23,0,0,1,1.68,2.3v4.9H124"/><rect class="cls-3" x="103.61" y="10.67" width="2.15" height="1.7"/><path class="cls-3" d="M46.19,15.43a6.05,6.05,0,0,1-.43,2.19,4.49,4.49,0,0,1-3,2.71,7.29,7.29,0,0,1-4.41,0,4.44,4.44,0,0,1-3.06-3.11,6.56,6.56,0,0,1,0-4A4.57,4.57,0,0,1,38.83,10a7.6,7.6,0,0,1,2.38-.18,7,7,0,0,1,1.75.35,4.64,4.64,0,0,1,3,3.35A6.82,6.82,0,0,1,46.19,15.43Zm-3-.17a4.19,4.19,0,0,0-.34-1.79A2.43,2.43,0,0,0,40.07,12a2.23,2.23,0,0,0-.91.36,2.66,2.66,0,0,0-1,1.63,5.71,5.71,0,0,0,0,2.6,2.81,2.81,0,0,0,.53,1.15,2.55,2.55,0,0,0,2.9.71,2.37,2.37,0,0,0,1.36-1.36A4.66,4.66,0,0,0,43.23,15.26Z"/><path class="cls-4" d="M11.67,26.22a14,14,0,0,1-3.3.12,11,11,0,0,1-3.14-.68,7.79,7.79,0,0,1-3.18-2.18A6.94,6.94,0,0,1,.44,20a9.07,9.07,0,0,1,.5-4.47,14.19,14.19,0,0,1,2.88-4.79A20,20,0,0,1,14,4.54,15.52,15.52,0,0,1,18,4.06a11.16,11.16,0,0,1,4.72,1,7.37,7.37,0,0,1,3.06,2.66c.06.1.11.2.16.3h-5.2c-.41,0-.82,0-1.23,0a13.22,13.22,0,0,0-2.25.38A10.28,10.28,0,0,0,13,10.7a15.61,15.61,0,0,0-2.63,3.11A17.25,17.25,0,0,0,8.34,18.5,8.53,8.53,0,0,0,8.05,22a4.75,4.75,0,0,0,2.77,3.85C11.1,26,11.39,26.09,11.67,26.22Z"/><path class="cls-5" d="M11.67,26.22c-.28-.13-.57-.25-.85-.39A4.75,4.75,0,0,1,8.05,22a8.53,8.53,0,0,1,.29-3.48,17.25,17.25,0,0,1,2.07-4.69A15.61,15.61,0,0,1,13,10.7a10.28,10.28,0,0,1,4.25-2.22,13.22,13.22,0,0,1,2.25-.38c.41,0,.82,0,1.23,0H26a5.34,5.34,0,0,1,.66,1.51,6.08,6.08,0,0,1,.28,1.94H20a5.84,5.84,0,0,0-1.77.27A4.45,4.45,0,0,0,16,13.32c-.55.73-1.05,1.49-1.52,2.26,0,.05-.08.1,0,.18H25.77a.58.58,0,0,1,.23,0,10.92,10.92,0,0,1-1,2,13.33,13.33,0,0,1-1.15,1.56H13.77a.51.51,0,0,0-.32,0,.19.19,0,0,0,0,.09,3.86,3.86,0,0,0-.07,1.85,2.83,2.83,0,0,0,1.84,2.09,5.73,5.73,0,0,0,2,.37,11.66,11.66,0,0,0,1.45,0,19.42,19.42,0,0,1-6.54,2.46Z"/><path class="cls-4" d="M26,15.78a.58.58,0,0,0-.23,0H14.4c0-.08,0-.13,0-.18.47-.77,1-1.53,1.52-2.26a4.45,4.45,0,0,1,2.26-1.55A5.84,5.84,0,0,1,20,11.5h6.92a8.3,8.3,0,0,1-.33,2.67A8.27,8.27,0,0,1,26,15.78Z"/><path class="cls-4" d="M18.65,23.7a11.66,11.66,0,0,1-1.45,0,5.73,5.73,0,0,1-2-.37,2.83,2.83,0,0,1-1.84-2.09,3.86,3.86,0,0,1,.07-1.85.19.19,0,0,1,0-.09.51.51,0,0,1,.32,0H23.84a10,10,0,0,1-1.1,1.24,20.3,20.3,0,0,1-3.9,3.07Z"/><rect class="cls-4" x="46.94" y="14.91" width="5.01" height="1.48"/><path class="cls-5" d="M62.18,12.29V10.63H57.84c-.77,0-4.82-.07-4.82,4.85,0,3.55,2.11,4.91,4.87,4.91h4.34V18.6H58.06c-.43,0-2.52-.24-2.52-2.18h6.64V14.54H55.49s.22-2.25,2.3-2.25h4.39"/><path class="cls-4" d="M83.14,14.52v-1.2H80a3.16,3.16,0,0,0-3.49,3.51c0,2.58,1.52,3.56,3.52,3.56h3.14v-1.3h-3c-.32,0-1.83-.17-1.83-1.58h4.81V16.16H78.3s.16-1.64,1.66-1.64h3.18"/><path class="cls-4" d="M133.66,14.52v-1.2h-3.14A3.16,3.16,0,0,0,127,16.83c0,2.58,1.53,3.56,3.53,3.56h3.14v-1.3h-3c-.32,0-1.83-.17-1.83-1.58h4.81V16.16h-4.84s.16-1.64,1.67-1.64h3.17"/><path class="cls-4" d="M63.41,20.39V13.16H68.3c1,0,1.67,1.07,1.67,2.33v4.85H68.06v-5a.48.48,0,0,0-.52-.58H65.19v5.63H63.41"/><path class="cls-4" d="M107,20.39V13.16h4.89c1,0,1.67,1.07,1.67,2.33v4.85h-1.91v-5a.48.48,0,0,0-.53-.58h-2.34v5.63H107"/><path class="cls-4" d="M135.21,20.39V13.16h4.88c1,0,1.67,1.07,1.67,2.33v4.85h-1.9v-5a.48.48,0,0,0-.53-.58H137v5.63h-1.78"/><path class="cls-4" d="M72.1,14.82H70.53V13.2H72V10.7h1.55v2.45h2v1.67H74c-.2,0-.42,0-.42.56V18c0,.19.26.5.81.5h1.28v1.94h-2s-1.56-.05-1.56-2V14.82"/><path class="cls-4" d="M86.32,20.39H84.48v-7H86.2v.83s.73-.87,1-.87H88.5v1.47H86.32v5.62"/><path class="cls-4" d="M90.57,14.85H89V13.23H90.4V10.65H92v2.58h2v1.6H92.09v2.93c0,.36.22.69.82.69h1.16v1.94H92.24a1.56,1.56,0,0,1-1.67-1.65V14.85"/><path class="cls-4" d="M143.87,14.85h-1.54V13.23h1.38V10.65h1.6v2.58h2v1.6H145.4v2.93c0,.36.22.69.82.69h1.16v1.94h-1.83a1.56,1.56,0,0,1-1.68-1.65V14.85"/><path class="cls-4" d="M100.14,19l-2.75,0s-.83-.15-.83-.82a.9.9,0,0,1,.81-.92h2.77V19m.25-5.71H95.45v1.62L99,14.87c1.28,0,1,1.11,1,1.11H96.65A1.83,1.83,0,0,0,94.93,18c0,1.42.89,2.36,1.47,2.36h5.39V15C101.79,13.29,100.39,13.32,100.39,13.32Z"/><rect class="cls-4" x="103.61" y="13.18" width="2.15" height="7.21"/><path class="cls-4" d="M124,20.17v-5s-.07-.57-.57-.57h-2.08v5.65h-1.75V15.2a.49.49,0,0,0-.48-.47H117l0,5.66h-1.73V13.05h8.88a2.23,2.23,0,0,1,1.68,2.3v4.9H124"/><rect class="cls-4" x="103.61" y="10.67" width="2.15" height="1.7"/><path class="cls-5" d="M46.19,15.43a6.05,6.05,0,0,1-.43,2.19,4.49,4.49,0,0,1-3,2.71,7.29,7.29,0,0,1-4.41,0,4.44,4.44,0,0,1-3.06-3.11,6.56,6.56,0,0,1,0-4A4.57,4.57,0,0,1,38.83,10a7.6,7.6,0,0,1,2.38-.18,7,7,0,0,1,1.75.35,4.64,4.64,0,0,1,3,3.35A6.82,6.82,0,0,1,46.19,15.43Zm-3-.17a4.19,4.19,0,0,0-.34-1.79A2.43,2.43,0,0,0,40.07,12a2.23,2.23,0,0,0-.91.36,2.66,2.66,0,0,0-1,1.63,5.71,5.71,0,0,0,0,2.6,2.81,2.81,0,0,0,.53,1.15,2.55,2.55,0,0,0,2.9.71,2.37,2.37,0,0,0,1.36-1.36A4.66,4.66,0,0,0,43.23,15.26Z"/></g></g></svg>