<svg xmlns="http://www.w3.org/2000/svg" viewBox="0 0 170 50"><defs><style>.cls-1{fill:#009481;}.cls-2{fill:#fff;}.cls-3{fill:#182a80;}.cls-4{fill:#d1007f;}.cls-5{fill:none;}</style></defs><g id="Layer_2" data-name="Layer 2"><g id="design"><path class="cls-1" d="M21.55,45.64a6.82,6.82,0,0,1-5.72-3.77,5,5,0,0,0,3.71-1.22,4.83,4.83,0,0,0,1.25-3.26V30.66H12.55V29.48h9V26.54h-9V25H9v1.5H0v2.94H9v1.18H.75v6.75a4.41,4.41,0,0,0,1.17,3,5.12,5.12,0,0,0,3.83,1.43C4.67,44.34,2.17,45.28,0,45.65v3.5c4-.54,7.48-2.41,9-5.86v5.9h3.57v-6a10.35,10.35,0,0,0,9,6Zm-5.17-6.71H12.55V37.68h5.28a1.28,1.28,0,0,1-1.45,1.25m1.47-4.19h-5.3V33.6h5.3ZM9,34.74H3.69V33.6H9ZM3.71,37.68H9v1.25H5.79a2.5,2.5,0,0,1-1.72-.5,1.51,1.51,0,0,1-.36-.75"/><path class="cls-1" d="M23.41,29.43a9.07,9.07,0,0,1,4.13.85V27.09a13.05,13.05,0,0,0-4.13-.6Z"/><path class="cls-1" d="M45.14,31.47V28.53H40.47V25H36.94v3.49H33V25l-2.94,0a8.88,8.88,0,0,1-2.56,6.79l1.88,2.27c.23-.2.46-.41.68-.64v7.66a3.34,3.34,0,0,0,3.38,3.32H45.14V41.51H40.47V40.07h4.67V37.13H40.47V35.77h4.67V32.83H40.47V31.47Zm-8.2,10H33.41c-.22,0-.36-.15-.44-.42v-1h4Zm0-4.38H33V35.77h4Zm0-4.3H33V31.47h4Z"/><path class="cls-1" d="M29.05,43.51V36.87c0-2-1.28-3.6-2.91-3.6H23.35V36.8h2.27v6.55c0,.65-1,1.7-2.27,2.14v3.64a7.93,7.93,0,0,0,3.69-1.77,6.81,6.81,0,0,0,4.81,1.81h13.3V45.62h-13c-2,0-3.15-.72-3.15-2.11"/><path class="cls-1" d="M73.16,40.08l0-6a1.45,1.45,0,0,0-.41-.79,1.05,1.05,0,0,1-.3-.49v0s.09-.07.2-.07.35-.08.35-.59V29.32a2,2,0,0,0-.4-1.17s-.57-.56-.9-.9v0L70,25.54a1.41,1.41,0,0,0-1.18-.45H65a1.34,1.34,0,0,0-1.15.52,1.5,1.5,0,0,0-.93-.26H61.37c-.16-.17-1.49-1.46-2.42-1.46a1.15,1.15,0,0,0-.83.28,1.58,1.58,0,0,0-.48,1.08H55.58c-.16-.12-1.59-1.2-2.23-1.16,0,0-.4-.14-1,.63a16.4,16.4,0,0,1-3,2.1c-.88.22-1.2.95-1.2,2.67v2.79l0,0a8.89,8.89,0,0,1,1.23.73l-.95.75c-.24.19-.37.32-.37,1.07v3.81l2,2V46l1.89,2a8.17,8.17,0,0,0,1.83,1.77,2.21,2.21,0,0,0,1.85,0,.69.69,0,0,0,.34-.6V48s0-.19.39-.19h4l2.07,2s.23.26.91.24h.81a.87.87,0,0,0,.63-.89V47.24a.41.41,0,0,1,0-.24s.06,0,.22.16a17.67,17.67,0,0,0,2.62,2.27,3.33,3.33,0,0,0,.89.09h1.79a1.78,1.78,0,0,0,1.28-.5,2,2,0,0,0,.51-1.42s0-6.26,0-6.77l1.12-.75"/><path class="cls-1" d="M99.76,47.78V45.72a1.12,1.12,0,0,0-.27-.78L98.55,44s-.18-.09-.18-.59V42.15a.38.38,0,0,1,.16-.31.94.94,0,0,0,.55-.75V38.73a.87.87,0,0,0-.24-.67l-.69-.78V30.05a1.31,1.31,0,0,0-.34-1.13l-1.37-1.66s0-.05-.06-.08l-.1-.11h0l-1.71-1.61s-.34-.53-1.74-.53H78.06a2.48,2.48,0,0,0-1.71.5,1.85,1.85,0,0,0-.56,1.44v6.5a2.22,2.22,0,0,0,1,1.73,13.78,13.78,0,0,1-1.51.56s-1,.12-1,1.65v2.09A2.09,2.09,0,0,0,75,41.15c-.22.14-.56.54-.56,1.77v1.39c0,1,.07,1.17,1,1.94l1,1h0l1.89,1.88a1.09,1.09,0,0,0,.63.22H98.69a1.24,1.24,0,0,0,.82-.28,1,1,0,0,0,.28-.74c0-.36,0-.47,0-.51"/><path class="cls-1" d="M107.19,30.82s.83-1.17,1-1.46.18-.52-.18-.54h-5.49V25.54H121.4v2.14a3.69,3.69,0,0,1-2.06,3.13l-3.47,2.09.71.75-.43.68.27.22h6.88v3.09c0,1-1.25,7.09-7.71,7.7V42s4-.84,4.1-4.09h-5.25v7.31c0,.7-.53,3.89-3.74,3.89h-4.32V45.72h4.56V37.93h-9.49V34.57h10.74s-.4-1.59-5-3.75m6.1-.22,3-1.65h-5.55Z"/><path class="cls-1" d="M131.7,27h2.92V25h3.13v2h3.08V25H144v2h2.62v3.2H144v1h2.8v3.13H134.39v6.18A13.84,13.84,0,0,1,132,48.91l-2-1.32v1.6h-3V38.45c0-1.75-.69-.66-.69-.66l-.88,1.15V33.72c2.08-3,3.66-8.42,3.66-8.42h3.08Zm9.13,3.28H137.7v1h3.13Zm-9.56-1.68-1.15,2.67h4.43v-1h-3.28Zm0,5.8H130V45.68s1.27-1.24,1.27-4.37Z"/><path class="cls-1" d="M143.23,49l-1-2.45v2.64h-3V45.3h-1v3.85h-2.86v-12a1.72,1.72,0,0,1,1.73-1.73h7.45a1.73,1.73,0,0,1,1.73,1.73V47.34c0,1.77-3,1.7-3,1.7m-4-10.6h-1v.7h1Zm0,3.23h-1v.69h1Zm4.21-3.23h-1.18v.7h1.18Zm0,3.23h-1.18v.69h1.18Zm0,3.59h-1.19v1h1.19Z"/><path class="cls-1" d="M170,31.45V28.2h-5.3V25h-3.17V28.2h-5.34v1.65h-1.75V25h-3.05v4.81h-2.56v3.24h2.54s-.15,4.35-2.47,6.84v4.14l2.49-1.88v7h3.05V38.74l2.68,1.6a5.91,5.91,0,0,0,2.14-1.76s.4,4.5,1.78,5.93a5.4,5.4,0,0,1-3.54,1.63h-1.62v3.07s4.86-.68,6.19-1.68c1-.77.89-.92,1.89-.05a9.21,9.21,0,0,0,6,1.75V46.31s-3.71-.23-4.63-1.75a16.28,16.28,0,0,0,1.78-6.33,18.52,18.52,0,0,0,2.85,2V36.5s-3.13-3.49-2.79-5.05Zm-13.42,5s-2.1-1.5-1.85-3.38H157V31.45h1.78a7.58,7.58,0,0,1-2.19,5m5.78,3.12V36.94h-2l2-5.49h1l2.68,5.49h-1.94v2.65s-.29,2-.82,2c0,0-.76-.42-.93-2"/><path class="cls-2" d="M55.55,25.44H57.8v-.08a1.5,1.5,0,0,1,.44-1,1.1,1.1,0,0,1,.7-.25c.9,0,2.31,1.43,2.33,1.44l0,0h1.63a1.2,1.2,0,0,1,.87.27l.1.12.06-.14c.23-.57,1-.51,1-.51h3.78a1.2,1.2,0,0,1,1,.38l1.69,1.64v2.75c0,.81-.61.82-.64.82s-.36,0-.41.19,0,0,0,.06.17.28.22.33l.82.86a1.51,1.51,0,0,1,.21.81V35a1.29,1.29,0,0,1-.33.95,1.14,1.14,0,0,1-.76.3H70.5v9.16c0,1.51-.72,2.27-2.13,2.27H66.51a2.47,2.47,0,0,1-.84-.2l-1.55-1.56,0,0H63v1.39a.68.68,0,0,1-.47.6,2.1,2.1,0,0,1-1.9-.19l-1.79-1.87H54.21V47.2a.87.87,0,0,1-.59.78,1.77,1.77,0,0,1-1.55,0l-1.88-2V40.58l-1.95-2V34.86c0-.69.11-.78.3-.92L49.68,33,49.59,33a8.63,8.63,0,0,0-1.31-.8V29.49c0-1.61.28-2.29,1.06-2.49a16.78,16.78,0,0,0,3.12-2.14c.55-.68.86-.59.86-.59a5.78,5.78,0,0,1,2.17,1.15l0,0Z"/><path class="cls-2" d="M75.55,46.11c-.87-.75-.9-.92-.9-1.8V42.92c0-1.55.55-1.65.56-1.66l.34,0-.32-.13c-.79-.3-.84-1.43-.84-1.69a.12.12,0,0,1,0,0v-2c0-1.35.84-1.46.88-1.46A9.71,9.71,0,0,0,77,35.21l.13-.09L77,35a2,2,0,0,1-1-1.66v-6.5a1.65,1.65,0,0,1,.5-1.3A2.28,2.28,0,0,1,78,25.13H92.82c1.28,0,1.6.46,1.6.46l1.79,1.69a1.39,1.39,0,0,1,.24.83v7.24a.54.54,0,0,0,.29.47h0l.4.44a1.62,1.62,0,0,1,.28,1V39a1.26,1.26,0,0,1-.38.86c-.32.2-.36.39-.36.48V42a1.88,1.88,0,0,0,.66,1.17l.17.19a1.31,1.31,0,0,1,.24.81v1.94c0,.77-.46,1.13-1.44,1.13l-19.54,0-1.22-1.18"/><path class="cls-1" d="M94.73,42.28H87c-.29,0-.78-.06-.78-.31v-.45s0-.12.37-.23h7.12a.67.67,0,0,0,.67-.66v-1.3a.67.67,0,0,0-.67-.66H87c-.3,0-.79-.06-.78-.31V38s0-.29.56-.4H94.3a.65.65,0,0,0,.66-.66v-1a.66.66,0,0,0-.66-.67H87.15c-.05,0-.91,0-.91-.36V34.6s0-.49.67-.54h6.43A.66.66,0,0,0,94,33.4V26.79a.67.67,0,0,0-.67-.66h-16a.67.67,0,0,0-.67.66V33.4a.66.66,0,0,0,.67.66h2c.19.06.36.19.2.42A6.6,6.6,0,0,1,76,36.65s-.83-.06-.83,1v1.83s0,.7.91.2c0,0,1.16-.81,1.34-.66,0,0,.12-.09.12.36v1.26a.67.67,0,0,0,.66.66H85c.12.06.22.12.23.25V42s0,.32-.57.32H76.14a.67.67,0,0,0-.66.66v1.37a.66.66,0,0,0,.66.66H94.73a.66.66,0,0,0,.66-.66V42.94a.67.67,0,0,0-.66-.66M78.13,28.22H92.7a.55.55,0,0,1,0,1.1H78.13a.55.55,0,0,1,0-1.1m0,3.91a.55.55,0,0,1,0-1.09H92.7a.55.55,0,1,1,0,1.09Zm7.12,2.43v.29s0,.38-.63.38H80.93s-.57-.15-.33-.54.33-.52.39-.63H84.7c.16,0,.55.1.55.5m-7,4.11s-.5-.1-.18-.41c0,0,.62-.74,1-.72a.64.64,0,0,0,.28.06h5.49c.18,0,.43.17.44.43v.31s0,.33-.63.33Z"/><path class="cls-1" d="M50,27.83s-.85,0-.85,1v1.51c0,.49.18.89.9.33,0,0,1.83-1,3.64-4.63.49-1-.29-.76-.66-.38a7.09,7.09,0,0,1-3,2.13"/><path class="cls-1" d="M63.52,41.34H61.31c-.26,0-.66-.1-.66-.29,0,0,0-.24,0-.34s-.06-.39.61-.39h1.89a.6.6,0,0,0,.61-.6v-.83a.6.6,0,0,0-.61-.6h-1.6c-.09,0-.9,0-.9-.28v-.23c0-.1-.06-.39.61-.39h1.56a.6.6,0,0,0,.61-.6V33.3a.61.61,0,0,0-.61-.61H54.64a.6.6,0,0,0-.6.61v3.49a.6.6,0,0,0,.6.6h4.6s.55,0,.54.34V38s0,.34-.55.34h-4.8a.6.6,0,0,0-.61.6v.83a.6.6,0,0,0,.61.6h1.51s.55,0,.54.34V41s0,.25-.34.35H53.32a.6.6,0,0,0-.61.6v.92a.6.6,0,0,0,.61.6h6.24c.16,0,.32.19.32.52v1.35c0,.16.07.28.36.28,0,0,.4,0,.41-.25V44s0-.51.36-.52h2.51a.6.6,0,0,0,.6-.6v-.92a.6.6,0,0,0-.6-.6m-8.24-5.82a.41.41,0,0,1-.4-.41.4.4,0,0,1,.4-.41h7a.4.4,0,0,1,.4.41.41.41,0,0,1-.4.41Zm1.88,5.56s0-.32,0-.42-.06-.34.62-.34h1.45s.55,0,.54.34V41s0,.25-.35.35H57.64c-.23,0-.48-.11-.48-.26"/><rect class="cls-1" x="64.37" y="26.29" width="4.76" height="2.36" rx="0.6"/><path class="cls-1" d="M68.65,31.35H64.78a.61.61,0,0,0-.61.61v1.2a.6.6,0,0,0,.61.6h1.79s.67,0,.67.58v7.42c0,.18-.08,1.05-.75,1H65.06a.6.6,0,0,0-.6.6v1.22a.6.6,0,0,0,.6.6h1.69a1.24,1.24,0,0,0,1.34-1.3V34.37s0-.61.38-.61h.18a.6.6,0,0,0,.61-.6V32a.61.61,0,0,0-.61-.61"/><path class="cls-1" d="M66.31,36.43a.24.24,0,0,0-.24-.24.24.24,0,0,0-.24.24v2.16h0s0,.26-.16.34.51.47.51.81v.69s0,0,.07,0a0,0,0,0,0,.06,0Z"/><path class="cls-1" d="M64.05,29.67H64s-.52,0-.52-.35V27a.4.4,0,0,0-.4-.4H59.91c-.67,0-.53-.4-.53-.4.06-.15.16-.5.16-.5a.33.33,0,0,0-.21-.46.43.43,0,0,0-.56.2s-.07.19-.28.67a.74.74,0,0,1-.65.49H54.72a.4.4,0,0,0-.4.4V28.3a.4.4,0,0,0,.4.4H57.1c.12,0,.27.1.22.36,0,0,0,.61-.89.61H53.87a.4.4,0,0,0-.4.4v1.37a.44.44,0,0,0,.07.22.35.35,0,0,1-.07-.21v-.83c0,.2-.18.34-.27.31s-.44.07-.77.55A9.63,9.63,0,0,1,50,34.06a1.18,1.18,0,0,0-.78,1.24v2.41c0,.5.46.71.85.22.18-.23.33-.44.48-.64s.52-.51.52,0v8.14a.2.2,0,0,0,.2.2h.44a.2.2,0,0,0,.21-.2V34.94c.34-.79.7-1.81,1.25-3.11.12-.27.28-.21.42-.16a.39.39,0,0,0,.33.17H64.05a.4.4,0,0,0,.4-.4V30.07a.4.4,0,0,0-.4-.4m-2,0h-3c-.38,0-1-.1-.86-.47a.65.65,0,0,1,.64-.5h3.24a.49.49,0,0,1,0,1"/><path class="cls-3" d="M10.15,18.09a12.12,12.12,0,0,1-2.69.1,9.45,9.45,0,0,1-2.57-.56,6.48,6.48,0,0,1-2.6-1.78A5.76,5.76,0,0,1,1,13a7.43,7.43,0,0,1,.41-3.65A11.48,11.48,0,0,1,3.74,5.41,16.21,16.21,0,0,1,12,.4,11.94,11.94,0,0,1,15.34,0a9.16,9.16,0,0,1,3.85.85A6,6,0,0,1,21.69,3l.13.24H17.57c-.33,0-.66,0-1,0a10.56,10.56,0,0,0-1.84.31,8.29,8.29,0,0,0-3.46,1.81A12.43,12.43,0,0,0,9.12,8a13.81,13.81,0,0,0-1.69,3.83,7,7,0,0,0-.24,2.83,3.9,3.9,0,0,0,2.26,3.15Z"/><path class="cls-4" d="M10.15,18.09l-.7-.32a3.9,3.9,0,0,1-2.26-3.15,7,7,0,0,1,.24-2.83A13.81,13.81,0,0,1,9.12,8a12.43,12.43,0,0,1,2.15-2.54,8.29,8.29,0,0,1,3.46-1.81,10.56,10.56,0,0,1,1.84-.31c.34,0,.67,0,1,0h4.25a4.58,4.58,0,0,1,.54,1.24,5,5,0,0,1,.23,1.58H16.93a4.43,4.43,0,0,0-1.44.23,3.47,3.47,0,0,0-1.84,1.26c-.45.59-.86,1.21-1.25,1.84,0,0-.06.08,0,.15h9.28a.43.43,0,0,1,.19,0A8.54,8.54,0,0,1,21,11.15a9.72,9.72,0,0,1-.93,1.28H11.86a.47.47,0,0,0-.26,0l0,.07A3.22,3.22,0,0,0,11.52,14,2.27,2.27,0,0,0,13,15.75a4.82,4.82,0,0,0,1.64.31,11.82,11.82,0,0,0,1.19,0,16,16,0,0,1-5.35,2Z"/><path class="cls-3" d="M21.85,9.57a.43.43,0,0,0-.19,0H12.38c0-.07,0-.11,0-.15.39-.63.8-1.25,1.25-1.84A3.47,3.47,0,0,1,15.49,6.3a4.43,4.43,0,0,1,1.44-.23h5.66a7.29,7.29,0,0,1-.27,2.18A7.57,7.57,0,0,1,21.85,9.57Z"/><path class="cls-3" d="M15.85,16a11.82,11.82,0,0,1-1.19,0A4.82,4.82,0,0,1,13,15.75,2.27,2.27,0,0,1,11.52,14a3.22,3.22,0,0,1,.05-1.51l0-.07a.47.47,0,0,1,.26,0h8.22a8.65,8.65,0,0,1-.9,1A16.2,16.2,0,0,1,16,16Z"/><rect class="cls-3" x="38.93" y="8.86" width="4.09" height="1.21"/><path class="cls-4" d="M51.37,6.72V5.36H47.83c-.63,0-3.93-.06-3.93,4,0,2.9,1.72,4,4,4h3.54V11.86H48c-.36,0-2.06-.19-2.06-1.77h5.42V8.56H45.91s.18-1.84,1.88-1.84h3.58"/><path class="cls-3" d="M68.47,8.54v-1H65.91a2.58,2.58,0,0,0-2.85,2.86,2.6,2.6,0,0,0,2.88,2.91H68.5V12.27H66c-.26,0-1.49-.14-1.49-1.29h3.92V9.87h-4s.13-1.33,1.36-1.33h2.59"/><path class="cls-3" d="M109.71,8.54v-1h-2.57a2.57,2.57,0,0,0-2.84,2.86,2.6,2.6,0,0,0,2.87,2.91h2.57V12.27h-2.47c-.26,0-1.49-.14-1.49-1.29h3.93V9.87h-4s.13-1.33,1.37-1.33h2.59"/><path class="cls-3" d="M52.37,13.33V7.43h4c.79,0,1.37.87,1.37,1.9v3.95H56.17V9.21a.39.39,0,0,0-.43-.48H53.83v4.6H52.37"/><path class="cls-3" d="M87.92,13.33V7.43h4c.79,0,1.37.87,1.37,1.9v3.95H91.72V9.21a.39.39,0,0,0-.43-.48H89.38v4.6H87.92"/><path class="cls-3" d="M111,13.33V7.43h4c.78,0,1.36.87,1.36,1.9v3.95h-1.56V9.21a.39.39,0,0,0-.43-.48h-1.91v4.6H111"/><path class="cls-3" d="M59.46,8.78H58.19V7.46h1.2v-2h1.27v2h1.66V8.78H61.05c-.17,0-.34,0-.34.46v2.09c0,.16.2.42.66.42h1.05v1.58H60.74s-1.28,0-1.28-1.65V8.78"/><path class="cls-3" d="M71.07,13.33h-1.5V7.58H71v.67s.6-.71.85-.71h1v1.2H71.07v4.59"/><path class="cls-3" d="M74.54,8.81H73.28V7.49H74.4V5.38h1.31V7.49h1.63v1.3H75.78v2.39c0,.3.18.56.67.56h1v1.59H75.9A1.28,1.28,0,0,1,74.54,12V8.81"/><path class="cls-3" d="M118,8.81h-1.26V7.49h1.13V5.38h1.3V7.49h1.64v1.3h-1.56v2.39c0,.3.18.56.66.56h1v1.59h-1.49A1.28,1.28,0,0,1,118,12V8.81"/><path class="cls-3" d="M82.35,12.22l-2.24,0s-.68-.13-.68-.67a.73.73,0,0,1,.66-.75h2.26v1.38m.21-4.66h-4V8.88l2.88-.06c1,0,.83.91.83.91H79.5a1.5,1.5,0,0,0-1.41,1.67c0,1.16.73,1.93,1.2,1.93H83.7V8.91C83.7,7.53,82.56,7.56,82.56,7.56Z"/><rect class="cls-3" x="85.18" y="7.44" width="1.76" height="5.89"/><path class="cls-3" d="M101.8,13.15V9.09s-.06-.46-.46-.46H99.63v4.61H98.21V9.09a.41.41,0,0,0-.39-.38H96.1v4.62H94.7v-6H102a1.84,1.84,0,0,1,1.37,1.88v4h-1.53"/><rect class="cls-3" x="85.18" y="5.4" width="1.76" height="1.38"/><path class="cls-4" d="M38.32,9.28A5,5,0,0,1,38,11.07a3.65,3.65,0,0,1-2.43,2.21,5.94,5.94,0,0,1-3.59,0,3.65,3.65,0,0,1-2.51-2.53,5.43,5.43,0,0,1,0-3.24,3.75,3.75,0,0,1,2.87-2.65,5.75,5.75,0,0,1,1.94-.14A5.33,5.33,0,0,1,35.68,5a3.77,3.77,0,0,1,2.47,2.73A5.59,5.59,0,0,1,38.32,9.28Zm-2.41-.14a3.61,3.61,0,0,0-.28-1.46,2,2,0,0,0-2.3-1.17,1.66,1.66,0,0,0-.74.3,2.09,2.09,0,0,0-.85,1.33,4.6,4.6,0,0,0,0,2.12,2.51,2.51,0,0,0,.43.94,2.09,2.09,0,0,0,2.37.58,1.93,1.93,0,0,0,1.11-1.11A3.88,3.88,0,0,0,35.91,9.14Z"/><rect class="cls-5" width="170" height="50"/></g></g></svg>